<svg width="144" height="130" viewBox="0 0 144 130" fill="none" xmlns="http://www.w3.org/2000/svg">
<path d="M87.3379 23.8451C66.7832 11.9017 46.5273 12.5937 35.9865 27.2803C8.23716 64.5592 37.9623 94.4084 60.9893 98.7999C73.408 101.168 79.031 86.0524 88.1576 92.6312C109.22 107.814 130.273 94.7251 128.078 74.3592C124.247 57.1552 117.391 41.3075 87.3379 23.8451Z" fill="#EBF6F8"/>
<path d="M35.1177 43.623L68.1281 71.4262M120.882 43.623L87.0467 71.4262M87.0467 71.4262L81.3272 76.126C79.0923 77.9625 75.8652 77.9429 73.6528 76.0795L68.1281 71.4262M87.0467 71.4262L106.588 89.2623M68.1281 71.4262L49.9412 89.2623" stroke="#26366E" stroke-width="2" stroke-linecap="round"/>
<path d="M39 42H117C119.761 42 122 44.2386 122 47V99C122 101.761 119.761 104 117 104H39C36.2386 104 34 101.761 34 99V47C34 44.2386 36.2386 42 39 42Z" stroke="#26366E" stroke-width="2" stroke-linecap="round"/>
<path d="M27 64H4" stroke="#26366E" stroke-width="2" stroke-linecap="round"/>
<path d="M27 76H8.5" stroke="#26366E" stroke-width="2" stroke-linecap="round"/>
<path d="M27 88L1 88" stroke="#26366E" stroke-width="2" stroke-linecap="round"/>
</svg>
