<svg width="58" height="55" viewBox="0 0 58 55" fill="none" xmlns="http://www.w3.org/2000/svg">
<path d="M33.8347 9.94393C25.2252 4.9413 16.7408 5.23115 12.3257 11.3828C0.702609 26.9974 13.1533 39.5 22.7983 41.3394C28 42.3314 30.3553 36 34.178 38.7556C43 45.1149 51.8186 39.6326 50.899 31.1022C49.2946 23.8961 46.4225 17.2582 33.8347 9.94393Z" fill="#EBF6F8"/>
<path fill-rule="evenodd" clip-rule="evenodd" d="M37 11H22C20.8954 11 20 11.8954 20 13V45C20 46.1046 20.8954 47 22 47H37C38.1046 47 39 46.1046 39 45V13C39 11.8954 38.1046 11 37 11ZM22 10C20.3431 10 19 11.3431 19 13V45C19 46.6569 20.3431 48 22 48H37C38.6569 48 40 46.6569 40 45V13C40 11.3431 38.6569 10 37 10H22Z" fill="#26366E"/>
<path fill-rule="evenodd" clip-rule="evenodd" d="M19.5 41.5208C19.5 41.2446 19.7239 41.0208 20 41.0208H39C39.2761 41.0208 39.5 41.2446 39.5 41.5208C39.5 41.7969 39.2761 42.0208 39 42.0208H20C19.7239 42.0208 19.5 41.7969 19.5 41.5208Z" fill="#26366E"/>
<path fill-rule="evenodd" clip-rule="evenodd" d="M19.5 14.9032C19.5 14.6271 19.7239 14.4032 20 14.4032H39C39.2761 14.4032 39.5 14.6271 39.5 14.9032C39.5 15.1793 39.2761 15.4032 39 15.4032H20C19.7239 15.4032 19.5 15.1793 19.5 14.9032ZM27.378 44.4977C27.378 44.2215 27.6019 43.9977 27.878 43.9977H31.122C31.3981 43.9977 31.622 44.2215 31.622 44.4977C31.622 44.7738 31.3981 44.9977 31.122 44.9977H27.878C27.6019 44.9977 27.378 44.7738 27.378 44.4977Z" fill="#26366E"/>
</svg>
