<svg width="136" height="130" viewBox="0 0 136 130" fill="none" xmlns="http://www.w3.org/2000/svg">
<path d="M79.3379 23.845C58.7832 11.9015 38.5273 12.5935 27.9865 27.2802C0.23716 64.5591 29.9623 94.4083 52.9893 98.7998C65.408 101.168 71.031 86.0523 80.1576 92.6311C101.22 107.814 122.273 94.725 120.078 74.3591C116.247 57.155 109.391 41.3074 79.3379 23.845Z" fill="#EBF6F8"/>
<path d="M85.8599 51C90.3135 42.758 81.4063 29.1269 69 36.101M93.1765 49.732C96.9938 33.565 80.1339 23.7379 69 28.176M100.493 49.098C104.31 32.9309 85.8599 15.1789 69 21.202" stroke="#26366E" stroke-width="2" stroke-linecap="round"/>
<path d="M45.2941 37.5696L76.6711 43.8531C77.7542 44.07 78.4563 45.1238 78.2394 46.2069L77.0803 51.9952L67.5899 99.3861L65.8688 107.98C65.6519 109.063 64.5981 109.766 63.515 109.549L32.138 103.265C31.0549 103.048 30.3527 101.995 30.5696 100.911L32.2907 92.3171L41.7811 44.9263L42.9403 39.138C43.1572 38.0549 44.211 37.3527 45.2941 37.5696Z" stroke="#26366E" stroke-width="2" stroke-linecap="round"/>
<path d="M67.4397 100.136L33.1211 93.2636" stroke="#26366E" stroke-width="2" stroke-linecap="round"/>
<path d="M77.0613 52.0901L42.7427 45.2175M46.3689 101.016L52.2282 102.189" stroke="#26366E" stroke-width="2" stroke-linecap="round"/>
</svg>
