<svg width="68" height="58" viewBox="0 0 68 58" fill="none" xmlns="http://www.w3.org/2000/svg">
<path d="M37.3454 11.9442C28.7359 6.94154 20.2515 7.2314 15.8364 13.383C4.21335 28.9976 16.664 41.5002 26.3091 43.3397C31.5107 44.3317 33.866 38.0002 37.6888 40.7559C46.5107 47.1152 55.3293 41.6329 54.4097 33.1025C52.8053 25.8964 49.9332 19.2584 37.3454 11.9442Z" fill="#EBF6F8"/>
<path fill-rule="evenodd" clip-rule="evenodd" d="M31.9775 36.5001C43.2646 36.5001 54.4529 40.1946 61.3669 47.6604C61.5545 47.863 61.5423 48.1793 61.3397 48.367C61.1371 48.5546 60.8208 48.5425 60.6332 48.3399C53.9644 41.1389 43.0808 37.5001 31.9775 37.5001C20.8769 37.5001 9.66236 41.1381 2.35128 48.3559C2.15477 48.5499 1.83819 48.5479 1.64418 48.3514C1.45018 48.1549 1.45221 47.8383 1.64872 47.6443C9.19375 40.1955 20.6879 36.5001 31.9775 36.5001Z" fill="#26366E"/>
<path fill-rule="evenodd" clip-rule="evenodd" d="M42 19.5004C31.9456 19.5004 23.7644 27.5213 23.5063 37.5133L22.5066 37.4875C22.7787 26.9548 31.4019 18.5004 42 18.5004C52.7695 18.5004 61.5 27.2308 61.5 38.0004C61.5 40.9326 60.8525 43.7149 59.6921 46.211L58.7853 45.7895C59.8855 43.4227 60.5 40.784 60.5 38.0004C60.5 27.7831 52.2172 19.5004 42 19.5004Z" fill="#26366E"/>
<path fill-rule="evenodd" clip-rule="evenodd" d="M41.1943 8.45988C41.4704 8.452 41.7005 8.66939 41.7084 8.94542L41.9134 16.1293C41.9213 16.4054 41.7039 16.6355 41.4279 16.6434C41.1518 16.6513 40.9217 16.4339 40.9138 16.1578L40.7088 8.97394C40.7009 8.69791 40.9183 8.46776 41.1943 8.45988ZM27.1102 12.6383C27.3421 12.4883 27.6516 12.5546 27.8016 12.7865L31.6764 18.7763C31.8263 19.0082 31.76 19.3177 31.5281 19.4677C31.2962 19.6177 30.9867 19.5513 30.8367 19.3195L26.962 13.3296C26.812 13.0978 26.8784 12.7882 27.1102 12.6383ZM55.2872 11.841C55.5237 11.9836 55.5997 12.2909 55.4571 12.5274L51.7125 18.7346C51.5699 18.9711 51.2626 19.0471 51.0261 18.9045C50.7897 18.7619 50.7136 18.4545 50.8563 18.2181L54.6008 12.0108C54.7435 11.7744 55.0508 11.6983 55.2872 11.841ZM17.4351 22.6508C17.5817 22.4168 17.8902 22.3458 18.1243 22.4924L24.1138 26.2432C24.3479 26.3897 24.4188 26.6983 24.2722 26.9323C24.1257 27.1663 23.8171 27.2373 23.5831 27.0907L17.5935 23.3399C17.3595 23.1934 17.2886 22.8848 17.4351 22.6508ZM63.7898 22.1995C63.9494 22.4248 63.8962 22.7368 63.6709 22.8965L59.1863 26.0747C58.961 26.2344 58.6489 26.1811 58.4893 25.9558C58.3296 25.7305 58.3828 25.4185 58.6081 25.2588L63.0927 22.0806C63.318 21.9209 63.6301 21.9742 63.7898 22.1995ZM13.6205 34.9809C13.6126 34.7049 13.83 34.4747 14.106 34.4668L21.2899 34.2618C21.566 34.2539 21.7961 34.4713 21.804 34.7474C21.8119 35.0234 21.5945 35.2535 21.3185 35.2614L14.1346 35.4664C13.8585 35.4743 13.6284 35.2569 13.6205 34.9809ZM60.8601 35.6328C60.8523 35.3568 61.0696 35.1266 61.3457 35.1187L66.5703 34.9697C66.8464 34.9618 67.0765 35.1792 67.0844 35.4552C67.0923 35.7312 66.8749 35.9614 66.5989 35.9692L61.3742 36.1183C61.0982 36.1262 60.868 35.9088 60.8601 35.6328Z" fill="#26366E"/>
</svg>
