<svg width="59" height="58" viewBox="0 0 59 58" fill="none" xmlns="http://www.w3.org/2000/svg">
<path d="M34.3454 11.9442C25.7359 6.94154 17.2515 7.2314 12.8364 13.383C1.21335 28.9976 13.664 41.5002 23.3091 43.3397C28.5107 44.3317 30.866 38.0002 34.6888 40.7559C43.5107 47.1152 52.3293 41.6329 51.4097 33.1025C49.8053 25.8964 46.9332 19.2584 34.3454 11.9442Z" fill="#5770BE"/>
<path fill-rule="evenodd" clip-rule="evenodd" d="M29.8206 8.97713C30.0967 8.96925 30.3268 9.18663 30.3347 9.46266L30.4953 15.092C30.5032 15.368 30.2858 15.5982 30.0098 15.6061C29.7338 15.6139 29.5036 15.3966 29.4957 15.1205L29.3351 9.49119C29.3272 9.21516 29.5446 8.98501 29.8206 8.97713ZM18.7286 12.2686C18.9604 12.1186 19.27 12.185 19.42 12.4169L22.4562 17.1105C22.6062 17.3424 22.5398 17.6519 22.308 17.8019C22.0761 17.9519 21.7666 17.8855 21.6166 17.6537L18.5803 12.96C18.4303 12.7282 18.4967 12.4186 18.7286 12.2686ZM40.9228 11.6421C41.1593 11.7847 41.2353 12.092 41.0927 12.3285L38.1584 17.1925C38.0158 17.4289 37.7085 17.505 37.472 17.3624C37.2356 17.2197 37.1595 16.9124 37.3022 16.676L40.2364 11.8119C40.3791 11.5755 40.6864 11.4994 40.9228 11.6421ZM11.1142 20.1479C11.2608 19.9139 11.5693 19.843 11.8033 19.9895L16.4968 22.9286C16.7308 23.0752 16.8017 23.3837 16.6552 23.6178C16.5086 23.8518 16.2001 23.9227 15.9661 23.7762L11.2726 20.837C11.0386 20.6905 10.9677 20.3819 11.1142 20.1479ZM47.6178 19.7891C47.7775 20.0144 47.7243 20.3265 47.499 20.4861L43.9848 22.9766C43.7595 23.1362 43.4475 23.083 43.2878 22.8577C43.1281 22.6324 43.1813 22.3204 43.4066 22.1607L46.9208 19.6703C47.1461 19.5106 47.4582 19.5638 47.6178 19.7891ZM8.10861 31.4375C8.10073 31.1615 8.31811 30.9313 8.59414 30.9235L14.2235 30.7628C14.4995 30.7549 14.7297 30.9723 14.7375 31.2484C14.7454 31.5244 14.528 31.7545 14.252 31.7624L8.62267 31.9231C8.34664 31.9309 8.11648 31.7136 8.10861 31.4375ZM45.1257 30.3812C45.1179 30.1051 45.3352 29.875 45.6113 29.8671L49.7053 29.7503C49.9814 29.7424 50.2115 29.9598 50.2194 30.2358C50.2273 30.5118 50.0099 30.742 49.7338 30.7499L45.6398 30.8667C45.3638 30.8746 45.1336 30.6572 45.1257 30.3812Z" fill="#FFF"/>
<path fill-rule="evenodd" clip-rule="evenodd" d="M30.4547 44.5544C37.6923 44.5544 43.5596 38.6872 43.5596 31.4496C43.5596 24.212 37.6923 18.3447 30.4547 18.3447C23.2171 18.3447 17.3499 24.212 17.3499 31.4496C17.3499 38.6872 23.2171 44.5544 30.4547 44.5544ZM30.4547 45.5544C38.2446 45.5544 44.5596 39.2395 44.5596 31.4496C44.5596 23.6597 38.2446 17.3447 30.4547 17.3447C22.6648 17.3447 16.3499 23.6597 16.3499 31.4496C16.3499 39.2395 22.6648 45.5544 30.4547 45.5544Z" fill="#FFF"/>
<path fill-rule="evenodd" clip-rule="evenodd" d="M29.8205 54.6761C30.0965 54.684 30.3267 54.4666 30.3346 54.1906L30.4952 48.5612C30.5031 48.2852 30.2857 48.0551 30.0097 48.0472C29.7336 48.0393 29.5035 48.2567 29.4956 48.5327L29.335 54.162C29.3271 54.4381 29.5445 54.6682 29.8205 54.6761ZM18.7285 51.3846C18.9603 51.5346 19.2699 51.4682 19.4199 51.2364L22.4561 46.5427C22.6061 46.3109 22.5397 46.0013 22.3079 45.8513C22.076 45.7013 21.7665 45.7677 21.6165 45.9996L18.5802 50.6932C18.4302 50.9251 18.4966 51.2346 18.7285 51.3846ZM40.9227 52.0112C41.1592 51.8685 41.2352 51.5612 41.0926 51.3248L38.1583 46.4607C38.0157 46.2243 37.7084 46.1482 37.4719 46.2909C37.2355 46.4335 37.1594 46.7408 37.3021 46.9773L40.2363 51.8413C40.3789 52.0778 40.6863 52.1538 40.9227 52.0112ZM11.1141 43.5053C11.2607 43.7394 11.5692 43.8103 11.8032 43.6637L16.4967 40.7246C16.7307 40.5781 16.8016 40.2695 16.6551 40.0355C16.5085 39.8014 16.2 39.7305 15.9659 39.8771L11.2725 42.8162C11.0385 42.9628 10.9675 43.2713 11.1141 43.5053ZM47.6177 43.8641C47.7774 43.6388 47.7242 43.3268 47.4989 43.1671L43.9847 40.6767C43.7594 40.517 43.4473 40.5702 43.2877 40.7955C43.128 41.0208 43.1812 41.3329 43.4065 41.4926L46.9207 43.983C47.146 44.1426 47.458 44.0894 47.6177 43.8641Z" fill="#FFF"/>
</svg>
