<svg width="71" height="58" viewBox="0 0 71 58" fill="none" xmlns="http://www.w3.org/2000/svg">
<path d="M44.3454 11.9439C35.7359 6.9413 27.2515 7.23115 22.8364 13.3828C11.2134 28.9974 23.664 41.5 33.3091 43.3394C38.5107 44.3314 40.866 38 44.6888 40.7556C53.5107 47.1149 62.3293 41.6326 61.4097 33.1022C59.8053 25.8961 56.9332 19.2582 44.3454 11.9439Z" fill="#5770BE"/>
<path fill-rule="evenodd" clip-rule="evenodd" d="M39.9775 36.4998C51.2646 36.4998 62.4529 40.1943 69.3669 47.66C69.5545 47.8626 69.5423 48.179 69.3397 48.3666C69.1371 48.5542 68.8208 48.5421 68.6332 48.3395C61.9644 41.1386 51.0808 37.4998 39.9775 37.4998C28.8769 37.4998 17.6624 41.1377 10.3513 48.3556C10.1548 48.5496 9.83819 48.5475 9.64418 48.351C9.45018 48.1545 9.45221 47.8379 9.64872 47.6439C17.1938 40.1951 28.6879 36.4998 39.9775 36.4998Z" fill="#FFF"/>
<path fill-rule="evenodd" clip-rule="evenodd" d="M30 19.4998C19.7827 19.4998 11.5 27.7825 11.5 37.9998C11.5 40.5941 12.0337 43.0626 12.9969 45.3022L12.0783 45.6973C11.0624 43.3351 10.5 40.7325 10.5 37.9998C10.5 27.2302 19.2304 18.4998 30 18.4998C40.7696 18.4998 49.5 27.2302 49.5 37.9998L48.5 37.9998C48.5 27.7825 40.2173 19.4998 30 19.4998Z" fill="#FFF"/>
<path fill-rule="evenodd" clip-rule="evenodd" d="M29.1945 8.45972C29.4705 8.45184 29.7007 8.66922 29.7085 8.94525L29.9136 16.1292C29.9214 16.4052 29.7041 16.6353 29.428 16.6432C29.152 16.6511 28.9218 16.4337 28.914 16.1577L28.709 8.97378C28.7011 8.69775 28.9185 8.4676 29.1945 8.45972ZM15.1104 12.6381C15.3422 12.4881 15.6518 12.5545 15.8017 12.7863L19.6765 18.7762C19.8265 19.008 19.7601 19.3176 19.5283 19.4676C19.2964 19.6175 18.9868 19.5512 18.8369 19.3193L14.9621 13.3295C14.8121 13.0976 14.8785 12.7881 15.1104 12.6381ZM43.2874 11.8408C43.5238 11.9834 43.5999 12.2908 43.4572 12.5272L39.7127 18.7345C39.57 18.9709 39.2627 19.047 39.0263 18.9043C38.7898 18.7617 38.7138 18.4544 38.8564 18.2179L42.601 12.0107C42.7436 11.7742 43.0509 11.6982 43.2874 11.8408ZM5.43527 22.6506C5.58183 22.4166 5.89037 22.3457 6.12441 22.4922L12.114 26.243C12.348 26.3896 12.4189 26.6981 12.2724 26.9321C12.1258 27.1662 11.8173 27.2371 11.5832 27.0905L5.59367 23.3398C5.35963 23.1932 5.28871 22.8847 5.43527 22.6506ZM51.7899 22.1993C51.9496 22.4246 51.8964 22.7367 51.6711 22.8963L47.1865 26.0745C46.9612 26.2342 46.6491 26.181 46.4894 25.9557C46.3298 25.7304 46.383 25.4183 46.6083 25.2586L51.0929 22.0805C51.3182 21.9208 51.6303 21.974 51.7899 22.1993ZM1.62064 36.9807C1.61277 36.7047 1.83015 36.4745 2.10618 36.4667L9.29009 36.2617C9.56612 36.2538 9.79627 36.4712 9.80414 36.7472C9.81202 37.0232 9.59464 37.2534 9.31861 37.2613L2.1347 37.4663C1.85867 37.4741 1.62852 37.2568 1.62064 36.9807ZM48.8603 35.6326C48.8524 35.3566 49.0698 35.1265 49.3458 35.1186L54.5705 34.9695C54.8465 34.9616 55.0767 35.179 55.0845 35.455C55.0924 35.7311 54.875 35.9612 54.599 35.9691L49.3743 36.1182C49.0983 36.1261 48.8682 35.9087 48.8603 35.6326Z" fill="#FFF"/>
</svg>
