<svg width="52" height="40" viewBox="0 0 52 40" fill="none" xmlns="http://www.w3.org/2000/svg">
<path d="M29.1236 20.4669C29.8197 18.4417 27.7315 17.0916 25.9914 18.4417C25.9914 19.1167 24.2514 21.1419 22.8593 21.4794C21.7456 21.7495 20.7712 20.9169 20.4232 20.4669C27.3835 17.0916 24.5994 9.666 19.0312 9.666C13.4628 9.32848 11.7227 16.079 15.5513 20.1293C12.0708 23.1671 12.7669 33.5696 31.2121 34.643C36.0841 34.9265 38.1725 29.5801 32.6042 26.8799C38.5201 26.5423 40.6082 24.247 38.8685 21.817C37.4761 22.492 32.9518 22.7165 30.1681 21.817C29.8199 21.7044 29.1236 21.2769 29.1236 20.4669ZM29.1236 20.4669C28.055 22.5397 27.2542 23.6383 26.3395 24.247M21.4672 25.1922C23.8115 25.0028 25.1688 25.026 26.3395 24.247M26.3395 24.247C25.6434 25.1922 25.9914 26.8799 26.3395 27.8924" stroke="#5770BE" stroke-linecap="round"/>
<path d="M38.415 1C33.3129 5.46158 20.0476 5.80478 12.9048 1L1 28.1127C9.16327 44.5862 44.8776 41.8406 51 28.1127C49.9116 26.1908 42.1565 9.23676 38.415 1Z" stroke="#5770BE" stroke-linecap="round"/>
</svg>
