<svg width="47" height="54" viewBox="0 0 47 54" fill="none" xmlns="http://www.w3.org/2000/svg">
<path d="M12.7659 27.4548C14.271 25.7078 16.2776 22.5132 16.2776 21.7146M12.7659 27.4548C14.3516 28.764 21.2942 31.7273 25.3075 30.3024M12.7659 27.4548C9.94515 31.353 9.37627 33.9847 10.6311 36.689M18 17.5C19.2542 17.7496 21.2942 20.7163 23.05 21.9642C23.1467 22.1941 23.1816 22.6158 22.5484 22.4633C22.0467 23.212 20.0401 23.7112 19.0367 23.212C18.2843 22.7129 18.3344 21.3153 18.5351 20.7163C18.2842 21.2986 17.3311 22.2137 15.5251 21.2154C11.0102 18.9693 13.2676 15.4753 20.2909 14.477C21.0434 14.477 21.2942 13.6284 21.2942 13.2291C20.2909 12.7299 19.4882 11.532 19.2876 9.73507C18.8012 9.73507 18.6456 9.40666 18.5 9C18.3453 8.56775 18.2249 8.0471 18.5351 7.73848C18.0334 5.24275 19.4381 1 24.0533 1C29.5716 1 31.0766 3.99488 30.8258 7.73848C31.2695 7.98805 31.2695 9.48549 30.8258 9.73507C30.5749 12.9795 29.5716 14.9761 28.4042 15.4753C28.4042 15.4753 30.5 18.4684 31.5 19C32.5 19.5 34 20.7163 36 20C37 19 38.5 18 38.5 21.5C38.5 23.212 37.5 22.5 36 22.5C35 23.212 31.5 24 28.4042 22.9625M19.0002 35.6907C19.8741 38.1273 19.7579 40.9807 19.7579 42.6788V42.9283C19.7579 44.4258 17.0439 47.2305 17.1301 49.1677C17.8791 49.6688 18.1943 50.7821 19.5384 51.1642C20.5417 51.6634 20.5417 53.4104 17.2809 52.9113C16.4783 52.5119 14.7726 52.2457 14.0201 52.1625C11.7627 52.1625 14.0201 50.166 13.5185 48.9181C13.0168 47.4206 12.5152 44.4258 14.7726 41.93C12.7961 39.9635 11.3847 38.3131 10.6311 36.689M19.0002 35.6907C19.1721 35.5793 20.6265 35.0565 20.7926 34.942M19.0002 35.6907C18.8508 35.2739 18.6723 34.8694 18.4594 34.4848C14.3108 32.5152 11.9595 34.0909 10.6311 36.689M29.0699 19.4684C28.8962 20.6784 28.6774 21.8435 28.4042 22.9625M24.6697 31.1984C25.0567 31.9471 27.565 36.1898 27.8158 36.689C29.0699 38.6856 26.3108 40.9317 25.3075 42.6788C24.9018 43.217 24.5689 43.7553 24.2304 44.1762C25.3075 44.7273 25.3075 46.303 26.3108 46.9215C26.9459 47.54 24.4045 47.7201 22.7992 46.9215C21.2942 46.4224 19.2876 47.4206 20.0401 45.6736C20.3223 45.0184 20.7925 44.4258 21.0434 43.677C21.545 42.6788 21.756 41.4309 21.756 39.6839C21.545 38.6856 20.5417 36.1898 20.7926 34.942M24.6697 31.1984C23.4931 32.7508 22.5536 33.7281 20.7926 34.942M24.6697 31.1984C24.8916 30.9056 25.104 30.6069 25.3075 30.3024M28.4042 22.9625C27.7385 25.6898 26.7504 28.1427 25.3075 30.3024" stroke="#5770BE" stroke-linecap="round"/>
</svg>
