<svg width="24" height="52" viewBox="0 0 24 52" fill="none" xmlns="http://www.w3.org/2000/svg">
<path d="M19.8974 19.1367C22.7179 19.1367 23 22.6292 23 24.0337C23 25.7191 23 43.1348 23 45.9438C23 48.7528 20.7436 51 18.4872 51C16.6821 51 8.89744 51 5.23077 51C2.41026 51 1 47.9101 1 45.9438C1 43.9775 1 26.8427 1 24.0337C1 21.6651 2.2033 19.6959 4.10256 19.1367M19.8974 19.1367C19.3333 18.9775 19.2578 18.9775 18.4872 18.9775C15.1026 18.9775 7.76923 18.9775 5.23077 18.9775C4.83282 18.9775 4.45566 19.0328 4.10256 19.1367M19.8974 19.1367C19.8974 17.8583 19.8974 15.4382 19.8974 14.764C19.8974 13.3596 20.1795 13.3596 18.4872 13.3596M18.4872 13.3596C17.359 13.3596 6.92308 13.3596 5.23077 13.3596M18.4872 13.3596C18.4872 8.02247 13.9744 8.86517 13.9744 7.17978C13.6923 5.21348 15.9487 1 12 1C8.33333 1 10.5897 5.77528 9.74359 7.17978C8.55897 9.14607 5.23077 8.86517 5.23077 13.3596M5.23077 13.3596C4.10256 13.3596 4.10256 13.3596 4.10256 14.764C4.10256 15.8876 4.10256 18.1473 4.10256 19.1367M3.53846 26.2809H7.76923M3.53846 30.2135H7.76923M3.53846 34.9888H7.76923M3.53846 39.764H7.76923M3.53846 44.5393H7.76923" stroke="#5770BE" stroke-linecap="round"/>
</svg>
