<svg width="50" height="37" viewBox="0 0 50 37" fill="none" xmlns="http://www.w3.org/2000/svg">
<path d="M43.2026 18.7483C44.3113 18.7483 46.0669 18.7483 46.8061 18.7483C50.1324 18.7483 49.3008 24.0353 46.8061 24.0353C40.1535 22.9221 40.1535 27.3742 35.4412 28.7655C37.2152 29.8785 39.3219 32.661 40.1535 36H10.4938C10.4938 33.7742 12.7114 30.7131 14.9289 28.7655C11.8798 28.2088 11.6026 23.4786 2.17806 22.9221C0.792101 22.9221 0.237728 18.7483 2.73245 18.7483C3.84122 18.7483 5.78157 18.7483 6.89034 18.7483C7.26484 19.0169 8.31029 19.5788 9.03859 19.921M43.2026 18.7483C40.1535 21.8091 32.1149 22.9221 25.1851 22.9221C17.7041 22.9221 12.6825 21.6181 9.59297 20.1992C9.54152 20.1756 9.18383 19.9892 9.03859 19.921M43.2026 18.7483C45.4201 11.5139 41.5394 10.6791 38.2131 9.28785C37.6587 5.67067 41.8166 4.55761 40.1535 2.60986C35.7184 -0.450869 34.3324 1.21847 34.8868 4.55761C31.5605 7.47915 30.5903 9.56598 30.8329 11.2355M34.0552 15.4092C32.5307 14.1571 31.0754 12.9049 30.8329 11.2355M30.8329 11.2355H27.6798M27.6798 11.2355C27.6798 12.6267 27.6798 15.6318 27.6798 16.5222C27.6798 18.7483 24.3535 21.2524 19.6412 19.0264M27.6798 11.2355C27.6798 10.1225 27.6798 7.72951 27.6798 7.06171C27.1254 4.55761 22.6903 4.83557 22.6903 7.06171C22.6903 8.45296 22.6903 11.4581 22.6903 12.3485C22.6903 13.4615 20.1956 13.4615 20.1956 12.3485C18.2552 4.55761 7.44473 7.33996 6.61315 12.0702C5.5754 17.9732 8.81683 19.9981 9.03859 19.921" stroke="#5770BE"/>
</svg>
