<svg width="44" height="50" viewBox="0 0 44 50" fill="none" xmlns="http://www.w3.org/2000/svg">
<path d="M31.5 34.0948L35.1077 40.9773C35.5781 42.8385 36.8719 42.7222 38.342 42.4314C39.2829 41.7334 40.6943 41.7528 41.2824 41.8497C41.5647 41.6047 40.1062 38.9416 37.1659 39.5232C36.8719 38.36 35.1077 29.6356 34.5196 27.8907C34.5196 27.8907 34.5 27.5948 34.8137 26.925C35.1273 26.2552 36 25.0076 36 25.0076M33 30.913C31.5298 33.2395 30.6972 34.8702 29.5211 35.4518C29.5211 37.7783 28.9138 40.3375 28.345 41.2681C28.639 41.365 29.2859 41.5008 29.5211 41.2681C30.1091 40.6865 31.5793 41.5589 32.1674 42.7222C32.6084 43.5946 28.639 42.7222 27.7569 43.3038C26.5808 43.8854 26.2279 43.013 25.9927 41.8497C25.6124 39.9689 25.4289 38.3411 25.4319 36.9059M29.8151 27.8907C26.9816 30.2621 25.4407 32.7933 25.4319 36.9059M25.4319 36.9059C24.5227 37.7783 22.9349 37.4875 22.4644 37.4875M22.4644 37.4875C22.7585 33.1253 21.5501 25.5643 20.1122 24.9826M22.4644 37.4875C20.9942 31.0898 18.0538 28.7633 15.1135 29.3449C9.82095 31.3806 13.6434 37.4875 17.7598 39.2325C15.1135 38.6509 13.0553 39.2325 12.0924 40.105C10.9971 39.2325 10.3502 38.6509 8.93886 39.8142M22.4644 37.4875C22.4644 41.2681 23.3464 42.7222 18.9359 43.0131C17.995 43.0131 13.6433 42.8191 11.5851 42.7222C10.703 42.7222 10.409 42.7222 8.35079 43.5947C6.29257 43.5947 6.5866 42.4315 7.4687 42.1407C8.17437 41.908 8.74284 40.4927 8.93886 39.8142M20.1122 24.9826C14.0172 22.5165 8.96637 28.3122 12.0924 33.1254M20.1122 24.9826C25.1106 25.2735 27.7569 24.4011 30.6972 22.3654C30.9648 22.2752 31.5 21.9948 31.5 21.5948C30.3525 20.5705 29.9614 19.3793 29.84 17.1842C29.4532 16.0086 28.7973 16.2728 29.2719 14.7988C29.8623 9.69148 33.1946 6.82288 38.3031 8.46141C42.0712 9.52929 44.173 12.0316 43.1357 16.9487C43.017 17.6127 42.7471 19.034 42.6171 19.4074C41.5 24.8175 38.3407 25.7689 35.203 24.8175M12.7614 33.9978C12.5065 33.7121 12.2841 33.4206 12.0924 33.1254M12.0924 33.1254C11.8792 34.2887 11.9968 35.6264 12.4672 36.3244C10.7031 35.1612 8.93886 36.6152 7.4687 36.9059C6.88064 37.0222 6.41018 37.3132 5.70451 36.6152C5.31247 36.2274 4.35196 35.7426 3.64629 36.9059C2.76419 38.3601 1 38.9519 1 39.5234C1 40.0948 3.05822 40.3958 4.52838 39.8142C6.29257 39.2325 8.70363 39.5815 8.93886 39.8142" stroke="#5770BE" stroke-linecap="round"/>
</svg>
