<svg width="38" height="41" viewBox="0 0 38 41" fill="none" xmlns="http://www.w3.org/2000/svg">
<path d="M30.7 5.25659C36.1 5.25659 37 7.14749 37 9.98384C37 11.024 37 13.8443 37 17.2323M12.7 5.25659C16.5284 5.25659 21.0253 5.25659 24.7754 5.25659M7.3 5.25659C6.59234 5.25659 5.98377 5.25659 5.50002 5.25659C2.8 5.25659 1 8.09294 1 9.98384C1 11.9214 1 14.4909 1 17.2323M1 17.2323C1.00001 23.855 1.00002 31.4804 1.00002 33.6201C1.00002 37.4019 1.00002 40.2383 5.50002 40.2383C10 40.2383 27.1 40.2383 30.7 40.2383C34.3 40.2383 37 38.3474 37 33.6201C37 30.6265 37 23.0829 37 17.2323M1 17.2323H37" stroke="#5770BE"/>
<rect x="6.90002" y="1.0293" width="6.2" height="12.2363" rx="3.1" stroke="#5770BE"/>
<rect x="24.9" y="1.0293" width="6.2" height="12.2363" rx="3.1" stroke="#5770BE"/>
</svg>
