<svg width="44" height="9" viewBox="0 0 44 9" fill="none" xmlns="http://www.w3.org/2000/svg">
<path d="M22 7.99999C23.933 7.99999 25.5 6.43299 25.5 4.49999C25.5 2.567 23.933 1 22 1C20.067 1 18.5 2.567 18.5 4.49999C18.5 6.43299 20.067 7.99999 22 7.99999Z" stroke="#5770BE" stroke-miterlimit="10"/>
<path d="M39.4999 7.99999C41.4329 7.99999 42.9999 6.43299 42.9999 4.49999C42.9999 2.567 41.4329 1 39.4999 1C37.5669 1 35.9999 2.567 35.9999 4.49999C35.9999 6.43299 37.5669 7.99999 39.4999 7.99999Z" stroke="#5770BE" stroke-miterlimit="10"/>
<path d="M4.49999 7.99999C6.43298 7.99999 7.99998 6.43299 7.99998 4.49999C7.99998 2.567 6.43298 1 4.49999 1C2.567 1 1 2.567 1 4.49999C1 6.43299 2.567 7.99999 4.49999 7.99999Z" stroke="#5770BE" stroke-miterlimit="10"/>
</svg>
