<svg width="49" height="44" viewBox="0 0 49 44" fill="none" xmlns="http://www.w3.org/2000/svg">
<path d="M17.7828 42.4455C16.3359 42.1587 14.8891 39.9363 14.8891 37.0686C13.366 35.2238 12.8722 33.1436 13.2225 30.9748M17.7828 42.4455C17.0593 41.0117 16.4949 38.2405 16.6976 37.0686C16.6976 35.5 20.1676 33.7427 20.3147 35.6348C20.4457 36.1541 20.4818 36.6264 20.4918 37.0686M17.7828 42.4455C19.519 43.5926 21.7616 43.1624 20.6764 39.2194M20.6764 39.2194C20.578 38.9268 20.5332 38.6343 20.5127 38.3346M20.6764 39.2194L20.5127 38.3346M20.5127 38.3346C20.4852 37.9315 20.5019 37.5154 20.4918 37.0686M20.5127 38.3346C23.9217 38.437 25.7897 37.8102 27.5489 36.4111M35.4152 36.3517C35.25 35.6661 34.8436 34.9179 34.0597 34.9179C32.6129 34.9179 31.5278 33.4841 31.1661 32.7672C29.755 34.3054 28.6742 35.5162 27.5489 36.4111M35.4152 36.3517C35.4787 36.6153 35.5066 36.8696 35.5066 37.0686C35.6961 38.3346 37.8939 38.4308 38.762 36.7102C39.3648 35.7543 40.7691 34.0504 41.2939 33.8425C42.5 33.1256 40 28.5 38.0385 30.6164C37.824 31.0416 37.4823 31.3407 37.3151 31.8128M35.4152 36.3517C35.5066 35.2764 37.7204 34.7321 37.3151 33.1256C37.1679 32.5421 37.2004 32.1367 37.3151 31.8128M37.3151 31.8128C32.2512 25.598 30.8043 25.598 27.9107 27.0318M27.9107 27.0318C28.2724 25.598 28.1277 22.587 27.5489 22.0134C31.5278 23.0888 34.6385 22.0851 35.5066 20.9381C36.7123 21.2965 39.1237 21.7267 39.1237 20.5796C39.1237 19.1458 39.4854 17.3535 38.4003 17.3535L36.3987 17.4223C35.8103 17.5733 35.3159 17.94 35.1449 18.7873C32.2512 19.8627 27.1872 19.1457 25.7404 17.3534C29 17 31.1661 14.5 30.4434 9.47185C30.4169 9.0774 30.1086 7.66393 29.9577 7.00651C28.9864 2.07592 26.0725 0.596641 22.1872 1.08976C16.845 1.58282 14.9024 5.52732 16.3594 10.4579C16.5 12 17 11.5 17.8163 12.4302C18.7876 14.4024 19.759 15.3886 21.2159 15.8816C21.3581 16.6705 21.1567 17.4305 21.0382 17.7119C18.8679 18.0704 16.6976 21.2965 10.1869 19.8627C10 19 9 18.5 8.37831 18.7873C5.25356 16.7623 4.704 19.8262 5.1229 21.2965C5.1229 21.655 7.65487 21.655 8.74 21.655C12.7188 23.8057 15.9742 23.8057 17.4211 23.4473C16.1038 24.8614 15.0531 26.3086 14.3194 27.7487M27.9107 27.0318L22.5 28C19.5 28.5 16 28 14.3194 27.7487M27.9107 27.0318C25.017 29.5411 25.7404 35.9933 27.5489 36.4111M14.3194 27.7487C13.7666 28.8338 13.3937 29.9149 13.2225 30.9748M13.2225 30.9748C15 30.5 23.5 29 20.4918 37.0686" stroke="#5770BE" stroke-linecap="round"/>
</svg>
