<svg width="37" height="37" viewBox="0 0 37 37" fill="none" xmlns="http://www.w3.org/2000/svg">
<path d="M12.4423 1.00108V29.2675M23.3184 7.44853L13.6816 1.28375C13.2983 1.09228 12.8748 0.995071 12.4463 1.00019C12.0178 1.00531 11.5968 1.11262 11.2181 1.31319L1.71599 7.68829C1.49981 7.8028 1.31892 7.97405 1.19277 8.18363C1.06662 8.39322 0.999979 8.63322 1 8.87783V33.7624C0.99998 33.9945 1.06 34.2227 1.17423 34.4248C1.28845 34.6269 1.45301 34.796 1.6519 34.9157C1.8508 35.0355 2.07728 35.1017 2.30935 35.108C2.54141 35.1144 2.77118 35.0606 2.97632 34.952L11.2064 29.5855C11.5881 29.3833 12.0129 29.2759 12.4449 29.2724C12.8769 29.2689 13.3034 29.3694 13.6883 29.5653L23.0996 35.7066C23.4813 35.901 23.9038 36.0016 24.3321 36C24.7604 35.9984 25.1821 35.8946 25.5623 35.6973L35.2739 29.3088C35.4927 29.1952 35.6762 29.0238 35.8042 28.8131C35.9323 28.6024 36 28.3607 36 28.1142V3.23632C36 3.00419 35.94 2.776 35.8258 2.57391C35.7115 2.37183 35.547 2.20271 35.3481 2.08299C35.1492 1.96328 34.9227 1.89703 34.6907 1.89068C34.4586 1.88434 34.2288 1.93811 34.0237 2.04677L25.7785 7.41908C25.4003 7.61909 24.9798 7.72609 24.552 7.73122C24.1242 7.73634 23.7013 7.63943 23.3184 7.44853V7.44853ZM24.5577 7.73119V35.9976V7.73119Z" stroke="#5770BE" stroke-linecap="round" stroke-linejoin="round"/>
</svg>
