<svg width="34" height="34" viewBox="0 0 34 34" fill="none" xmlns="http://www.w3.org/2000/svg">
<path fill-rule="evenodd" clip-rule="evenodd" d="M13.9229 14.4241C13.9229 14.1479 14.1467 13.9241 14.4229 13.9241H17.0864V21.8573H18.75C19.0262 21.8573 19.25 22.0811 19.25 22.3573C19.25 22.6334 19.0262 22.8573 18.75 22.8573H14.4229C14.1467 22.8573 13.9229 22.6334 13.9229 22.3573C13.9229 22.0811 14.1467 21.8573 14.4229 21.8573H16.0864V14.9241H14.4229C14.1467 14.9241 13.9229 14.7002 13.9229 14.4241Z" fill="#5770BE"/>
<path fill-rule="evenodd" clip-rule="evenodd" d="M3.26674 24.6953L2.39701 29.6768L7.37674 29.1695L7.68106 29.3818C10.2055 31.1426 13.2744 32.1751 16.5876 32.1751C25.1963 32.1751 32.1751 25.1963 32.1751 16.5876C32.1751 7.97879 25.1963 1 16.5876 1C7.97879 1 1 7.97879 1 16.5876C1 19.4284 1.75905 22.0889 3.08473 24.3806L3.26674 24.6953ZM1.18483 30.8055L2.21912 24.8814C0.807767 22.4415 0 19.6089 0 16.5876C0 7.42651 7.42651 0 16.5876 0C25.7486 0 33.1751 7.42651 33.1751 16.5876C33.1751 25.7486 25.7486 33.1751 16.5876 33.1751C13.0633 33.1751 9.79575 32.0761 7.10896 30.202L1.18483 30.8055Z" fill="#5770BE"/>
<path fill-rule="evenodd" clip-rule="evenodd" d="M16.2283 9.87561C15.907 9.87561 15.6465 10.1361 15.6465 10.4574C15.6465 10.7787 15.907 11.0392 16.2283 11.0392C16.5496 11.0392 16.8101 10.7787 16.8101 10.4574C16.8101 10.1361 16.5496 9.87561 16.2283 9.87561ZM14.6465 10.4574C14.6465 9.58381 15.3547 8.87561 16.2283 8.87561C17.1019 8.87561 17.8101 9.58381 17.8101 10.4574C17.8101 11.331 17.1019 12.0392 16.2283 12.0392C15.3547 12.0392 14.6465 11.331 14.6465 10.4574Z" fill="#5770BE"/>
</svg>
