<svg width="46" height="47" viewBox="0 0 46 47" fill="none" xmlns="http://www.w3.org/2000/svg">
<path d="M23.1646 3.87791C16.6646 -1.62209 8.16459 0.877975 7.66459 10.3779C-8.33547 21.3779 8.16455 37.8779 18.6646 29.3779C20.6646 33.8779 32.1646 37.3779 36.6646 27.8779C44.1646 25.8779 50.1646 17.3779 39.1646 10.3779C38.1646 3.87791 33.1646 -1.12207 23.1646 3.87791Z" stroke="#5770BE"/>
<circle cx="17.1646" cy="39.8779" r="4.5" stroke="#5770BE"/>
<path d="M20.9206 16.9825C24.3897 17.036 24.562 9.08028 18.852 10.0772C15.8828 10.5956 15.5456 15.1042 17.8189 16.3704C17.2749 17.1006 16.798 18.0678 16.904 18.9722C17.1691 21.2333 20.4104 25.3868 26.2782 25.4261C28.9348 25.2619 31.2328 22.3736 27.7017 20.1135C30.3972 20.6167 30.8741 19.6495 31.5541 18.7367C32.3701 17.6414 31.9532 16.4347 31.1796 16.8844C30.2964 17.7427 27.4915 17.6481 25.8275 16.5453L25.5697 16.4762M24.5135 21.4492C24.381 20.3187 24.139 19.5968 23.9359 19.5424M23.9359 19.5424C23.4201 19.8422 21.7951 19.4068 20.7794 19.1346M23.9359 19.5424C24.3893 18.6228 25.2507 17.466 25.5697 16.4762M23.3669 14.353C25.613 14.4953 25.9216 15.384 25.5697 16.4762" stroke="#5770BE" stroke-linecap="round"/>
<circle cx="6.66455" cy="43.3779" r="3" stroke="#5770BE"/>
</svg>
