<svg width="65" height="32" viewBox="0 0 65 32" fill="none" xmlns="http://www.w3.org/2000/svg">
<path d="M19.4427 0H12.1046C12.1291 0.00820939 12.1526 0.0191962 12.1746 0.0327483L12.3592 0.131812C12.4574 0.177867 12.5416 0.249352 12.6032 0.338944C12.6284 0.378244 12.6675 0.456018 12.6414 0.507596C12.6154 0.573095 12.6032 0.676251 12.5382 0.702451C12.4526 0.737562 12.3588 0.746669 12.2681 0.72865C12.2155 0.726282 12.1633 0.717483 12.1128 0.702451C12.3064 0.780229 12.4869 0.871103 12.6154 1.05286C12.6284 1.07905 12.6805 1.09215 12.7317 1.09215C12.7448 1.09215 12.7448 1.11754 12.7448 1.13063C12.7187 1.15683 12.6935 1.16993 12.7057 1.20841H12.7448C12.809 1.18221 12.796 1.05286 12.8863 1.09215C12.9179 1.11173 12.9409 1.14271 12.9506 1.17877C12.9602 1.21484 12.9559 1.25326 12.9383 1.28619C12.8898 1.33339 12.8379 1.3769 12.783 1.41636C12.777 1.43074 12.7739 1.4462 12.7739 1.4618C12.7739 1.47741 12.777 1.49285 12.783 1.50724C12.8156 1.55372 12.8378 1.6068 12.848 1.66279C12.8863 1.75367 12.8993 1.85764 12.9383 1.9477C12.9992 2.13646 13.0297 2.33381 13.0286 2.53226C13.0286 2.63542 12.9766 2.72629 13.0156 2.83027C13.0496 2.92746 13.0973 3.01926 13.1571 3.1029C13.2087 3.16881 13.2559 3.238 13.2987 3.31003C13.3759 3.44022 13.5183 3.56957 13.454 3.72593C13.4149 3.8168 13.2734 3.8078 13.1832 3.85528C13.1059 3.91996 13.1701 4.02394 13.2084 4.08861C13.2734 4.2057 13.1311 4.28346 13.0408 4.32276C13.0669 4.36125 13.1221 4.34813 13.1311 4.37436C13.1441 4.43903 13.2084 4.47834 13.1701 4.54301C13.1181 4.62077 12.9635 4.66007 13.0408 4.77634C13.0929 4.86721 13.0595 4.9679 13.0286 5.06206C13.009 5.11149 12.9775 5.15519 12.9369 5.18921C12.8962 5.22323 12.8478 5.24651 12.796 5.25691C12.7167 5.28001 12.6332 5.2842 12.552 5.2692C12.5272 5.25457 12.4993 5.24589 12.4707 5.24383C12.2519 5.2176 12.0323 5.15293 11.8135 5.15293C11.7514 5.16264 11.6908 5.17998 11.6329 5.20452C11.5768 5.24616 11.5246 5.29275 11.4767 5.34369L11.4491 5.37479L11.432 5.39528C11.432 5.39528 11.4247 5.40345 11.4214 5.40836C11.384 5.45574 11.35 5.50582 11.3198 5.55821L11.3141 5.56803L11.3043 5.58605C11.2634 5.66171 11.2307 5.74155 11.2067 5.82429C11.1189 6.12147 11.1571 6.37608 11.2189 6.43832C11.236 6.45552 11.6443 6.58239 11.929 6.70931C12.0341 6.75424 12.136 6.80649 12.234 6.86567H19.4395L19.4427 0Z" fill="#E1000F"/>
<path d="M12.5409 2.50444C12.5921 2.51754 12.6694 2.51754 12.6694 2.54374C12.6442 2.64772 12.4888 2.6731 12.4116 2.77707H12.3733C12.3343 2.80327 12.3473 2.86795 12.3083 2.86795C12.2694 2.85926 12.2288 2.86387 12.1928 2.88105C12.2158 2.90977 12.2455 2.93228 12.2793 2.94657C12.3131 2.96086 12.3499 2.96648 12.3864 2.96292C12.3971 2.96692 12.4065 2.97402 12.4133 2.98334C12.4201 2.99265 12.424 3.00377 12.4246 3.01532C12.4346 3.01433 12.4438 3.00966 12.4506 3.00222C12.4636 3.00222 12.4766 3.00222 12.4766 3.01532V3.06689C12.4376 3.11847 12.3733 3.09309 12.3213 3.10537C12.4185 3.13161 12.5209 3.13161 12.6182 3.10537C12.6995 3.07999 12.6182 2.94982 12.6694 2.88514C12.6442 2.88514 12.6694 2.84666 12.6442 2.84666C12.6694 2.82046 12.6954 2.78117 12.7215 2.76479C12.7365 2.76523 12.7514 2.76194 12.7648 2.75524C12.7783 2.74853 12.79 2.7386 12.7987 2.72631C12.7987 2.70011 12.7467 2.68701 12.7597 2.66163C12.837 2.60924 12.9012 2.53146 12.876 2.45368C12.863 2.4152 12.7597 2.4152 12.6954 2.389C12.6226 2.37406 12.5472 2.37858 12.4766 2.4021C12.4106 2.41303 12.3458 2.43031 12.2831 2.45368C12.1955 2.48394 12.1131 2.52787 12.0391 2.58386C12.1311 2.54892 12.2257 2.52154 12.3221 2.50199C12.3949 2.49346 12.4684 2.49428 12.5409 2.50444Z" fill="#9D9D9C"/>
<path d="M8.43883 6.05844C8.512 5.98474 8.58604 5.90616 8.66007 5.82672C8.79253 5.66922 8.93604 5.52148 9.08951 5.38464C9.13402 5.34403 9.18099 5.30631 9.23022 5.27163C9.2424 5.25938 9.2424 5.23319 9.25543 5.22007C9.19115 5.24627 9.15212 5.30195 9.08787 5.32405C9.07487 5.32405 9.06266 5.31094 9.07487 5.29786L9.21311 5.19388H9.20419C9.19115 5.19388 9.19115 5.18159 9.19115 5.16848C9.02362 5.14228 8.89431 5.25938 8.77881 5.36254C8.75278 5.37561 8.72674 5.35025 8.71453 5.35025C8.52097 5.41492 8.37944 5.58358 8.18588 5.66136V5.6327C8.10859 5.65889 8.03295 5.70558 7.95406 5.72357C7.84651 5.74094 7.73731 5.74533 7.62872 5.73668C7.47111 5.75484 7.3147 5.78217 7.16024 5.81855H7.14721C7.06216 5.84069 6.98019 5.87341 6.90322 5.91598L6.89426 5.92089C6.88871 5.92858 6.88273 5.93596 6.87636 5.94299C6.85225 5.97567 6.82214 6.00348 6.78772 6.02487C6.71079 6.07348 6.63911 6.12998 6.57381 6.19352C6.56799 6.19798 6.56081 6.20032 6.55349 6.20008C6.48435 6.26719 6.41603 6.33434 6.34525 6.39984C6.33314 6.40577 6.31942 6.40749 6.30621 6.40474C6.30864 6.40045 6.31134 6.39637 6.31435 6.39246C6.32492 6.37364 6.3355 6.35562 6.34689 6.3376C6.35828 6.31961 6.3721 6.2975 6.3851 6.27701C6.39813 6.25655 6.42089 6.2238 6.44042 6.19514C6.44264 6.19287 6.44391 6.18978 6.44391 6.18655C6.44391 6.18333 6.44264 6.18024 6.44042 6.17797C6.43553 6.17351 6.4291 6.17114 6.42253 6.17141C6.48842 6.10897 6.56098 6.05408 6.63887 6.00767C6.62991 6.00767 6.61773 6.00767 6.62423 5.99538C6.63073 5.98309 6.63887 5.97166 6.6462 5.95937L6.65109 5.9479L6.6413 5.93808C6.61972 5.95037 6.59933 5.96462 6.58031 5.98065C6.54941 6.00849 6.52499 6.06253 6.47863 6.06253H6.45913C6.45417 6.06201 6.44945 6.06033 6.44531 6.05762C6.44716 6.05363 6.44931 6.04979 6.45181 6.04615L6.45749 6.03551L6.46238 6.02651L6.47131 6.01014L6.47863 5.99785C6.48352 5.98803 6.4892 5.979 6.49492 5.96919L6.50306 5.95528L6.51688 5.93235C6.52338 5.92089 6.51688 5.91268 6.5071 5.9086C6.5308 5.87712 6.5607 5.85093 6.59495 5.83163C6.64377 5.80626 6.69337 5.77599 6.74298 5.74976L6.76412 5.73095C6.69166 5.7559 6.62276 5.7903 6.55916 5.83328C6.55136 5.83613 6.54401 5.83997 6.5372 5.84475C6.53125 5.84608 6.52506 5.84574 6.51931 5.84372C6.51356 5.84169 6.50846 5.83805 6.50467 5.83328C6.50371 5.83009 6.50371 5.82666 6.50467 5.82346C6.51767 5.79727 6.55591 5.78416 6.58602 5.75879C6.59902 5.75879 6.61123 5.75879 6.61123 5.77187C7.02439 5.44441 7.58722 5.52628 8.06792 5.3568L8.18423 5.27493C8.24848 5.24956 8.29973 5.18485 8.37783 5.14558C8.48166 5.07315 8.55863 4.96803 8.59661 4.84675C8.59507 4.83711 8.59052 4.82821 8.58361 4.82135C8.42087 4.99732 8.22802 5.14235 8.01424 5.24956C7.7434 5.39199 7.44491 5.3658 7.16349 5.4051C7.17649 5.37891 7.20171 5.37891 7.22774 5.37891C7.22774 5.34043 7.25378 5.32731 7.27981 5.30112H7.31802C7.33102 5.30112 7.33102 5.27493 7.34406 5.27493C7.36927 5.27493 7.4083 5.26264 7.3953 5.26264C7.35706 5.21026 7.27981 5.30112 7.21474 5.26264C7.24074 5.23645 7.22774 5.19714 7.25377 5.18485H7.30502C7.30776 5.16501 7.31689 5.14661 7.33102 5.13247C7.52462 5.01541 7.70518 4.92533 7.88492 4.82135C7.84671 4.82135 7.82068 4.85983 7.78243 4.83446C7.80764 4.83446 7.78243 4.79516 7.80764 4.79516C7.94999 4.75667 8.06549 4.6781 8.20784 4.6265C8.15577 4.6265 8.11756 4.66581 8.06549 4.6265C8.09152 4.61342 8.10452 4.58802 8.14684 4.58802V4.54875C8.14684 4.53563 8.15984 4.53563 8.17284 4.53563C8.16299 4.53426 8.15385 4.52966 8.14684 4.52252C8.15984 4.49715 8.19888 4.50944 8.22816 4.48404C8.21595 4.48404 8.18995 4.48404 8.18995 4.47096C8.23428 4.42506 8.29398 4.39733 8.35747 4.39317C8.34447 4.36698 8.30544 4.39317 8.30544 4.36698C8.30544 4.35387 8.31844 4.35387 8.33144 4.35387H8.30544C8.28023 4.34079 8.29323 4.31542 8.29323 4.3023C8.37458 4.21144 8.37458 4.09434 8.40872 3.99119C8.39572 3.99119 8.38351 3.99119 8.38351 3.97811C8.25419 4.12054 8.04842 4.17213 7.85482 4.22369H7.78489C7.74945 4.23735 7.71155 4.24326 7.67368 4.24099C7.6358 4.23873 7.59886 4.2284 7.5653 4.21061C7.51856 4.17852 7.47501 4.14206 7.43516 4.10172C7.33318 4.03712 7.22398 3.9849 7.10982 3.94615C6.78954 3.84083 6.45345 3.7926 6.11668 3.80372C6.25904 3.72185 6.41521 3.72185 6.56809 3.67355C6.7869 3.60887 6.9935 3.53108 7.22531 3.5442C7.18272 3.53764 7.13938 3.53764 7.09678 3.5442C6.91622 3.53108 6.73566 3.58264 6.54209 3.62604C6.41356 3.65144 6.29807 3.70382 6.16875 3.73002C6.09147 3.75542 6.05244 3.83317 5.96216 3.82092V3.78161C6.09147 3.62604 6.24604 3.47049 6.45017 3.45412C6.6828 3.41482 6.90158 3.45412 7.13339 3.47949C7.29808 3.49754 7.46119 3.52793 7.6214 3.57039C7.68647 3.57039 7.70272 3.67437 7.75072 3.68745C7.83207 3.71364 7.90525 3.68745 7.98253 3.73904C7.98253 3.71364 7.96953 3.68745 7.98253 3.66126C8.0346 3.60966 8.09884 3.67437 8.15009 3.64814C8.25337 3.58347 8.05981 3.46723 8.00856 3.37634C8.00993 3.36641 8.01451 3.35721 8.02156 3.35015C8.12406 3.44101 8.20213 3.54499 8.33065 3.60966C8.3949 3.63589 8.54943 3.67437 8.52422 3.59658C8.45997 3.45412 8.33065 3.33705 8.22734 3.20769V3.15529C8.20212 3.15529 8.20212 3.14219 8.18912 3.12992V3.07752C8.13706 3.05132 8.15009 2.99974 8.12406 2.96126C8.08581 2.89577 8.11184 2.80489 8.08581 2.72711C8.06224 2.65539 8.04506 2.58169 8.0346 2.50688C8.00449 2.28501 7.95242 2.09097 7.92314 1.88302C7.89714 1.63741 8.06467 1.44174 8.18098 1.22151C8.2649 1.05486 8.38909 0.912125 8.54211 0.806425C8.59274 0.651968 8.67597 0.510367 8.78613 0.391343C8.89773 0.275957 9.03365 0.187266 9.18386 0.131812C9.2969 0.0815992 9.41256 0.0375974 9.53035 0H0.684326V6.86567H6.94715C7.19114 6.68802 7.43516 6.60368 7.78 6.43341C7.94349 6.35315 8.31355 6.18288 8.43883 6.05844ZM6.45913 5.12673C6.43392 5.12673 6.37778 5.13985 6.39485 5.11366C6.40789 5.04895 6.49817 5.04895 6.54941 5.02275C6.57541 5.00967 6.61366 4.98427 6.6397 4.99739C6.6657 5.03587 6.70394 5.02275 6.72998 5.04895C6.65027 5.12673 6.54695 5.08825 6.45913 5.12673ZM4.48512 4.84102C4.478 4.83433 4.47342 4.82533 4.47212 4.81562C4.63037 4.60899 4.76848 4.38747 4.88446 4.15411C5.04802 4.05699 5.19519 3.9343 5.32044 3.79061C5.52358 3.55628 5.76822 3.36194 6.04187 3.21751C6.15165 3.18268 6.27002 3.18702 6.37696 3.2298C6.33875 3.28219 6.27368 3.2691 6.22243 3.31167C6.21545 3.31253 6.20833 3.31188 6.2016 3.30977C6.19486 3.30765 6.18866 3.30411 6.1834 3.29939C6.18832 3.29422 6.19205 3.28801 6.19431 3.28121C6.19657 3.27442 6.19729 3.2672 6.1964 3.26009C6.0679 3.40254 5.88734 3.46806 5.78406 3.63668C5.7092 3.76606 5.65796 3.92981 5.49043 3.97237C5.43836 3.98545 5.50343 3.93307 5.47739 3.94615C5.07641 4.19259 4.79417 4.49142 4.48512 4.84102ZM5.55467 3.98545C5.54167 4.01086 5.52782 4.01412 5.51564 4.03705C5.50589 4.06032 5.48752 4.07883 5.46439 4.08861C5.45139 4.08861 5.43836 4.08861 5.43836 4.07553C5.44462 4.04903 5.45735 4.02452 5.47537 4.00423C5.4934 3.98391 5.51619 3.96846 5.54167 3.95926C5.55467 3.95926 5.55467 3.97237 5.55467 3.98545ZM6.15329 5.92906C6.14559 5.94382 6.13475 5.95666 6.12158 5.96671C6.13786 5.96671 6.14922 5.97739 6.13865 5.98721C6.11118 6.01642 6.07792 6.03956 6.04105 6.05514C6.03431 6.05611 6.02746 6.05611 6.02072 6.05514C6.00526 6.0707 5.98901 6.08546 5.97273 6.10018C5.95648 6.11491 5.88652 6.10018 5.90848 6.08463C5.93044 6.06908 5.97112 6.02404 6.00365 5.99455C6.02155 5.97739 6.04105 5.96181 6.05733 5.94299C6.06527 5.93201 6.07454 5.92212 6.08497 5.91351C6.09554 5.90942 6.16386 5.90369 6.15329 5.92906ZM5.9223 5.82181C5.87434 5.85621 5.82634 5.89061 5.77509 5.92006C5.72385 5.94955 5.66203 5.97739 5.6051 6.00194C5.60264 5.99857 5.59908 5.99624 5.59504 5.99531C5.59101 5.99442 5.58676 5.99504 5.58314 5.99703C5.53569 6.02387 5.49217 6.05724 5.45382 6.0961C5.44746 6.10166 5.44147 6.1077 5.43593 6.11409L5.41804 6.13211C5.40907 6.1411 5.40015 6.15013 5.38957 6.16239C5.3852 6.16956 5.37938 6.17567 5.37247 6.18041C5.36436 6.18532 5.3424 6.18532 5.34483 6.17059L5.32204 6.18206C5.31503 6.18539 5.30822 6.1892 5.30172 6.19352C5.29881 6.19266 5.2957 6.19266 5.29276 6.19352C5.28989 6.19239 5.2867 6.19239 5.28383 6.19352C5.26755 6.20578 5.25212 6.21889 5.23665 6.23283C5.20963 6.25785 5.18486 6.28525 5.16266 6.31467L5.15859 6.31961V6.32531L5.14962 6.3376C5.14671 6.34052 5.14305 6.34251 5.13905 6.34333L5.13416 6.33516C5.13262 6.3331 5.13129 6.3309 5.13012 6.3286C5.13012 6.32205 5.1228 6.31549 5.11952 6.30814C5.11924 6.30595 5.11924 6.30375 5.11952 6.30159C5.13337 6.28686 5.14637 6.27128 5.16019 6.2549L5.17323 6.23853L5.17401 6.22215L5.18133 6.21233C5.19598 6.19352 5.20901 6.1755 5.22201 6.15748L5.22772 6.14931C5.23422 6.14031 5.2399 6.13046 5.24562 6.12147C5.25068 6.11299 5.2553 6.10427 5.25944 6.09527V6.09037L5.27162 6.06005C5.27131 6.05707 5.27131 6.05405 5.27162 6.05106C5.27138 6.04643 5.27138 6.04179 5.27162 6.03716L5.27651 6.01831C5.27716 6.0169 5.2775 6.01536 5.2775 6.01381C5.2775 6.01227 5.27716 6.01072 5.27651 6.00932C5.29132 5.98422 5.30846 5.96067 5.32776 5.93891L5.32204 5.94299C5.30336 5.95446 5.29115 5.97166 5.27408 5.98391C5.25697 5.9962 5.23422 5.97739 5.25047 5.9651C5.26081 5.95673 5.27056 5.9477 5.27976 5.93808C5.30028 5.91484 5.32228 5.89294 5.34565 5.87259C5.36029 5.86194 5.37329 5.85213 5.38468 5.84227C5.38697 5.84083 5.38892 5.83888 5.39036 5.83654C5.39946 5.82508 5.40925 5.81413 5.41965 5.80379C5.54246 5.68347 5.7507 5.6892 5.91337 5.61306C5.97762 5.58684 6.0549 5.62532 6.11915 5.61306C6.15958 5.60919 6.20023 5.61804 6.23546 5.63843C6.13379 5.68347 6.02805 5.75549 5.9223 5.82181ZM6.18582 4.92124C6.17365 4.90813 6.22486 4.92124 6.23789 4.89505H6.13379C6.12076 4.89505 6.12076 4.88194 6.12076 4.86886C6.05651 4.88194 5.97923 4.90813 5.91498 4.92124C5.8247 4.94661 5.74745 5.01129 5.64413 5.03751C5.50261 5.0899 5.38632 5.20617 5.23176 5.25855C5.21876 5.25855 5.21876 5.24544 5.21876 5.23236C5.23176 5.19306 5.28301 5.18077 5.30904 5.14146C5.30904 5.12838 5.30904 5.11527 5.29604 5.11527C5.39932 4.97281 5.54003 4.89505 5.67017 4.77796V4.73948C5.70838 4.68709 5.77266 4.66172 5.79866 4.59622C5.82507 4.54199 5.8715 4.50028 5.92801 4.47995C5.91498 4.46687 5.88895 4.46687 5.88895 4.44065C5.83773 4.44065 5.78566 4.46687 5.73442 4.42757C5.75724 4.4056 5.78522 4.38981 5.81577 4.38171C5.80397 4.37941 5.7935 4.37268 5.78648 4.36289C5.77345 4.3367 5.8117 4.30804 5.85073 4.29822C5.9028 4.28511 5.96705 4.28511 6.00608 4.2458C5.9158 4.23354 5.81252 4.27203 5.72224 4.22043C5.77766 4.0537 5.89397 3.91443 6.04758 3.83074C6.06058 3.83074 6.08661 3.83074 6.08661 3.84381C6.08771 3.87437 6.07789 3.9043 6.05894 3.92819C6.03999 3.95209 6.01316 3.96832 5.9833 3.97399C6.08911 3.9871 6.19291 4.01323 6.29239 4.05178C6.27936 4.07714 6.25414 4.06489 6.24114 4.06489C6.30539 4.10337 6.38267 4.07714 6.44692 4.12956C6.40871 4.16805 6.3656 4.12956 6.33142 4.12956C6.73076 4.2458 7.15617 4.3367 7.49126 4.59622C7.20817 4.72619 6.90927 4.81788 6.60227 4.86886C6.56734 4.87102 6.53227 4.86659 6.49899 4.85575C6.49899 4.86886 6.49899 4.89505 6.48595 4.89505C6.44145 4.88966 6.39639 4.89886 6.35746 4.92124C6.33153 4.9371 6.30173 4.94534 6.27142 4.94507C6.24107 4.94476 6.21145 4.93597 6.18582 4.9196V4.92124Z" fill="#000091"/>
<path d="M0.739868 15.1045H1.76003V11.5144L2.88076 13.3743H3.59918L4.71992 11.5144V15.1045H5.74008V10.0582H4.4541L3.23997 12.1344L2.02584 10.0582H0.739868V15.1045ZM7.14363 15.1045H8.16379V10.0582H7.14363V15.1045ZM9.56943 15.1045H10.5896V11.4784L12.8382 15.1045H14.1458V10.0582H13.1256V13.6699L10.877 10.0582H9.56943V15.1045ZM15.5522 15.1045H16.5724V10.0582H15.5522V15.1045ZM17.5254 14.4052C17.9709 14.9387 18.5456 15.2487 19.3933 15.2487C20.3129 15.2487 21.0457 14.6719 21.0601 13.7348C21.0601 12.0263 18.7611 12.2353 18.7611 11.3342C18.7611 11.0386 18.991 10.8079 19.343 10.8079C19.7238 10.8079 20.0543 11.053 20.3488 11.4351L21.096 10.7647C20.6721 10.2529 20.0902 9.91403 19.3359 9.91403C18.3804 9.91403 17.7266 10.5773 17.7266 11.3775C17.7266 13.0571 20.0255 12.8553 20.0255 13.7564C20.0255 14.1241 19.7813 14.3403 19.379 14.3403C18.9695 14.3403 18.5671 14.1096 18.2654 13.7204L17.5254 14.4052ZM21.5774 10.9882H23.1292V15.1045H24.1493V10.9882H25.7011V10.0582H21.5774V10.9882ZM27.6101 9.62568H28.5441L27.7322 8.65247H26.6833L27.6101 9.62568ZM26.5971 15.1045H29.5283V14.2322H27.6173V12.9706H29.2409V12.0983H27.6173V10.9305H29.5283V10.0582H26.5971V15.1045ZM30.7137 15.1045H31.7339V13.0643H32.2583L33.5946 15.1045H34.8159L33.2354 12.8697C33.7455 12.6246 34.04 12.1704 34.04 11.5649C34.04 10.6277 33.3575 10.0582 32.2511 10.0582H30.7137V15.1045ZM32.3086 10.9305C32.7397 10.9305 32.9911 11.1684 32.9911 11.5505C32.9911 11.9614 32.7397 12.1921 32.3086 12.1921H31.7339V10.9305H32.3086ZM35.4478 15.1045H38.379V14.2322H36.468V12.9706H38.0916V12.0983H36.468V10.9305H38.379V10.0582H35.4478V15.1045ZM0.739868 22.6567H2.71553C4.31042 22.6567 5.38805 21.4961 5.38805 20.1336C5.38805 18.7711 4.31042 17.6105 2.71553 17.6105H0.739868V22.6567ZM2.72989 18.5404C3.66384 18.5404 4.33916 19.2325 4.33916 20.1336C4.33916 21.0275 3.66384 21.7268 2.72989 21.7268H1.76003V18.5404H2.72989ZM6.37191 22.6567H9.30307V21.7844H7.39207V20.5229H9.0157V19.6506H7.39207V18.4827H9.30307V17.6105H6.37191V22.6567ZM10.0359 21.9575C10.4813 22.4909 11.0561 22.8009 11.9038 22.8009C12.8234 22.8009 13.5562 22.2242 13.5705 21.287C13.5705 19.5785 11.2716 19.7876 11.2716 18.8864C11.2716 18.5909 11.5015 18.3602 11.8535 18.3602C12.2343 18.3602 12.5647 18.6053 12.8593 18.9874L13.6064 18.3169C13.1826 17.8051 12.6007 17.4663 11.8463 17.4663C10.8908 17.4663 10.2371 18.1295 10.2371 18.9297C10.2371 20.6094 12.536 20.4075 12.536 21.3087C12.536 21.6763 12.2917 21.8926 11.8894 21.8926C11.4799 21.8926 11.0776 21.6619 10.7759 21.2726L10.0359 21.9575ZM16.0521 21.9575C16.4975 22.4909 17.0723 22.8009 17.92 22.8009C18.8396 22.8009 19.5724 22.2242 19.5868 21.287C19.5868 19.5785 17.2878 19.7876 17.2878 18.8864C17.2878 18.5909 17.5177 18.3602 17.8697 18.3602C18.2505 18.3602 18.581 18.6053 18.8755 18.9874L19.6227 18.3169C19.1988 17.8051 18.6169 17.4663 17.8625 17.4663C16.907 17.4663 16.2533 18.1295 16.2533 18.9297C16.2533 20.6094 18.5522 20.4075 18.5522 21.3087C18.5522 21.6763 18.308 21.8926 17.9056 21.8926C17.4961 21.8926 17.0938 21.6619 16.7921 21.2726L16.0521 21.9575ZM22.8347 17.4663C21.247 17.4663 20.1622 18.6918 20.1622 20.1336C20.1622 21.5754 21.247 22.8009 22.8347 22.8009C24.4153 22.8009 25.5001 21.5754 25.5001 20.1336C25.5001 18.6918 24.4153 17.4663 22.8347 17.4663ZM22.8347 21.8421C21.8864 21.8421 21.2111 21.0996 21.2111 20.1336C21.2111 19.1676 21.8864 18.4251 22.8347 18.4251C23.7759 18.4251 24.4512 19.1676 24.4512 20.1336C24.4512 21.0996 23.7759 21.8421 22.8347 21.8421ZM26.4778 22.6567H29.409V21.7268H27.498V17.6105H26.4778V22.6567ZM30.3068 22.6567H31.327V17.6105H30.3068V22.6567ZM32.7326 22.6567H34.7082C36.3031 22.6567 37.3807 21.4961 37.3807 20.1336C37.3807 18.7711 36.3031 17.6105 34.7082 17.6105H32.7326V22.6567ZM34.7225 18.5404C35.6565 18.5404 36.3318 19.2325 36.3318 20.1336C36.3318 21.0275 35.6565 21.7268 34.7225 21.7268H33.7528V18.5404H34.7225ZM37.6202 22.6567H38.705L39.1863 21.3447H41.1979L41.6793 22.6567H42.7641L40.8603 17.6105H39.524L37.6202 22.6567ZM39.5024 20.4724L40.1921 18.5765L40.8818 20.4724H39.5024ZM43.5406 22.6567H44.5608V20.6166H45.0853L46.4215 22.6567H47.6428L46.0623 20.4219C46.5724 20.1768 46.8669 19.7227 46.8669 19.1171C46.8669 18.18 46.1844 17.6105 45.0781 17.6105H43.5406V22.6567ZM45.1355 18.4827C45.5666 18.4827 45.818 18.7206 45.818 19.1027C45.818 19.5136 45.5666 19.7443 45.1355 19.7443H44.5608V18.4827H45.1355ZM48.2747 22.6567H49.2949V17.6105H48.2747V22.6567ZM50.1833 18.5404H51.7351V22.6567H52.7553V18.5404H54.307V17.6105H50.1833V18.5404ZM57.1212 17.1779L58.0551 16.2047H57.0063L56.1944 17.1779H57.1212ZM55.203 22.6567H58.1342V21.7844H56.2232V20.5229H57.8468V19.6506H56.2232V18.4827H58.1342V17.6105H55.203V22.6567ZM58.867 21.9575C59.3124 22.4909 59.8871 22.8009 60.7349 22.8009C61.6544 22.8009 62.3872 22.2242 62.4016 21.287C62.4016 19.5785 60.1026 19.7876 60.1026 18.8864C60.1026 18.5909 60.3325 18.3602 60.6846 18.3602C61.0653 18.3602 61.3958 18.6053 61.6904 18.9874L62.4375 18.3169C62.0136 17.8051 61.4317 17.4663 60.6774 17.4663C59.7219 17.4663 59.0681 18.1295 59.0681 18.9297C59.0681 20.6094 61.3671 20.4075 61.3671 21.3087C61.3671 21.6763 61.1228 21.8926 60.7205 21.8926C60.311 21.8926 59.9087 21.6619 59.6069 21.2726L58.867 21.9575ZM0.739868 30.209H3.67103V29.3367H1.76003V28.0751H3.38366V27.2028H1.76003V26.035H3.67103V25.1627H0.739868V30.209ZM4.44446 26.0926H5.99625V30.209H7.0164V26.0926H8.56819V25.1627H4.44446V26.0926ZM11.3287 30.209H13.3044C14.8993 30.209 15.9769 29.0483 15.9769 27.6858C15.9769 26.3233 14.8993 25.1627 13.3044 25.1627H11.3287V30.209ZM13.3187 26.0926C14.2527 26.0926 14.928 26.7847 14.928 27.6858C14.928 28.5797 14.2527 29.279 13.3187 29.279H12.3489V26.0926H13.3187ZM16.9608 30.209H19.8919V29.3367H17.9809V28.0751H19.6045V27.2028H17.9809V26.035H19.8919V25.1627H16.9608V30.209ZM22.9419 30.209H25.873V29.279H23.962V25.1627H22.9419V30.209ZM26.3561 30.209H27.4409L27.9223 28.8969H29.9339L30.4152 30.209H31.5L29.5962 25.1627H28.2599L26.3561 30.209ZM28.2384 28.0247L28.9281 26.1287L29.6178 28.0247H28.2384ZM33.6885 29.5097C34.1339 30.0432 34.7085 30.3531 35.5563 30.3531C36.4758 30.3531 37.2086 29.7764 37.223 28.8393C37.223 27.1307 34.924 27.3398 34.924 26.4387C34.924 26.1431 35.1539 25.9124 35.506 25.9124C35.8867 25.9124 36.2172 26.1575 36.5118 26.5396L37.2589 25.8692C36.835 25.3573 36.2531 25.0185 35.4988 25.0185C34.5433 25.0185 33.8897 25.6817 33.8897 26.4819C33.8897 28.1616 36.1885 27.9598 36.1885 28.8609C36.1885 29.2285 35.9442 29.4448 35.5419 29.4448C35.1324 29.4448 34.7301 29.2141 34.4283 28.8248L33.6885 29.5097ZM37.6325 30.209H38.7173L39.1987 28.8969H41.2102L41.6916 30.209H42.7764L40.8726 25.1627H39.5363L37.6325 30.209ZM39.5148 28.0247L40.2044 26.1287L40.8941 28.0247H39.5148ZM43.553 30.209H44.5731V26.5829L46.8218 30.209H48.1293V25.1627H47.1091V28.7744L44.8605 25.1627H43.553V30.209ZM49.0184 26.0926H50.5702V30.209H51.5904V26.0926H53.1422V25.1627H49.0184V26.0926ZM55.9563 24.7302L56.8903 23.7569H55.8414L55.0296 24.7302H55.9563ZM54.0381 30.209H56.9693V29.3367H55.0583V28.0751H56.6819V27.2028H55.0583V26.035H56.9693V25.1627H54.0381V30.209Z" fill="black"/>
</svg>
