<svg width="162" height="70" viewBox="0 0 162 70" fill="none" xmlns="http://www.w3.org/2000/svg">
<path d="M49.0159 6.63112C49.0159 5.98648 49.2758 5.49781 49.7957 5.1651L53.4763 2.35782C53.7259 2.14987 54.0066 2.0459 54.3185 2.0459C54.776 2.0459 55.1919 2.17067 55.5662 2.4202C55.9405 2.66974 56.1276 2.98166 56.1276 3.35596L56.1276 23.6307C56.1276 24.0258 55.9197 24.3378 55.5038 24.5665C55.1087 24.7952 54.6408 24.9096 54.1002 24.9096C53.5387 24.9096 53.0604 24.7952 52.6653 24.5665C52.2702 24.3378 52.0727 24.0258 52.0727 23.6307L52.0727 6.97423L51.0745 7.97237C50.8666 8.15953 50.6171 8.2531 50.3259 8.2531C49.9516 8.2531 49.6397 8.08674 49.3902 7.75403C49.1406 7.42132 49.0159 7.04701 49.0159 6.63112Z" fill="#150863"/>
<path d="M59.3431 17.9538L59.3431 9.25125C59.3431 6.77668 59.9981 4.96755 61.3082 3.82384C62.639 2.68014 64.417 2.10828 66.642 2.10828C68.867 2.10828 70.645 2.68014 71.9758 3.82384C73.3067 4.96755 73.9721 6.77668 73.9721 9.25125L73.9721 17.9538C73.9721 20.4284 73.3067 22.2375 71.9758 23.3812C70.645 24.5249 68.867 25.0968 66.642 25.0968C64.417 25.0968 62.639 24.5249 61.3082 23.3812C59.9981 22.2375 59.3431 20.4284 59.3431 17.9538ZM63.3981 17.9538C63.3981 20.3452 64.4794 21.5409 66.642 21.5409C68.8255 21.5409 69.9172 20.3452 69.9172 17.9538L69.9172 9.25125C69.9172 6.85986 68.8255 5.66417 66.642 5.66417C64.4794 5.66417 63.3981 6.85986 63.3981 9.25125L63.3981 17.9538Z" fill="#150863"/>
<path d="M76.8277 17.9538L76.8277 9.25125C76.8277 6.77668 77.4827 4.96755 78.7928 3.82384C80.1236 2.68014 81.9016 2.10828 84.1266 2.10828C86.3516 2.10828 88.1296 2.68014 89.4604 3.82384C90.7913 4.96755 91.4567 6.77668 91.4567 9.25125L91.4567 17.9538C91.4567 20.4284 90.7913 22.2375 89.4604 23.3812C88.1296 24.5249 86.3516 25.0968 84.1266 25.0968C81.9016 25.0968 80.1236 24.5249 78.7928 23.3812C77.4827 22.2375 76.8277 20.4284 76.8277 17.9538ZM80.8826 17.9538C80.8826 20.3452 81.9639 21.5409 84.1266 21.5409C86.31 21.5409 87.4017 20.3452 87.4017 17.9538L87.4017 9.25125C87.4017 6.85986 86.31 5.66417 84.1266 5.66417C81.9639 5.66417 80.8826 6.85986 80.8826 9.25125L80.8826 17.9538Z" fill="#150863"/>
<path d="M94.3122 17.9538L94.3122 9.25125C94.3122 6.77668 94.9673 4.96755 96.2773 3.82384C97.6082 2.68014 99.3861 2.10828 101.611 2.10828C103.836 2.10828 105.614 2.68014 106.945 3.82384C108.276 4.96755 108.941 6.77668 108.941 9.25125L108.941 17.9538C108.941 20.4284 108.276 22.2375 106.945 23.3812C105.614 24.5249 103.836 25.0968 101.611 25.0968C99.3861 25.0968 97.6082 24.5249 96.2773 23.3812C94.9673 22.2375 94.3122 20.4284 94.3122 17.9538ZM98.3672 17.9538C98.3672 20.3452 99.4485 21.5409 101.611 21.5409C103.795 21.5409 104.886 20.3452 104.886 17.9538L104.886 9.25125C104.886 6.85986 103.795 5.66417 101.611 5.66417C99.4485 5.66417 98.3672 6.85986 98.3672 9.25125L98.3672 17.9538Z" fill="#150863"/>
<path d="M-7.01222e-08 51.8658C-6.70229e-08 50.8993 0.197793 50.2416 0.593381 49.8926C0.98897 49.5168 1.64829 49.3289 2.57133 49.3289C4.18005 49.3289 5.03716 49.8792 5.14265 50.9799C5.24814 53.8524 6.60633 55.2886 9.21722 55.2886C12.0127 55.2886 13.4105 53.745 13.4105 50.6577L13.4105 34.7919L9.37544 34.7919C8.87437 34.7919 8.47878 34.5638 8.18868 34.1074C7.89858 33.651 7.75353 33.1007 7.75353 32.4564C7.75353 31.8389 7.8854 31.3154 8.14912 30.8859C8.43922 30.4295 8.84799 30.2013 9.37544 30.2013L16.2982 30.2013C16.9048 30.2013 17.4323 30.349 17.8806 30.6443C18.3289 30.9396 18.5531 31.3423 18.5531 31.8523L18.5531 50.6577C18.5531 53.8255 17.7092 56.1611 16.0213 57.6644C14.3599 59.1409 12.1709 59.8792 9.45457 59.8792C6.65908 59.8792 4.37785 59.1678 2.61089 57.745C0.870299 56.2953 -7.80427e-08 54.3356 -7.01222e-08 51.8658Z" fill="#83BCA0"/>
<path d="M22.8675 50.6577L22.8675 39.4228C22.8675 36.2282 23.6982 33.8926 25.3597 32.4161C27.0475 30.9396 29.3024 30.2013 32.1242 30.2013C34.9461 30.2013 37.201 30.9396 38.8888 32.4161C40.5766 33.8926 41.4206 36.2282 41.4206 39.4228L41.4206 50.6577C41.4206 53.8524 40.5766 56.1879 38.8888 57.6644C37.201 59.1409 34.9461 59.8792 32.1242 59.8792C29.3024 59.8792 27.0475 59.1409 25.3597 57.6644C23.6982 56.1879 22.8675 53.8524 22.8675 50.6577ZM28.0101 50.6577C28.0101 53.745 29.3815 55.2886 32.1242 55.2886C34.8934 55.2886 36.2779 53.745 36.2779 50.6577L36.2779 39.4228C36.2779 36.3356 34.8934 34.7919 32.1242 34.7919C29.3815 34.7919 28.0101 36.3356 28.0101 39.4228L28.0101 50.6577Z" fill="#83BCA0"/>
<path d="M45.7034 50.6577L45.7034 31.8121C45.7034 31.2752 45.954 30.8725 46.455 30.604C46.9561 30.3356 47.5627 30.2013 48.2747 30.2013C48.9868 30.2013 49.5934 30.3356 50.0944 30.604C50.5955 30.8725 50.8461 31.2752 50.8461 31.8121L50.8461 50.6577C50.8461 53.745 52.2966 55.2886 55.1975 55.2886C58.0985 55.2886 59.549 53.745 59.549 50.6577L59.549 31.8121C59.549 31.2752 59.7996 30.8725 60.3006 30.604C60.8017 30.3356 61.4083 30.2013 62.1203 30.2013C62.8324 30.2013 63.439 30.3356 63.94 30.604C64.4411 30.8725 64.6917 31.2752 64.6917 31.8121L64.6917 50.6577C64.6917 53.8255 63.8214 56.1611 62.0808 57.6644C60.3666 59.1409 58.0721 59.8792 55.1975 59.8792C52.3229 59.8792 50.0153 59.1409 48.2747 57.6644C46.5605 56.1879 45.7034 53.8524 45.7034 50.6577Z" fill="#83BCA0"/>
<path d="M69.3101 57.9866L69.3101 31.8121C69.3101 31.3826 69.4684 31.0067 69.7848 30.6846C70.1013 30.3624 70.4969 30.2013 70.9716 30.2013L78.8043 30.2013C85.0546 30.2013 88.1797 33.0067 88.1797 38.6175C88.1797 40.8188 87.705 42.5906 86.7556 43.9329C85.8325 45.2752 84.5799 46.1879 82.9975 46.6711L88.1797 56.4564C88.3116 56.6175 88.3775 56.8322 88.3775 57.1007C88.3775 57.7718 88.0347 58.4027 87.349 58.9933C86.6633 59.5571 85.938 59.8389 85.1732 59.8389C84.4084 59.8389 83.815 59.4228 83.3931 58.5906L77.7757 47.4765L74.4528 47.4765L74.4528 57.9866C74.4528 58.4966 74.2023 58.8993 73.7012 59.1946C73.2001 59.4899 72.5935 59.6376 71.8815 59.6376C71.1958 59.6376 70.5892 59.4899 70.0618 59.1946C69.5607 58.8993 69.3101 58.4966 69.3101 57.9866ZM74.4528 43.3691L78.8043 43.3691C81.6261 43.3691 83.0371 41.9463 83.0371 39.1007C83.0371 36.2282 81.6261 34.7919 78.8043 34.7919L74.4528 34.7919L74.4528 43.3691Z" fill="#83BCA0"/>
<path d="M90.4469 55.0067C90.4469 54.3893 90.6711 53.7718 91.1194 53.1544C91.5941 52.5101 92.1216 52.1879 92.7018 52.1879C93.0446 52.1879 93.427 52.349 93.849 52.6711C94.2973 52.9933 94.7193 53.3557 95.1149 53.7584C95.5368 54.1342 96.1302 54.4832 96.895 54.8054C97.6598 55.1275 98.5037 55.2886 99.4268 55.2886C100.693 55.2886 101.748 54.9933 102.591 54.4027C103.435 53.8121 103.857 52.9396 103.857 51.7852C103.857 50.9799 103.62 50.2685 103.145 49.651C102.697 49.0067 102.09 48.4832 101.326 48.0805C100.587 47.651 99.7696 47.2483 98.873 46.8725C97.9763 46.4698 97.0664 46.0268 96.1434 45.5436C95.2467 45.0604 94.416 44.5235 93.6512 43.9329C92.9127 43.3154 92.3062 42.5101 91.8315 41.5168C91.3831 40.4966 91.159 39.3423 91.159 38.0537C91.159 36.6309 91.4359 35.3826 91.9897 34.3087C92.5699 33.2081 93.3347 32.3624 94.2841 31.7718C95.2335 31.1544 96.2489 30.7114 97.3301 30.443C98.4114 30.1477 99.5586 30 100.772 30C101.457 30 102.183 30.0537 102.948 30.1611C103.712 30.2416 104.517 30.3893 105.361 30.604C106.231 30.8188 106.93 31.1544 107.457 31.6107C108.011 32.0671 108.288 32.604 108.288 33.2215C108.288 33.8121 108.103 34.4295 107.734 35.0738C107.365 35.6913 106.864 36 106.231 36C105.994 36 105.347 35.745 104.293 35.2349C103.238 34.7248 102.064 34.4698 100.772 34.4698C99.3477 34.4698 98.24 34.7517 97.4488 35.3154C96.684 35.8524 96.3016 36.604 96.3016 37.5705C96.3016 38.349 96.6181 39.0336 97.251 39.6242C97.884 40.1879 98.662 40.6577 99.585 41.0336C100.534 41.3826 101.55 41.8389 102.631 42.4027C103.739 42.9396 104.754 43.5302 105.677 44.1745C106.626 44.8188 107.418 45.7584 108.051 46.9933C108.684 48.2013 109 49.6242 109 51.2617C109 54.0537 108.13 56.2148 106.389 57.745C104.675 59.2483 102.407 60 99.585 60C97.0796 60 94.9303 59.4765 93.1369 58.4295C91.3436 57.3826 90.4469 56.2416 90.4469 55.0067Z" fill="#83BCA0"/>
<path d="M-6.88093e-08 23.4564L-4.55428e-09 3.42013C-3.2342e-09 3.0085 0.193515 2.69978 0.580547 2.49396C0.967579 2.26756 1.43609 2.15436 1.98608 2.15436C2.71941 2.15436 3.27959 2.28814 3.66662 2.55571C4.05365 2.82327 4.48142 3.39955 4.94994 4.28456L10.8471 15.8L10.8471 3.38926C10.8471 2.97763 11.0406 2.66891 11.4276 2.46309C11.8147 2.25727 12.2832 2.15436 12.8332 2.15436C13.3832 2.15436 13.8517 2.25727 14.2387 2.46309C14.6257 2.66891 14.8192 2.97763 14.8192 3.38926L14.8192 23.4564C14.8192 23.8474 14.6155 24.1562 14.2081 24.3826C13.8211 24.609 13.3628 24.7222 12.8332 24.7222C11.7535 24.7222 10.9897 24.3002 10.5415 23.4564L3.97217 11.0456L3.97217 23.4564C3.97217 23.8474 3.76847 24.1562 3.36107 24.3826C2.97403 24.609 2.51571 24.7222 1.98608 24.7222C1.43609 24.7222 0.967579 24.609 0.580547 24.3826C0.193515 24.1562 -7.00634e-08 23.8474 -6.88093e-08 23.4564Z" fill="#E8AA05"/>
<path d="M17.0395 17.8376L17.0395 9.22416C17.0395 6.77495 17.6812 4.98434 18.9645 3.85235C20.2682 2.72036 22.0098 2.15436 24.1894 2.15436C26.369 2.15436 28.1107 2.72036 29.4143 3.85235C30.718 4.98434 31.3699 6.77495 31.3699 9.22416L31.3699 17.8376C31.3699 20.2868 30.718 22.0774 29.4143 23.2094C28.1107 24.3414 26.369 24.9074 24.1894 24.9074C22.0098 24.9074 20.2682 24.3414 18.9645 23.2094C17.6812 22.0774 17.0395 20.2868 17.0395 17.8376ZM21.0117 17.8376C21.0117 20.2045 22.0709 21.3879 24.1894 21.3879C26.3283 21.3879 27.3977 20.2045 27.3977 17.8376L27.3977 9.22416C27.3977 6.85727 26.3283 5.67383 24.1894 5.67383C22.0709 5.67383 21.0117 6.85727 21.0117 9.22416L21.0117 17.8376Z" fill="#E8AA05"/>
<path d="M33.6696 21.1718C33.6696 20.6984 33.8428 20.2251 34.1891 19.7517C34.5557 19.2577 34.9631 19.0107 35.4113 19.0107C35.6761 19.0107 35.9715 19.1342 36.2974 19.3812C36.6437 19.6282 36.9696 19.906 37.2751 20.2148C37.6011 20.5029 38.0594 20.7705 38.6501 21.0175C39.2409 21.2644 39.8927 21.3879 40.6057 21.3879C41.5834 21.3879 42.3982 21.1615 43.0501 20.7087C43.7019 20.2559 44.0278 19.587 44.0278 18.702C44.0278 18.0846 43.8445 17.5392 43.4778 17.0658C43.1315 16.5718 42.663 16.1705 42.0723 15.8617C41.5019 15.5324 40.8705 15.2237 40.1779 14.9356C39.4853 14.6268 38.7825 14.2873 38.0696 13.9168C37.377 13.5463 36.7353 13.1347 36.1446 12.6819C35.5742 12.2085 35.1057 11.5911 34.7391 10.8295C34.3928 10.0474 34.2196 9.16242 34.2196 8.1745C34.2196 7.08367 34.4335 6.12662 34.8613 5.30336C35.3094 4.45951 35.9002 3.81119 36.6335 3.35839C37.3668 2.88501 38.1511 2.54542 38.9862 2.3396C39.8214 2.1132 40.7075 2 41.6445 2C42.1741 2 42.7343 2.04116 43.3251 2.12349C43.9158 2.18524 44.5371 2.29844 45.1889 2.46309C45.8611 2.62774 46.4009 2.88501 46.8083 3.2349C47.2361 3.58479 47.45 3.99642 47.45 4.4698C47.45 4.9226 47.3074 5.39598 47.0222 5.88993C46.7371 6.36331 46.35 6.6 45.8611 6.6C45.6778 6.6 45.1787 6.40448 44.3639 6.01342C43.5491 5.62237 42.6427 5.42685 41.6445 5.42685C40.5445 5.42685 39.689 5.64296 39.0779 6.07517C38.4872 6.4868 38.1918 7.06309 38.1918 7.80403C38.1918 8.4009 38.4362 8.92573 38.9251 9.37853C39.414 9.81074 40.0149 10.1709 40.7279 10.4591C41.4612 10.7266 42.2454 11.0765 43.0806 11.5087C43.9362 11.9204 44.7204 12.3732 45.4334 12.8671C46.1667 13.3611 46.7778 14.0814 47.2667 15.0282C47.7556 15.9544 48 17.0452 48 18.3007C48 20.4412 47.3278 22.098 45.9834 23.2711C44.6593 24.4237 42.9075 25 40.7279 25C38.7927 25 37.1325 24.5987 35.7474 23.796C34.3622 22.9933 33.6696 22.1186 33.6696 21.1718Z" fill="#E8AA05"/>
<path d="M133.574 24.1607C130.492 16.4668 131.525 10.4295 138.215 9.89545C151.53 10.7932 154.839 18.9751 151.656 30.5602C149.602 29.5262 147.867 29.2965 146.615 30.3305C143.973 32.5133 133.03 34.6962 130.942 37.2237C131.249 35.6736 131.924 34.0941 133.03 32.5949C134.51 30.9611 134.807 27.2381 133.574 24.1607Z" fill="#E8AA05"/>
<ellipse cx="137.093" cy="6.17803" rx="3.04583" ry="3.44609" transform="rotate(-11.5431 137.093 6.17803)" fill="#E8AA05"/>
<ellipse cx="142.269" cy="7.60793" rx="2.10865" ry="2.38575" transform="rotate(-11.5431 142.269 7.60793)" fill="#E8AA05"/>
<ellipse cx="146.39" cy="9.11921" rx="1.87436" ry="2.12067" transform="rotate(-11.5431 146.39 9.11921)" fill="#E8AA05"/>
<ellipse cx="149.683" cy="11.2377" rx="1.64006" ry="1.85559" transform="rotate(-11.5431 149.683 11.2377)" fill="#E8AA05"/>
<ellipse cx="151.755" cy="14.1132" rx="1.22319" ry="1.38393" transform="rotate(-11.5431 151.755 14.1132)" fill="#E8AA05"/>
<path d="M149.173 54.2319C142.555 61.7931 125.607 59.9215 124.154 59.7871C119.151 59.3242 117.429 57.3181 118.505 52.6889C119.187 49.757 122.702 43.3394 132.548 38.8011C135.776 37.3131 143.685 36.795 148.689 32.9373C150.142 32.0114 151.594 32.1658 151.594 33.5545C151.594 36.795 148.205 41.8872 140.134 45.1277C145.622 46.8251 152.282 41.5201 159.546 27.6323C160.191 26.3978 161.321 26.2435 161.644 27.7866C161.644 36.5822 158.147 45.1277 149.173 54.2319Z" fill="#26366E"/>
<line x1="1" y1="68.9999" x2="108.172" y2="68.9999" stroke="#5770BE" stroke-width="2" stroke-linecap="round"/>
</svg>
