<svg width="42" height="36" viewBox="0 0 42 36" fill="none" xmlns="http://www.w3.org/2000/svg">
<path fill-rule="evenodd" clip-rule="evenodd" d="M20.9912 0.467529L41.4436 5.97061L20.2623 15.9834L2.84904 10.8515C2.67833 10.8591 2.53179 10.896 2.40497 10.9536L2.32612 10.9933C2.03633 11.1546 1.80168 11.4625 1.65505 11.9036C1.50767 12.347 1.46299 12.8893 1.53114 13.4406C1.67152 14.5763 2.25021 15.5422 3.07875 15.8272L3.11312 15.839L3.14542 15.8556C3.42709 16.001 4.2968 16.3024 5.59161 16.7075C6.86282 17.1052 8.49137 17.5874 10.2445 18.0935C13.6738 19.0833 17.5702 20.1615 20.1794 20.8706L38.9706 12.4437L39.3798 13.3562L20.2624 21.9293L20.0899 21.8825C17.4789 21.1737 13.4796 20.0681 9.9672 19.0542C8.21133 18.5474 6.57462 18.0628 5.29302 17.6618C4.17846 17.3131 3.28946 17.015 2.83866 16.8161C2.79754 16.8323 2.74592 16.8636 2.68334 16.9222C2.56877 17.0295 2.44385 17.206 2.32503 17.4569C2.08789 17.9577 1.91839 18.6631 1.8699 19.4135C1.82141 20.1636 1.89678 20.9142 2.11162 21.509C2.31598 22.0748 2.62265 22.4432 3.01578 22.6035C3.24461 22.6185 3.5679 22.6798 3.93327 22.7614C4.37443 22.86 4.93161 23.0016 5.57292 23.1751C6.85643 23.5224 8.49454 24.0022 10.2508 24.5339C13.6829 25.5731 17.5794 26.8149 20.1923 27.6648L38.9706 19.2437L39.3798 20.1562L20.2495 28.7351L20.066 28.6754C17.4587 27.8261 13.4656 26.5522 9.96099 25.491C8.20821 24.9603 6.58108 24.4838 5.31178 24.1404C4.67669 23.9686 4.13557 23.8313 3.71514 23.7373C3.27568 23.6391 3.01675 23.6 2.91614 23.6C2.53905 23.6 2.21808 23.8135 1.96516 24.2809C1.70735 24.7573 1.56187 25.4389 1.56189 26.1812C1.5619 26.9196 1.70608 27.6701 1.98038 28.2713C2.25675 28.8771 2.63684 29.2752 3.07871 29.4271C5.01426 30.0926 15.7025 33.0307 20.9996 34.4694L38.9629 26.0473L39.3874 26.9527L21.0918 35.5306L20.9147 35.4825C15.7085 34.0693 4.75173 31.0598 2.75357 30.3728C1.95933 30.0997 1.41231 29.4354 1.0706 28.6864C0.726807 27.9329 0.561906 27.0366 0.561889 26.1812C0.561872 25.3298 0.725412 24.4707 1.08567 23.805C1.26788 23.4683 1.51011 23.1675 1.81384 22.9507C1.52682 22.638 1.31742 22.2539 1.17109 21.8487C0.896611 21.0888 0.817457 20.1925 0.87198 19.349C0.926493 18.5055 1.11754 17.6703 1.42122 17.029C1.55091 16.7551 1.70912 16.4996 1.9001 16.2928C1.10096 15.6351 0.662464 14.5647 0.538688 13.5633C0.455474 12.8901 0.504364 12.1951 0.706097 11.5882C0.907438 10.9825 1.27494 10.4285 1.85286 10.1123C1.89136 10.0912 1.93053 10.0714 1.97036 10.0528L20.9912 0.467529ZM4.00203 10.1487L21.1001 1.53242L38.5564 6.22933L20.1795 14.9165L4.00203 10.1487Z" fill="#E29132"/>
</svg>
