<svg width="35" height="33" viewBox="0 0 35 33" fill="none" xmlns="http://www.w3.org/2000/svg">
<path fill-rule="evenodd" clip-rule="evenodd" d="M12.5863 20.9889C12.7766 21.1891 12.7685 21.5056 12.5683 21.6958L1.34444 32.3625C1.14428 32.5527 0.827795 32.5446 0.637565 32.3445C0.447335 32.1443 0.455391 31.8278 0.655559 31.6376L11.8794 20.9709C12.0796 20.7807 12.3961 20.7888 12.5863 20.9889Z" fill="#E29132"/>
<path fill-rule="evenodd" clip-rule="evenodd" d="M21.7406 24.2018C28.5597 24.2018 33.9997 18.9605 33.9997 12.6009C33.9997 6.24127 28.5597 1 21.7406 1C14.9215 1 9.48145 6.24127 9.48145 12.6009C9.48145 18.9605 14.9215 24.2018 21.7406 24.2018ZM34.9997 12.6009C34.9997 19.5602 29.0634 25.2018 21.7406 25.2018C14.4178 25.2018 8.48145 19.5602 8.48145 12.6009C8.48145 5.64162 14.4178 0 21.7406 0C29.0634 0 34.9997 5.64162 34.9997 12.6009Z" fill="#E29132"/>
</svg>
