<svg width="46" height="47" viewBox="0 0 46 47" fill="none" xmlns="http://www.w3.org/2000/svg">
<path d="M23.1646 3.87791C16.6646 -1.62209 8.16459 0.877975 7.66459 10.3779C-8.33547 21.3779 8.16455 37.8779 18.6646 29.3779C20.6646 33.8779 32.1646 37.3779 36.6646 27.8779C44.1646 25.8779 50.1646 17.3779 39.1646 10.3779C38.1646 3.87791 33.1646 -1.12207 23.1646 3.87791Z" stroke="#E29132"/>
<circle cx="17.1641" cy="39.8779" r="4.5" stroke="#E29132"/>
<path d="M21.0985 13.9718L21.5 14.5127L21.9015 13.9718C22.5604 13.0841 23.637 12.5 24.8623 12.5C26.8873 12.5 28.5 14.0829 28.5 16.0002C28.5 16.2695 28.4647 16.5329 28.4019 16.7906L28.3974 16.8087L28.3944 16.8271C28.131 18.4114 27.0708 20.0955 25.6861 21.5259C24.3613 22.8943 22.7988 23.9691 21.5 24.4673C20.201 23.9691 18.6385 22.8943 17.3136 21.5258C15.9289 20.0954 14.8686 18.4112 14.6048 16.8266L14.6018 16.8089L14.5976 16.7915C14.5353 16.5329 14.5 16.2691 14.5 16.0002C14.5 14.0826 16.1127 12.5 18.1381 12.5C19.3629 12.5 20.4396 13.0841 21.0985 13.9718Z" stroke="#E29132"/>
<circle cx="6.66406" cy="43.3779" r="3" stroke="#E29132"/>
</svg>
