<svg width="39" height="34" viewBox="0 0 39 34" fill="none" xmlns="http://www.w3.org/2000/svg">
<path fill-rule="evenodd" clip-rule="evenodd" d="M19.3062 0.374146L38.2988 14.5285C38.5202 14.6935 38.5659 15.0068 38.4009 15.2282C38.2359 15.4496 37.9227 15.4954 37.7012 15.3304L34.3041 12.7986V33.5H4.95363V12.5499L1.30277 15.3274C1.083 15.4946 0.769295 15.452 0.602096 15.2322C0.434898 15.0124 0.477516 14.6987 0.697287 14.5315L19.3062 0.374146ZM5.95363 11.7891V32.5H13.4691V23.2118C13.4691 21.448 14.2399 20.1249 15.3993 19.2634C16.543 18.4136 18.0403 18.0281 19.5085 18.053C20.9771 18.078 22.4676 18.5144 23.6037 19.3715C24.7522 20.238 25.531 21.5326 25.531 23.2118V32.5H33.3041V12.0534L19.3124 1.62593L5.95363 11.7891ZM24.531 32.5V23.2118C24.531 21.8792 23.9269 20.868 23.0014 20.1698C22.0634 19.4621 20.7884 19.075 19.4915 19.0529C18.1943 19.0308 16.9262 19.3747 15.9957 20.0661C15.0811 20.7457 14.4691 21.7756 14.4691 23.2118V32.5H24.531Z" fill="#E29132"/>
</svg>
