<svg width="51" height="37" viewBox="0 0 51 37" fill="none" xmlns="http://www.w3.org/2000/svg">
<path d="M1.56195 2.93403C18.3909 9.68352 36.4949 8.12595 49.4991 2.93403M1.56195 2.93403C1.36303 3.33906 1.21261 4.19393 1.11769 5.27039M1.56195 2.93403C2.37786 0.0264419 5.13176 1.03037 6.40672 1.89578C7.83468 2.31124 9.21156 2.41497 10.7415 1.89578C12.7814 1.48043 15.0762 1.89578 16.6061 3.45335C17.83 4.28406 19.6659 4.23214 21.7058 3.97255C23.3377 3.34952 26.0405 2.41497 28.8454 3.97255C30.4773 4.3879 32.4152 4.83787 34.455 3.45335C35.679 2.62265 37.2599 1.89578 39.8097 2.41497C41.8496 2.62265 44.3995 2.41497 45.6744 1.37645C47.3063 0.961097 48.7341 0.597799 49.4991 2.93403M49.4991 2.93403C49.638 3.60579 49.7398 4.41206 49.8139 5.27039M38.2798 30.9704C40.5746 30.1916 41.8495 29.932 42.6145 28.1148C43.3795 26.2977 43.8894 25.2593 45.1643 24.4805C46.1843 23.8575 46.8076 22.6633 46.9492 21.3653C47.1532 19.4963 47.4592 18.5098 48.7341 16.9522C49.3399 15.7187 49.9682 12.7987 49.9682 12.7987M38.2798 30.9704C41.3396 24.4805 44.1444 14.3562 49.9682 12.7987M38.2798 30.9704C32.9251 38.7583 17.116 36.9411 12.7813 30.9704M49.9682 12.7987C49.9682 12.7987 49.9996 11.8359 50 10.4623M12.7813 30.9704C8.70153 21.8845 7.4266 14.6158 1.30697 12.7987M12.7813 30.9704C10.4864 30.4512 8.59953 28.6859 8.19156 26.8169C7.78358 24.9478 6.40666 24.4805 5.64171 23.1825C4.87676 21.8845 4.2138 20.1193 4.62177 19.2886C4.62177 17.9906 2.83688 17.731 2.32691 16.1734C1.98693 15.5677 1.30697 14.0447 1.30697 12.7987M1.30697 12.7987C1.19459 12.1122 1.11441 11.3097 1.06424 10.4623M1.11769 5.27039C3.64566 5.78958 8.90557 6.87988 9.72152 7.08756C10.5375 7.29524 10.2315 11.2411 10.2315 11.7603C10.0615 12.1064 9.41544 12.6948 8.19156 12.2795C6.96767 11.8641 2.93006 10.895 1.06424 10.4623M1.11769 5.27039C0.984954 6.77576 0.960754 8.71447 1.06424 10.4623M49.8139 5.27039C48.7341 5.27039 42.3596 7.08756 41.5946 7.08756C40.8297 8.12594 41.3396 10.7219 41.3396 11.5007C41.3396 11.7603 41.5945 12.2795 42.6145 12.2795C43.6345 12.2795 47.9632 11.068 50 10.4623M49.8139 5.27039C49.9646 7.01699 50.0004 8.97917 50 10.4623" stroke="#E29132"/>
<circle cx="26.0329" cy="21.7717" r="3.22826" stroke="#E29132" stroke-linecap="round"/>
<path d="M21.2393 15.6262L22.6595 17.1012M25.5001 13.7826L25.8552 15.995M30.4711 15.2575L29.4059 17.1012M32.9566 18.5761L31.1813 19.3135M32.9566 23.3695L31.1813 22.6321" stroke="#E29132" stroke-linecap="round"/>
</svg>
