<svg width="39" height="51" viewBox="0 0 39 51" fill="none" xmlns="http://www.w3.org/2000/svg">
<path d="M37.9239 41.3306C38.9264 33.434 29.8427 6.85753 21.2963 2.3462C20.0091 1.66672 19.2227 3.11763 20.0228 4.33358C23.6017 9.7729 25.5698 13.4919 18.3061 14.2712C11.9809 14.9499 14.6252 8.21678 17.7351 3.55586C18.7034 2.1047 17.8849 0.760433 16.5827 1.92133C9.11155 8.58184 -0.551023 30.8452 1.2104 41.3306C3.17219 53.0088 36.4774 52.7239 37.9239 41.3306Z" stroke="#E29132"/>
<path d="M23.5951 37.7306H15.3245C13.4341 36.5382 14.8139 33.9151 16.9406 33.9151C17.6495 30.3381 22.2082 29.453 23.5951 33.9151C25.4855 34.392 25.0129 37.7306 23.5951 37.7306Z" stroke="#E29132"/>
</svg>
