<svg width="35" height="50" viewBox="0 0 35 50" fill="none" xmlns="http://www.w3.org/2000/svg">
<path d="M5.71096 1.875C9.52499 11.2083 9.52499 19.9583 7.47128 24.9167C-2.22079 35.0461 0.717589 40.9901 5.05268 44.1667M7.47128 45.625C6.66363 45.2235 5.83539 44.7402 5.05268 44.1667M5.05268 44.1667V50M22.1407 1C25.0746 3.625 27.4217 5.95833 28.3018 6.25C28.8499 9.51952 26.9631 11.4316 24.7812 12.409M20.9671 13.25C22.0296 13.25 23.4595 13.001 24.7812 12.409M24.7812 12.409C36.5818 20.8348 38.6277 37.4567 21.5539 43.1498M17.7399 44.1667C19.1045 43.884 20.3748 43.543 21.5539 43.1498M21.5539 43.1498C21.3583 44.9471 20.9671 48.8333 20.9671 50M18.62 33.6667C17.4465 29 6.72659 31.625 10.1118 38.9167C11.8721 42.7083 18.0333 41.5417 18.9134 38.0417C20.087 38.5083 21.5539 38.8 22.7275 38.3333C25.6613 37.1667 30.0621 31.3333 28.0084 23.4583C26.8349 19.9583 22.1407 17.9167 20.3804 23.4583C20.087 19.6667 18.62 19.375 17.1531 18.7917C15.3928 18.0917 13.9259 19.0833 14.806 19.9583C16.2729 20.8333 17.1531 24.625 16.2729 27.25V27.6202M23.3142 27.25C21.8473 27.8333 20.9671 28.4167 20.9671 28.7083M20.9671 28.7083C21.5539 29.2917 21.5539 31.625 21.5539 33.0833M20.9671 28.7083C19.5724 28.431 17.7134 27.6922 16.2729 27.6202M14.2192 31.3333C13.6036 28.2732 14.6835 27.5408 16.2729 27.6202" stroke="#E29132"/>
</svg>
