<svg width="32" height="29" viewBox="0 0 32 29" fill="none" xmlns="http://www.w3.org/2000/svg">
<path fill-rule="evenodd" clip-rule="evenodd" d="M0.616973 8.36934C0.686538 4.09737 4.12127 0.517684 8.4586 0.543539C11.125 0.559433 13.0951 1.87915 14.38 3.16149C15.0235 3.80363 15.5029 4.44358 15.8219 4.92333C15.8377 4.94714 15.8532 4.97057 15.8682 4.99359C15.8836 4.97075 15.8993 4.94751 15.9154 4.92389C16.2401 4.44798 16.7272 3.81379 17.3782 3.17936C18.6783 1.91243 20.664 0.616295 23.3304 0.632189C27.6677 0.658044 31.0596 4.27842 31.0782 8.55092L31.0782 8.55106C31.1133 17.1765 24.1011 23.1956 16.7004 28.1214C16.4129 28.3131 16.0743 28.4143 15.7286 28.4122C15.3829 28.4102 15.0455 28.3049 14.7602 28.1097C14.7601 28.1096 14.76 28.1096 14.76 28.1095L15.0424 27.6969L14.7604 28.1098C14.7604 28.1098 14.7603 28.1097 14.7602 28.1097C7.41806 23.0961 0.478193 16.9938 0.616971 8.36944L0.616973 8.36934ZM23.3245 1.63217C21.01 1.61838 19.2633 2.73864 18.0761 3.89555C17.4835 4.47304 17.0382 5.05262 16.7415 5.4875C16.5934 5.70453 16.4831 5.88439 16.4106 6.00837C16.3744 6.07032 16.3477 6.11822 16.3306 6.14972C16.322 6.16546 16.3158 6.17709 16.312 6.18432L16.3081 6.19181L16.3077 6.19247L16.3076 6.19277C16.2216 6.36081 16.0483 6.46611 15.8595 6.46499C15.6708 6.46386 15.4988 6.35659 15.4148 6.18766C15.4148 6.18765 15.4148 6.18765 15.4148 6.18764L15.4147 6.1876L15.4147 6.18745C15.4146 6.18735 15.4146 6.18725 15.4145 6.18715L15.4142 6.18648L15.4103 6.17894C15.4066 6.17167 15.4006 6.15997 15.3922 6.14412C15.3754 6.11243 15.3493 6.06421 15.3138 6.00183C15.2428 5.877 15.1347 5.69584 14.9892 5.47705C14.6977 5.03867 14.2593 4.45382 13.6736 3.8693C12.5003 2.69833 10.7671 1.55732 8.45264 1.54352C4.69426 1.52112 1.67799 4.63062 1.61684 8.38563C1.4875 16.4232 7.95386 22.2511 15.3243 27.284L15.3248 27.2843C15.4451 27.3667 15.5879 27.4114 15.7346 27.4122C15.8813 27.4131 16.0247 27.3701 16.1459 27.2892L16.1463 27.2889C23.5755 22.3442 30.111 16.5938 30.0782 8.55514C30.0617 4.79974 27.0828 1.65457 23.3245 1.63217Z" fill="#E29132"/>
</svg>
