<svg width="49" height="50" viewBox="0 0 49 50" fill="none" xmlns="http://www.w3.org/2000/svg">
<path d="M36.1575 1C29.126 4.31646 20.2441 4.31646 15.063 1M36.1575 1C36.7578 1 38.5145 1.60601 40.5143 2.47398M36.1575 1C36.1575 2.84248 32.0866 12.4234 23.5748 11.6864C17.6535 11.6864 15.063 4.31646 15.063 1M15.063 1C13.4837 1.3629 11.7049 1.88465 9.93624 2.47398M7.10621 16.8453C5.93333 15.4202 3.85409 15.01 2.11024 14.2658C1.81417 12.7919 1.24672 8.24708 1 6.15894C2.74014 5.16882 6.31712 3.6799 9.93624 2.47398M7.10621 16.8453C7.67569 17.5372 8.0315 18.4684 8.0315 19.7933C8.0315 23.4782 8.0315 31.6588 8.0315 34.9016C8.0315 38.955 17.2835 48.5359 19.1339 48.9044C20.9843 49.2729 28.3858 48.9044 30.6063 48.9044C34.6772 48.9044 41.7087 37.8495 41.7087 34.9016C41.7087 30.7253 41.7087 21.8568 41.7087 19.7933C41.7087 18.8052 42.0043 17.9152 42.4488 17.1526M7.10621 16.8453C9.93624 13.5288 10.9921 6.15894 9.93624 2.47398M40.5143 2.47398C43.4459 3.74633 46.9 5.58158 48 6.89593C47.4079 8.07511 46.5197 12.3005 46.1496 14.2658C45.3702 14.2658 43.4962 15.3556 42.4488 17.1526M40.5143 2.47398C39.1181 8.36991 39.1921 14.7453 42.4488 17.1526" stroke="#E29132"/>
<path d="M30.2071 28.7726H18.467C15.7836 27.08 17.7422 23.3567 20.7611 23.3567C21.7674 18.279 28.2384 17.0228 30.2071 23.3567C32.8905 24.0337 32.2197 28.7726 30.2071 28.7726Z" stroke="#E29132"/>
</svg>
