<svg width="26" height="38" viewBox="0 0 26 38" fill="none" xmlns="http://www.w3.org/2000/svg">
<path fill-rule="evenodd" clip-rule="evenodd" d="M17.2966 1.8868C16.9327 1.52289 16.4464 1.49996 15.6948 1.49996H9.53247C8.85646 1.49996 8.40558 1.8965 8.09594 2.619C7.83608 3.22532 7.71072 3.99944 7.67411 4.7662H18.0317C17.9791 3.00663 17.6458 2.23603 17.2966 1.8868ZM19.0322 4.7662C18.9807 2.9201 18.6346 1.81054 18.0037 1.17969C17.3223 0.49832 16.4218 0.499241 15.7564 0.499922C15.7357 0.499943 15.7151 0.499964 15.6948 0.499964H9.53247C8.31237 0.499964 7.57819 1.28849 7.17679 2.22508C6.84812 2.99199 6.70996 3.91506 6.67305 4.7662H1C0.723858 4.7662 0.5 4.99006 0.5 5.2662C0.5 5.54234 0.723858 5.7662 1 5.7662H24.7013C24.9774 5.7662 25.2013 5.54234 25.2013 5.2662C25.2013 4.99006 24.9774 4.7662 24.7013 4.7662H19.0322ZM2.57379 8.13633C2.27892 8.13633 2.04808 8.39019 2.07604 8.68373L4.72972 36.5474C4.75416 36.804 4.96969 37 5.22747 37H20.4881C20.7428 37 20.9569 36.8084 20.985 36.5552L24.081 8.69154C24.1139 8.39536 23.882 8.13633 23.584 8.13633H2.57379ZM1.08055 8.77854C0.996677 7.89791 1.68918 7.13633 2.57379 7.13633H23.584C24.4781 7.13633 25.1736 7.91343 25.0749 8.80198L21.9789 36.6656C21.8945 37.4253 21.2524 38 20.4881 38H5.22747C4.45413 38 3.80754 37.412 3.73423 36.6422L1.08055 8.77854ZM7.16234 11.4026C7.43848 11.4026 7.66234 11.6264 7.66234 11.9026V30.3896C7.66234 30.6657 7.43848 30.8896 7.16234 30.8896C6.8862 30.8896 6.66234 30.6657 6.66234 30.3896V11.9026C6.66234 11.6264 6.8862 11.4026 7.16234 11.4026ZM12.8506 11.4026C13.1268 11.4026 13.3506 11.6264 13.3506 11.9026V29.9155C13.3506 30.1917 13.1268 30.4155 12.8506 30.4155C12.5745 30.4155 12.3506 30.1917 12.3506 29.9155V11.9026C12.3506 11.6264 12.5745 11.4026 12.8506 11.4026ZM18.539 11.4026C18.8151 11.4026 19.039 11.6264 19.039 11.9026V29.9155C19.039 30.1917 18.8151 30.4155 18.539 30.4155C18.2628 30.4155 18.039 30.1917 18.039 29.9155V11.9026C18.039 11.6264 18.2628 11.4026 18.539 11.4026Z" fill="#E29132"/>
</svg>
