<svg width="31" height="27" viewBox="0 0 31 27" fill="none" xmlns="http://www.w3.org/2000/svg">
<path d="M14.7143 3.76863L15.12 4.33167L15.5257 3.76863C16.9502 1.79147 19.27 0.5 21.8984 0.5C26.2308 0.5 29.74 3.99771 29.74 8.30821C29.74 8.91627 29.6626 9.50729 29.5269 10.0806L29.5227 10.0983L29.5198 10.1162C28.9638 13.5619 26.746 17.156 23.919 20.1644C21.1517 23.1094 17.8603 25.4295 15.12 26.4668C12.3793 25.4295 9.08792 23.1094 6.32043 20.1643C3.49336 17.1558 1.27536 13.5615 0.718474 10.1152L0.715696 10.098L0.711729 10.0811C0.577374 9.50683 0.5 8.91543 0.5 8.30821C0.5 3.99694 4.00915 0.5 8.34242 0.5C10.97 0.5 13.2898 1.79145 14.7143 3.76863Z" stroke="#5770BE" stroke-linecap="round"/>
</svg>
