<svg width="100" height="88" viewBox="0 0 100 88" fill="none" xmlns="http://www.w3.org/2000/svg">
<path d="M32.2161 0H8.17383V15.3845H32.2161V0Z" fill="white"/>
<path d="M17.6154 13.6005C17.7846 13.4313 17.9538 13.2621 18.1077 13.0774C18.4154 12.7235 18.723 12.4004 19.0769 12.0928C19.1845 12.0005 19.2923 11.9081 19.4 11.8467C19.4307 11.8158 19.4307 11.7544 19.4615 11.7236C19.3231 11.785 19.2308 11.8928 19.0769 11.9544C19.0461 11.9544 19.0153 11.9236 19.0461 11.8928C19.1539 11.8158 19.2615 11.7389 19.3539 11.662H19.3379C19.3071 11.662 19.3071 11.6313 19.3071 11.6005C18.9226 11.5389 18.6456 11.8005 18.3842 12.0315C18.3225 12.0623 18.2611 12.0009 18.2456 12.0009C17.8146 12.1393 17.4918 12.5238 17.0611 12.6932V12.6316C16.8918 12.6932 16.7226 12.8008 16.538 12.8316C16.2764 12.893 16.0457 12.8624 15.8149 12.8624C15.461 12.893 15.1073 12.97 14.7534 13.0469C14.7374 13.0469 14.7374 13.0469 14.7226 13.0629C14.5348 13.1118 14.3539 13.1842 14.1841 13.2782L14.1227 13.3397C14.061 13.4013 13.9996 13.4782 13.9226 13.509C13.7384 13.6005 13.6005 13.7539 13.4461 13.8923C13.4401 13.8982 13.4329 13.9028 13.4249 13.9055C13.4169 13.9083 13.4084 13.9092 13.4 13.9083C13.2461 14.0622 13.0922 14.216 12.9385 14.3552C12.9226 14.3712 12.8769 14.3712 12.8461 14.3712C12.8461 14.3552 12.8621 14.3552 12.8621 14.3404C12.8927 14.2943 12.9082 14.2635 12.939 14.2173L13.0313 14.0788C13.0774 14.0173 13.1082 13.9557 13.1543 13.9096C13.1703 13.8936 13.1703 13.8789 13.1543 13.8789C13.1483 13.8729 13.1411 13.8684 13.1331 13.8657C13.1251 13.8629 13.1166 13.862 13.1082 13.8629C13.2466 13.7245 13.4313 13.6015 13.6005 13.4937C13.5845 13.4937 13.5544 13.4778 13.5697 13.4629C13.5857 13.4323 13.6005 13.4168 13.6158 13.3861C13.6158 13.3702 13.6158 13.3702 13.6318 13.3553C13.6318 13.3394 13.6158 13.3394 13.6158 13.3245L13.4774 13.4168C13.4005 13.4784 13.3544 13.6015 13.2466 13.6015H13.2005C13.1845 13.6015 13.1697 13.6015 13.1697 13.5855V13.5695C13.1697 13.5536 13.1856 13.5536 13.1856 13.5387C13.1856 13.5239 13.2016 13.5228 13.2016 13.5081C13.2016 13.5039 13.2033 13.4998 13.2063 13.4968C13.2093 13.4938 13.2133 13.4921 13.2176 13.4921C13.2193 13.4804 13.225 13.4695 13.2335 13.4613C13.2335 13.4454 13.2495 13.4454 13.2495 13.4307C13.2657 13.4137 13.2765 13.3922 13.2803 13.369C13.2803 13.3531 13.2963 13.3531 13.2963 13.3382C13.3122 13.3223 13.3122 13.3076 13.3271 13.2921C13.343 13.2615 13.3271 13.246 13.3111 13.246C13.3572 13.169 13.4342 13.1229 13.5111 13.0768H13.4952C13.6029 13.0151 13.726 12.9537 13.8336 12.8921L13.8799 12.8459C13.7105 12.9076 13.5721 12.9845 13.4182 13.0768C13.4016 13.0851 13.3861 13.0954 13.3721 13.1076C13.3721 13.1076 13.3413 13.1235 13.2951 13.0768V13.0608C13.3259 12.9992 13.4182 12.9684 13.4643 12.9222C13.4952 12.9222 13.526 12.9222 13.526 12.9531C14.4644 12.2299 15.7413 12.3991 16.8182 12.0299C16.9106 11.9685 16.9875 11.9068 17.0798 11.8607C17.2182 11.7992 17.3413 11.6607 17.5108 11.5684C17.7416 11.3992 17.9109 11.1839 18.0031 10.9069C18.0031 10.8761 17.9725 10.8453 17.9725 10.8453C17.5878 11.2453 17.1571 11.5684 16.6954 11.7992C16.08 12.1223 15.4184 12.0607 14.7724 12.153C14.8032 12.0915 14.8648 12.0915 14.9109 12.0915C14.9109 11.9993 14.9724 11.9685 15.034 11.9223H15.1263C15.1571 11.9223 15.1571 11.8607 15.1879 11.8607C15.2493 11.8607 15.3416 11.8301 15.311 11.8301C15.2185 11.7068 15.0493 11.9223 14.9109 11.8301C14.9724 11.7684 14.9417 11.6915 15.0032 11.6607H15.1263C15.1263 11.5992 15.1879 11.5376 15.1879 11.5376C15.6189 11.2761 16.0339 11.0761 16.4339 10.8453C16.3417 10.8453 16.2956 10.9377 16.2031 10.8761C16.2647 10.8761 16.2031 10.7838 16.2647 10.7838C16.5878 10.6916 16.8493 10.5224 17.1724 10.3991C17.0493 10.3991 16.9724 10.4916 16.8493 10.3991C16.9109 10.3685 16.9416 10.3069 17.0185 10.3069V10.2146C17.0185 10.1838 17.0493 10.1838 17.0801 10.1838C17.0493 10.1838 17.0185 10.153 17.0185 10.153C17.0493 10.0915 17.1416 10.1223 17.1879 10.0607C17.1571 10.0607 17.0955 10.0607 17.0955 10.0299C17.1879 9.90682 17.3263 9.8915 17.4802 9.86069C17.4494 9.79923 17.3571 9.86069 17.3571 9.79923C17.3571 9.76842 17.3877 9.76842 17.4186 9.76842H17.3571C17.2955 9.73762 17.3263 9.67616 17.3263 9.64535C17.4955 9.44533 17.4955 9.18386 17.5878 8.95303C17.5571 8.95303 17.5263 8.95303 17.5263 8.92222C17.234 9.24532 16.7724 9.35323 16.3417 9.47614H16.1386C16.0002 9.5376 15.7847 9.5376 15.6463 9.44533C15.5233 9.38387 15.4771 9.30693 15.354 9.21467C15.1232 9.07611 14.8924 8.95303 14.6309 8.86077C13.9076 8.63074 13.1535 8.5083 12.3999 8.53847C12.723 8.36926 13.0769 8.35378 13.4153 8.24619C13.9076 8.10763 14.3693 7.9231 14.8922 7.9539C14.8 7.9231 14.6924 7.9539 14.6 7.9539C14.1999 7.9231 13.7846 8.04617 13.3539 8.12311C13.0616 8.18457 12.8 8.29232 12.5078 8.35378C12.3386 8.4154 12.2464 8.5846 12.0463 8.5538V8.46153C12.3386 8.10763 12.6925 7.76921 13.154 7.7384C13.6771 7.64614 14.1694 7.7384 14.6925 7.80002C15.0771 7.83083 15.4155 7.9231 15.8002 8.00004C15.9386 8.00004 15.9694 8.2307 16.0925 8.26151C16.2617 8.32313 16.4462 8.26151 16.6156 8.38459C16.6156 8.32313 16.5848 8.26151 16.6156 8.21538C16.7387 8.0923 16.8771 8.24619 17.0002 8.18457C17.231 8.04617 16.8001 7.78454 16.6771 7.5692C16.6771 7.53839 16.7079 7.50774 16.7079 7.50774C16.9385 7.70776 17.1079 7.93874 17.4002 8.0923C17.5386 8.15392 17.8925 8.2307 17.8312 8.0615C17.6928 7.7384 17.4002 7.47693 17.1544 7.18465V7.06157C17.0927 7.06157 17.0927 7.03076 17.0621 6.99995V6.87688C16.9389 6.81542 16.9697 6.70767 16.9235 6.6154C16.8313 6.47684 16.8927 6.2615 16.8313 6.09229C16.7698 5.92309 16.739 5.7692 16.7082 5.59999C16.6159 5.10769 16.5082 4.67685 16.4466 4.20004C16.3851 3.64612 16.7697 3.21544 17.0313 2.72314C17.2313 2.36923 17.4623 2.03082 17.8467 1.79999C17.9389 1.44609 18.1698 1.15381 18.4004 0.87685C18.6311 0.599891 19.0158 0.415358 19.2928 0.292283C19.5423 0.178051 19.7991 0.080411 20.0616 0L0 0V15.3845H14.2615C14.8155 14.9855 15.3692 14.8 16.1385 14.4154C16.5077 14.2615 17.3384 13.877 17.6154 13.6V13.6005ZM13.1535 11.5078C13.0919 11.5078 12.9843 11.5384 13.015 11.4769C13.0458 11.3384 13.2458 11.3384 13.3689 11.2769C13.4305 11.2461 13.5074 11.1847 13.5689 11.2153C13.6305 11.3077 13.7073 11.2769 13.7689 11.3384C13.5842 11.5078 13.3539 11.4308 13.1535 11.5078V11.5078ZM8.69235 10.8769C8.69235 10.8769 8.66155 10.8461 8.66155 10.8154C9.04609 10.3231 9.32242 9.86149 9.60001 9.33838C9.98456 9.13836 10.2923 8.84592 10.5846 8.52299C11.0769 7.99988 11.6 7.53823 12.2154 7.24594C12.4462 7.15368 12.7385 7.18449 12.9692 7.27675C12.8769 7.39983 12.7385 7.36902 12.6154 7.44596C12.5846 7.44596 12.5538 7.44596 12.523 7.41515C12.5538 7.3845 12.5538 7.35369 12.5538 7.32289C12.2615 7.64598 11.8615 7.78438 11.6308 8.16893C11.4615 8.46153 11.3384 8.83075 10.9692 8.92334C10.8461 8.95415 11 8.83107 10.9385 8.86188C10.0307 9.41564 9.4 10.0926 8.69235 10.8772V10.8769ZM11.1077 8.95383C11.0769 9.01545 11.0461 9.01545 11.0155 9.0769C10.9912 9.13185 10.9473 9.17575 10.8924 9.19998C10.8616 9.19998 10.8308 9.19998 10.8308 9.16917C10.8616 9.0461 10.9538 8.9393 11.0624 8.90738C11.1085 8.89141 11.1085 8.92334 11.1085 8.95351L11.1077 8.95383ZM12.4623 13.3074C12.4464 13.3381 12.4162 13.3689 12.3854 13.3997C12.4162 13.3997 12.447 13.4305 12.4162 13.4458C12.3546 13.5074 12.2777 13.5689 12.2009 13.5997H12.1546C12.1239 13.6305 12.0778 13.6612 12.047 13.7073C12.0162 13.7381 11.847 13.7233 11.8931 13.6767C11.97 13.615 12.0315 13.5381 12.1084 13.4766C12.1568 13.4437 12.1986 13.4019 12.2315 13.3536C12.2437 13.3261 12.2656 13.3041 12.2931 13.2919C12.3393 13.2613 12.4932 13.2458 12.4623 13.3079V13.3074ZM11.9384 13.0769C11.8154 13.1539 11.7076 13.2308 11.6 13.3077C11.4769 13.3847 11.3384 13.4308 11.2153 13.4923C11.2093 13.4863 11.202 13.4818 11.1941 13.4791C11.1861 13.4763 11.1776 13.4754 11.1692 13.4763C11.0618 13.5396 10.9634 13.6172 10.8769 13.707L10.8308 13.7533L10.7846 13.7994L10.723 13.8609C10.707 13.8768 10.707 13.8917 10.6769 13.907C10.6609 13.923 10.6154 13.923 10.6154 13.891C10.5995 13.907 10.5846 13.907 10.5693 13.9218C10.554 13.9367 10.5385 13.9378 10.5232 13.9525H10.4923C10.4615 13.9833 10.4154 14.0141 10.3846 14.0449C10.3231 14.1064 10.2615 14.1525 10.2154 14.2295V14.2454L10.1994 14.2614C10.1996 14.2635 10.1992 14.2657 10.1985 14.2677C10.1977 14.2697 10.1966 14.2715 10.1951 14.273C10.1936 14.2745 10.1917 14.2757 10.1897 14.2764C10.1877 14.2772 10.1856 14.2775 10.1835 14.2773C10.1835 14.2933 10.1675 14.2933 10.1675 14.3082C10.1593 14.3167 10.1484 14.3223 10.1367 14.3241L10.1207 14.3082C10.1209 14.306 10.1206 14.3039 10.1198 14.3019C10.119 14.2999 10.1179 14.2981 10.1164 14.2966C10.1149 14.295 10.113 14.2939 10.111 14.2931C10.109 14.2924 10.1069 14.292 10.1048 14.2922C10.0888 14.2762 10.0888 14.2614 10.0741 14.2461V14.2301C10.1085 14.1975 10.1395 14.1615 10.1664 14.1225C10.1823 14.1065 10.1823 14.0917 10.1972 14.0917C10.2132 14.0757 10.2278 14.0456 10.2433 14.0301C10.2433 14.0141 10.2593 14.0141 10.2593 13.9994C10.2901 13.9531 10.3209 13.9225 10.3516 13.8764L10.3675 13.8604C10.3835 13.8444 10.3982 13.8143 10.4136 13.7989C10.4291 13.7836 10.4296 13.7681 10.4445 13.7373V13.7214C10.4604 13.6905 10.4604 13.6752 10.4751 13.6597V13.6438C10.4751 13.6278 10.4751 13.6278 10.4911 13.613C10.4901 13.6046 10.4911 13.5961 10.4938 13.5881C10.4966 13.5801 10.5011 13.5728 10.507 13.5668V13.5509C10.5378 13.4892 10.584 13.4431 10.6301 13.397H10.6141C10.5751 13.4239 10.539 13.4548 10.5064 13.4892C10.4756 13.5201 10.4141 13.4733 10.4603 13.4431C10.4911 13.4272 10.5064 13.397 10.5219 13.3817C10.568 13.3354 10.6141 13.2739 10.6756 13.2278C10.7026 13.2021 10.7339 13.1812 10.768 13.1662L10.784 13.1502C10.8 13.1194 10.8301 13.1041 10.8454 13.0733C11.1224 12.8118 11.5994 12.8118 11.9533 12.6423C12.0917 12.5808 12.2762 12.6731 12.4148 12.6423C12.507 12.6423 12.584 12.6423 12.6762 12.7039C12.4148 12.75 12.184 12.9192 11.9378 13.0731L11.9384 13.0769ZM12.5385 11.0464C12.5077 11.0158 12.6308 11.0464 12.6616 10.985H12.4307C12.3999 10.985 12.3999 10.9542 12.3999 10.9233C12.2615 10.9542 12.077 11.0158 11.9384 11.0464C11.7384 11.108 11.5539 11.2464 11.3231 11.3081C11 11.4311 10.7385 11.6926 10.3999 11.8004C10.3693 11.8004 10.3693 11.7696 10.3693 11.7387C10.3999 11.6465 10.5077 11.6157 10.5693 11.5387C10.5693 11.5081 10.5693 11.4773 10.5385 11.4773C10.7693 11.1542 11.0922 10.985 11.3845 10.7233V10.6314C11.4768 10.5083 11.6152 10.4622 11.6768 10.3083C11.7075 10.216 11.8307 10.1083 11.9691 10.0468C11.9383 10.016 11.8768 10.016 11.8768 9.95455C11.7537 9.95455 11.646 10.016 11.5229 9.92374C11.581 9.88219 11.6427 9.84611 11.7075 9.81599C11.6768 9.81599 11.6613 9.80003 11.646 9.76986C11.6152 9.7084 11.7075 9.64679 11.7844 9.63146C11.9075 9.60065 12.046 9.60065 12.1383 9.50839C11.9383 9.47758 11.7073 9.56984 11.4921 9.44677C11.6307 9.06222 11.8768 8.75445 12.2152 8.56992C12.246 8.56992 12.3075 8.56992 12.3075 8.60057C12.3083 8.66833 12.2858 8.7343 12.2438 8.78751C12.2018 8.84072 12.1429 8.87795 12.0768 8.89301C12.3075 8.95447 12.5383 8.95447 12.769 9.06222C12.7383 9.12368 12.6767 9.09287 12.6459 9.09287C12.7845 9.18529 12.969 9.12368 13.1076 9.23143C13.0151 9.32369 12.9384 9.23143 12.8459 9.23143C13.7538 9.4929 14.7075 9.69292 15.4613 10.2775C14.8153 10.6006 14.1536 10.7391 13.4613 10.893C13.369 10.893 13.3229 10.893 13.2306 10.8622C13.2306 10.893 13.2306 10.9545 13.1998 10.9545C13.0768 10.9545 12.9998 10.9545 12.9076 11.0161C12.7998 11.1084 12.6306 11.1392 12.5383 11.0467" fill="#000091"/>
<path d="M42.3854 0H25.8624C25.8624 0 25.8932 0 26.0162 0.0769419C26.1546 0.153884 26.3239 0.24615 26.4313 0.292283C26.6466 0.400034 26.8463 0.538433 26.985 0.753775C27.0467 0.846201 27.1236 1.01541 27.0775 1.13848C27.0158 1.27688 26.985 1.52303 26.8466 1.56949C26.6774 1.66191 26.4466 1.66191 26.2313 1.6311C26.1082 1.6311 26.0004 1.60029 25.8774 1.56949C26.3084 1.73885 26.7234 1.9542 27.0158 2.35423C27.0467 2.41569 27.1542 2.4465 27.2773 2.4465C27.3081 2.4465 27.3081 2.50795 27.3081 2.53876C27.2467 2.60038 27.1851 2.63103 27.2159 2.70797H27.3081C27.4467 2.64651 27.4312 2.35423 27.6312 2.4465C27.7698 2.53876 27.8312 2.73878 27.7543 2.8775C27.6312 3.00057 27.5236 3.07751 27.4004 3.16994C27.3853 3.20108 27.3774 3.23525 27.3774 3.26987C27.3774 3.30449 27.3853 3.33866 27.4004 3.3698C27.4928 3.49287 27.5236 3.60062 27.539 3.7237C27.6312 3.92372 27.662 4.1547 27.739 4.36988C27.862 4.80088 27.9696 5.24673 27.939 5.67758C27.939 5.9084 27.8159 6.10858 27.9082 6.33908C27.9696 6.56991 28.1082 6.73912 28.2313 6.95446C28.3543 7.12367 28.4619 7.24674 28.5544 7.41595C28.7236 7.70839 29.0467 8.00068 28.9081 8.33909C28.8158 8.53911 28.5082 8.5083 28.2927 8.63138C28.1235 8.76994 28.2621 9.01609 28.3543 9.15449C28.4927 9.41596 28.1851 9.58549 27.9696 9.66211C28.0313 9.75454 28.139 9.72373 28.1697 9.78519C28.2005 9.92374 28.3389 10.016 28.2621 10.1699C28.139 10.3391 27.8004 10.4314 27.9696 10.693C28.0927 10.893 28.0159 11.124 27.939 11.339C27.8949 11.4489 27.8238 11.546 27.7324 11.6213C27.641 11.6966 27.5322 11.7477 27.4159 11.77C27.2467 11.8316 27.0312 11.8316 26.862 11.8008C26.8005 11.77 26.7389 11.7392 26.6928 11.7392C26.2005 11.6778 25.7082 11.5392 25.2159 11.5392C25.0775 11.57 24.9236 11.6008 24.8158 11.647C24.6909 11.7412 24.5727 11.844 24.4621 11.9547C24.4461 11.9854 24.4158 12.0009 24.4005 12.0315C24.3845 12.0475 24.3697 12.0623 24.3697 12.0778L24.339 12.1084C24.2466 12.2162 24.1851 12.3239 24.1082 12.447C24.1083 12.4492 24.108 12.4513 24.1073 12.4533C24.1065 12.4553 24.1053 12.4571 24.1038 12.4586C24.1023 12.4601 24.1005 12.4613 24.0985 12.4621C24.0965 12.4628 24.0943 12.4631 24.0922 12.463C24.0922 12.4789 24.0763 12.4938 24.0614 12.5091C23.9674 12.6789 23.895 12.8598 23.8461 13.0476C23.6461 13.7091 23.7383 14.2783 23.8767 14.4169C23.9075 14.4477 24.8307 14.74 25.4767 15.0322C25.7845 15.1706 25.9845 15.2629 26.169 15.386H42.4009V0H42.3854Z" fill="#E1000F"/>
<path d="M26.8469 5.63085C26.9699 5.66166 27.1392 5.66166 27.1392 5.72311C27.0777 5.95394 26.7391 6.0154 26.5546 6.24623H26.4623C26.3699 6.30769 26.4007 6.44625 26.3237 6.44625C26.2315 6.41544 26.1545 6.44625 26.0622 6.4769C26.1853 6.60013 26.3237 6.67692 26.4933 6.64627C26.5241 6.64627 26.5857 6.70773 26.5857 6.76935C26.6093 6.76704 26.6312 6.75606 26.6472 6.73854C26.678 6.73854 26.7088 6.73854 26.7088 6.76935V6.89242C26.6163 7.0155 26.4779 6.95388 26.3549 6.98469C26.5763 7.04616 26.8103 7.04616 27.0317 6.98469C27.2011 6.92307 27.0317 6.63078 27.1548 6.49238C27.0933 6.49238 27.1548 6.40012 27.0933 6.40012C27.1548 6.3385 27.2164 6.26155 27.2626 6.23075C27.3242 6.23075 27.401 6.2001 27.4318 6.13848C27.4318 6.07702 27.3087 6.04621 27.3395 6.00008C27.5087 5.877 27.6626 5.70779 27.601 5.53858C27.5703 5.44615 27.3395 5.44615 27.2019 5.38469C27.0643 5.32323 26.8788 5.38469 26.7096 5.4155C26.571 5.4155 26.4171 5.50777 26.2786 5.53858C26.0785 5.60004 25.894 5.70779 25.7246 5.83087C25.9246 5.73844 26.1247 5.70779 26.3555 5.66166C26.5247 5.63085 26.6631 5.60004 26.8478 5.63085" fill="#808080"/>
<path d="M0 34.6154V23.077H3.50772C4.77955 23.077 5.77458 23.3847 6.49281 24C7.22104 24.6154 7.59027 25.4565 7.60048 26.5231C7.60048 27.2104 7.44149 27.8053 7.12351 28.3078C6.80563 28.8205 6.35436 29.2205 5.76968 29.5077L9.36967 34.6159H6.5846L3.52304 29.9547H2.33843V34.6159L0 34.6154ZM2.33843 27.9692H3.64612C4.13842 27.9692 4.51791 27.841 4.7846 27.5847C5.0613 27.3283 5.19964 26.9642 5.19964 26.4923C5.19964 26.0513 5.0613 25.7026 4.7846 25.4463C4.50791 25.1899 4.12842 25.0668 3.64612 25.077H2.33843V27.9692ZM11 34.6154V23.077H17.6923V25.077H13.3231V27.7385H17.0308V29.7392H13.3231V32.6161H17.6923V34.6161L11 34.6154ZM13.2616 22.0929L15.1077 19.8621H17.5076L15.3845 22.0929H13.2616ZM20.5385 34.6159V23.077H24.3377C25.5991 23.077 26.5888 23.3847 27.3069 24C28.0351 24.6154 28.3992 25.4565 28.3992 26.5231C28.3992 27.5898 28.0351 28.4256 27.3069 29.0308C26.5786 29.6462 25.5889 29.9539 24.3377 29.9539H22.8762V34.6151L20.5385 34.6159ZM22.877 27.9697H24.4308C24.9333 27.9697 25.323 27.8367 25.5999 27.5706C25.8766 27.3141 26.015 26.9551 26.015 26.4936C26.015 26.0526 25.8713 25.7039 25.584 25.4475C25.3073 25.1911 24.9227 25.068 24.4302 25.0783H22.8763L22.877 27.9697ZM30.2769 30.1087V23.077H32.6154V30.2923C32.6154 31.0615 32.8205 31.6667 33.2307 32.1078C33.641 32.5385 34.2103 32.7539 34.9388 32.754C35.6568 32.754 36.2208 32.5386 36.6309 32.1078C37.0409 31.677 37.246 31.0718 37.2462 30.2923V23.077H39.5848V30.1078C39.5848 31.6258 39.1694 32.8104 38.3386 33.6616C37.5078 34.5129 36.3693 34.9386 34.9233 34.9387C33.4873 34.9387 32.3539 34.513 31.5232 33.6616C30.6924 32.8002 30.2769 31.6155 30.2769 30.1078V30.1087ZM42.6307 34.6164V23.077H45.8923C47.0923 23.077 48.0308 23.3537 48.7077 23.9071C49.3949 24.461 49.7384 25.2303 49.7384 26.2149C49.7384 27.1687 49.3333 27.9277 48.523 28.4917C49.1281 28.7684 49.5948 29.1376 49.9231 29.5994C50.2513 30.0712 50.4154 30.6097 50.4154 31.2148C50.4154 32.2712 50.0308 33.102 49.2615 33.7071C48.5026 34.3122 47.4616 34.6148 46.1385 34.6148L42.6307 34.6164ZM44.9538 32.6164H46.2769C46.8206 32.6164 47.2462 32.483 47.5539 32.2163C47.8615 31.9396 48.0153 31.5653 48.0154 31.0933C48.0155 30.6214 47.8617 30.2518 47.5539 29.9847C47.2461 29.7281 46.8205 29.5999 46.2769 29.6H44.9538V32.6164ZM44.9538 27.6009H45.9384C46.3794 27.6009 46.723 27.4881 46.9692 27.2625C47.2153 27.0471 47.3384 26.7343 47.3384 26.3241C47.3384 25.9343 47.2153 25.6318 46.9692 25.4164C46.7335 25.1907 46.3899 25.0779 45.9384 25.078H44.9538V27.6009ZM52.9539 34.6164V23.077H55.277V32.4923H59.6462V34.6154L52.9539 34.6164ZM61.8613 34.6164V23.077H64.1844V34.6154L61.8613 34.6164ZM67.0304 31.2003C66.7329 30.4513 66.5815 29.6524 66.5842 28.8465C66.5842 28.026 66.733 27.2466 67.0304 26.5081C67.3284 25.7593 67.7386 25.108 68.2612 24.5542C68.7944 24.0003 69.4406 23.5593 70.1997 23.2311C70.969 22.9029 71.7946 22.7388 72.6765 22.7388C73.5584 22.7388 74.3843 22.9028 75.154 23.2307C75.9233 23.5589 76.5695 24 77.0926 24.5539C77.6156 25.1078 78.0259 25.7591 78.3233 26.5078C78.6208 27.2462 78.7695 28.0257 78.7695 28.8462C78.7695 29.8103 78.5695 30.7128 78.1694 31.5539C77.7694 32.3949 77.2155 33.0973 76.5078 33.661L77.2001 34.3225C78.0104 35.061 78.8104 35.4251 79.6002 35.4149C79.9284 35.4149 80.2051 35.3738 80.4303 35.2918V37.2769C80.0712 37.4206 79.6661 37.4873 79.2148 37.477C77.9739 37.477 76.779 36.9744 75.6303 35.9692L74.261 34.7385C73.7437 34.8737 73.211 34.9409 72.6764 34.9385C71.7945 34.9385 70.9689 34.7744 70.1996 34.4462C69.4408 34.1177 68.7948 33.6821 68.2615 33.1393C67.7385 32.5849 67.3283 31.9384 67.0307 31.2L67.0304 31.2003ZM70.0305 26.0619C69.333 26.8106 68.9792 27.7388 68.969 28.8465C68.969 29.9543 69.3228 30.8825 70.0305 31.6311C70.7279 32.3798 71.615 32.7542 72.692 32.7543C73.3996 32.7543 74.0304 32.585 74.5843 32.2465C75.1483 31.9081 75.5894 31.4363 75.9075 30.8311C76.2252 30.2363 76.3842 29.5748 76.3843 28.8465C76.3843 27.7389 76.0304 26.8107 75.3227 26.0619C74.6253 25.3132 73.7432 24.9388 72.6765 24.9388C71.5997 24.9388 70.7125 25.3132 70.015 26.0619H70.0305ZM80.9535 30.1081V23.077H83.292V30.2923C83.292 31.0615 83.4971 31.6667 83.9073 32.1078C84.3176 32.5385 84.8869 32.7539 85.6154 32.754C86.3334 32.754 86.8974 32.5386 87.3075 32.1078C87.7175 31.677 87.9227 31.0718 87.923 30.2923V23.077H90.2614V30.1078C90.2614 31.6258 89.846 32.8104 89.0152 33.6616C88.1845 34.5236 87.046 34.9493 85.5999 34.9387C84.164 34.9387 83.0306 34.513 82.1998 33.6616C81.3692 32.8002 80.9539 31.6155 80.9539 30.1078L80.9535 30.1081ZM93.3073 34.6157V23.077H99.9997V25.077H95.6308V27.7385H99.338V29.7392H95.6308V32.6161H100V34.6161L93.3073 34.6157ZM0 51.3078V39.7693H6.69235V41.7693H2.33843V44.4308H6.04616V46.4308H2.33843V51.3078H0ZM8.90738 51.3078V39.7693H12.4154C13.6769 39.7693 14.6769 40.077 15.4154 40.6924C16.1436 41.3078 16.5077 42.1489 16.5077 43.2155C16.5077 43.9026 16.3487 44.5026 16.0307 45.0155C15.7127 45.5285 15.2615 45.9233 14.6769 46.2001L18.2769 51.3083H15.4923L12.4307 46.6471H11.2461V51.3083L8.90738 51.3078ZM11.2458 44.6616H12.5535C13.0458 44.6616 13.4304 44.5334 13.7073 44.2769C13.9842 44.0204 14.1176 43.6564 14.1073 43.1847C14.1073 42.7436 13.974 42.3949 13.7073 42.1385C13.4406 41.8821 13.056 41.759 12.5535 41.7693H11.2461L11.2458 44.6616ZM18.9381 51.3078L23.292 39.7693H26.339L30.6928 51.3078H28.2153L27.1076 48.3077H22.5079L21.4155 51.3078H18.9381ZM23.2304 46.3077H26.3997L24.815 41.9846L23.2304 46.3077ZM32.6304 51.3078V39.7693H35.6155L40.7536 48.0308V39.7693H43.0767V51.3078H40.0917L34.9532 43.0155V51.3078H32.6304ZM45.492 45.5385C45.492 44.718 45.6409 43.9385 45.9389 43.2C46.2363 42.4514 46.6465 41.8001 47.1697 41.2462C47.7029 40.6928 48.3491 40.2569 49.1082 39.9385C49.8774 39.6103 50.7082 39.4462 51.6005 39.4462C52.616 39.4462 53.539 39.6513 54.3696 40.0615C55.2104 40.4822 55.8976 41.0566 56.4313 41.7846L54.6005 43.2155C54.268 42.7388 53.8312 42.3442 53.3234 42.0615C52.8106 41.7742 52.2362 41.6305 51.6004 41.6305C50.5234 41.6305 49.6362 42.0049 48.9389 42.7535C48.2415 43.5022 47.8876 44.4304 47.8773 45.5381C47.8773 46.6459 48.2312 47.5792 48.9389 48.3382C49.6362 49.0869 50.5234 49.4561 51.6004 49.4459C52.2362 49.4459 52.8106 49.3075 53.3234 49.0308C53.8342 48.7456 54.2714 48.3452 54.6005 47.8616L56.4313 49.277C55.9806 49.9021 55.4043 50.4261 54.7392 50.8154C54.0624 51.2154 53.3137 51.4667 52.4932 51.5693L51.0624 53.9693H49L50.4461 51.5385C49.4719 51.3642 48.6053 50.9898 47.8462 50.4155C47.0979 49.8541 46.4962 49.1203 46.0923 48.2764C45.6821 47.4256 45.4821 46.5129 45.4923 45.5385H45.492ZM57.1073 51.3078L61.4612 39.7693H64.5075L68.8612 51.3078H66.3845L65.2924 48.3077H60.6923L59.5846 51.3078H57.1073ZM61.4151 46.3077H64.5689L62.9843 41.9846L61.4151 46.3077ZM70.7998 51.3078V39.7693H73.1382V51.3078H70.7998ZM75.4769 49.7077L77.169 48.1538C77.5179 48.6051 77.9076 48.9538 78.3383 49.2001C78.7793 49.4462 79.2357 49.5693 79.7076 49.5693C80.1691 49.5693 80.528 49.4513 80.7845 49.2154C81.0511 48.9797 81.1844 48.6515 81.1845 48.2308C81.1856 47.9881 81.1102 47.7513 80.969 47.5539C80.8152 47.3489 80.6153 47.1796 80.3691 47.0462C80.0947 46.888 79.8123 46.7442 79.5231 46.6152C79.2051 46.4613 78.882 46.3126 78.5538 46.169C78.2212 46.0229 77.902 45.8479 77.6 45.6459C77.2948 45.4509 77.0112 45.224 76.754 44.9689C76.5078 44.7227 76.3079 44.4099 76.1541 44.0304C76.0003 43.6509 75.9234 43.2356 75.9233 42.7843C75.9233 41.851 76.272 41.0613 76.9693 40.4151C77.6667 39.7689 78.5488 39.4458 79.6155 39.4458C81.2155 39.4458 82.554 40.092 83.631 41.3844L81.923 42.9227C81.1845 41.9588 80.4204 41.4768 79.6307 41.4767C79.2409 41.4767 78.9178 41.5946 78.6614 41.8306C78.405 42.0665 78.282 42.3538 78.2922 42.6926C78.2917 42.9066 78.3561 43.1157 78.4767 43.2925C78.6089 43.4761 78.77 43.6372 78.9537 43.7694C79.1819 43.9159 79.4182 44.0494 79.6613 44.1695L80.4767 44.554C80.7747 44.6875 81.067 44.8208 81.3537 44.954C81.6492 45.0966 81.9277 45.2721 82.1838 45.4772C82.4487 45.6703 82.6867 45.8979 82.8914 46.154C83.0965 46.4001 83.2555 46.6925 83.3684 47.031C83.4914 47.3796 83.553 47.7642 83.5531 48.1848C83.5325 49.231 83.1581 50.0669 82.43 50.6924C81.7121 51.3182 80.8147 51.631 79.7376 51.6309C78.7941 51.6309 77.9787 51.472 77.2915 51.1541C76.6049 50.8258 76.0001 50.3436 75.4769 49.7077ZM86.1538 51.3078V39.7693H92.8462V41.7693H88.4922V44.4308H92.2V46.4308H88.4922V49.3078H92.8462V51.3078H86.1538Z" fill="black"/>
<path d="M38.2155 82.9384C38.5539 82.9384 38.8464 83.1999 38.6925 83.8004L37.1387 84.2155C37.3848 83.477 37.8463 82.9384 38.2155 82.9384ZM39.0775 85.4614H38.7699C38.3852 85.923 37.9545 86.2923 37.5392 86.2923C37.1082 86.2923 36.893 86.0306 36.893 85.4614C36.8949 85.2286 36.9207 84.9966 36.9699 84.7691L39.4929 83.939C39.9852 82.7697 39.3853 82.2621 38.693 82.2621C37.4929 82.2621 36.1389 84.3544 36.1389 86.0005C36.1389 86.7852 36.5081 87.2159 37.0928 87.2159C37.7852 87.2159 38.4928 86.5544 39.0774 85.462L39.0775 85.4614ZM38.6773 81.7082L40.1081 80.4005V80.2159H39.1543L38.3083 81.7236H38.6775L38.6773 81.7082ZM33.3082 82.9692H34.1382L32.8154 86.5994C32.6923 86.9072 32.8615 87.2148 33.1846 87.2148C34.1231 87.2148 35.2461 86.4149 35.6769 85.2764H35.4461C35.1077 85.7532 34.3692 86.2763 33.8153 86.3841L35.0307 82.968H36.277L36.4307 82.445H35.2154L35.6774 81.1384H35.2004L34.3384 82.4461L33.3077 82.5845L33.3082 82.9692ZM32.4462 82.7847C32.5539 82.4463 32.3231 82.2616 32.1539 82.2616C31.4308 82.2616 30.5539 82.9231 30.2153 83.8308H30.4462C30.677 83.4924 31.0769 83.1231 31.4616 83.0617L30.0616 86.6923C29.9385 87.0309 30.1847 87.2154 30.3692 87.2154C31.0615 87.2154 31.8769 86.5539 32.2153 85.6462H31.9847C31.7538 85.9847 31.3538 86.3539 30.9693 86.4155L32.4462 82.7847ZM32.5846 81.3385C32.8923 81.3385 33.1538 81.077 33.1538 80.7692C33.1538 80.4614 32.8923 80.2001 32.5846 80.2001C32.4343 80.2024 32.2909 80.2631 32.1846 80.3694C32.0784 80.4756 32.0177 80.619 32.0153 80.7692C32.0153 81.0923 32.2615 81.3385 32.5846 81.3385V81.3385ZM25.8308 83.277C26.0461 83.277 26.1692 83.6154 25.8308 84.3694L24.8462 86.5539C24.6615 86.9689 24.8621 87.2309 25.2612 87.2309C25.5073 87.2309 25.6151 87.1693 25.7227 86.9078L26.692 84.3537C27.1381 83.8 27.969 83.2152 28.3381 83.2152C28.5997 83.2152 28.5689 83.4307 28.3997 83.7692L26.9076 86.6154C26.7692 86.8922 26.9539 87.2307 27.2768 87.2307C28 87.2307 28.877 86.5691 29.2154 85.6614H28.9539C28.7231 85.9998 28.3231 86.3692 27.9385 86.4307L29.2156 83.8461C29.3848 83.523 29.4617 83.2152 29.4617 82.9691C29.4617 82.554 29.2309 82.2768 28.7847 82.2768C28.154 82.2768 27.6156 82.9846 26.8463 83.8614V83.1846C26.8463 82.7076 26.6924 82.2768 26.2618 82.2768C25.754 82.2768 25.2925 83.0768 24.9233 83.8461H25.1541C25.4156 83.4769 25.6464 83.2768 25.8309 83.2768L25.8308 83.277ZM24.831 83.3691C25.0002 82.7691 24.9079 82.2614 24.4618 82.2614C23.8925 82.2614 23.7078 82.646 23.1541 83.8461V83.1691C23.1541 82.6923 23.0002 82.2614 22.5693 82.2614C22.0617 82.2614 21.6002 83.0615 21.231 83.8306H21.4617C21.7078 83.4769 21.9386 83.2614 22.1232 83.2614C22.3387 83.2614 22.4618 83.5999 22.1232 84.3537L21.1386 86.5384C20.954 86.9535 21.1545 87.2153 21.5536 87.2153C21.7998 87.2153 21.9075 87.1538 22.0153 86.8922L22.9537 84.3381C23.2305 83.9997 23.4767 83.7072 23.7838 83.3841H24.83L24.831 83.3691ZM19.4617 82.9381C19.8002 82.9381 20.0925 83.1996 19.9386 83.8001L18.3848 84.2152C18.6463 83.4767 19.0924 82.9381 19.4617 82.9381V82.9381ZM20.3237 85.4611H20.0161C19.6313 85.9227 19.2007 86.292 18.7853 86.292C18.3543 86.292 18.1391 86.0303 18.1391 85.4611C18.1411 85.2283 18.1669 84.9963 18.2161 84.7688L20.739 83.9387C21.2315 82.7694 20.6468 82.2618 19.9391 82.2618C18.7392 82.2618 17.385 84.354 17.385 86.0001C17.385 86.7849 17.7543 87.2156 18.339 87.2156C19.0313 87.2156 19.7389 86.5541 20.3235 85.4617L20.3237 85.4611ZM14.5538 82.9691H15.3839L14.0615 86.5994C13.9384 86.9072 14.1077 87.2148 14.4307 87.2148C15.3692 87.2148 16.5077 86.4149 16.9231 85.2764H16.6922C16.3538 85.7532 15.6154 86.2763 15.0616 86.3841L16.2769 82.968H17.5231L17.677 82.445H16.4616L16.9231 81.1373H16.4461L15.5841 82.445L14.5533 82.5834L14.5538 82.9691ZM10.1384 85.8C10.1384 84.6768 11.3847 83.1538 12.0923 83.1538C12.2462 83.1538 12.3999 83.1697 12.5233 83.2152L11.8004 85.1538C11.3853 85.6614 10.7388 86.2768 10.4311 86.2768C10.2465 86.2768 10.1388 86.1384 10.1388 85.8H10.1384ZM13.9699 82.0461L13.5852 82.0153L13.1542 82.4463H13.0769C11.2461 82.4463 9.27692 84.7231 9.27692 86.5231C9.27692 86.9381 9.50775 87.2154 9.95391 87.2154C10.4923 87.2154 11.0155 86.4461 11.6153 85.6308L11.5845 85.9232C11.5078 86.7533 11.7692 87.2154 12.2001 87.2154C12.7077 87.2154 13.1692 86.4155 13.5231 85.6462H13.2923C13.0461 86 12.8154 86.2155 12.6308 86.2155C12.4461 86.2155 12.3077 85.8616 12.6308 85.1231L13.9699 82.0461ZM10.0468 83.3691C10.216 82.7691 10.1238 82.2614 9.67759 82.2614C9.10835 82.2614 8.92366 82.646 8.3699 83.8461V83.1691C8.3699 82.6923 8.21602 82.2614 7.76985 82.2614C7.26223 82.2614 6.80057 83.0615 6.44683 83.8306H6.6775C6.92365 83.4769 7.15448 83.2614 7.33917 83.2614C7.55451 83.2614 7.67758 83.5999 7.33917 84.3537L6.33908 86.5537C6.15455 86.9688 6.35505 87.2307 6.75412 87.2307C7.00027 87.2307 7.10802 87.1691 7.21577 86.9076L8.18489 84.3376C8.46185 83.9992 8.708 83.7067 9.01497 83.3836H10.0457L10.0468 83.3691ZM3.59999 87.0464L3.69225 86.7694C2.47699 86.5387 2.3231 86.5387 2.8154 85.2156L3.27689 83.9695H4.24617C4.84622 83.9695 4.86154 84.231 4.76928 84.8925H5.12302L5.92309 82.6926H5.56919C5.26158 83.2155 5.03075 83.6156 4.36924 83.6156H3.40013L4.06164 81.8156C4.29246 81.1694 4.40021 81.0463 5.23093 81.0463H5.44627C6.29231 81.0463 6.40022 81.2772 6.40022 82.1695H6.73864L7.01544 80.6771H2.3223L2.23004 80.9541C3.19915 81.1541 3.29158 81.2463 2.84541 82.5079L1.84533 85.231C1.38384 86.4771 1.19914 86.5849 0.0761437 86.7849L0 87.0614H3.59999V87.0464ZM26.877 72.3383C27.2154 72.3383 27.5077 72.6 27.3538 73.2003L25.7999 73.6154C26.0461 72.8769 26.5077 72.3383 26.877 72.3383ZM27.739 74.8615H27.4312C27.0467 75.3229 26.6158 75.6915 26.2005 75.6915C25.7695 75.6915 25.5543 75.4301 25.5543 74.8615C25.5562 74.6287 25.582 74.3967 25.6312 74.1691L28.1543 73.3391C28.6466 72.1698 28.0466 71.6621 27.3543 71.6621C26.1543 71.6621 24.8002 73.7544 24.8002 75.4005C24.8002 76.1851 25.1694 76.6159 25.754 76.6159C26.4463 76.6319 27.1539 75.9544 27.7387 74.8621L27.739 74.8615ZM27.3386 71.1082L28.7694 69.8005V69.6147H27.8156L26.9696 71.1223H27.3388L27.3386 71.1082ZM21.9695 72.3693H22.7995L21.477 75.9999C21.3539 76.3075 21.5231 76.6153 21.8462 76.6153C22.7847 76.6153 23.9077 75.8152 24.3385 74.6768H24.1077C23.7693 75.1537 23.0308 75.6768 22.4769 75.7846L23.6923 72.3685H24.9384L25.0923 71.8454H23.8769L24.3385 70.5377H23.8616L22.9996 71.8454L21.9688 71.9993L21.9695 72.3693ZM21.1075 72.2001C21.215 71.8617 20.9844 71.677 20.7997 71.677C20.0766 71.677 19.1997 72.3385 18.8613 73.2462H19.0918C19.3226 72.9077 19.7227 72.5385 20.1072 72.4771L18.7072 76.1077C18.5842 76.4463 18.8303 76.6308 19.0149 76.6308C19.7072 76.6308 20.5226 75.9693 20.861 75.0616H20.6303C20.3995 75.4 19.9995 75.7693 19.6149 75.8309L21.1075 72.2001ZM21.2459 70.7538C21.5535 70.7538 21.8151 70.4924 21.8151 70.1846C21.8151 69.8768 21.5538 69.6147 21.2468 69.6147C21.1481 69.6158 21.0513 69.6417 20.9652 69.6901C20.8792 69.7385 20.8067 69.8077 20.7545 69.8915C20.6468 70.0607 20.6468 70.2916 20.7545 70.4762C20.8621 70.6455 21.0468 70.7685 21.2468 70.753L21.2459 70.7538ZM16.7853 75.8293L19.0918 69.7076L19.0149 69.5999L17.4157 69.7846V69.9691L17.7234 70.1999C18.0002 70.4153 17.908 70.615 17.6618 71.3076L15.9077 75.984C15.7539 76.2609 15.9538 76.5993 16.2769 76.5993C17 76.5993 17.7846 75.9378 18.123 75.0302H17.8923C17.6462 75.3841 17.1539 75.7533 16.7847 75.8303L16.7853 75.8293ZM12.077 75.1994C12.077 74.0764 13.3231 72.5532 14.0307 72.5532C14.1846 72.5532 14.323 72.5692 14.4617 72.6148L13.7231 74.5537C13.3081 75.0615 12.6616 75.6768 12.3538 75.6768C12.1846 75.6928 12.077 75.5383 12.077 75.1999V75.1994ZM15.9081 71.4615L15.5236 71.4307L15.0926 71.8617H15.0156C13.185 71.8617 11.2164 74.1385 11.2164 75.9385C11.2164 76.3535 11.4473 76.6308 11.8934 76.6308C12.4319 76.6308 12.955 75.8615 13.555 75.0461L13.5242 75.3386C13.4473 76.1687 13.7087 76.6308 14.1396 76.6308C14.6472 76.6308 15.1089 75.8309 15.4626 75.0616H15.2308C14.9847 75.4154 14.7538 75.6309 14.5693 75.6309C14.3848 75.6309 14.2462 75.277 14.5693 74.5538L15.9081 71.4615ZM7.00075 77.5076C7.00075 77.0307 7.4624 76.7229 8.12391 76.4614C8.33925 76.5692 8.67767 76.6923 9.10851 76.8307C9.80083 77.0615 10.0623 77.1537 10.0623 77.3538C10.0623 77.7999 9.4316 78.1383 8.2778 78.1383C7.41579 78.1543 7.00075 77.9691 7.00075 77.5076ZM8.89317 74.5692C8.5854 74.5692 8.47813 74.3075 8.47813 74.0152C8.47813 73.1076 8.90913 72.0152 9.60129 72.0152C9.9089 72.0152 10.0163 72.2769 10.0163 72.5692C10.0163 73.4615 9.57016 74.5692 8.89333 74.5692H8.89317ZM10.8616 77.0615C10.8616 76.4768 10.3385 76.2614 9.49226 76.0153C8.7693 75.7999 8.43072 75.7383 8.43072 75.4922C8.43072 75.3076 8.5846 75.0771 8.89237 74.9076C10.0923 74.8461 10.8461 73.7691 10.8461 72.8153C10.8456 72.6583 10.8197 72.5025 10.7693 72.3538H11.5845L11.7384 71.8307H10.3538C10.1693 71.7076 9.93875 71.646 9.67696 71.646C8.41588 71.646 7.6 72.7537 7.6 73.7383C7.6 74.3691 7.96923 74.7998 8.5538 74.8768C7.96923 75.1539 7.63033 75.446 7.63033 75.8152C7.63033 76.0307 7.70728 76.1845 7.89181 76.323C6.53798 76.7229 5.98407 77.2307 5.98407 77.8153C5.98407 78.4461 6.81494 78.7076 7.79954 78.7076C9.46114 78.7236 10.8611 77.8153 10.8611 77.0615H10.8616ZM4.58459 73.3691C5.18464 73.3691 5.19996 73.6307 5.10769 74.2922H5.4616L6.2615 72.0922H5.90776C5.59999 72.6158 5.36917 73.0148 4.70766 73.0148H3.36916L4.03083 71.2149C4.26149 70.5687 4.38457 70.4456 5.19996 70.4456H5.78469C6.63073 70.4456 6.73848 70.6764 6.73848 71.5686H7.0769L7.35385 70.0776H2.3231L2.23084 70.3546C3.19995 70.5546 3.29238 70.6469 2.84621 71.9084L1.84613 74.6314C1.38463 75.8769 1.19994 75.984 0.0769419 76.1845L0 76.4614H5.59999L6.60008 74.8768H6.21537C5.56919 75.523 4.90768 76.0922 3.66128 76.0922C2.1689 76.0922 2.3073 76.0153 2.79928 74.6306L3.26077 73.3846H4.58459V73.3691ZM5.30771 69.6147L6.73848 68.5685V68.3838H5.78469L4.93865 69.6147H5.30771ZM26.6923 61.7531C27.0307 61.7531 27.3231 62.0147 27.1693 62.6151L25.6154 63.0301C25.8616 62.2763 26.3231 61.7531 26.6923 61.7531V61.7531ZM27.5543 64.2762H27.2467C26.862 64.7377 26.4313 65.1063 26.0159 65.1063C25.5849 65.1063 25.3697 64.8448 25.3697 64.2762C25.3717 64.0434 25.3975 63.8114 25.4467 63.5839L27.9688 62.7538C28.4611 61.5845 27.8613 61.0777 27.1689 61.0777C25.9688 61.0777 24.6149 63.17 24.6149 64.8161C24.6149 65.6006 24.9841 66.0315 25.5688 66.0315C26.2611 66.0315 26.9688 65.37 27.5533 64.2776L27.5543 64.2762ZM27.1531 60.523L28.5839 59.2153V59.0312H27.6301L26.7841 60.5388H27.1531V60.523ZM21.784 61.7692H22.63L21.3076 65.4005C21.1846 65.7082 21.3539 66.0158 21.6769 66.0158C22.6153 66.0158 23.7538 65.2159 24.1692 64.0775H23.9385C23.6001 64.5544 22.8615 65.0774 22.3077 65.1851L23.5231 61.7698H24.7692L24.9231 61.2467H23.7077L24.1692 59.939H23.6923L22.8303 61.2467L21.7994 61.3851V61.7698L21.784 61.7692ZM21.353 62.1842C21.5222 61.5842 21.4297 61.0766 20.9837 61.0766C20.4145 61.0766 20.2298 61.4611 19.676 62.6611V61.9844C19.676 61.5074 19.5222 61.0767 19.0913 61.0767C18.5837 61.0767 18.122 61.8766 17.7528 62.6459H17.9836C18.2298 62.292 18.4606 62.0767 18.6452 62.0767C18.8607 62.0767 18.9837 62.4151 18.6452 63.169L17.6606 65.3535C17.476 65.7686 17.6765 66.0305 18.0756 66.0305C18.3217 66.0305 18.4295 65.9689 18.5372 65.7074L19.5064 63.1534C19.7833 62.8149 20.0295 62.5227 20.3364 62.1996H21.3518L21.353 62.1842ZM15.9836 61.7532C16.3221 61.7532 16.6145 62.0149 16.4606 62.6152L14.9068 63.0303C15.1529 62.2765 15.6144 61.7532 15.9836 61.7532ZM16.8456 64.2764H16.538C16.1533 64.7379 15.7226 65.1064 15.3073 65.1064C14.8763 65.1064 14.6611 64.845 14.6611 64.2764C14.663 64.0436 14.6888 63.8116 14.738 63.584L17.2602 62.754C17.7525 61.5847 17.1679 61.0778 16.4603 61.0778C15.2602 61.0778 13.9062 63.1701 13.9062 64.8162C13.9062 65.6008 14.2754 66.0317 14.8602 66.0317C15.5525 66.0317 16.2601 65.3701 16.8447 64.2778L16.8456 64.2764ZM10.9677 65.2932C10.7216 65.2932 10.3678 65.0624 10.3678 64.8622C10.3678 64.8007 10.4754 64.5085 10.614 64.1546L11.014 63.0777C11.445 62.5546 12.1217 61.9853 12.5062 61.9853C12.7371 61.9853 12.9063 62.1392 12.9063 62.4622C12.8903 63.4776 11.9678 65.293 10.9677 65.293V65.2932ZM13.7678 62.0776C13.7678 61.3392 13.5831 61.0622 13.0602 61.0622C12.414 61.0622 11.8139 61.7545 11.1986 62.5852L12.4916 59.1083L12.4146 59.0007L10.8154 59.1845V59.3692L11.123 59.5998C11.4 59.8153 11.3077 60.0308 11.0616 60.7077L9.66147 64.3846C9.5384 64.6922 9.4 65.0614 9.4 65.1537C9.4 65.5847 9.98456 65.9997 10.5232 65.9997C11.7384 66.0305 13.7692 63.7997 13.7692 62.0767L13.7678 62.0776ZM9.0461 61.5997C9.13852 61.2613 8.92302 61.0767 8.73849 61.0767C8.01536 61.0767 7.13851 61.7382 6.79994 62.6459H7.03076C7.26159 62.3075 7.66146 61.9383 8.04617 61.8766L6.64621 65.5074C6.52314 65.8458 6.76929 66.0305 6.95382 66.0305C7.64614 66.0305 8.46153 65.369 8.79995 64.4612H8.56928C8.33845 64.7998 7.93842 65.169 7.55387 65.2305L9.0461 61.5997ZM9.19998 60.1536C9.50775 60.1536 9.76922 59.8921 9.76922 59.5843C9.76922 59.2766 9.50775 59.0153 9.19998 59.0153C9.10127 59.0164 9.00444 59.0424 8.9184 59.0908C8.83237 59.1392 8.7599 59.2084 8.70768 59.2922C8.59993 59.4614 8.59993 59.6922 8.70768 59.8768C8.81543 60.046 8.99996 60.1691 9.19998 60.1537V60.1536ZM5.64613 59.4622H2.3231L2.23084 59.7392C3.19995 59.9392 3.29238 60.0315 2.84621 61.293L1.84613 64.0162C1.38463 65.2614 1.19994 65.3685 0.0769419 65.5692L0 65.846H5.04608L6.13843 63.8921H5.75388C5.12302 64.5844 4.40005 65.4615 3.27689 65.4615C2.43085 65.4615 2.30762 65.3076 2.78459 63.9999L3.78468 61.2767C4.24617 60.0307 4.4307 59.9229 5.55386 59.7229L5.64613 59.4622Z" fill="black"/>
</svg>
