<?xml version="1.0" encoding="utf-8"?>
<!-- Generator: Adobe Illustrator 24.1.0, SVG Export Plug-In . SVG Version: 6.00 Build 0)  -->
<svg version="1.1" id="Layer_1" xmlns="http://www.w3.org/2000/svg" xmlns:xlink="http://www.w3.org/1999/xlink" x="0px" y="0px"
	 viewBox="0 0 45 38" style="enable-background:new 0 0 45 38;" xml:space="preserve">
<style type="text/css">
	.st0{fill:#5770BE;}
</style>
<g>
	<g>
		<path class="st0" d="M39.6,37.5H5.7V13.8l-4.4,3.2c-0.2,0.2-0.5,0.1-0.7-0.1c-0.2-0.2-0.1-0.5,0.1-0.7l5.2-3.8c0,0,0,0,0,0
			L22.3,0.4l17.1,12.4c0,0,0,0,0,0l4.9,3.5c0.2,0.2,0.3,0.5,0.1,0.7c-0.2,0.2-0.5,0.3-0.7,0.1l-4.1-2.9V37.5z M29.4,36.5h9.2V13.4
			L22.3,1.6L6.7,13.1v23.4h8.9V26c0-1.8,0.7-3.3,2.2-4.4c1.2-0.9,2.9-1.4,4.6-1.4c3.5,0,7.1,2,7.1,5.7V36.5z M16.6,36.5h11.9V26
			c0-3.1-3.1-4.7-6.1-4.7c-1.6,0-3,0.4-4,1.2c-1.1,0.8-1.8,2.1-1.8,3.5V36.5z"/>
	</g>
</g>
</svg>
