<?xml version="1.0" encoding="utf-8"?>
<!-- Generator: Adobe Illustrator 25.3.0, SVG Export Plug-In . SVG Version: 6.00 Build 0)  -->
<svg version="1.1" id="Calque_1" xmlns="http://www.w3.org/2000/svg" xmlns:xlink="http://www.w3.org/1999/xlink" x="0px" y="0px"
	 viewBox="0 0 50 42" style="enable-background:new 0 0 50 42;" xml:space="preserve">
<style type="text/css">
	.st0{fill:#4F6BC7;}
	.st1{fill:#5770BE;}
</style>
<g>
	<path class="st0" d="M42.3,41.3H7.7c-0.8,0-1.5-0.7-1.5-1.5V15.1l-4.9,3.6c-0.2,0.2-0.5,0.1-0.7-0.1c-0.2-0.2-0.1-0.5,0.1-0.7
		l5.7-4.2c0,0,0,0,0,0L23.7,1c0.5-0.4,1.2-0.4,1.8,0l18.1,13c0,0,0,0,0,0l5.4,3.9c0.2,0.2,0.3,0.5,0.1,0.7c-0.2,0.2-0.5,0.3-0.7,0.1
		l-4.6-3.3v24.4C43.8,40.6,43.1,41.3,42.3,41.3z M7.2,14.4v25.4c0,0.3,0.2,0.5,0.5,0.5h34.6c0.3,0,0.5-0.2,0.5-0.5V14.7L24.9,1.8
		c-0.2-0.1-0.4-0.1-0.6,0L7.2,14.4z"/>
</g>
<g>
	<path class="st1" d="M25.4,33.3c-0.5,0-0.9-0.1-1.3-0.4c-0.6,0.4-1.4,0.3-2,0c-0.3-0.2-0.5-0.4-0.6-0.7c-0.1,0-0.2,0-0.4,0
		c-0.6-0.1-1.4-0.5-1.7-1.1c0,0,0-0.1,0-0.1c-0.5,0.1-1,0-1.3-0.3c-0.3-0.2-0.5-0.5-0.6-0.8c-0.3,0-0.6-0.1-0.8-0.2
		c-0.3-0.2-0.6-0.7-0.5-1.4l-1-0.6C15,27.8,15,27.9,14.9,28l-0.2,0.1l-3.7-1l3.6-9.5l3.6,1.4l-0.1,0.4l4,0.2
		c3.3-1.9,5.1-1.6,7.3-0.3l2.5-0.2l3.1-1.5l4.5,8.6l-4,1.6l-0.2-0.1c-0.1-0.1-0.3-0.2-0.4-0.3l-1.1,0.8c0.4,0.8,0.2,1.6-0.3,2.1
		c-0.3,0.2-0.6,0.4-0.9,0.4c-0.1,0.4-0.3,0.9-0.7,1.2c-0.6,0.6-1.3,0.7-1.9,0.4c-0.2,0.5-0.7,0.9-1.2,1c-0.5,0.1-0.9,0-1.2-0.3
		l-0.4-0.3c-0.3,0.3-0.8,0.5-1.2,0.6C25.7,33.3,25.6,33.3,25.4,33.3z M23.7,32l0.4,0.4L23.7,32c0.2-0.2,0.6-1,0.7-1.6
		c-0.2-0.2-0.6-0.3-0.8-0.2c-0.3,0.4-0.9,1.3-1.2,1.6c0,0.1,0.1,0.3,0.2,0.4C22.9,32.3,23.4,32.3,23.7,32z M24.8,32.2
		c0.3,0.1,0.6,0.2,0.9,0.1c0.2,0,0.4-0.1,0.6-0.3l-1.1-0.9C25.1,31.5,25,31.9,24.8,32.2z M27.4,31.5l0.8,0.7
		c0.1,0.1,0.2,0.2,0.4,0.1c0.3-0.2,0.5-0.5,0.5-0.6l-4.8-4.2l0.7-0.8l4.8,4.3c0,0,0,0,0,0l0.3,0.3c0.4,0.4,0.6,0.3,0.8,0.2
		c0.4-0.3,0.7-0.9,0.6-1.1l-5.3-4.2l0.6-0.8l5.4,4.3L32,29.8l0.2-0.2c0.2,0.2,0.3,0.1,0.4,0c0.2-0.2,0.3-0.7-0.1-1.1
		c-3.1-2.6-6.5-5.5-6.9-5.8c-0.3-0.1-0.8,0-1,0.1c-0.7,1.6-2.1,2.3-3.8,1.8l-0.1,0l-0.1-0.1c-0.3-0.3-0.4-0.8-0.3-1.4
		c0.1-0.5,0.5-1.1,1-1.4c0-0.4,0-0.8,0.1-1.1l-3.6-0.2c-0.5,2.4-1.5,5-2.2,6.5l0.9,0.6c0.5-0.8,1.4-1.3,2.3-0.8
		c0.2,0.2,0.4,0.3,0.5,0.5c0.5-0.1,1.1,0.1,1.5,0.4c0.2,0.1,0.4,0.3,0.5,0.5c0.4-0.1,0.9-0.1,1.3,0.1c0.5,0.2,0.8,0.7,1,1.1
		c0.5,0,1.2,0.2,1.6,0.7L27.4,31.5z M21.5,31.2l0.4,0.3L21.5,31.2c0.2-0.2,0.7-0.9,1.3-1.7c-0.1-0.3-0.3-0.5-0.5-0.6
		c-0.3-0.1-0.5-0.1-0.8,0.1c-0.3,0.4-0.8,1.1-1,1.5L20,30.2l0.4,0.3c0,0,0,0,0,0.1c-0.1,0.1-0.1,0.2,0,0.3c0.1,0.2,0.5,0.5,0.9,0.5
		C21.3,31.3,21.5,31.3,21.5,31.2z M24.9,30.2L24.9,30.2z M18.5,29.5c-0.2,0.3,0,0.4,0.1,0.5c0.3,0.2,0.8,0.2,1,0c0,0,0,0,0,0
		c0.2-0.5,0.8-1.2,1-1.5c-0.1-0.1-0.4-0.3-0.7-0.4c-0.2,0-0.3,0-0.4,0c-0.1,0.3-0.4,0.7-0.6,1l-0.1,0.1
		C18.7,29.3,18.6,29.4,18.5,29.5z M18.1,29.1l-0.3-0.4c0.1-0.1,0.1-0.1,0.2-0.2l0.1-0.1c0.2-0.3,0.4-0.6,0.5-0.8l0.5,0.1l-0.5-0.1
		c0-0.1,0-0.1-0.2-0.3c-0.5-0.2-1,0.5-1.2,0.9c-0.1,0.3-0.1,0.5,0,0.6c0.1,0.1,0.3,0.1,0.6-0.1L18.1,29.1z M33,28.1L33,28.1z
		 M25.4,21.6c0.3,0,0.5,0,0.8,0.2c0.5,0.3,5.1,4.1,6.9,5.7l1.2-0.8c-0.9-1.6-2.1-4.6-2.7-6.5l-2.5,0.2l-0.1-0.1
		c-2-1.2-3.4-1.5-6.4,0.2c-0.1,0.2-0.1,0.8-0.1,1.5v0.4l-0.3,0.1c-0.3,0.1-0.6,0.5-0.7,0.8c0,0.1,0,0.3,0,0.4
		c1.4,0.4,2.1-0.5,2.5-1.4l0.1-0.2C24.3,21.9,24.8,21.6,25.4,21.6z M15,27L15,27L15,27z M12.3,26.4l2.2,0.6c0-0.1,0.1-0.1,0.1-0.2
		l0,0c0.7-1.1,1.9-4.2,2.4-7c0,0,0-0.1,0-0.1l-1.9-0.7L12.3,26.4z M34.9,26.7l0.4-0.3c0.1,0.1,0.1,0.2,0.2,0.2l2.5-1l-3.6-6.8
		l-1.9,0.9c0.8,2.4,2,5.5,2.8,6.6L34.9,26.7z"/>
</g>
</svg>
