<?xml version="1.0" encoding="utf-8"?>
<!-- Generator: Adobe Illustrator 25.3.0, SVG Export Plug-In . SVG Version: 6.00 Build 0)  -->
<svg version="1.1" id="Calque_1" xmlns="http://www.w3.org/2000/svg" xmlns:xlink="http://www.w3.org/1999/xlink" x="0px" y="0px"
	 viewBox="0 0 37 37" style="enable-background:new 0 0 37 37;" xml:space="preserve">
<style type="text/css">
	.st0{fill:#26366E;}
</style>
<g>
	<path class="st0" d="M25.1,8.2v27.2c0.1,0,0.2-0.1,0.3-0.1l9.7-6.4c0.2-0.1,0.3-0.2,0.4-0.3c0.1-0.1,0.1-0.3,0.1-0.4V3.2
		c0-0.1,0-0.3-0.1-0.4s-0.2-0.2-0.3-0.3c-0.1-0.1-0.3-0.1-0.4-0.1c-0.1,0-0.3,0-0.4,0.1l-8.2,5.3C25.7,8,25.4,8.1,25.1,8.2z"/>
	<path class="st0" d="M11.9,28.8V1.6c-0.2,0-0.3,0.1-0.5,0.2L2,8.1C1.8,8.2,1.7,8.3,1.6,8.4C1.5,8.6,1.5,8.7,1.5,8.9v24.9
		c0,0.1,0,0.3,0.1,0.4c0.1,0.1,0.2,0.2,0.3,0.3c0.1,0.1,0.3,0.1,0.4,0.1c0.1,0,0.3,0,0.4-0.1l8.2-5.3C11.3,29,11.6,28.9,11.9,28.8z"
		/>
	<path class="st0" d="M23.4,35.3c0.2,0.1,0.4,0.2,0.7,0.2V8.2c-0.3,0-0.7-0.2-1-0.3c0,0,0,0,0,0l-9.6-6.2c-0.1-0.1-0.3-0.1-0.5-0.2
		v27.3c0.3,0.1,0.7,0.2,1,0.3L23.4,35.3z"/>
</g>
</svg>
