<?xml version="1.0" encoding="utf-8"?>
<!-- Generator: Adobe Illustrator 24.1.0, SVG Export Plug-In . SVG Version: 6.00 Build 0)  -->
<svg version="1.1" id="Layer_1" xmlns="http://www.w3.org/2000/svg" xmlns:xlink="http://www.w3.org/1999/xlink" x="0px" y="0px"
	 viewBox="0 0 37 37" style="enable-background:new 0 0 37 37;" xml:space="preserve">
<style type="text/css">
	.st0{fill:#5770BE;}
</style>
<g>
	<path class="st0" d="M24.3,36.5c-0.5,0-1-0.1-1.4-0.3L13.4,30c-0.3-0.1-0.6-0.2-1-0.2c-0.4,0-0.7,0.1-1,0.3l-8.2,5.3
		c-0.3,0.2-0.6,0.2-1,0.2c-0.3,0-0.6-0.1-0.9-0.3c-0.3-0.2-0.5-0.4-0.7-0.7c-0.2-0.3-0.2-0.6-0.2-0.9V8.9c0-0.3,0.1-0.7,0.3-1
		c0.2-0.3,0.4-0.5,0.7-0.7l9.5-6.3c0.5-0.3,1-0.4,1.5-0.4c0.5,0,1,0.1,1.5,0.3L23.6,7c0.3,0.1,0.6,0.2,1,0.2c0,0,0,0,0,0
		c0.3,0,0.7-0.1,1-0.3l8.2-5.3c0.3-0.2,0.6-0.3,1-0.2c0.3,0,0.6,0.1,0.9,0.3c0.3,0.2,0.5,0.4,0.7,0.7c0.2,0.3,0.2,0.6,0.2,0.9v24.9
		c0,0.3-0.1,0.7-0.3,1c-0.2,0.3-0.4,0.5-0.7,0.7l-9.7,6.4c-0.4,0.2-0.8,0.3-1.1,0.4c-0.1,0-0.1,0-0.2,0
		C24.4,36.5,24.4,36.5,24.3,36.5z M12.9,28.8c0.3,0.1,0.7,0.2,1,0.3l9.5,6.2c0.2,0.1,0.4,0.2,0.7,0.2V8.2c-0.3,0-0.7-0.2-1-0.3
		c0,0,0,0,0,0l-9.6-6.2c-0.1-0.1-0.3-0.1-0.5-0.2V28.8z M25.1,8.2v27.2c0.1,0,0.2-0.1,0.3-0.1l9.7-6.4c0.2-0.1,0.3-0.2,0.4-0.3
		c0.1-0.1,0.1-0.3,0.1-0.4V3.2c0-0.1,0-0.3-0.1-0.4s-0.2-0.2-0.3-0.3c-0.1-0.1-0.3-0.1-0.4-0.1c-0.1,0-0.3,0-0.4,0.1l-8.2,5.3
		C25.7,8,25.4,8.1,25.1,8.2z M11.9,1.6c-0.2,0-0.3,0.1-0.5,0.2L2,8.1C1.8,8.2,1.7,8.3,1.6,8.4C1.5,8.6,1.5,8.7,1.5,8.9v24.9
		c0,0.1,0,0.3,0.1,0.4c0.1,0.1,0.2,0.2,0.3,0.3c0.1,0.1,0.3,0.1,0.4,0.1c0.1,0,0.3,0,0.4-0.1l8.2-5.3c0.3-0.2,0.7-0.3,1-0.4V1.6z"/>
</g>
</svg>
