<?xml version="1.0" encoding="utf-8"?>
<!-- Generator: Adobe Illustrator 24.1.0, SVG Export Plug-In . SVG Version: 6.00 Build 0)  -->
<svg version="1.1" id="Layer_1" xmlns="http://www.w3.org/2000/svg" xmlns:xlink="http://www.w3.org/1999/xlink" x="0px" y="0px"
	 viewBox="0 0 46 46" style="enable-background:new 0 0 46 46;" xml:space="preserve">
<style type="text/css">
	.st0{fill:#5770BE;}
</style>
<g>
	<path class="st0" d="M23.1,45.5c-8.1,0-16.9-4.1-18.9-13.4c-1.1,0.1-2.1-0.3-2.8-1.2c-0.9-1-1.1-2.5-0.6-3.7c0.3-0.7,1.1-2,3.4-2.4
		c0.1-4.8,1.8-9,5-12.1c3.3-3.3,8.1-5.3,13.2-5.4c-1.4-2.1-3.1-3.1-5.1-3c-0.3,0-0.5-0.2-0.5-0.5c0-0.3,0.2-0.5,0.5-0.5
		c2.3-0.2,4.2,0.9,5.8,3.1c0.6-2.4,1.9-5.4,4.3-6c0.3-0.1,0.5,0.1,0.6,0.4c0.1,0.3-0.1,0.5-0.4,0.6c-2,0.5-3.3,3.6-3.7,5.9
		c8.4,0.3,17.2,5.5,18.4,16.9c2.1,0.3,3.4,2.3,3.4,4.2c0,1.6-0.9,3.4-3.5,3.5C40.1,41.3,31.2,45.5,23.1,45.5z M5,31l0.1,0.5
		c1.6,9,10.2,13,18,13c7.8,0,16.4-4,18-13l0.1-0.4h0.4c2.7,0,2.9-1.9,2.9-2.5c0-1.5-1.1-3.2-2.9-3.2h-0.5l0-0.5
		c-1-11.3-9.8-16.4-18-16.5c0,0,0,0,0,0c0,0-0.1,0-0.1,0c-5.1,0-9.9,1.9-13.3,5.2c-3,3-4.7,7.1-4.7,11.8v0.5l-0.4,0
		c-1.5,0.2-2.6,0.8-3,1.8c-0.3,0.9-0.2,1.9,0.5,2.6c0.3,0.4,1.1,1,2.4,0.8L5,31z M23.3,38.3c-2.2,0-4.8-0.6-6.5-2.2
		c-0.2-0.2-0.2-0.5,0-0.7c0.2-0.2,0.5-0.2,0.7,0c1.8,1.8,4.9,2.2,7.2,1.9c1.9-0.2,3.5-0.9,4-1.8c0.1-0.2,0.5-0.3,0.7-0.2
		c0.2,0.1,0.3,0.5,0.2,0.7c-0.7,1.1-2.5,2-4.7,2.3C24.3,38.2,23.8,38.3,23.3,38.3z"/>
</g>
</svg>
