<?xml version="1.0" encoding="utf-8"?>
<!-- Generator: Adobe Illustrator 24.1.0, SVG Export Plug-In . SVG Version: 6.00 Build 0)  -->
<svg version="1.1" id="Layer_1" xmlns="http://www.w3.org/2000/svg" xmlns:xlink="http://www.w3.org/1999/xlink" x="0px" y="0px"
	 viewBox="0 0 24 52" style="enable-background:new 0 0 24 52;" xml:space="preserve">
<style type="text/css">
	.st0{fill:#5770BE;}
</style>
<g>
	<path class="st0" d="M18.5,51.5H5.2c-3.1,0-4.7-3.2-4.7-5.6V24c0-2.5,1.2-4.5,3.1-5.3v-4c0-1.4,0.1-1.8,1.1-1.9
		c0.2-2.9,1.7-3.8,3-4.6C8.4,7.9,9,7.5,9.3,6.9c0.2-0.3,0.1-1.2,0.1-2C9.3,3.6,9.2,2.1,10,1.2c0.5-0.5,1.1-0.7,2-0.7
		c1.1,0,1.8,0.3,2.3,0.8c0.8,1,0.6,2.5,0.3,3.9c-0.1,0.7-0.2,1.4-0.2,1.9c0,0.3,0.3,0.5,1.1,0.9c1.3,0.6,3.3,1.6,3.5,4.9
		c0.6,0,1,0.1,1.2,0.3c0.3,0.3,0.3,0.6,0.2,1.1c0,0.1,0,0.3,0,0.5v3.9c2,0.3,3.1,2.2,3.1,5.4v21.9C23.5,48.9,21.2,51.5,18.5,51.5z
		 M4.2,19.6c-1.7,0.5-2.7,2.2-2.7,4.4v21.9c0,1.5,1.1,4.6,3.7,4.6h13.3c1.9,0,4-1.9,4-4.6V24c0-1.3-0.3-4.4-2.6-4.4c0,0-0.1,0-0.1,0
		c0,0-0.1,0-0.1,0c-0.5-0.1-0.5-0.1-1.3-0.1H5.2C4.9,19.5,4.6,19.5,4.2,19.6C4.2,19.6,4.2,19.6,4.2,19.6z M5.2,13.9
		c-0.3,0-0.6,0-0.6,0c0,0,0,0.4,0,0.9v3.8c0.2,0,0.4,0,0.6,0h13.3c0.4,0,0.7,0,0.9,0v-3.7c0-0.2,0-0.4,0-0.5c0-0.1,0-0.3,0-0.3
		c-0.2,0-0.5,0-0.9,0H5.2z M5.7,12.9H18c-0.2-2.7-1.7-3.4-2.9-4c-0.8-0.4-1.6-0.8-1.6-1.7c-0.1-0.6,0-1.3,0.2-2.1
		c0.2-1.1,0.4-2.4-0.1-3c-0.3-0.3-0.8-0.5-1.5-0.5c-0.6,0-1,0.1-1.3,0.4c-0.5,0.6-0.4,1.8-0.4,3c0.1,1,0.2,2-0.2,2.6
		C9.7,8.2,9,8.7,8.3,9.1C7,9.9,5.9,10.6,5.7,12.9z M7.8,45H3.5C3.3,45,3,44.8,3,44.5S3.3,44,3.5,44h4.2c0.3,0,0.5,0.2,0.5,0.5
		S8,45,7.8,45z M7.8,40.3H3.5C3.3,40.3,3,40,3,39.8s0.2-0.5,0.5-0.5h4.2c0.3,0,0.5,0.2,0.5,0.5S8,40.3,7.8,40.3z M7.8,35.5H3.5
		C3.3,35.5,3,35.3,3,35s0.2-0.5,0.5-0.5h4.2c0.3,0,0.5,0.2,0.5,0.5S8,35.5,7.8,35.5z M7.8,30.7H3.5c-0.3,0-0.5-0.2-0.5-0.5
		s0.2-0.5,0.5-0.5h4.2c0.3,0,0.5,0.2,0.5,0.5S8,30.7,7.8,30.7z M7.8,26.8H3.5c-0.3,0-0.5-0.2-0.5-0.5s0.2-0.5,0.5-0.5h4.2
		c0.3,0,0.5,0.2,0.5,0.5S8,26.8,7.8,26.8z"/>
</g>
</svg>
