<?xml version="1.0" encoding="utf-8"?>
<!-- Generator: Adobe Illustrator 25.3.0, SVG Export Plug-In . SVG Version: 6.00 Build 0)  -->
<svg version="1.1" xmlns="http://www.w3.org/2000/svg" xmlns:xlink="http://www.w3.org/1999/xlink" x="0px" y="0px"
	 viewBox="0 0 38 39" style="enable-background:new 0 0 38 39;" xml:space="preserve">
<style type="text/css">
	.st0{fill:#26366E;}
</style>
<g id="Calque_1">
	<path class="st0" d="M1.5,32c0,3.7,0,5.9,4,5.9h25.2c2.6,0,5.8-1,5.8-5.9V16.7h-35V32z"/>
</g>
<g id="Calque_2">
	<g>
		<path class="st0" d="M31.6,5.1v4.1c0,2-1.6,3.6-3.6,3.6c-2,0-3.6-1.6-3.6-3.6V5.1H13.6v4.1c0,2-1.6,3.6-3.6,3.6s-3.6-1.6-3.6-3.6
			V5.1H5.5c-2.3,0-4,2.4-4,4.1v6.5h35V9.1C36.5,7.1,36.1,5.3,31.6,5.1z"/>
	</g>
	<path class="st0" d="M10,1C8.6,1,7.4,2.2,7.4,3.6v5.6c0,1.4,1.2,2.6,2.6,2.6s2.6-1.2,2.6-2.6V3.6C12.6,2.2,11.4,1,10,1z"/>
	<path class="st0" d="M28,1c-1.4,0-2.6,1.2-2.6,2.6v5.6c0,1.4,1.2,2.6,2.6,2.6s2.6-1.2,2.6-2.6V3.6C30.6,2.2,29.4,1,28,1z"/>
</g>
</svg>
