<?xml version="1.0" encoding="utf-8"?>
<!-- Generator: Adobe Illustrator 24.1.0, SVG Export Plug-In . SVG Version: 6.00 Build 0)  -->
<svg version="1.1" id="Layer_1" xmlns="http://www.w3.org/2000/svg" xmlns:xlink="http://www.w3.org/1999/xlink" x="0px" y="0px"
	 viewBox="0 0 38 41" style="enable-background:new 0 0 38 41;" xml:space="preserve">
<style type="text/css">
	.st0{fill:#5770BE;}
</style>
<g>
	<path class="st0" d="M30.7,40.7H5.5c-5,0-5-3.3-5-7.1V10c0-2.1,1.9-5.2,5-5.2h1.8v1H5.5c-2.3,0-4,2.5-4,4.2v6.7h35V10
		c0-2.3-0.4-4.2-5.8-4.2v-1c5.6,0,6.8,2.1,6.8,5.2v23.6C37.5,38.1,35,40.7,30.7,40.7z M1.5,17.7v15.9c0,4.1,0.2,6.1,4,6.1h25.2
		c2.6,0,5.8-1.1,5.8-6.1V17.7H1.5z M24.8,5.8H12.7v-1h12.1V5.8z"/>
</g>
<g>
	<path class="st0" d="M10,13.8c-2,0-3.6-1.6-3.6-3.6v-6c0-2,1.6-3.6,3.6-3.6s3.6,1.6,3.6,3.6v6C13.6,12.2,12,13.8,10,13.8z M10,1.5
		c-1.4,0-2.6,1.2-2.6,2.6v6c0,1.4,1.2,2.6,2.6,2.6s2.6-1.2,2.6-2.6v-6C12.6,2.7,11.4,1.5,10,1.5z"/>
</g>
<g>
	<path class="st0" d="M28,13.8c-2,0-3.6-1.6-3.6-3.6v-6c0-2,1.6-3.6,3.6-3.6s3.6,1.6,3.6,3.6v6C31.6,12.2,30,13.8,28,13.8z M28,1.5
		c-1.4,0-2.6,1.2-2.6,2.6v6c0,1.4,1.2,2.6,2.6,2.6s2.6-1.2,2.6-2.6v-6C30.6,2.7,29.4,1.5,28,1.5z"/>
</g>
</svg>
