<?xml version="1.0" encoding="utf-8"?>
<!-- Generator: Adobe Illustrator 25.3.0, SVG Export Plug-In . SVG Version: 6.00 Build 0)  -->
<svg version="1.1" id="Calque_1" xmlns="http://www.w3.org/2000/svg" xmlns:xlink="http://www.w3.org/1999/xlink" x="0px" y="0px"
	 viewBox="0 0 38 39" style="enable-background:new 0 0 38 39;" xml:space="preserve">
<style type="text/css">
	.st0{fill:#5770BE;}
</style>
<g>
	<path class="st0" d="M30.7,38.9H5.5c-5,0-5-3.4-5-6.9V9.1C0.5,7,2.4,4,5.5,4h1.8v1H5.5c-2.3,0-4,2.4-4,4.1v5.5h35V9.1
		c0-2.2-0.4-4.1-5.8-4.1V4c5.6,0,6.8,2,6.8,5.1V32C37.5,36.4,35,38.9,30.7,38.9z M1.5,15.7V32c0,3.7,0,5.9,4,5.9h25.2
		c2.6,0,5.8-1,5.8-5.9V15.7H1.5z M24.8,5.1H12.7v-1h12.1V5.1z"/>
</g>
<g>
	<path class="st0" d="M10,12.8c-2,0-3.6-1.6-3.6-3.6V3.6C6.4,1.6,8,0,10,0s3.6,1.6,3.6,3.6v5.6C13.6,11.2,12,12.8,10,12.8z M10,1
		C8.6,1,7.4,2.2,7.4,3.6v5.6c0,1.4,1.2,2.6,2.6,2.6s2.6-1.2,2.6-2.6V3.6C12.6,2.2,11.4,1,10,1z"/>
</g>
<g>
	<path class="st0" d="M28,12.8c-2,0-3.6-1.6-3.6-3.6V3.6C24.4,1.6,26,0,28,0s3.6,1.6,3.6,3.6v5.6C31.6,11.2,30,12.8,28,12.8z M28,1
		c-1.4,0-2.6,1.2-2.6,2.6v5.6c0,1.4,1.2,2.6,2.6,2.6s2.6-1.2,2.6-2.6V3.6C30.6,2.2,29.4,1,28,1z"/>
</g>
<g>
	<path class="st0" d="M15.9,26c-0.1,0-0.3-0.1-0.4-0.2c-0.1-0.1-0.2-0.2-0.2-0.4v-6.7L14.5,19c-0.1,0.1-0.2,0.1-0.4,0.1
		s-0.3-0.1-0.4-0.2c-0.1-0.1-0.2-0.2-0.2-0.4c0-0.1,0-0.2,0.1-0.3c0.1-0.1,0.2-0.2,0.3-0.2l1.7-0.6h0.1h0.1c0.2,0,0.3,0.1,0.4,0.2
		s0.2,0.2,0.2,0.4v7.5c0,0.2-0.1,0.3-0.2,0.4S16.1,26,15.9,26z"/>
</g>
<g>
	<path class="st0" d="M22.5,26c-0.1,0-0.3-0.1-0.4-0.2s-0.2-0.2-0.2-0.4V24h-3.7c-0.2,0-0.3-0.1-0.4-0.2s-0.2-0.2-0.2-0.4
		c0-0.1,0-0.3,0.1-0.4l4.2-5.5c0.1-0.1,0.1-0.1,0.2-0.2c0.1,0,0.2-0.1,0.3-0.1c0.2,0,0.3,0.1,0.4,0.2s0.1,0.2,0.1,0.4V23h0.7
		c0.2,0,0.3,0,0.4,0.1s0.2,0.2,0.2,0.4c0,0.1-0.1,0.3-0.2,0.4S23.8,24,23.6,24h-0.7v1.4c0,0.2-0.1,0.3-0.2,0.4
		C22.8,25.9,22.7,26,22.5,26z M22,23v-3.6L19.2,23H22z"/>
</g>
<g>
	<path class="st0" d="M4,36.6c-0.2,0-0.3-0.1-0.4-0.2c-0.1-0.1-0.2-0.2-0.2-0.4s0.1-0.3,0.2-0.4c0.1-0.1,0.2-0.2,0.4-0.2
		c0.4,0,0.8-0.1,1.1-0.4c0.3-0.3,0.4-0.6,0.4-1.1v-5.4c0-0.2,0.1-0.3,0.2-0.4C5.7,28,5.9,28,6,28c0.2,0,0.3,0.1,0.4,0.2
		s0.2,0.2,0.2,0.4V34c0,0.5-0.1,1-0.3,1.3c-0.3,0.4-0.6,0.7-1,0.9C4.9,36.5,4.5,36.6,4,36.6z M6,27c-0.2,0-0.4-0.1-0.5-0.2
		s-0.2-0.3-0.2-0.5s0.1-0.4,0.2-0.5s0.3-0.2,0.5-0.2s0.4,0.1,0.5,0.2s0.2,0.3,0.2,0.5s-0.1,0.4-0.2,0.5S6.2,27,6,27z"/>
</g>
<g>
	<path class="st0" d="M11,34c-0.6,0-1.1-0.1-1.6-0.4c-0.5-0.3-0.8-0.6-1.1-1.1s-0.4-1-0.4-1.6s0.1-1.1,0.4-1.6s0.6-0.8,1.1-1.1
		c0.5-0.3,1-0.4,1.6-0.4s1.1,0.1,1.6,0.4s0.8,0.6,1.1,1.1s0.4,1,0.4,1.6S14,32,13.7,32.5c-0.3,0.5-0.6,0.8-1.1,1.1
		C12.1,33.9,11.5,34,11,34z M11,33.1c0.4,0,0.7-0.1,1-0.3s0.5-0.4,0.7-0.7S13,31.4,13,31s-0.1-0.8-0.3-1.1c-0.2-0.3-0.4-0.6-0.7-0.7
		c-0.3-0.2-0.6-0.3-1-0.3s-0.7,0.1-1,0.3c-0.3,0.2-0.5,0.4-0.7,0.7C9.1,30.2,9,30.6,9,31s0.1,0.8,0.3,1.1s0.4,0.5,0.7,0.7
		C10.2,33,10.6,33.1,11,33.1z"/>
</g>
<g>
	<path class="st0" d="M18.2,34.1c-0.5,0-1-0.1-1.4-0.3s-0.7-0.5-0.9-1c-0.2-0.4-0.3-0.9-0.3-1.5v-2.7c0-0.2,0.1-0.3,0.2-0.4
		c0.1-0.1,0.2-0.2,0.4-0.2c0.2,0,0.3,0.1,0.4,0.2s0.2,0.2,0.2,0.4v2.7c0,0.6,0.2,1.1,0.5,1.4c0.3,0.3,0.8,0.4,1.3,0.4
		c0.3,0,0.6-0.1,0.8-0.2c0.2-0.1,0.4-0.3,0.6-0.5c0.1-0.2,0.2-0.5,0.2-0.7v-3.1c0-0.2,0.1-0.3,0.2-0.4s0.2-0.2,0.4-0.2
		c0.2,0,0.3,0.1,0.4,0.2s0.2,0.2,0.2,0.4v4.9c0,0.2-0.1,0.3-0.2,0.4c-0.1,0.1-0.2,0.2-0.4,0.2c-0.2,0-0.3-0.1-0.4-0.2
		c-0.1-0.1-0.2-0.2-0.2-0.4v-0.1c-0.2,0.2-0.5,0.4-0.8,0.5C18.9,34,18.6,34.1,18.2,34.1z"/>
</g>
<g>
	<path class="st0" d="M23.7,34c-0.4,0-0.5-0.2-0.5-0.5v-4.9c0-0.4,0.2-0.5,0.5-0.5c0.4,0,0.6,0.2,0.6,0.5v0.2
		c0.2-0.3,0.5-0.5,0.8-0.6s0.7-0.2,1-0.2c0.4,0,0.8,0.1,1,0.2s0.3,0.3,0.3,0.5S27.3,29,27.2,29s-0.2,0.1-0.4,0
		c-0.5-0.1-0.9-0.1-1.3,0s-0.7,0.2-0.9,0.5c-0.2,0.2-0.3,0.5-0.3,0.8v3.2C24.2,33.8,24.1,34,23.7,34z"/>
</g>
<g>
	<path class="st0" d="M30.7,34c-0.5,0-1-0.1-1.4-0.2c-0.4-0.2-0.8-0.4-1-0.6c-0.1-0.1-0.2-0.2-0.1-0.4c0-0.2,0.1-0.3,0.2-0.4
		c0.1-0.1,0.3-0.2,0.4-0.1c0.1,0,0.3,0.1,0.4,0.2c0.1,0.1,0.3,0.3,0.6,0.4c0.3,0.1,0.6,0.2,0.9,0.2c0.4,0,0.7-0.1,1-0.2
		c0.2-0.1,0.3-0.3,0.4-0.5S32,32,31.8,31.8c-0.2-0.2-0.6-0.3-1.2-0.4c-0.7-0.1-1.3-0.4-1.6-0.7c-0.3-0.3-0.5-0.7-0.5-1.1
		s0.1-0.7,0.3-0.9c0.2-0.2,0.5-0.4,0.8-0.5s0.7-0.2,1.1-0.2c0.5,0,0.9,0.1,1.3,0.2c0.4,0.2,0.7,0.4,0.9,0.6c0.1,0.1,0.2,0.2,0.1,0.4
		c0,0.1-0.1,0.2-0.2,0.3c-0.1,0.1-0.3,0.1-0.4,0.1c-0.2,0-0.3-0.1-0.4-0.2c-0.2-0.2-0.4-0.3-0.6-0.4s-0.5-0.1-0.7-0.1
		c-0.3,0-0.6,0.1-0.8,0.2c-0.2,0.1-0.3,0.3-0.3,0.5c0,0.1,0,0.3,0.1,0.4s0.2,0.2,0.4,0.3c0.2,0.1,0.5,0.2,0.9,0.2
		c0.8,0.2,1.4,0.4,1.7,0.7c0.3,0.3,0.5,0.7,0.5,1.1c0,0.3-0.1,0.6-0.3,0.9c-0.2,0.3-0.4,0.5-0.8,0.6C31.6,34,31.2,34,30.7,34z"/>
</g>
</svg>
