<?xml version="1.0" encoding="utf-8"?>
<!-- Generator: Adobe Illustrator 25.3.0, SVG Export Plug-In . SVG Version: 6.00 Build 0)  -->
<svg version="1.1" id="Calque_1" xmlns="http://www.w3.org/2000/svg" xmlns:xlink="http://www.w3.org/1999/xlink" x="0px" y="0px"
	 viewBox="0 0 44 43" style="enable-background:new 0 0 44 43;" xml:space="preserve">
<style type="text/css">
	.st0{fill:#5770BE;}
</style>
<g>
	<path class="st0" d="M28.3,42.5H16.1c-0.8,0-1.5-0.7-1.5-1.5v-1.1c0-0.8,0.7-1.5,1.5-1.5h3.7V11c-0.7-0.5-1.5-1.3-1.7-2.9H7.9
		l6.3,14.9c0,0,0,0.1,0,0.1c0,0,0,0.1,0,0.1c0,3.2-2.2,7.6-7.1,7.6c-3.9,0-6.7-3.2-6.7-7.6c0,0,0-0.1,0-0.1c0,0,0-0.1,0-0.1L6.5,8.2
		H3.2C2.9,8.2,2.7,8,2.7,7.7s0.2-0.5,0.5-0.5h4c0,0,0,0,0,0c0,0,0,0,0,0h11c0.1-1,0.6-2.2,1.7-2.9l0.1-2c0-1,1-1.8,2.4-1.8
		c1.4,0,2.4,0.8,2.4,1.8v1.9c1.2,0.8,1.4,2.1,1.5,2.9h10.6c0,0,0,0,0,0c0,0,0,0,0,0h4.4c0.3,0,0.5,0.2,0.5,0.5s-0.2,0.5-0.5,0.5
		h-3.7l5.9,14.9c0,0,0,0.1,0,0.1s0,0.1,0,0.1c0,4.8-2.5,7.6-6.7,7.6c-4.1,0-7.1-3.3-7.1-7.6c0,0,0-0.1,0-0.1c0,0,0-0.1,0-0.1
		l6.3-14.9h-9.8c-0.1,1.2-0.8,2.2-1.7,2.9v27.3h3.7c0.8,0,1.5,0.7,1.5,1.5V41C29.8,41.8,29.1,42.5,28.3,42.5z M16.1,39.4
		c-0.3,0-0.5,0.2-0.5,0.5V41c0,0.3,0.2,0.5,0.5,0.5h12.1c0.3,0,0.5-0.2,0.5-0.5v-1.1c0-0.3-0.2-0.5-0.5-0.5H16.1z M20.9,38.4h2.7
		V11.5c-0.4,0.1-0.9,0.2-1.3,0.2c-0.2,0-0.7,0-1.3-0.2V38.4z M30.7,23.8c0.2,3.5,2.8,6.1,6.1,6.1c3.5,0,5.5-2.2,5.7-6.1H30.7z
		 M1.5,23.8c0.2,3.6,2.5,6.1,5.7,6.1c4,0,5.9-3.4,6.1-6.1H1.5z M30.9,22.8h11.3L36.8,9L30.9,22.8z M1.7,22.8h11.3L7.2,9L1.7,22.8z
		 M20.6,10.3c0.7,0.4,1.4,0.4,1.6,0.4c0.6,0,1.1-0.1,1.6-0.4c0,0,0,0,0,0c0.9-0.5,1.5-1.6,1.5-2.6c0-0.6,0-2-1.2-2.7c0,0,0,0,0,0
		c-0.5-0.3-1.1-0.4-1.8-0.4c-0.6,0-1.2,0.1-1.6,0.4c0,0,0,0,0,0c-1.1,0.6-1.4,2-1.4,2.7C19.2,8.9,19.7,9.8,20.6,10.3
		C20.6,10.3,20.6,10.3,20.6,10.3z M22.2,3.6c0.6,0,1.1,0.1,1.6,0.2V2.3c0-0.6-0.8-0.8-1.4-0.8c-0.6,0-1.4,0.2-1.4,0.8l-0.1,1.5
		C21.3,3.7,21.7,3.6,22.2,3.6z"/>
</g>
</svg>
