<svg width="48" height="41" viewBox="0 0 48 41" fill="none" xmlns="http://www.w3.org/2000/svg">
<path fill-rule="evenodd" clip-rule="evenodd" d="M24.2352 3.65141C25.4699 1.74258 27.5611 0.5 30.6247 0.5C33.8173 0.5 35.9618 1.73536 37.2011 3.6514C38.4218 5.53857 38.7152 8.00984 38.394 10.4195C38.0721 12.8344 37.1253 15.2534 35.7813 17.0802C34.4452 18.8965 32.6517 20.2069 30.6247 20.2069C28.5186 20.2069 26.7167 18.9013 25.4028 17.0761C25.1137 16.6745 24.8456 16.2445 24.6003 15.7925C24.5 14 25.1714 12.2225 24.3888 10.3106C24.3888 9.06246 23.5 8 23.0527 6.71287C23.2634 5.60413 23.6478 4.55964 24.2352 3.65141ZM26.2143 16.4918C27.4254 18.1741 28.9624 19.2069 30.6247 19.2069C32.1999 19.2069 33.7316 18.179 34.9758 16.4876C36.2123 14.8069 37.1012 12.5492 37.4028 10.2874C37.705 8.02033 37.4095 5.81488 36.3615 4.1945C35.3321 2.603 33.5281 1.5 30.6247 1.5C27.8692 1.5 26.109 2.59578 25.0749 4.1945C24.4546 5.15356 24.0818 6.31594 23.9312 7.57305C24.2352 8 25.1273 9.38043 25.2293 10.3106C25.5 11.5 25.5 13.5 25.0749 14.4995C25.4003 15.2201 25.7832 15.8928 26.2143 16.4918ZM26.3889 20.9928L26.56 21.179C27.5562 22.2639 29.0745 22.8276 30.625 22.8276C32.1756 22.8276 33.6939 22.2639 34.6901 21.179L34.8387 21.0172H35.0584C39.6168 21.0172 42.8264 22.5761 44.878 25.2889C46.9106 27.9766 47.75 31.7234 47.75 36V36.5H34.5C34.5 36.5 34 36.5 33.5 36.5C33.5 32.5 30.6095 27.8427 28.5 27.5C27.8765 26.368 25.6919 25.5351 22.5 25.7595C22.0185 25.7933 21.0132 26.9258 20.5 27C17.6818 27.4077 15.1278 27.2093 14.5 27C14.5 25.7595 14.9814 26.6529 15.1698 26.3267C15.2817 26.1329 15.4009 25.9438 15.5278 25.7595C15.9385 25.1632 16.4255 24.6228 17 24.1367C17.6976 23.5464 18.6157 23.255 19.5915 22.8219C20.4135 22.4571 21.2497 21.9283 22.2954 21.6714C23.4318 21.3923 24.7074 21.1759 26.1376 21.0202L26.3889 20.9928ZM35.2706 22.0184C34.0553 23.237 32.3254 23.8276 30.625 23.8276C28.9355 23.8276 27.2167 23.2445 26.0026 22.0416C24.4038 22.2259 23.0322 22.4871 21.8545 22.8219C21.1737 23.0155 20.5577 23.2336 20 23.4756C19.6224 23.6395 19.2716 23.8144 18.9455 24C17.8084 24.6473 16.972 25.4257 16.3514 26.3267C16.2779 26.4335 16.2072 26.5422 16.1392 26.6529C16.7624 27.2331 18.5 27.5 21 26C22.1893 25.8539 23.6345 25.3811 24.5 25.5C26.3889 25.7595 28.5 26 30.6247 28L34.5 35.5H46.746C46.6822 31.549 45.8527 28.2355 44.0804 25.8921C42.283 23.5155 39.4616 22.0657 35.2706 22.0184Z" fill="#5770BE"/>
<path fill-rule="evenodd" clip-rule="evenodd" d="M11.2352 7.65141C12.4698 5.74258 14.5611 4.5 17.6246 4.5C20.8172 4.5 22.9618 5.73536 24.2011 7.6514C25.4218 9.53857 25.7152 12.0098 25.394 14.4195C25.072 16.8344 24.1252 19.2534 22.7813 21.0802C21.4451 22.8965 19.6517 24.2069 17.6246 24.2069C15.5186 24.2069 13.7167 22.9013 12.4027 21.0761C11.0845 19.2448 10.2018 16.8225 9.93715 14.4079C9.67295 11.9977 10.0186 9.53237 11.2352 7.65141ZM13.2143 20.4918C14.4254 22.1741 15.9624 23.2069 17.6246 23.2069C19.1999 23.2069 20.7315 22.179 21.9758 20.4876C23.2123 18.8069 24.1012 16.5492 24.4027 14.2874C24.7049 12.0203 24.4095 9.81488 23.3615 8.1945C22.3321 6.603 20.5281 5.5 17.6246 5.5C14.8692 5.5 13.1089 6.59578 12.0749 8.1945C11.0228 9.82107 10.6827 12.0325 10.9312 14.299C11.1792 16.5612 12.0076 18.8155 13.2143 20.4918ZM13.3889 24.9928L13.5599 25.179C14.5562 26.2639 16.0745 26.8276 17.625 26.8276C19.1755 26.8276 20.6938 26.2639 21.6901 25.179L21.8386 25.0172H22.0583C26.6168 25.0172 29.8263 26.5761 31.878 29.2889C33.9106 31.9766 34.75 35.7234 34.75 40V40.5H0.5V40C0.5 35.7901 0.765883 32.3176 2.5278 29.7595C4.31364 27.1666 7.54284 25.6294 13.1375 25.0202L13.3889 24.9928ZM22.2706 26.0184C21.0552 27.237 19.3253 27.8276 17.625 27.8276C15.9355 27.8276 14.2167 27.2445 13.0026 26.0416C7.67217 26.6562 4.86763 28.1252 3.35136 30.3267C1.85037 32.506 1.52491 35.5116 1.50143 39.5H33.746C33.6821 35.549 32.8526 32.2355 31.0804 29.8921C29.283 27.5155 26.4616 26.0657 22.2706 26.0184Z" fill="#5770BE"/>
</svg>
