<?xml version="1.0" encoding="utf-8"?>
<!-- Generator: Adobe Illustrator 24.1.0, SVG Export Plug-In . SVG Version: 6.00 Build 0)  -->
<svg version="1.1" id="Layer_1" xmlns="http://www.w3.org/2000/svg" xmlns:xlink="http://www.w3.org/1999/xlink" x="0px" y="0px"
	 viewBox="0 0 31 27" style="enable-background:new 0 0 31 27;" xml:space="preserve">
<style type="text/css">
	.st0{fill:#5770BE;}
</style>
<g>
	<path class="st0" d="M15.1,27l-0.2-0.1c-2.9-1.1-6.2-3.5-9-6.4c-3.2-3.4-5.2-7-5.7-10.3C0.1,9.6,0,8.9,0,8.3C0,3.7,3.7,0,8.3,0
		c2.7,0,5.2,1.3,6.8,3.5v0v0C16.7,1.3,19.2,0,21.9,0c4.6,0,8.3,3.7,8.3,8.3c0,0.6-0.1,1.3-0.2,1.9c-0.5,3.3-2.6,6.9-5.7,10.3
		c-2.8,2.9-6.1,5.3-9,6.4L15.1,27z M8.3,1C4.3,1,1,4.3,1,8.3C1,8.8,1.1,9.4,1.2,10c0.5,3.2,2.5,6.6,5.5,9.9c2.6,2.8,5.7,5,8.4,6.1
		c2.7-1.1,5.8-3.3,8.4-6.1c3-3.2,5-6.7,5.5-9.8c0.1-0.6,0.2-1.2,0.2-1.7c0-4-3.3-7.3-7.3-7.3c-2.4,0-4.6,1.1-6,3.1l-0.8,1.1
		l-0.8-1.1C12.9,2.1,10.7,1,8.3,1z"/>
</g>
</svg>
