<?xml version="1.0" encoding="utf-8"?>
<!-- Generator: Adobe Illustrator 24.1.0, SVG Export Plug-In . SVG Version: 6.00 Build 0)  -->
<svg version="1.1" id="Layer_1" xmlns="http://www.w3.org/2000/svg" xmlns:xlink="http://www.w3.org/1999/xlink" x="0px" y="0px"
	 viewBox="0 0 25 25" style="enable-background:new 0 0 25 25;" xml:space="preserve">
<style type="text/css">
	.st0{fill:#5770BE;}
</style>
<g>
	<path class="st0" d="M24,24.5c-0.1,0-0.3,0-0.4-0.1L12.5,13.2L1.4,24.4c-0.2,0.2-0.5,0.2-0.7,0c-0.1-0.1-0.1-0.2-0.1-0.4
		s0-0.3,0.1-0.4l11.1-11.1L0.6,1.4c-0.2-0.2-0.2-0.5,0-0.7s0.5-0.2,0.7,0l11.1,11.1L23.6,0.6c0.2-0.2,0.5-0.2,0.7,0
		c0.1,0.1,0.1,0.2,0.1,0.4s0,0.3-0.1,0.4L13.2,12.5l11.1,11.1c0.2,0.2,0.2,0.5,0,0.7C24.3,24.5,24.1,24.5,24,24.5z"/>
</g>
</svg>
