<svg width="37" height="30" viewBox="0 0 37 30" fill="none" xmlns="http://www.w3.org/2000/svg">
<path fill-rule="evenodd" clip-rule="evenodd" d="M0.5 4.5C0.5 4.22386 0.723858 4 1 4H22C22.2761 4 22.5 4.22386 22.5 4.5C22.5 4.77614 22.2761 5 22 5H1C0.723858 5 0.5 4.77614 0.5 4.5ZM28.5 4.5C28.5 4.22386 28.7239 4 29 4H36C36.2761 4 36.5 4.22386 36.5 4.5C36.5 4.77614 36.2761 5 36 5H29C28.7239 5 28.5 4.77614 28.5 4.5ZM0.5 15C0.5 14.7239 0.723858 14.5 1 14.5H8C8.27614 14.5 8.5 14.7239 8.5 15C8.5 15.2761 8.27614 15.5 8 15.5H1C0.723858 15.5 0.5 15.2761 0.5 15ZM14.5 15C14.5 14.7239 14.7239 14.5 15 14.5H36C36.2761 14.5 36.5 14.7239 36.5 15C36.5 15.2761 36.2761 15.5 36 15.5H15C14.7239 15.5 14.5 15.2761 14.5 15ZM0.5 26C0.5 25.7239 0.723858 25.5 1 25.5H17.5C17.7761 25.5 18 25.7239 18 26C18 26.2761 17.7761 26.5 17.5 26.5H1C0.723858 26.5 0.5 26.2761 0.5 26ZM24.5 26C24.5 25.7239 24.7239 25.5 25 25.5H36C36.2761 25.5 36.5 25.7239 36.5 26C36.5 26.2761 36.2761 26.5 36 26.5H25C24.7239 26.5 24.5 26.2761 24.5 26Z" fill="#5770BE"/>
<path fill-rule="evenodd" clip-rule="evenodd" d="M25.5 7C27.1569 7 28.5 5.65685 28.5 4C28.5 2.34315 27.1569 1 25.5 1C23.8431 1 22.5 2.34315 22.5 4C22.5 5.65685 23.8431 7 25.5 7ZM25.5 8C27.7091 8 29.5 6.20914 29.5 4C29.5 1.79086 27.7091 0 25.5 0C23.2909 0 21.5 1.79086 21.5 4C21.5 6.20914 23.2909 8 25.5 8Z" fill="#5770BE"/>
<path fill-rule="evenodd" clip-rule="evenodd" d="M11.5 18C13.1569 18 14.5 16.6569 14.5 15C14.5 13.3431 13.1569 12 11.5 12C9.84315 12 8.5 13.3431 8.5 15C8.5 16.6569 9.84315 18 11.5 18ZM11.5 19C13.7091 19 15.5 17.2091 15.5 15C15.5 12.7909 13.7091 11 11.5 11C9.29086 11 7.5 12.7909 7.5 15C7.5 17.2091 9.29086 19 11.5 19Z" fill="#5770BE"/>
<path fill-rule="evenodd" clip-rule="evenodd" d="M21.5 29C23.1569 29 24.5 27.6569 24.5 26C24.5 24.3431 23.1569 23 21.5 23C19.8431 23 18.5 24.3431 18.5 26C18.5 27.6569 19.8431 29 21.5 29ZM21.5 30C23.7091 30 25.5 28.2091 25.5 26C25.5 23.7909 23.7091 22 21.5 22C19.2909 22 17.5 23.7909 17.5 26C17.5 28.2091 19.2909 30 21.5 30Z" fill="#5770BE"/>
</svg>
