<?xml version="1.0" encoding="utf-8"?>
<!-- Generator: Adobe Illustrator 25.3.0, SVG Export Plug-In . SVG Version: 6.00 Build 0)  -->
<svg version="1.1" id="Calque_1" xmlns="http://www.w3.org/2000/svg" xmlns:xlink="http://www.w3.org/1999/xlink" x="0px" y="0px"
	 viewBox="0 0 55 47" style="enable-background:new 0 0 55 47;" xml:space="preserve">
<style type="text/css">
	.st0{fill:#4F6BC7;}
</style>
<g>
	<path class="st0" d="M48.4,46.3H6.2c-0.8,0-1.5-0.7-1.5-1.5V21.9l-3.6,1.2c-0.3,0.1-0.5-0.1-0.6-0.3c-0.1-0.3,0.1-0.5,0.3-0.6
		l4.2-1.4c0,0,0,0,0,0l11.1-3.7v-2.8l-3,1.4c-0.3,0.1-0.5,0-0.7-0.3c-0.1-0.3,0-0.5,0.3-0.7l3.7-1.7c0,0,0,0,0,0l10.9-4.9V1
		c0-0.3,0.2-0.5,0.5-0.5s0.5,0.2,0.5,0.5v1h4.5c0.8,0,1.5,0.7,1.5,1.5V6c0,0.8-0.7,1.5-1.5,1.5h-4.5v0.7L38.5,13c0,0,0,0,0,0
		l3.7,1.7c0.3,0.1,0.4,0.4,0.3,0.7c-0.1,0.3-0.4,0.4-0.7,0.3l-3-1.4v2.8l10.7,3.4c0,0,0,0,0,0l4.6,1.7c0.3,0.1,0.4,0.4,0.3,0.6
		c-0.1,0.3-0.4,0.4-0.6,0.3l-3.9-1.4v23.1C49.9,45.6,49.2,46.3,48.4,46.3z M38.8,45.3h9.6c0.3,0,0.5-0.2,0.5-0.5V21.3l-10.1-3.2
		V45.3z M32.7,45.3h5.1V17.4c0,0,0,0,0,0v-3.6L27.9,9l-10.7,4.8v3.6c0,0,0,0,0,0v27.9h5V34.1c0-0.8,0.7-1.5,1.5-1.5h7.5
		c0.8,0,1.5,0.7,1.5,1.5V45.3z M23.1,45.3h8.5V34.1c0-0.3-0.2-0.5-0.5-0.5h-7.5c-0.3,0-0.5,0.2-0.5,0.5V45.3z M5.7,21.6v23.2
		c0,0.3,0.2,0.5,0.5,0.5h9.9V18.1L5.7,21.6z M28.4,6.5h4.5c0.3,0,0.5-0.2,0.5-0.5V3.5c0-0.3-0.2-0.5-0.5-0.5h-4.5V6.5z M45,41.1h-3
		c-1.1,0-2-0.9-2-2v-3.7c0-1.1,0.9-2,2-2h3c1.1,0,2,0.9,2,2v3.7C47,40.2,46.1,41.1,45,41.1z M42.1,34.3c-0.5,0-1,0.4-1,1v3.7
		c0,0.5,0.4,1,1,1h3c0.5,0,1-0.4,1-1v-3.7c0-0.5-0.4-1-1-1H42.1z M13.4,41.1h-4c-0.8,0-1.5-0.7-1.5-1.5v-4.7c0-0.8,0.7-1.5,1.5-1.5
		h4c0.8,0,1.5,0.7,1.5,1.5v4.7C14.9,40.4,14.3,41.1,13.4,41.1z M9.5,34.3c-0.3,0-0.5,0.2-0.5,0.5v4.7c0,0.3,0.2,0.5,0.5,0.5h4
		c0.3,0,0.5-0.2,0.5-0.5v-4.7c0-0.3-0.2-0.5-0.5-0.5H9.5z M45,30.6h-3c-1.1,0-2-0.9-2-2v-3.7c0-1.1,0.9-2,2-2h3c1.1,0,2,0.9,2,2v3.7
		C47,29.7,46.1,30.6,45,30.6z M42.1,23.9c-0.5,0-1,0.4-1,1v3.7c0,0.5,0.4,1,1,1h3c0.5,0,1-0.4,1-1v-3.7c0-0.5-0.4-1-1-1H42.1z
		 M13.4,30.6h-4c-0.8,0-1.5-0.7-1.5-1.5v-4.7c0-0.8,0.7-1.5,1.5-1.5h4c0.8,0,1.5,0.7,1.5,1.5v4.7C14.9,29.9,14.3,30.6,13.4,30.6z
		 M9.5,23.9c-0.3,0-0.5,0.2-0.5,0.5v4.7c0,0.3,0.2,0.5,0.5,0.5h4c0.3,0,0.5-0.2,0.5-0.5v-4.7c0-0.3-0.2-0.5-0.5-0.5H9.5z M32.1,26.9
		h-9.9c-0.8,0-1.5-0.7-1.5-1.5v-4.7c0-0.8,0.7-1.5,1.5-1.5h9.9c0.8,0,1.5,0.7,1.5,1.5v4.7C33.6,26.2,32.9,26.9,32.1,26.9z
		 M22.2,20.2c-0.3,0-0.5,0.2-0.5,0.5v4.7c0,0.3,0.2,0.5,0.5,0.5h9.9c0.3,0,0.5-0.2,0.5-0.5v-4.7c0-0.3-0.2-0.5-0.5-0.5H22.2z"/>
</g>
</svg>
