<?xml version="1.0" encoding="utf-8"?>
<!-- Generator: Adobe Illustrator 25.3.0, SVG Export Plug-In . SVG Version: 6.00 Build 0)  -->
<svg version="1.1" id="Calque_1" xmlns="http://www.w3.org/2000/svg" xmlns:xlink="http://www.w3.org/1999/xlink" x="0px" y="0px"
	 viewBox="0 0 48 40" style="enable-background:new 0 0 48 40;" xml:space="preserve">
<style type="text/css">
	.st0{fill:#5770BE;}
	.st1{fill:#4F6BC7;}
</style>
<g>
	<path class="st0" d="M24,33.4c-4.4,0-7.6-2.4-8.3-6.1c-0.8-0.2-1.2-1-1.2-1.7c0-0.7,0.4-1.5,1.1-1.7c0.2-3.6,2.9-7.2,7.4-7.6
		c-0.4-0.4-0.9-0.6-1.5-0.6c-0.3,0-0.5-0.2-0.5-0.5s0.2-0.5,0.5-0.5c0.9,0,1.7,0.3,2.2,0.8c0.3-1,1-2.3,2.2-2.3
		c0.3,0,0.5,0.2,0.5,0.5s-0.2,0.5-0.5,0.5c-0.6,0-1.1,1.1-1.3,2c6.4,0.3,7.3,4.8,7.7,7.6c0.8,0.2,1.2,1,1.2,1.7
		c0,0.4-0.1,0.9-0.4,1.2c-0.2,0.3-0.5,0.5-0.8,0.5C30.7,31.7,28.4,33.4,24,33.4z M16.2,24.9c-0.6,0-0.6,0.7-0.6,0.8s0,0.8,0.6,0.8
		h0.4l0.1,0.4c0.5,3.4,3.4,5.6,7.3,5.6c4,0,6-1.5,7.4-5.7l0.1-0.3h0.4c0.6,0,0.6-0.7,0.6-0.8s0-0.8-0.6-0.8h-0.4l-0.1-0.4
		c-0.5-3.6-1.5-7.1-7.3-7.1c0,0,0,0,0,0c-4.6,0-7.3,3.6-7.3,7.1v0.5H16.2z M24.2,30.4c-1.2,0-2.4-0.6-3.5-1.7
		c-0.2-0.2-0.2-0.5,0-0.7c0.2-0.2,0.5-0.2,0.7,0c0.9,0.9,2,1.4,3,1.4c0.8-0.1,1.6-0.5,2.2-1.3c0.2-0.2,0.5-0.3,0.7-0.1
		c0.2,0.2,0.3,0.5,0.1,0.7c-0.7,1-1.8,1.6-2.9,1.7C24.4,30.4,24.3,30.4,24.2,30.4z"/>
</g>
<g>
	<path class="st1" d="M40.8,39.8H7.5c-0.8,0-1.5-0.7-1.5-1.5V14.6l-4.7,3.5c-0.2,0.2-0.5,0.1-0.7-0.1c-0.2-0.2-0.1-0.5,0.1-0.7
		l5.5-4.1c0,0,0,0,0,0L22.9,1c0.5-0.4,1.2-0.4,1.8,0l17.4,12.5c0,0,0,0,0,0l5.2,3.7c0.2,0.2,0.3,0.5,0.1,0.7
		c-0.2,0.2-0.5,0.3-0.7,0.1l-4.4-3.2v23.4C42.3,39.2,41.6,39.8,40.8,39.8z M7,13.9v24.5c0,0.3,0.2,0.5,0.5,0.5h33.2
		c0.3,0,0.5-0.2,0.5-0.5V14.2L24.1,1.8c-0.2-0.1-0.4-0.1-0.6,0L7,13.9z"/>
</g>
</svg>
