<?xml version="1.0" encoding="utf-8"?>
<!-- Generator: Adobe Illustrator 25.3.0, SVG Export Plug-In . SVG Version: 6.00 Build 0)  -->
<svg version="1.1" id="Calque_1" xmlns="http://www.w3.org/2000/svg" xmlns:xlink="http://www.w3.org/1999/xlink" x="0px" y="0px"
	 viewBox="0 0 47 42" style="enable-background:new 0 0 47 42;" xml:space="preserve">
<style type="text/css">
	.st0{fill:#5770BE;}
</style>
<g>
	<path class="st0" d="M45,41.5H28.4V41v0.5h-15V41v0.5H7.2V41v0.5H2c-0.8,0-1.5-0.7-1.5-1.5v-5.1H1H0.5v-5.2H1H0.5v-6.1H1H0.5v-5.2
		H1H0.5V7.1c0-0.8,0.7-1.5,1.5-1.5h5.2v0.5V5.6h5.7V1.8c0-0.8,0.7-1.5,1.5-1.5h19.2C34.4,0.3,35,1,35,1.8v3.7h10
		c0.8,0,1.5,0.7,1.5,1.5v28.3H46h0.5V40C46.5,40.8,45.8,41.5,45,41.5z M40.8,40.5H45c0.3,0,0.5-0.2,0.5-0.5v-4.2h-4.7V40.5z
		 M35,40.5h4.7v-4.7H35V40.5z M28.9,40.5H34v-5.2h0.5H34V1.8c0-0.3-0.2-0.5-0.5-0.5H14.4c-0.3,0-0.5,0.2-0.5,0.5v16.5h-0.5h0.5v5.2
		h-0.5h0.5v6.1h-0.5h0.5v5.2h-0.5h0.5v5.6H19v-9c0-0.8,0.7-1.5,1.5-1.5h6.8c0.8,0,1.5,0.7,1.5,1.5V40.5z M20,40.5h7.8v-9
		c0-0.3-0.2-0.5-0.5-0.5h-6.8c-0.3,0-0.5,0.2-0.5,0.5V40.5z M7.7,40.5h5.2v-5.1H7.7V40.5z M1.5,35.4V40c0,0.3,0.2,0.5,0.5,0.5h4.7
		v-5.1H1.5z M40.8,34.8h4.7v-4.7h-4.7V34.8z M35,34.8h4.7v-4.7H35V34.8z M7.7,34.4h5.2v-4.2H7.7V34.4z M1.5,34.4h5.2v-4.2H1.5V34.4z
		 M40.8,29.1h4.7V24h-4.7V29.1z M35,29.1h4.7V24H35V29.1z M7.7,29.1h5.2V24H7.7V29.1z M1.5,29.1h5.2V24H1.5V29.1z M40.8,23h4.7v-4.2
		h-4.7V23z M35,23h4.7v-4.2H35V23z M7.7,23h5.2v-4.2H7.7V23z M1.5,23h5.2v-4.2H1.5V23z M40.8,17.8h4.7v-5.1h-4.7V17.8z M35,17.8h4.7
		v-5.1H35V17.8z M7.7,17.8h5.2v-5.1H7.7V17.8z M1.5,17.8h5.2v-5.1H1.5V17.8z M40.8,11.7h4.7V7.1c0-0.3-0.2-0.5-0.5-0.5h-4.2V11.7z
		 M35,11.7h4.7V6.6H35V11.7z M7.7,11.7h5.2V6.6H7.7V11.7z M1.5,11.7h5.2V6.6H2c-0.3,0-0.5,0.2-0.5,0.5V11.7z"/>
</g>
<g>
	<path class="st0" d="M24.3,15.3l-0.2-0.1c-1-0.4-2.2-1.2-3.2-2.3c-1.2-1.2-1.9-2.5-2.1-3.7c-0.1-0.2-0.1-0.5-0.1-0.7
		c0-1.6,1.4-3,3.1-3c1,0,1.9,0.5,2.5,1.2c0.6-0.8,1.5-1.2,2.5-1.2c1.7,0,3.1,1.3,3.1,3c0,0.2,0,0.4-0.1,0.7c-0.2,1.2-1,2.5-2.1,3.7
		c-1,1-2.2,1.8-3.2,2.3L24.3,15.3z M21.8,6.6c-1.2,0-2.1,0.9-2.1,2c0,0.1,0,0.3,0.1,0.4c0.2,1,0.9,2.2,1.9,3.2
		c0.8,0.8,1.8,1.6,2.7,1.9c0.9-0.4,1.9-1.1,2.7-1.9c1-1,1.7-2.2,1.9-3.1c0.1-0.2,0.1-0.4,0.1-0.5c0-1.1-0.9-2-2.1-2
		c-0.7,0-1.3,0.3-1.7,0.8l-0.8,1.1l-0.8-1.1C23.1,7,22.5,6.6,21.8,6.6z"/>
</g>
</svg>
