<?xml version="1.0" encoding="utf-8"?>
<!-- Generator: Adobe Illustrator 24.1.0, SVG Export Plug-In . SVG Version: 6.00 Build 0)  -->
<svg version="1.1" id="Layer_1" xmlns="http://www.w3.org/2000/svg" xmlns:xlink="http://www.w3.org/1999/xlink" x="0px" y="0px"
	 viewBox="0 0 44 9" style="enable-background:new 0 0 44 9;" xml:space="preserve">
<style type="text/css">
	.st0{fill:#5770BE;}
</style>
<g>
	<path class="st0" d="M22,8.5c-2.2,0-4-1.8-4-4s1.8-4,4-4s4,1.8,4,4S24.2,8.5,22,8.5z M22,1.5c-1.7,0-3,1.3-3,3s1.3,3,3,3s3-1.3,3-3
		S23.7,1.5,22,1.5z"/>
</g>
<g>
	<path class="st0" d="M39.5,8.5c-2.2,0-4-1.8-4-4s1.8-4,4-4s4,1.8,4,4S41.7,8.5,39.5,8.5z M39.5,1.5c-1.7,0-3,1.3-3,3s1.3,3,3,3
		s3-1.3,3-3S41.2,1.5,39.5,1.5z"/>
</g>
<g>
	<path class="st0" d="M4.5,8.5c-2.2,0-4-1.8-4-4s1.8-4,4-4s4,1.8,4,4S6.7,8.5,4.5,8.5z M4.5,1.5c-1.7,0-3,1.3-3,3s1.3,3,3,3
		s3-1.3,3-3S6.2,1.5,4.5,1.5z"/>
</g>
</svg>
