<svg width="27" height="36" viewBox="0 0 27 36" fill="none" xmlns="http://www.w3.org/2000/svg">
<path fill-rule="evenodd" clip-rule="evenodd" d="M20.5037 1.01354C20.4357 1.12128 20.3462 1.25611 20.2442 1.40741C20.0522 1.69242 19.7879 2.07594 19.4635 2.54159C18.8996 3.35108 18.1505 4.4134 17.2751 5.64735C18.381 6.04969 19.6391 6.82627 20.6664 7.59581C21.3027 8.07236 21.8746 8.56435 22.293 8.99531C22.4127 9.11872 22.5232 9.24047 22.6205 9.35833C23.8441 7.65845 24.9846 6.07601 25.9567 4.72888C25.9671 4.71444 25.9772 4.70131 25.9859 4.69022C25.9782 4.67221 25.9667 4.64839 25.9495 4.61798C25.8657 4.46938 25.7006 4.26773 25.4489 4.02409C24.9517 3.54294 24.2112 2.98774 23.4229 2.47861C22.636 1.97043 21.827 1.52464 21.2029 1.25507C20.8976 1.12318 20.6611 1.04433 20.5037 1.01354ZM26.0004 4.7357C26.0002 4.7356 25.9996 4.73312 25.9994 4.72858C26.0005 4.73354 26.0006 4.73581 26.0004 4.7357ZM22.0087 10.2085C22.0022 10.1984 21.995 10.1876 21.9871 10.176C21.8999 10.0484 21.7625 9.88453 21.5754 9.69184C21.2032 9.30842 20.6738 8.85078 20.0669 8.39618C18.9561 7.56414 17.6639 6.80078 16.6704 6.49875C12.9031 11.7981 7.26575 19.636 3.66594 24.6261C4.7835 25.1539 6.02335 25.9328 7.06521 26.6833C7.68113 27.127 8.23799 27.568 8.66915 27.9517C8.82406 28.0896 8.96526 28.2223 9.08843 28.347C9.10875 28.3169 9.12959 28.2862 9.15091 28.2548C9.39453 27.8961 9.73092 27.4107 10.1425 26.8227C10.9661 25.6462 12.0947 24.0533 13.3937 22.2299C15.9455 18.6477 19.1569 14.1722 22.0087 10.2085ZM8.48804 29.1659C8.48803 29.1659 8.48805 29.1659 8.48804 29.1659C8.36706 29.0344 8.20428 28.8767 8.00429 28.6987C7.60485 28.3432 7.07623 27.9237 6.48073 27.4947C5.47746 26.772 4.31284 26.043 3.2871 25.5532L2.55684 29.9805C2.64423 30.0177 2.7315 30.0613 2.81568 30.1072C3.11253 30.2691 3.44458 30.5006 3.74274 30.7356C4.04053 30.9702 4.32547 31.2248 4.52304 31.4407C4.53299 31.4516 4.54302 31.4627 4.55307 31.474C5.51096 30.9785 6.45606 30.4672 7.21534 30.0148C7.65429 29.7533 8.02227 29.5167 8.29208 29.318C8.36734 29.2626 8.43253 29.2118 8.48804 29.1659ZM4.56546 32.5919C5.67798 32.024 6.82365 31.4122 7.72719 30.8739C8.17803 30.6053 8.57746 30.3497 8.88505 30.1232C9.0386 30.0101 9.17697 29.8987 9.28999 29.7916C9.39509 29.6921 9.51169 29.5656 9.58397 29.4196C9.58333 29.4208 9.59023 29.4075 9.61203 29.3718C9.63185 29.3392 9.65887 29.2965 9.69358 29.2429C9.76291 29.136 9.85817 28.9933 9.97814 28.8167C10.2178 28.4638 10.5511 27.9828 10.9618 27.3961C11.7829 26.2231 12.9097 24.6328 14.2082 22.8101C16.8049 19.1648 20.0856 14.5932 22.9752 10.5775C24.3712 8.6374 25.6757 6.8272 26.7676 5.31403C26.7709 5.30945 26.7731 5.30674 26.7799 5.29836C26.7844 5.29282 26.7909 5.28479 26.801 5.27211C26.82 5.24837 26.8539 5.20547 26.8856 5.15231C27.1109 4.77426 26.9596 4.37314 26.8205 4.12663C26.6671 3.85474 26.4225 3.57475 26.1443 3.30552C25.5817 2.76094 24.7813 2.16551 23.9654 1.63856C23.148 1.11068 22.2891 0.634955 21.5995 0.337053C21.2593 0.190105 20.9336 0.0746117 20.6632 0.0260471C20.531 0.00230389 20.3746 -0.0126785 20.2218 0.0147188C20.0634 0.0431341 19.8415 0.133251 19.7224 0.3737C19.7227 0.373176 19.7225 0.373522 19.7224 0.3737C19.7211 0.376215 19.7148 0.387623 19.7013 0.410054C19.6859 0.43565 19.6649 0.469357 19.6377 0.511778C19.5834 0.596524 19.509 0.709057 19.415 0.848557C19.2272 1.1272 18.9664 1.5058 18.643 1.96996C17.9966 2.89787 17.1043 4.16158 16.0549 5.63864C12.1654 11.1133 6.12887 19.5043 2.49339 24.5422L2.42463 24.6374L1.27626 31.5997C1.08016 32.7886 2.3014 33.7211 3.3963 33.1793C3.7744 32.9922 4.16821 32.7947 4.56546 32.5919ZM2.04693 30.8618C2.04672 30.8615 2.05043 30.8618 2.05867 30.8636C2.05126 30.863 2.04714 30.8621 2.04693 30.8618ZM2.38657 31.0128C2.60771 31.1387 2.87072 31.3216 3.12381 31.521C3.3114 31.6688 3.48361 31.8179 3.6212 31.9494C3.39479 32.0634 3.17118 32.175 2.95278 32.2831C2.6029 32.4562 2.19669 32.164 2.26293 31.7624L2.38657 31.0128ZM0 35.5C0 35.2238 0.223858 35 0.5 35H18.7312C19.0073 35 19.2312 35.2238 19.2312 35.5C19.2312 35.7761 19.0073 36 18.7312 36H0.5C0.223858 36 0 35.7761 0 35.5Z" fill="#5770BE"/>
</svg>
