<?xml version="1.0" encoding="utf-8"?>
<!-- Generator: Adobe Illustrator 25.3.0, SVG Export Plug-In . SVG Version: 6.00 Build 0)  -->
<svg version="1.1" id="Calque_1" xmlns="http://www.w3.org/2000/svg" xmlns:xlink="http://www.w3.org/1999/xlink" x="0px" y="0px"
	 viewBox="0 0 38 40" style="enable-background:new 0 0 38 40;" xml:space="preserve">
<style type="text/css">
	.st0{fill:#5770BE;}
</style>
<g>
	<path class="st0" d="M30.8,14.6c-4,0-7.2-3.3-7.2-7.3S26.8,0,30.8,0S38,3.3,38,7.3S34.8,14.6,30.8,14.6z M30.8,1
		c-3.4,0-6.2,2.8-6.2,6.3s2.8,6.3,6.2,6.3S37,10.8,37,7.3S34.2,1,30.8,1z"/>
</g>
<g>
	<path class="st0" d="M30.8,40c-4,0-7.2-3.3-7.2-7.3s3.2-7.3,7.2-7.3s7.2,3.3,7.2,7.3S34.8,40,30.8,40z M30.8,26.4
		c-3.4,0-6.2,2.8-6.2,6.3s2.8,6.3,6.2,6.3s6.2-2.8,6.2-6.3S34.2,26.4,30.8,26.4z"/>
</g>
<g>
	<path class="st0" d="M7.2,27.7c-4,0-7.2-3.3-7.2-7.3c0-4,3.2-7.3,7.2-7.3c4,0,7.2,3.3,7.2,7.3C14.4,24.4,11.2,27.7,7.2,27.7z
		 M7.2,14.1c-3.4,0-6.2,2.8-6.2,6.3s2.8,6.3,6.2,6.3s6.2-2.8,6.2-6.3S10.6,14.1,7.2,14.1z"/>
</g>
<g>
	<path class="st0" d="M24.1,30.1l-11-5.8l0.5-0.9l11,5.8L24.1,30.1z M13.5,17l-0.5-0.9l11-6.2l0.5,0.9L13.5,17z"/>
</g>
</svg>
