<svg width="28" height="37" viewBox="0 0 28 37" fill="none" xmlns="http://www.w3.org/2000/svg">
<path fill-rule="evenodd" clip-rule="evenodd" d="M1.50029 13.753C1.54004 20.7513 5.62045 29.3741 13.0853 35.6339C13.6022 36.0674 14.3557 36.0596 14.8638 35.6155C22.0336 29.3483 26.2905 20.7239 26.4925 13.7272C26.5932 10.2364 25.6858 7.19212 23.6822 5.02397C21.6835 2.86116 18.529 1.5 13.9893 1.5C9.62453 1.5 6.51148 2.85944 4.49113 5.02982C2.46511 7.2063 1.48046 10.2601 1.50029 13.753ZM3.75918 4.34847C6.00726 1.93345 9.40905 0.5 13.9893 0.5C18.7324 0.5 22.1828 1.92806 24.4166 4.34527C26.6455 6.75715 27.5981 10.0837 27.4921 13.7561C27.2804 21.0858 22.8563 29.9574 15.5219 36.3684C14.6429 37.1368 13.3374 37.1504 12.4427 36.4001C4.79391 29.986 0.542003 21.1004 0.500309 13.7586C0.479426 10.0815 1.51678 6.75739 3.75918 4.34847Z" fill="#5770BE"/>
<path fill-rule="evenodd" clip-rule="evenodd" d="M13.5 18C15.9853 18 18 15.9853 18 13.5C18 11.0147 15.9853 9 13.5 9C11.0147 9 9 11.0147 9 13.5C9 15.9853 11.0147 18 13.5 18ZM13.5 19C16.5376 19 19 16.5376 19 13.5C19 10.4624 16.5376 8 13.5 8C10.4624 8 8 10.4624 8 13.5C8 16.5376 10.4624 19 13.5 19Z" fill="#5770BE"/>
</svg>
