<svg width="35" height="35" viewBox="0 0 35 35" fill="none" xmlns="http://www.w3.org/2000/svg">
<path fill-rule="evenodd" clip-rule="evenodd" d="M12.5863 22.3008C12.7766 22.5135 12.7685 22.8497 12.5683 23.0518L1.34444 34.3851C1.14428 34.5873 0.827795 34.5787 0.637565 34.366C0.447335 34.1534 0.455391 33.8171 0.655559 33.615L11.8794 22.2817C12.0796 22.0795 12.3961 22.0881 12.5863 22.3008Z" fill="#5770BE"/>
<path fill-rule="evenodd" clip-rule="evenodd" d="M21.7408 25.7144C28.56 25.7144 34 20.1456 34 13.3885C34 6.63135 28.56 1.0625 21.7408 1.0625C14.9217 1.0625 9.48169 6.63135 9.48169 13.3885C9.48169 20.1456 14.9217 25.7144 21.7408 25.7144ZM35 13.3885C35 20.7827 29.0637 26.7769 21.7408 26.7769C14.418 26.7769 8.48169 20.7827 8.48169 13.3885C8.48169 5.99422 14.418 0 21.7408 0C29.0637 0 35 5.99422 35 13.3885Z" fill="#5770BE"/>
</svg>
