<?xml version="1.0" encoding="utf-8"?>
<!-- Generator: Adobe Illustrator 24.1.0, SVG Export Plug-In . SVG Version: 6.00 Build 0)  -->
<svg version="1.1" id="Layer_1" xmlns="http://www.w3.org/2000/svg" xmlns:xlink="http://www.w3.org/1999/xlink" x="0px" y="0px"
	 viewBox="0 0 52 40" style="enable-background:new 0 0 52 40;" xml:space="preserve">
<style type="text/css">
	.st0{fill-rule:evenodd;clip-rule:evenodd;fill:#E8AA05;}
	.st1{fill:#E8AA05;}
</style>
<path class="st0" d="M38.6,0.2l0.3,0.6c1.9,4.1,4.7,10.4,7.3,15.9c2.5,5.5,4.7,10.2,5.3,11.2l0.1,0.2l-0.1,0.2
	c-1.6,3.6-5.1,6.4-9.5,8.4c-4.4,2-9.8,3.1-15.2,3.3c-5.4,0.2-10.9-0.6-15.6-2.5c-4.7-1.9-8.5-4.9-10.7-9.1l-0.1-0.2L12.7,0.3
	l0.5,0.3C16.6,2.9,21.6,4,26.4,4c4.8,0,9.2-1.2,11.7-3.4L38.6,0.2z M13.1,1.7L1.6,28.1c2,3.9,5.6,6.6,10,8.4
	c4.5,1.8,9.9,2.6,15.2,2.4c5.3-0.2,10.5-1.3,14.8-3.2c4.2-1.9,7.4-4.5,8.9-7.6c-0.7-1.4-2.8-5.8-5.2-11c-2.4-5.3-5.2-11.2-7-15.3
	C35.5,3.9,31,4.9,26.4,5C21.7,5,16.8,4,13.1,1.7z"/>
<g>
	<path class="st1" d="M37.4,22.7c-0.7,0.1-1.5,0.2-2.3,0.2c-1.7,0-3.6-0.1-5-0.6c-0.2-0.1-0.6-0.3-0.9-0.5c0,0-0.1-0.1-0.1-0.1
		c-0.8,1.5-1.5,2.4-2.4,3c-0.2,0.3-0.3,0.8-0.3,1.4c0,0.6,0.2,1.2,0.4,1.7c0.1,0.3,0,0.5-0.3,0.6c-0.3,0.1-0.5,0-0.6-0.3
		c-0.2-0.5-0.4-1.3-0.4-2c0-0.3,0-0.6,0-0.9c-0.3,0.1-0.7,0.2-1.1,0.2c-0.6,0.1-1.2,0.1-2,0.2c-0.3,0-0.6,0-1,0.1
		c-0.3,0-0.5-0.2-0.5-0.5c0-0.3,0.2-0.5,0.5-0.5c0.4,0,0.7-0.1,1-0.1c0.7-0.1,1.3-0.1,1.8-0.2c0.7-0.1,1.3-0.3,1.8-0.6
		c0.8-0.5,1.5-1.5,2.6-3.6c0.3-0.8,0-1.4-0.5-1.7c-0.4-0.3-1.1-0.3-1.7,0.1c0,0.1,0,0.2-0.1,0.2c-0.1,0.2-0.2,0.3-0.3,0.5
		c-0.2,0.3-0.5,0.7-0.8,1c-0.6,0.7-1.5,1.3-2.3,1.5c-0.7,0.2-1.4,0-1.9-0.3c-0.5-0.3-0.9-0.6-1.1-0.9l-0.4-0.5l0.6-0.3
		c3.3-1.6,4.2-4.1,3.7-6.1c-0.5-2.1-2.4-3.7-4.9-3.7h0l0,0c-2.5-0.2-4.2,1.3-4.8,3.2c-0.6,2-0.1,4.5,1.7,6.4l0.4,0.4l-0.4,0.3
		c-1.5,1.3-2.2,4.4-0.3,7.3c1.9,2.9,6.5,5.8,15.7,6.3c2.3,0.1,3.7-1,4.1-2.4c0.4-1.3-0.3-3.1-3-4.4l-1.7-0.8l1.9-0.1
		c2.9-0.2,4.8-0.8,5.7-1.6c0.4-0.4,0.6-0.8,0.7-1.2c0-0.3-0.1-0.7-0.3-1.1C38.3,22.6,37.9,22.6,37.4,22.7z"/>
	<path class="st1" d="M38.4,1C33.3,5.5,20,5.8,12.9,1L1,28.1c8.2,16.5,43.9,13.7,50,0C49.9,26.2,42.2,9.2,38.4,1z M38.9,25.5
		c-1,0.8-2.6,1.4-4.8,1.7c1.9,1.4,2.6,3.2,2.1,4.8c-0.5,1.9-2.5,3.3-5.1,3.1c-9.3-0.5-14.3-3.4-16.4-6.7c-2-3.1-1.6-6.5,0.1-8.3
		c-1.8-2.1-2.2-4.8-1.6-7C14,10.8,16,9,19,9.2c3,0,5.3,2,5.9,4.5c0.5,2.4-0.5,5.1-3.6,6.9c0.1,0.1,0.2,0.1,0.3,0.2
		c0.4,0.2,0.7,0.3,1.1,0.2c0.6-0.1,1.3-0.6,1.8-1.3c0.3-0.3,0.5-0.6,0.7-0.9c0.1-0.1,0.1-0.2,0.2-0.3c0-0.1,0-0.1,0-0.1c0,0,0,0,0,0
		v-0.2l0.2-0.2c1-0.8,2.2-0.8,3.1-0.3c0.8,0.5,1.2,1.6,0.9,2.8c0,0.2,0.1,0.4,0.2,0.5c0.2,0.2,0.3,0.3,0.4,0.3
		c1.3,0.4,3.1,0.6,4.7,0.6c0.8,0,1.6-0.1,2.2-0.2c0.6-0.1,1.1-0.2,1.4-0.4l0.4-0.2l0.2,0.3c0.5,0.7,0.7,1.4,0.7,2.1
		C39.9,24.3,39.5,25,38.9,25.5z"/>
</g>
</svg>
