<?xml version="1.0" encoding="utf-8"?>
<!-- Generator: Adobe Illustrator 24.1.0, SVG Export Plug-In . SVG Version: 6.00 Build 0)  -->
<svg version="1.1" id="Layer_1" xmlns="http://www.w3.org/2000/svg" xmlns:xlink="http://www.w3.org/1999/xlink" x="0px" y="0px"
	 viewBox="0 0 46 47" style="enable-background:new 0 0 46 47;" xml:space="preserve">
<style type="text/css">
	.st0{fill:#5770BE;}
</style>
<g>
	<path class="st0" d="M27.5,34.4c0,0-0.1,0-0.1,0c-3.7,0-7.4-1.9-8.9-4.3c-3.1,2.3-7,2.7-10.6,1.2C3.9,29.7,1,26,0.6,22
		c-0.5-4.3,1.9-8.5,6.6-11.9c0.3-4.3,2.3-7.6,5.4-8.9c3.2-1.4,7.3-0.6,10.6,2.1c4.5-2.2,8.4-2.5,11.4-1c2.6,1.4,4.4,4.1,5,7.8
		c5.6,3.7,6.4,7.4,6,9.9c-0.6,3.7-4.1,7.1-8.6,8.3C34.4,33.6,30,34.4,27.5,34.4z M18.9,28.6l0.3,0.6c1,2.3,4.7,4.2,8.2,4.2
		c2.3,0.1,6.4-0.7,8.8-5.7l0.1-0.2l0.2-0.1c4.2-1.1,7.6-4.2,8.1-7.6c0.5-3.2-1.5-6.3-5.7-9l-0.2-0.1l0-0.2c-0.5-3.5-2.1-6-4.5-7.3
		c-2.7-1.4-6.4-1-10.8,1.1l-0.3,0.1l-0.3-0.2C19.8,1.6,16,0.8,13,2.1c-2.9,1.2-4.6,4.3-4.9,8.3l0,0.2l-0.2,0.1
		c-4.5,3.1-6.8,7.1-6.4,11.1c0.4,3.7,3,7,6.7,8.6c3.5,1.5,7.2,0.9,10.1-1.4L18.9,28.6z"/>
</g>
<g>
	<path class="st0" d="M17.2,44.9c-2.8,0-5-2.2-5-5s2.2-5,5-5s5,2.2,5,5S19.9,44.9,17.2,44.9z M17.2,35.9c-2.2,0-4,1.8-4,4s1.8,4,4,4
		s4-1.8,4-4S19.4,35.9,17.2,35.9z"/>
</g>
<g>
	<path class="st0" d="M26.3,25.9c-6.4,0-9.6-4.6-9.9-6.9c-0.1-1,0.3-1.9,0.7-2.5c-1-0.8-1.5-2.3-1.2-3.8c0.3-1.7,1.4-2.8,2.9-3.1
		c1.8-0.3,3.3,0.2,4.3,1.4c0.6,0.8,0.9,1.8,0.8,2.9c1,0.1,1.7,0.4,2.1,1c0.2,0.4,0.3,0.8,0.2,1.3c1.6,1,4.1,1,4.7,0.4l0.1-0.1
		c0.5-0.3,0.9-0.2,1.3,0.1c0.5,0.6,0.4,1.6-0.2,2.4l-0.1,0.2c-0.5,0.7-1.1,1.5-2.6,1.5c0.9,1,0.8,2,0.7,2.6
		C29.6,24.7,28,25.8,26.3,25.9z M19.8,10.5c-0.3,0-0.6,0-0.9,0.1c-1.1,0.2-1.8,1-2.1,2.3c-0.2,1.3,0.3,2.6,1.2,3.1l0.5,0.3l-0.3,0.5
		c-0.6,0.8-0.9,1.6-0.8,2.2c0.3,2.1,3.4,6,8.9,6c1.3-0.1,2.4-0.9,2.7-1.9c0.2-0.9-0.3-1.8-1.5-2.5l0.4-0.9c2.2,0.4,2.6-0.2,3.2-1
		l0.1-0.2c0.4-0.6,0.4-1.1,0.3-1.2c-1,1-3.8,0.9-5.6-0.1c-0.2,0.5-0.5,1-0.8,1.5c-0.2,0.3-0.3,0.5-0.5,0.8c0.2,0.3,0.4,0.9,0.5,1.9
		c0,0.3-0.2,0.5-0.4,0.6c-0.3,0-0.5-0.2-0.6-0.4c-0.1-0.7-0.2-1.2-0.3-1.4c-0.7,0.1-1.8-0.2-3.1-0.5c-0.3-0.1-0.4-0.3-0.4-0.6
		c0.1-0.3,0.3-0.4,0.6-0.4c0.6,0.1,2.1,0.6,2.7,0.5c0.2-0.3,0.4-0.6,0.6-1c0.4-0.6,0.8-1.3,1-1.8c0,0,0,0,0,0c0.2-0.6,0-0.8,0-0.9
		c-0.1-0.2-0.5-0.4-1.4-0.5c-0.1,0.4-0.2,0.7-0.4,1c-0.5,1-1.4,1.6-2.5,1.6c-0.3,0-0.5-0.2-0.5-0.5c0-0.3,0.2-0.5,0.5-0.5
		c0,0,0,0,0,0c0.8,0,1.3-0.6,1.5-1.1c0.6-1.2,0.5-2.8-0.3-3.8C21.7,10.9,20.8,10.5,19.8,10.5z"/>
</g>
<g>
	<path class="st0" d="M6.7,46.9c-1.9,0-3.5-1.6-3.5-3.5s1.6-3.5,3.5-3.5s3.5,1.6,3.5,3.5S8.6,46.9,6.7,46.9z M6.7,40.9
		c-1.4,0-2.5,1.1-2.5,2.5s1.1,2.5,2.5,2.5s2.5-1.1,2.5-2.5S8,40.9,6.7,40.9z"/>
</g>
</svg>
