<svg id="Calque_1" data-name="Calque 1" xmlns="http://www.w3.org/2000/svg" viewBox="0 0 51 51"><defs><style>.cls-1{fill:#5770be;}</style></defs><path class="cls-1" d="M19.74,49.5a3.69,3.69,0,0,1-2-.64c-1.91-.46-3.41-3.12-3.46-6.18a8.53,8.53,0,0,1-1.82-6.92v0a12.48,12.48,0,0,1,1.24-3.66v0a20,20,0,0,1,2.57-3.8A15.9,15.9,0,0,1,8,26.12c-3.38,0-4.26-.16-4.32-.81-.29-1.07-.19-2.88.9-3.69.56-.41,1.57-.68,3.22.31A1.84,1.84,0,0,1,9,22.11a2.22,2.22,0,0,1,1.06,1.12,11.56,11.56,0,0,0,9-1.43,9.24,9.24,0,0,1,2-.93,3.49,3.49,0,0,0,.12-1.21c-1.55-.61-2.63-1.75-3.67-3.86a3,3,0,0,0-.66-.52c-.56-.33-.9-.62-1-1.88-.87-2.92-.63-5.66.7-7.62A8,8,0,0,1,22.73,2.6c5-.63,8,1.68,9,6.88,0,.08.5,2.19.54,2.77.42,2.93,0,5.26-1.28,6.9a5.86,5.86,0,0,1-3.25,2.07c1.94,1.27,6.09,1.75,8.75.88a2.22,2.22,0,0,1,1.66-1.6h.11l2.19-.08a1.4,1.4,0,0,1,.9.36c.54.57.49,1.61.44,2.72,0,.32,0,.65,0,1a1.14,1.14,0,0,1-.47,1c-.9.67-2.87.25-3.81,0-1.28,1.3-4.41,2.05-8,1.33a12.9,12.9,0,0,1,.19,3.94c3-1.23,4.92-.41,9.54,5.19l.13-.17c.1-.16.21-.31.3-.48l.08-.11a2,2,0,0,1,2.21-.66,4.51,4.51,0,0,1,2.54,3.47,1.38,1.38,0,0,1-.57,1.49,11.81,11.81,0,0,0-2.6,3,2.88,2.88,0,0,1-3,1.63,1.72,1.72,0,0,1-1.51-1.43,3.94,3.94,0,0,0-.09-.73v0c-.09-.37-.36-1.18-1-1.18a4.23,4.23,0,0,1-3.25-2A31.77,31.77,0,0,1,29,42.17h0c-2,1.6-4.14,2.23-7.4,2.22l.07.35c.73,2.71.07,3.87-.62,4.37A2.16,2.16,0,0,1,19.74,49.5Zm-1.39-1.45a2,2,0,0,0,2.07.26c.6-.44.68-1.64.23-3.31a4.16,4.16,0,0,1-.2-1.07h0c0-.29,0-.57,0-.87V42.5a6.47,6.47,0,0,0-.18-1.44c0-.38-.13-.52-.54-.53-.93,0-2.43,1.12-2.43,2A12.81,12.81,0,0,0,18.35,48.05ZM13.43,36.23a7.61,7.61,0,0,0,1.76,6l.11.13v.18A6.86,6.86,0,0,0,17,47.27a12.35,12.35,0,0,1-.69-4.85c0-1.35,1.93-2.83,3.39-2.88a1.39,1.39,0,0,1,1.36.68,3.62,3.62,0,0,0-.64-3.14C18.91,35.44,15.36,35.78,13.43,36.23Zm8,7.17a9.84,9.84,0,0,0,6.31-1.57,4.47,4.47,0,0,1-1-2.12,10,10,0,0,1,1-7.46l-4.53.81a29.59,29.59,0,0,1-8.74-.22,11.51,11.51,0,0,0-.84,2.33c1.67-.33,5.63-.83,7.51,1.23,1.21,1.33,1.3,3.41.29,6.19v.81Zm16.31-1.7a3.92,3.92,0,0,1,.09.8c.06.37.5.49.68.52a1.94,1.94,0,0,0,1.93-1.13c.56-.9,2.23-3.07,3-3.38a1.56,1.56,0,0,0,0-.49,3.56,3.56,0,0,0-1.86-2.63,1,1,0,0,0-1.12.34c-.11.19-.23.37-.35.54a2.51,2.51,0,0,0-.38.64h0a1.9,1.9,0,0,0,0,1.14c.33,1.33-.59,2.14-1.27,2.74A2.42,2.42,0,0,0,37.74,41.7Zm-8.43-9.77c-1.81,1.62-2.26,5.09-1.65,7.54a2.94,2.94,0,0,0,.9,1.73,36.22,36.22,0,0,0,3.29-3.34l.86-.94.33.65c.29.58,1.34,2.08,2.71,2.08a1.82,1.82,0,0,1,1.55.92c.17-.18.37-.35.56-.52.71-.63,1.13-1.06,1-1.74a3,3,0,0,1-.06-1.45C33.42,30.33,32,30.58,29.31,31.93ZM15,31.91a28.52,28.52,0,0,0,8.08.17l5.58-1c.31-1.71,0-4.34-.34-4.71L26.94,25l1.83.49c4.19,1.14,7.35.08,8.16-1l.21-.28.33.1c1.43.42,2.85.53,3.25.23,0,0,.06-.06.06-.15,0-.32,0-.66,0-1,0-.73.08-1.72-.16-2a.24.24,0,0,0-.17-.05l-2.11.07a1.28,1.28,0,0,0-1,1.1l-.06.27-.26.1c-3.17,1.18-9,.56-10.84-1.73l-.57-.71.91-.1a5.08,5.08,0,0,0,3.62-1.87c1.08-1.4,1.46-3.54,1.07-6.19a27,27,0,0,0-.52-2.66C29.86,5,27.27,3,22.84,3.59a7,7,0,0,0-5.4,2.75c-1.16,1.71-1.35,4.15-.55,6.88.1.93.22,1,.55,1.21a3.5,3.5,0,0,1,.94.76l.07.11c1,2,2,3,3.43,3.53l.28.09.05.29A4.41,4.41,0,0,1,22,21.5l-.1.25-.28.05a7.22,7.22,0,0,0-2,.87,12.65,12.65,0,0,1-10,1.48l-.31-.07-.07-.32A1.16,1.16,0,0,0,8.56,23a.83.83,0,0,0-.66-.06l-.25.11-.23-.15c-.71-.46-1.69-.92-2.29-.47A2.7,2.7,0,0,0,4.58,25a19.32,19.32,0,0,0,3.51.17h.12l.11.06c3.91,2.12,7.37,2.36,9.13,1.92l1.63-.4-1.14,1.22A21.86,21.86,0,0,0,15,31.91Z"/></svg>