<svg width="32" height="39" viewBox="0 0 32 39" fill="none" xmlns="http://www.w3.org/2000/svg">
<path fill-rule="evenodd" clip-rule="evenodd" d="M18.1464 4.64645C18.3417 4.45118 18.6583 4.45118 18.8536 4.64645L26.3536 12.1464C26.5488 12.3417 26.5488 12.6583 26.3536 12.8536C26.1583 13.0488 25.8417 13.0488 25.6464 12.8536L18.1464 5.35355C17.9512 5.15829 17.9512 4.84171 18.1464 4.64645Z" fill="#5770BE"/>
<path fill-rule="evenodd" clip-rule="evenodd" d="M3.71698 18.5233C3.71698 18.2472 3.94084 18.0233 4.21698 18.0233H23.2736C23.5497 18.0233 23.7736 18.2472 23.7736 18.5233C23.7736 18.7994 23.5497 19.0233 23.2736 19.0233H4.21698C3.94084 19.0233 3.71698 18.7994 3.71698 18.5233ZM3.71698 22.5596C3.71698 22.2834 3.94084 22.0596 4.21698 22.0596H23.2736C23.5497 22.0596 23.7736 22.2834 23.7736 22.5596C23.7736 22.8357 23.5497 23.0596 23.2736 23.0596H4.21698C3.94084 23.0596 3.71698 22.8357 3.71698 22.5596ZM3.71698 26.6943C3.71698 26.4181 3.94084 26.1943 4.21698 26.1943H23.2736C23.5497 26.1943 23.7736 26.4181 23.7736 26.6943C23.7736 26.9704 23.5497 27.1943 23.2736 27.1943H4.21698C3.94084 27.1943 3.71698 26.9704 3.71698 26.6943ZM3.71698 30.6321C3.71698 30.356 3.94084 30.1321 4.21698 30.1321H23.2736C23.5497 30.1321 23.7736 30.356 23.7736 30.6321C23.7736 30.9083 23.5497 31.1321 23.2736 31.1321H4.21698C3.94084 31.1321 3.71698 30.9083 3.71698 30.6321ZM3.71698 34.6684C3.71698 34.3922 3.94084 34.1684 4.21698 34.1684H23.2736C23.5497 34.1684 23.7736 34.3922 23.7736 34.6684C23.7736 34.9445 23.5497 35.1684 23.2736 35.1684H4.21698C3.94084 35.1684 3.71698 34.9445 3.71698 34.6684ZM3 38H24.6855C25.7901 38 26.6855 37.1046 26.6855 36V14.1243C26.6855 13.5721 26.2378 13.1243 25.6855 13.1243H20.0094C18.9049 13.1243 18.0094 12.2289 18.0094 11.1243V5.55957C18.0094 5.00728 17.5617 4.55957 17.0094 4.55957H3C1.89543 4.55957 1 5.455 1 6.55957V36C1 37.1046 1.89543 38 3 38ZM3 3.55957C1.34315 3.55957 0 4.90272 0 6.55957V36C0 37.6568 1.34315 39 3 39H24.6855C26.3424 39 27.6855 37.6568 27.6855 36V14.1243C27.6855 13.0198 26.7901 12.1243 25.6855 12.1243H20.0094C19.4572 12.1243 19.0094 11.6766 19.0094 11.1243V5.55957C19.0094 4.455 18.114 3.55957 17.0094 3.55957H3Z" fill="#5770BE"/>
<path fill-rule="evenodd" clip-rule="evenodd" d="M3.20435 3.75648C3.20435 1.95797 4.66232 0.5 6.46082 0.5H27.9999C29.9329 0.5 31.4999 2.067 31.4999 4V32.6528C31.4999 34.5858 29.9329 36.1529 27.9999 36.1529H27.6855V35.1529H27.9999C29.3807 35.1529 30.4999 34.0336 30.4999 32.6528V4C30.4999 2.61929 29.3807 1.5 27.9999 1.5H6.46082C5.2146 1.5 4.20435 2.51026 4.20435 3.75648H3.20435Z" fill="#5770BE"/>
</svg>