<?xml version="1.0" encoding="utf-8"?>
<!-- Generator: Adobe Illustrator 24.1.0, SVG Export Plug-In . SVG Version: 6.00 Build 0)  -->
<svg version="1.1" id="Layer_1" xmlns="http://www.w3.org/2000/svg" xmlns:xlink="http://www.w3.org/1999/xlink" x="0px" y="0px"
	 viewBox="0 0 44 50" style="enable-background:new 0 0 44 50;" xml:space="preserve">
<style type="text/css">
	.st0{fill:#5770BE;}
</style>
<g>
	<path class="st0" d="M8.5,44.1H8.4c-1.6,0-2-0.7-2-1.1c-0.1-0.6,0.3-1.1,1-1.4c0.3-0.1,0.7-0.8,1-1.6C7.7,40,6,39.9,4.7,40.3
		c-1.3,0.5-3.1,0.4-3.8-0.1c-0.4-0.2-0.4-0.5-0.4-0.7c0-0.5,0.5-0.9,1.1-1.3c0.6-0.4,1.2-0.9,1.7-1.6c0.4-0.7,1-0.9,1.3-1
		c0.6-0.1,1.2,0.2,1.5,0.6c0.4,0.4,0.6,0.3,1,0.2c0.1,0,0.2-0.1,0.3-0.1c0.4-0.1,0.8-0.2,1.2-0.4c0.9-0.4,1.9-0.8,3-0.6
		c-0.1-0.7-0.1-1.5,0-2.2c-1.4-2.3-1.2-4.9,0.4-6.9c1.9-2.3,5.1-3,8.2-1.8c5.1,0.3,7.5-0.7,10.2-2.5l0.1-0.1c0.1,0,0.3-0.1,0.4-0.2
		c-1.1-1.2-1.4-2.5-1.5-4.4c-0.1-0.3-0.2-0.5-0.4-0.7c-0.3-0.5-0.5-0.9-0.2-2c0.3-2.8,1.5-5,3.3-6.2C33.8,7.4,36,7.2,38.5,8
		c4.4,1.3,6.2,4.3,5.2,9.1c0,0.2-0.4,2-0.5,2.5c-0.5,2.6-1.6,4.4-3.2,5.4c-1,0.6-2.3,0.8-3.7,0.6c-0.3,0.4-0.8,1.1-1,1.6
		c-0.2,0.4-0.2,0.6-0.2,0.7c0.4,1.3,1.3,5.6,2,8.7c0.2,1,0.4,1.9,0.5,2.4c2.3-0.2,3.7,1.3,4.1,2.2c0.3,0.6,0.1,0.9,0,1.1l-0.2,0.2
		l-0.2,0c-0.4-0.1-1.7-0.1-2.6,0.5l-0.2,0.1c-1.2,0.2-3.2,0.6-3.8-1.8l-3.4-6.6c-0.4,0.5-0.8,0.9-1.2,1.1c0,2-0.5,4-0.9,5.2
		c0.1,0,0.1,0,0.1,0c0.2-0.2,0.6-0.3,1.1-0.3c0.9,0.1,1.8,0.9,2.3,1.9c0.1,0.2,0.1,0.5,0,0.7c-0.3,0.5-1,0.5-2.4,0.4
		c-0.7,0-1.9-0.1-2.1,0.1c-0.6,0.3-1.1,0.3-1.5,0.1c-0.6-0.3-0.9-1.1-1-1.9C25.2,40.4,25,39,25,37.8c-0.7,0.3-1.5,0.3-2,0.2
		c0,0.4,0,0.7,0,1.1c0.1,2.8,0,4.2-4,4.4c0,0,0,0,0,0c-1,0-5.3-0.2-7.4-0.3C10.8,43.2,10.5,43.2,8.5,44.1L8.5,44.1z M9.4,40.1
		c-0.2,0.6-0.8,2.2-1.7,2.5c-0.2,0.1-0.3,0.2-0.3,0.3c0,0,0.3,0.2,1,0.2c2-0.8,2.4-0.9,3.3-0.9c2.2,0.1,6.4,0.3,7.4,0.3
		c3.2-0.2,3.2-0.8,3.1-3.4c0-0.5,0-1,0-1.6c-1.3-5.5-3.7-8.3-6.8-7.7c-1.4,0.5-2.2,1.5-2.2,2.7c0,2.2,2.3,5.1,4.9,6.2l-0.3,0.9
		c-2.6-0.6-4.4,0-5.2,0.8l-0.3,0.3l-0.4-0.3C10.7,39.6,10.3,39.3,9.4,40.1z M25.9,36.9c0,1.4,0.2,3,0.6,4.8c0.1,0.7,0.3,1.1,0.5,1.2
		c0.1,0.1,0.4,0,0.6-0.1c0.4-0.3,1.4-0.3,2.7-0.2c0.4,0,1,0,1.3,0c-0.4-0.6-1-1-1.4-1c-0.1,0-0.2,0-0.2,0c-0.5,0.5-1.4,0.2-1.7,0.1
		l-0.6-0.2l0.3-0.5c0.5-0.9,1.1-3.3,1.1-5.6v-0.3l0.3-0.1c0.8-0.4,1.6-1.6,2.6-3.2c0.2-0.4,0.5-0.7,0.7-1.2c0.1-0.2,0.5-0.3,0.7-0.2
		c0.2,0.1,0.3,0.5,0.2,0.7c-0.3,0.4-0.5,0.8-0.7,1.1c-0.3,0.5-0.6,1-0.9,1.4c0,0,0.1,0.1,0.1,0.1l3.6,7c0.3,1.3,1,1.4,2.5,1.1
		c0.8-0.5,1.7-0.7,2.4-0.7c-0.2-0.2-0.4-0.5-0.8-0.8c-0.5-0.4-1.4-0.8-2.6-0.5l-0.5,0.1l-0.1-0.5c-0.1-0.4-0.3-1.5-0.6-2.9
		c-0.6-3-1.6-7.5-2-8.7l0-0.1c0-0.1,0-0.5,0.3-1.2c0.2-0.4,0.5-1,0.8-1.4c0,0-0.1,0-0.1,0c-0.3-0.1-0.4-0.4-0.3-0.6
		c0.1-0.3,0.4-0.4,0.6-0.3c0.2,0.1,0.4,0.1,0.7,0.2c0.1,0,0.1,0,0.2,0c1.2,0.2,2.3,0.1,3.2-0.5c1.3-0.8,2.2-2.4,2.7-4.8
		c0.1-0.3,0.3-1.5,0.5-2.4c0.9-4.2-0.6-6.8-4.5-7.9c-2.2-0.7-4.1-0.6-5.5,0.4c-1.6,1-2.6,3-2.9,5.5c-0.2,0.8-0.2,0.9,0,1.2
		c0.2,0.2,0.4,0.5,0.5,1l0,0.1c0.1,2.1,0.5,3.2,1.5,4.1l0.2,0.1v0.2c0,0.6-0.6,1-1.1,1.2c-2.6,1.8-5.1,2.8-9.7,2.7
		c1.2,2.4,1.9,8.1,1.8,11.5c0.6,0,1.4,0,1.9-0.3c0.1-3.8,1.4-6.5,4.6-9.2c0.2-0.2,0.5-0.2,0.7,0.1c0.2,0.2,0.1,0.5-0.1,0.7
		C27.2,30.8,25.9,33.3,25.9,36.9C25.9,36.9,25.9,36.9,25.9,36.9z M1.6,39.5c0.5,0.2,1.7,0.3,2.7-0.1c1.5-0.5,3.6-0.4,4.5-0.1
		c1.4-1,2.3-0.5,3.2,0.2c0.8-0.5,1.9-1,3.5-1c-1.3-1-2.4-2.3-3-3.8c0,0.5,0.2,1,0.4,1.3l-0.7,0.7c-1-0.7-2.1-0.3-3.2,0.2
		c-0.5,0.2-0.9,0.4-1.4,0.5c-0.1,0-0.2,0-0.3,0.1c-0.5,0.1-1.2,0.3-2-0.5c-0.2-0.2-0.4-0.3-0.7-0.3c-0.2,0-0.4,0.2-0.6,0.5
		c-0.5,0.9-1.3,1.5-1.9,1.9C2,39.2,1.7,39.3,1.6,39.5z M16,28.8c2.5,0,4.6,1.9,6,5.4c-0.3-4-1.2-8.3-2-8.7c0,0,0,0,0,0
		c-3.3-1.3-5.9,0-7.1,1.5c-1.2,1.5-1.5,3.4-0.7,5.1c0.2-1.1,0.8-2.4,2.9-3.2C15.3,28.8,15.6,28.8,16,28.8z"/>
</g>
</svg>
