<?xml version="1.0" encoding="utf-8"?>
<!-- Generator: Adobe Illustrator 24.1.0, SVG Export Plug-In . SVG Version: 6.00 Build 0)  -->
<svg version="1.1" id="Layer_1" xmlns="http://www.w3.org/2000/svg" xmlns:xlink="http://www.w3.org/1999/xlink" x="0px" y="0px"
	 viewBox="0 0 54 54" style="enable-background:new 0 0 54 54;" xml:space="preserve">
<style type="text/css">
	.st0{fill:#5770BE;}
</style>
<g>
	<path class="st0" d="M48.5,31h-10v-8h10c3.3,0,5,2,5,4c0,1.1-0.5,2.1-1.3,2.8C51.3,30.6,50,31,48.5,31z M39.5,30h9
		c1.3,0,2.3-0.3,3-1c0.6-0.5,0.9-1.3,0.9-2c0-1.4-1.2-3-4-3h-9L39.5,30L39.5,30z"/>
</g>
<g>
	<path class="st0" d="M37.5,31H10.1c-6.6,0-9.6-2.1-9.6-4.1c0-1.1,0.9-2.1,2.5-2.8c1.7-0.7,4.1-1.1,7-1.1h27.4L37.5,31L37.5,31z
		 M10.1,24c-3.5,0-5.5,0.6-6.6,1c-1.3,0.6-2,1.3-2,1.9c0,1.3,2.7,3.1,8.6,3.1h26.4v-6H10.1z"/>
</g>
<g>
	<path class="st0" d="M25.2,28.7h-3.4c-0.9,0-1.7-0.8-1.7-1.7s0.8-1.7,1.7-1.7h3.4c0.9,0,1.7,0.8,1.7,1.7
		C27,27.9,26.2,28.7,25.2,28.7z M21.8,26.2c-0.4,0-0.7,0.3-0.7,0.7s0.3,0.7,0.7,0.7h3.4c0.4,0,0.7-0.3,0.7-0.7s-0.3-0.7-0.7-0.7
		H21.8z"/>
</g>
<g>
	<path class="st0" d="M24.7,28c-0.3,0-0.5-0.2-0.5-0.5v-1.1c0-0.3,0.2-0.5,0.5-0.5s0.5,0.2,0.5,0.5v1.1C25.2,27.8,24.9,28,24.7,28z"
		/>
</g>
<g>
	<path class="st0" d="M22.4,28c-0.3,0-0.5-0.2-0.5-0.5v-1.1c0-0.3,0.2-0.5,0.5-0.5s0.5,0.2,0.5,0.5v1.1C22.9,27.8,22.7,28,22.4,28z"
		/>
</g>
</svg>
