<?xml version="1.0" encoding="utf-8"?>
<!-- Generator: Adobe Illustrator 24.1.0, SVG Export Plug-In . SVG Version: 6.00 Build 0)  -->
<svg version="1.1" id="Layer_1" xmlns="http://www.w3.org/2000/svg" xmlns:xlink="http://www.w3.org/1999/xlink" x="0px" y="0px"
	 viewBox="0 0 47 54" style="enable-background:new 0 0 47 54;" xml:space="preserve">
<style type="text/css">
	.st0{fill:#5770BE;}
</style>
<g>
	<path class="st0" d="M18.3,53.5c-0.3,0-0.7,0-1.1-0.1l-0.1,0c-0.7-0.3-2.2-0.6-3.1-0.7c-0.4,0-1,0-1.3-0.5
		c-0.3-0.5-0.1-1.1,0.1-1.7c0.2-0.5,0.4-1,0.3-1.3c-0.4-1.3-1.1-4.4,1-7.1c-2.1-2.1-3.2-3.6-3.9-5.1c0,0,0,0,0,0
		c-1.3-2.9-0.7-5.7,2.2-9.7c0,0,0,0,0,0c0,0,0,0,0,0c1.5-1.8,3.1-4.4,3.4-5.2c-0.1-0.1-0.3-0.1-0.5-0.2c-2.5-1.3-2.7-2.7-2.6-3.5
		c0.3-2,3.2-3.6,7.5-4.2c0.3,0,0.5-0.3,0.5-0.5c-1-0.6-1.7-1.8-1.9-3.3c-0.5-0.2-0.7-0.7-0.8-1c-0.1-0.3-0.4-1,0-1.6
		c-0.2-1.4,0-3.4,1.4-5c0.8-0.9,2.2-2.1,4.7-2.1c2.6,0,4.6,0.7,5.8,2c1.1,1.2,1.6,2.9,1.5,5.1c0.3,0.4,0.3,0.9,0.3,1.2
		c0,0.3,0,0.9-0.3,1.2c-0.2,2.7-1,4.8-2.2,5.7c0.8,1.1,2,2.6,2.6,2.9c0.2,0.1,0.3,0.2,0.5,0.3c0.9,0.5,2,1.2,3.5,0.7
		c0.4-0.4,1.4-1.3,2.2-0.9c0.7,0.3,1,1.2,1,2.9c0,0.4,0,1-0.4,1.4c-0.4,0.4-1,0.3-1.6,0.2c-0.3,0-0.5-0.1-0.8-0.1
		c-1.2,0.7-4.4,1.4-7.4,0.6c-0.7,2.7-1.7,5-3,7c0,0,0,0,0,0c-0.1,0.2-0.3,0.4-0.5,0.7c0.3,0.6,1,1.7,1.6,2.7
		c0.7,1.2,1.3,2.3,1.4,2.5c1.1,1.7-0.4,3.6-1.5,5c-0.4,0.5-0.8,1-1,1.4c-0.2,0.3-0.4,0.5-0.5,0.8c-0.1,0.1-0.2,0.3-0.3,0.4
		c0.4,0.4,0.6,0.9,0.8,1.3c0.2,0.5,0.4,0.9,0.8,1.1l0.1,0.1c0.3,0.3,0.3,0.7,0.1,0.9c-0.5,0.7-2.9,0.5-4.2-0.1
		c-0.4-0.1-0.9-0.1-1.4-0.1c-0.7,0-1.3,0-1.6-0.4c-0.3-0.4-0.1-1,0.1-1.3c0.1-0.3,0.3-0.6,0.5-0.9c0.2-0.4,0.4-0.7,0.5-1.1
		c0.5-1,0.7-2.1,0.7-3.8c-0.1-0.3-0.2-0.6-0.3-1c-0.3-0.9-0.6-2.1-0.7-3c-0.1,0-0.1,0.1-0.2,0.1c-0.1,0.1-0.3,0.1-0.4,0.2
		c0.7,2.2,0.7,4.6,0.6,6.2l0,0.8c0,0.8-0.6,1.8-1.3,2.9c-0.6,1-1.3,2.2-1.4,3.1c0.2,0.2,0.4,0.4,0.6,0.7c0.4,0.5,0.7,0.9,1.4,1.1
		c0.8,0.4,1.1,1.1,0.9,1.7C20.5,52.8,20,53.5,18.3,53.5z M17.4,52.4c1.5,0.2,2.1-0.1,2.2-0.3c0-0.2-0.1-0.4-0.3-0.5
		c-0.9-0.3-1.4-0.9-1.9-1.4c-0.2-0.3-0.4-0.5-0.6-0.6l-0.2-0.1l0-0.3c-0.1-1.2,0.7-2.5,1.5-3.8c0.5-0.9,1.1-1.9,1.1-2.4l0-0.8
		c0-1.7,0-4.2-0.7-6.3c0,0,0,0,0,0c-0.1-0.4-0.3-0.7-0.4-1c-3.2-1.5-5.4-0.9-6.9,1.8c0.7,1.3,1.9,2.8,3.9,4.9l0.3,0.3l-0.3,0.4
		c-2.2,2.4-1.5,5.3-1.2,6.5c0.3,0.7,0,1.4-0.3,2c-0.1,0.3-0.3,0.7-0.2,0.8h0c0,0,0.1,0.1,0.5,0.1C14.2,51.7,16.3,51.9,17.4,52.4z
		 M21.5,46.3c0.4,0,1,0,1.4,0.2c0.9,0.5,2,0.5,2.6,0.5c-0.3-0.3-0.5-0.8-0.7-1.1c-0.2-0.5-0.5-1-0.9-1.2l-0.5-0.3l0.4-0.5
		c0.2-0.2,0.4-0.5,0.5-0.7c0.2-0.2,0.3-0.5,0.5-0.7c0.2-0.4,0.6-0.9,1.1-1.5c1.3-1.6,2.1-2.9,1.4-3.9c-0.1-0.3-0.8-1.4-1.4-2.5
		c-0.5-0.9-1-1.7-1.4-2.3c-0.9,1.1-1.8,2.1-3.3,3.1c-0.1,0.8,0.4,2.2,0.7,3.2c0.1,0.5,0.3,0.9,0.3,1.2l0,0.1c0,1.9-0.2,3.2-0.8,4.2
		c-0.1,0.4-0.4,0.8-0.6,1.2c-0.1,0.3-0.3,0.5-0.4,0.8c-0.1,0.3-0.1,0.4-0.1,0.4c0.1,0,0.5,0,0.8,0C21.3,46.3,21.4,46.3,21.5,46.3z
		 M12.9,28.2c-2.1,3-2.8,5.2-2.2,7.4c1.4-2,3.8-3.5,7.9-1.5l0.1,0.1l0.1,0.1c0.1,0.2,0.3,0.5,0.4,0.8c0.1,0,0.2-0.1,0.4-0.2
		c0.3-0.1,0.7-0.3,0.8-0.3c1.7-1.2,2.6-2.1,3.6-3.4C20.2,31.6,14.8,29.4,12.9,28.2z M13.5,27.4c2,1.3,7.9,3.7,11.5,2.5
		c1.3-2,2.3-4.3,2.9-7c0,0,0,0,0,0c0.3-1.1,0.5-2.2,0.7-3.4c0-0.3,0.3-0.5,0.6-0.4c0.3,0,0.5,0.3,0.4,0.6c-0.2,1.1-0.3,2.1-0.6,3.1
		c2.8,0.8,5.9,0.1,6.7-0.5l0.1-0.1H36c0.4,0,0.8,0,1.1,0.1c0.3,0,0.7,0.1,0.8,0c0,0,0.1-0.1,0.1-0.6c0-1.7-0.4-1.9-0.4-1.9
		c0,0-0.3-0.1-1.2,0.8l-0.2,0.1c-1.9,0.7-3.4-0.2-4.4-0.7c-0.2-0.1-0.3-0.2-0.5-0.3c-1.1-0.6-3.1-3.4-3.3-3.7l-0.4-0.5l0.6-0.2
		c0.8-0.3,1.9-2,2.1-5.3l0-0.3l0.2-0.1c0.1-0.2,0.1-1,0-1.2L30.3,8l0.1-0.3c0.1-2-0.3-3.5-1.2-4.6c-1-1.1-2.7-1.6-5-1.6
		c-1.6,0-3,0.6-3.9,1.7C19,4.6,18.8,6.4,19,7.6l0.1,0.3l-0.2,0.2c0,0-0.1,0.2,0.1,0.7c0.1,0.4,0.2,0.4,0.3,0.4h0.4l0,0.4
		c0.2,1.5,0.8,2.6,1.7,3.1l0.3,0.1v0.3c0,0.7-0.5,1.7-1.5,1.7c-4.3,0.6-6.4,2.1-6.6,3.4c-0.1,0.8,0.6,1.7,2,2.4
		c0.7,0.4,1.2,0.5,1.7,0.3c0.3-0.1,0.6-0.4,0.6-0.6l0.9,0.4c-0.2,0.5-0.2,1.6,0.3,1.9c0.7,0.4,2.5-0.1,2.8-0.6l0.1-0.2
		c-0.6-0.5-1.3-1.2-1.9-1.9c-0.9-0.9-1.9-2-2.5-2.1c-0.3-0.1-0.4-0.3-0.4-0.6s0.3-0.5,0.6-0.4c0.9,0.2,1.9,1.2,3,2.4
		c0.8,0.8,1.5,1.6,2.3,2.1l0.1,0.1l0.1,0.1c0.2,0.4,0.1,0.7-0.1,1c-0.1,0.1-0.3,0.3-0.7,0.3c-0.9,0.8-2.9,1.2-3.9,0.7
		c-0.6-0.4-0.8-1-0.9-1.7c-0.1,0-0.1,0-0.2,0.1c-0.3,0.1-0.6,0.1-1.1,0.1C16.3,23.4,14.7,25.9,13.5,27.4z"/>
</g>
</svg>
