<svg id="Calque_1" data-name="Calque 1" xmlns="http://www.w3.org/2000/svg" viewBox="0 0 51 51"><defs><style>.cls-1{fill:#5770be;}</style></defs><path class="cls-1" d="M10.08,44.5H10c-1.74,0-2.11-.71-2.18-1.13a1.39,1.39,0,0,1,1.06-1.44c.36-.12.84-1,1.14-1.79a9.12,9.12,0,0,0-4,.19,5.22,5.22,0,0,1-4.06-.06.9.9,0,0,1-.43-.73c0-.54.5-.9,1.12-1.36a6.35,6.35,0,0,0,1.82-1.77,1.94,1.94,0,0,1,1.4-1A2,2,0,0,1,7.46,36c.44.44.65.38,1.13.26l.33-.08a7.71,7.71,0,0,0,1.35-.46,5.68,5.68,0,0,1,3.29-.6,7.19,7.19,0,0,1-.05-2.49A6.38,6.38,0,0,1,14,25a7.58,7.58,0,0,1,8.83-1.91c5.52.32,8.16-.74,11.08-2.78l.13-.06A1.5,1.5,0,0,0,34.5,20c-1.24-1.25-1.58-2.73-1.7-4.78C32,14.19,32,14,32.18,12.39c.36-3.14,1.65-5.57,3.64-6.85A7.8,7.8,0,0,1,42.62,5c4.78,1.37,6.67,4.69,5.58,9.88,0,.21-.39,2.22-.58,2.75-.58,2.86-1.75,4.86-3.45,5.87a5.88,5.88,0,0,1-4,.66A16.09,16.09,0,0,0,39.14,26a3.11,3.11,0,0,0-.27.78c.46,1.46,1.45,6.12,2.17,9.55.25,1.15.45,2.11.58,2.69a4.46,4.46,0,0,1,4.43,2.33c.33.66.17,1,0,1.16l-.18.16-.23,0a4.17,4.17,0,0,0-2.81.55l-.2.09c-1.27.25-3.4.68-4.08-1.91l-3.76-7.24a5.09,5.09,0,0,1-1.33,1.3,17.51,17.51,0,0,1-1,5.72.45.45,0,0,0,.22,0,1.29,1.29,0,0,1,1.14-.3,3.92,3.92,0,0,1,2.5,2,.71.71,0,0,1,0,.73c-.31.48-1.06.48-2.58.42a6.75,6.75,0,0,0-2.35.13,1.73,1.73,0,0,1-1.58.15,2.77,2.77,0,0,1-1.11-2.06A29.5,29.5,0,0,1,28,37.57a5.29,5.29,0,0,1-2.24.27c0,.44,0,.84,0,1.22.13,3.12,0,4.51-4.34,4.8h0c-1.08,0-5.71-.21-8-.32-.88,0-1.15,0-3.29.92Zm1-4.35c-.2.63-.83,2.38-1.87,2.73-.29.1-.4.29-.39.33s.24.27,1.09.29c2.14-.92,2.55-1,3.6-1,2.71.13,7,.32,8,.32,3.51-.23,3.48-1,3.37-3.76,0-.52,0-1.1,0-1.73-1.37-6-4.12-9.14-7.38-8.49a3.26,3.26,0,0,0-2.4,3c0,2.41,2.47,5.62,5.37,6.86l-.31,1c-2.84-.63-4.84.06-5.7.84l-.31.28-.44-.34C12.52,39.6,12.13,39.29,11.05,40.15Zm18-3.48h0a26.21,26.21,0,0,0,.6,5.32c.06.3.24,1.21.56,1.37.16.08.44,0,.63-.13A6,6,0,0,1,33.69,43a12.78,12.78,0,0,0,1.51,0,2.81,2.81,0,0,0-1.6-1.22.38.38,0,0,0-.3,0c-.5.5-1.5.22-1.79.13l-.59-.2.32-.54a15,15,0,0,0,1.2-6.11v-.31l.28-.14c.92-.46,1.71-1.75,2.8-3.53l.77-1.26a.51.51,0,0,1,.69-.16.49.49,0,0,1,.16.69c-.28.44-.53.86-.77,1.25-.35.58-.67,1.1-1,1.57a.46.46,0,0,1,.14.17l4,7.65c.36,1.45,1.13,1.57,2.82,1.25A4.94,4.94,0,0,1,45,41.53a3.46,3.46,0,0,0-3.7-1.5l-.46.09-.12-.46c-.1-.4-.36-1.63-.69-3.17-.69-3.29-1.74-8.25-2.17-9.54l0-.12a2.87,2.87,0,0,1,.36-1.3A14.49,14.49,0,0,1,39.15,24L39,23.9a.5.5,0,0,1-.33-.62.49.49,0,0,1,.62-.33l.72.18h0a.71.71,0,0,1,.2,0,4.87,4.87,0,0,0,3.48-.5c1.46-.86,2.47-2.64,3-5.27.12-.37.38-1.64.56-2.68,1-4.66-.63-7.51-4.89-8.73a6.87,6.87,0,0,0-6,.39c-1.73,1.11-2.87,3.29-3.19,6.13-.15,1.35-.15,1.35.52,2.26l.09.12V15c.13,2.37.54,3.5,1.63,4.48l.17.15v.23c0,.64-.6,1.08-1.14,1.29-2.83,2-5.55,3.09-10.61,3,1.38,2.53,2.12,9,2,12.68a3.49,3.49,0,0,0,2.2-.4c.06-4.21,1.5-7.13,4.93-10a.5.5,0,0,1,.64.77C30.34,29.92,29,32.67,29,36.67ZM2.57,39.49a4.7,4.7,0,0,0,3.07-.1,9.54,9.54,0,0,1,4.9-.11c1.54-1.15,2.48-.55,3.49.26a6.63,6.63,0,0,1,3.89-1.08h0a10.84,10.84,0,0,1-3.49-4.41,3.57,3.57,0,0,0,.43,1.71l-.7.69c-1.15-.77-2.3-.3-3.52.2a9.05,9.05,0,0,1-1.52.51l-.28.07a1.9,1.9,0,0,1-2.09-.52A1,1,0,0,0,6,36.38a1,1,0,0,0-.67.55A7.38,7.38,0,0,1,3.21,39C3,39.15,2.72,39.35,2.57,39.49ZM18.22,27.81c2.75,0,5.05,2.17,6.56,6.08-.25-4.53-1.36-9.44-2.23-9.82h0a6.6,6.6,0,0,0-7.75,1.59A5.37,5.37,0,0,0,14,31.49c.13-1.21.81-2.68,3.1-3.57A5.93,5.93,0,0,1,18.22,27.81Z"/></svg>