<?xml version="1.0" encoding="utf-8"?>
<!-- Generator: Adobe Illustrator 24.1.0, SVG Export Plug-In . SVG Version: 6.00 Build 0)  -->
<svg version="1.1" id="Layer_1" xmlns="http://www.w3.org/2000/svg" xmlns:xlink="http://www.w3.org/1999/xlink" x="0px" y="0px"
	 viewBox="0 0 49 44" style="enable-background:new 0 0 49 44;" xml:space="preserve">
<style type="text/css">
	.st0{fill:#5770BE;}
</style>
<g>
	<path class="st0" d="M19.4,43.5c-0.6,0-1.2-0.2-1.8-0.6c-1.8-0.4-3.1-2.9-3.2-5.7c-1.5-1.9-2-4-1.7-6.3c0,0,0,0,0,0
		c0.2-1.1,0.6-2.2,1.1-3.4c0,0,0,0,0,0c0.6-1.1,1.3-2.3,2.3-3.4c-1.5,0.1-4.2-0.2-7.6-2c-3.1,0-3.9-0.1-4-0.8
		c-0.3-1-0.2-2.7,0.8-3.4c0.5-0.4,1.5-0.6,3,0.3c0.4-0.1,0.8,0,1.2,0.2c0.4,0.2,0.8,0.6,1,1c4.3,0.9,6.5-0.3,8.2-1.3
		c0.7-0.4,1.2-0.7,1.8-0.8c0.1-0.2,0.1-0.6,0.1-1c-1.4-0.6-2.4-1.6-3.4-3.5c-0.2-0.2-0.4-0.4-0.6-0.5c-0.5-0.3-0.8-0.6-1-1.8
		c-0.8-2.7-0.6-5.2,0.6-7c1.1-1.7,3.1-2.7,5.6-2.9c4.6-0.6,7.4,1.5,8.3,6.3c0.1,0.3,0.5,2,0.5,2.5c0.4,2.7,0,4.8-1.2,6.3
		c-0.7,0.9-1.7,1.6-2.9,1.9c1.8,1.1,5.5,1.5,7.9,0.7c0.2-0.8,0.8-1.3,1.5-1.5l0.1,0l2-0.1c0,0,0,0,0,0c0.4,0,0.6,0.1,0.9,0.3
		c0.5,0.5,0.5,1.5,0.4,2.5c0,0.3,0,0.6,0,0.9c0,0.4-0.2,0.7-0.4,0.9c-0.8,0.6-2.6,0.3-3.5,0c-1.2,1.2-4,1.9-7.3,1.2
		c0.2,1,0.3,2.4,0.2,3.5c2.7-1.1,4.5-0.3,8.7,4.7c0,0,0.1-0.1,0.1-0.1c0.1-0.1,0.2-0.3,0.3-0.4l0.1-0.1c0.6-0.6,1.3-0.9,2.1-0.6
		c1.2,0.4,2.2,2,2.4,3.2c0.1,0.9-0.3,1.3-0.5,1.4c-0.4,0.2-1.7,1.6-2.4,2.7c-0.6,1.2-1.8,1.7-2.8,1.5c-0.8-0.1-1.3-0.6-1.4-1.3
		c0-0.2,0-0.5-0.1-0.7c0,0,0,0,0,0c-0.1-0.3-0.3-1-0.9-1c-1.3,0-2.4-1-3-1.8c-1.2,1.3-2.2,2.4-3.2,3.2c0,0,0,0,0,0
		c-1.8,1.5-3.8,2.1-6.7,2l0,0.3c0.7,2.5,0.1,3.6-0.6,4C20.3,43.4,19.8,43.5,19.4,43.5z M18.2,42.1c0.7,0.4,1.4,0.5,1.8,0.2
		c0.5-0.4,0.6-1.5,0.2-3c-0.1-0.3-0.2-0.6-0.2-1c0,0,0,0,0,0c0,0,0,0,0,0c0-0.3,0-0.5,0-0.8c0-0.2,0-0.3,0-0.5c0,0,0,0,0,0
		c0-0.3,0-0.8-0.2-1.3c0-0.3-0.1-0.4-0.4-0.4c-0.8,0-2.2,1-2.2,1.8C17,38.2,17.5,40.7,18.2,42.1z M13.7,31.4c-0.2,2,0.3,3.8,1.6,5.4
		l0.1,0.1v0.2c0,1.8,0.6,3.3,1.4,4.2c-0.5-1.5-0.7-3.3-0.6-4.3c0-1.2,1.8-2.6,3.1-2.7c0.5,0,1,0.2,1.2,0.5c0.2-1.2,0-2.1-0.6-2.7
		C18.6,30.7,15.4,31,13.7,31.4z M21,37.8c2.5,0,4.1-0.4,5.7-1.4c-0.4-0.4-0.7-1.1-0.9-1.9c-0.5-2-0.3-4.8,0.9-6.7l-4,0.7
		c-2.9,0.5-6.3,0.1-8-0.2c-0.3,0.7-0.6,1.4-0.7,2c1.6-0.3,5.1-0.7,6.9,1.2c1.1,1.2,1.2,3.1,0.3,5.7c0,0.1,0,0.3,0,0.4
		C21,37.7,21,37.8,21,37.8z M35.9,36.3c0.1,0.3,0.1,0.5,0.1,0.7c0.1,0.3,0.4,0.4,0.6,0.4c0.5,0.1,1.3-0.2,1.7-1
		c0.5-0.8,2-2.8,2.8-3.1c0,0,0-0.1,0-0.4c-0.1-0.9-0.9-2.1-1.7-2.4c-0.2-0.1-0.6-0.1-1,0.3c-0.1,0.2-0.2,0.3-0.3,0.5
		c-0.1,0.2-0.3,0.4-0.3,0.6c0,0,0,0,0,0c-0.1,0.2-0.1,0.5,0,1c0.3,1.2-0.6,2-1.2,2.5C36.3,35.8,36,36.1,35.9,36.3z M28.2,27.5
		c-1.6,1.5-2.1,4.6-1.5,6.8c0.2,0.8,0.5,1.3,0.8,1.6c0.9-0.8,1.8-1.8,3-3l0.8-0.9l0.3,0.6c0.3,0.5,1.2,1.9,2.4,1.9
		c0.6,0,1.1,0.3,1.4,0.8c0.1-0.2,0.3-0.3,0.5-0.4c0.6-0.6,1-0.9,0.9-1.5c-0.1-0.5-0.1-0.9-0.1-1.3C31.9,26,30.7,26.2,28.2,27.5z
		 M15.1,27.4c1.7,0.2,4.7,0.6,7.3,0.1l5.1-0.9c0.3-1.5,0-3.9-0.3-4.2L25.9,21l1.8,0.5c3.8,1,6.7,0.1,7.4-0.9l0.2-0.3l0.3,0.1
		c1.3,0.4,2.6,0.5,2.9,0.2c0,0,0,0,0-0.1c0-0.3,0-0.6,0-0.9c0-0.7,0.1-1.6-0.1-1.8c0,0,0,0-0.1,0l-1.9,0.1c-0.5,0.1-0.7,0.4-0.8,1
		l-0.1,0.3l-0.3,0.1c-2.9,1.1-8.3,0.5-10-1.6L24.8,17l0.9-0.1c1.4-0.2,2.5-0.7,3.3-1.7c1-1.3,1.3-3.2,1-5.6c0-0.3-0.3-1.5-0.5-2.4
		c-0.8-4.2-3.2-6-7.2-5.5c-2.3,0.2-4,1.1-4.9,2.5c-1,1.5-1.2,3.8-0.5,6.2c0.1,0.8,0.2,0.9,0.5,1.1c0.2,0.1,0.5,0.3,0.9,0.7l0.1,0.1
		c0.9,1.9,1.8,2.8,3.1,3.2l0.3,0.1l0.1,0.3c0.2,0.9-0.1,1.7-0.2,2.1l-0.1,0.3l-0.3,0c-0.5,0.1-1.1,0.4-1.8,0.8
		c-1.9,1-4.4,2.4-9.2,1.4l-0.3-0.1L9.7,20c-0.1-0.3-0.3-0.5-0.5-0.7c-0.2-0.1-0.4-0.1-0.6-0.1l-0.2,0.1l-0.2-0.1
		c-0.6-0.4-1.5-0.8-2-0.4c-0.5,0.4-0.7,1.4-0.5,2.2c0.3,0.1,1.1,0.2,3.2,0.2h0.1L9,21.2c3.6,1.9,6.7,2.1,8.3,1.7l1.6-0.4l-1.1,1.2
		C16.7,25,15.8,26.2,15.1,27.4z"/>
</g>
</svg>
