<?xml version="1.0" encoding="utf-8"?>
<!-- Generator: Adobe Illustrator 24.1.0, SVG Export Plug-In . SVG Version: 6.00 Build 0)  -->
<svg version="1.1" id="Layer_1" xmlns="http://www.w3.org/2000/svg" xmlns:xlink="http://www.w3.org/1999/xlink" x="0px" y="0px"
	 viewBox="0 0 47 54" style="enable-background:new 0 0 47 54;" xml:space="preserve">
<style type="text/css">
	.st0{fill:#E8AA05;}
</style>
<g>
	<path class="st0" d="M33,23.1c0.7,0,1.3-0.1,1.7-0.2c0.5-0.1,0.8-0.2,1-0.4l0.2-0.1l0.2,0.1c0.4,0.1,0.7,0.2,1.1,0.3
		c0.3,0.1,0.6,0.1,0.7,0c0.1,0,0.3-0.1,0.4-0.3c0.1-0.2,0.2-0.5,0.2-1.1c0-0.8-0.1-1.3-0.3-1.6c-0.1-0.2-0.3-0.3-0.4-0.3
		c-0.2,0-0.4,0-0.7,0.2c-0.3,0.2-0.6,0.4-0.8,0.6l-0.1,0.1l-0.1,0c-1.9,0.7-3.5-0.2-4.4-0.8c-0.2-0.1-0.3-0.2-0.5-0.3l0,0
		c-0.3-0.2-0.7-0.5-1-0.9c-0.4-0.4-0.7-0.8-1-1.2c-0.3-0.4-0.6-0.8-0.8-1.1c-0.1-0.1-0.2-0.3-0.3-0.4c0,0-0.1-0.1-0.1-0.1l0,0l0,0
		l0,0l-0.4-0.5l0.6-0.2c0.4-0.2,0.9-0.7,1.3-1.6c0.4-0.9,0.7-2.2,0.8-3.7l0-0.3l0.2-0.1c0,0,0,0,0-0.1c0-0.1,0.1-0.3,0.1-0.5
		c0-0.2,0-0.3-0.1-0.5c0-0.1,0-0.1,0-0.1L30.3,8l0-0.3c0.1-1.8-0.2-3.3-1.1-4.4c-0.9-1.1-2.5-1.8-5.2-1.8c-2.1,0-3.5,1-4.3,2.2
		C19,5,18.8,6.5,19,7.6l0.1,0.3l-0.2,0.2c0,0-0.1,0.1,0,0.2c0,0.1,0.1,0.3,0.1,0.5C19,9,19.1,9.1,19.1,9.2c0,0,0,0,0,0
		c0,0,0,0,0.1,0h0.4l0,0.4c0.2,1.7,0.9,2.7,1.7,3.1l0.3,0.1v0.3c0,0.3-0.1,0.7-0.3,1c-0.2,0.4-0.6,0.7-1.2,0.7
		c-1.7,0.2-3.1,0.6-4.2,1.1c-1.1,0.5-1.8,1-2.2,1.6c-0.4,0.5-0.4,1-0.2,1.5c0.2,0.5,0.8,1.1,1.9,1.6l0,0l0,0
		c0.3,0.2,0.5,0.3,0.8,0.3c0.5,0.1,0.9,0,1.1-0.1c0.2-0.1,0.4-0.3,0.5-0.5l0.9,0.4c-0.1,0.2-0.1,0.6-0.1,1.1c0,0.4,0.2,0.7,0.4,0.8
		c0.4,0.2,1,0.2,1.6,0c0.3-0.1,0.6-0.2,0.8-0.3c0.2-0.1,0.4-0.2,0.4-0.3l0.1-0.2c-0.6-0.5-1.3-1.2-1.9-1.9c-0.1-0.1-0.3-0.3-0.4-0.4
		c-0.4-0.5-0.9-0.9-1.2-1.2c-0.4-0.3-0.7-0.5-0.8-0.5c-0.3-0.1-0.4-0.3-0.4-0.6s0.3-0.4,0.6-0.4c0.4,0.1,0.9,0.4,1.3,0.7
		c0.4,0.4,0.9,0.8,1.3,1.3c0.1,0.1,0.3,0.3,0.4,0.4c0.8,0.8,1.5,1.6,2.3,2.1l0.1,0.1l0.1,0.1c0,0.1,0.1,0.2,0.1,0.3
		c0,0.1,0,0.3-0.1,0.5c-0.1,0.2-0.3,0.3-0.5,0.4c-0.1,0-0.2,0-0.3,0c-0.2,0.2-0.4,0.3-0.6,0.4c-0.3,0.2-0.7,0.3-1.1,0.4
		c-0.7,0.2-1.6,0.2-2.3-0.1l0,0l0,0c-0.6-0.4-0.8-1-0.8-1.6c0,0,0-0.1,0-0.1c-0.3,0.1-0.7,0.2-1.2,0.2c0,0,0,0,0,0
		c-0.1,0.2-0.2,0.4-0.3,0.7c-0.2,0.5-0.6,1-0.9,1.6c-0.6,1-1.4,2.1-2.1,2.9c0.4,0.2,0.9,0.5,1.5,0.8c0.9,0.4,2,0.9,3.2,1.2
		c2.3,0.7,4.9,1,6.7,0.5c1.4-2.1,2.3-4.4,2.9-7c0.3-1.1,0.5-2.3,0.7-3.4c0-0.3,0.3-0.5,0.6-0.4s0.5,0.3,0.4,0.6
		c-0.2,1.1-0.3,2.1-0.6,3.1C30.4,23,31.8,23.2,33,23.1z"/>
	<path class="st0" d="M14,51.7L14,51.7c0.4,0,1,0.1,1.7,0.3c0.6,0.1,1.2,0.3,1.7,0.5c1.5,0.2,2.2-0.1,2.5-0.4
		c0.1-0.1,0.1-0.3,0.1-0.3c0-0.1-0.1-0.1-0.1-0.2c-0.8-0.2-1.2-0.7-1.6-1.1c-0.1-0.1-0.2-0.2-0.3-0.3l0,0c-0.1-0.1-0.1-0.2-0.2-0.2
		c-0.1-0.2-0.3-0.3-0.4-0.4l-0.2-0.1l0-0.3c0-0.6,0.2-1.2,0.4-1.8c0.3-0.6,0.6-1.2,0.9-1.8c0.1-0.1,0.1-0.2,0.2-0.3
		c0.3-0.5,0.5-0.9,0.7-1.3c0.2-0.5,0.4-0.9,0.4-1.1v-0.2c0-0.2,0-0.4,0-0.5c0-1.7,0-4.2-0.7-6.3c-0.1-0.3-0.3-0.7-0.4-1
		c-1.9-0.9-3.5-0.9-4.7-0.4c-1.2,0.4-2.1,1.3-2.7,2.4c0.7,1.5,2.1,3,3.9,4.9l0.3,0.3l-0.3,0.4c-2.1,2.3-1.6,5-1.2,6.5
		c0.2,0.5,0.1,1,0,1.3c-0.1,0.2-0.1,0.4-0.2,0.6c0,0,0,0.1,0,0.1c-0.1,0.1-0.1,0.3-0.1,0.4c-0.1,0.2-0.1,0.3-0.1,0.3
		c0,0,0,0.1,0,0.1C13.5,51.6,13.7,51.7,14,51.7L14,51.7z"/>
	<path class="st0" d="M28.4,15.5C28,15.8,28,15.8,28,15.8L28.4,15.5L28.4,15.5z"/>
	<path class="st0" d="M26,40.9c0.4-0.5,0.7-0.9,1-1.4c0.6-1,0.9-1.8,0.4-2.6l0,0l0,0c-0.1-0.2-0.7-1.3-1.4-2.5l-0.1-0.1
		c-0.5-0.8-1-1.6-1.3-2.2c-0.5,0.6-1.2,1.1-1.8,1.5c-0.4,0.3-0.9,0.6-1.3,0.9l0,0c-0.4,0.2-0.8,0.5-1.1,0.7c0,0.2,0,0.5,0,0.8
		c0.1,0.4,0.2,0.8,0.3,1.3c0.1,0.4,0.2,0.8,0.3,1.1c0,0,0,0.1,0,0.1c0.1,0.4,0.2,0.8,0.3,1l0,0.1v0.1c0,1.8-0.2,3.1-0.8,4.2
		c-0.1,0.4-0.3,0.8-0.5,1.1c0,0.1-0.1,0.1-0.1,0.2c-0.2,0.3-0.3,0.5-0.4,0.8c-0.1,0.2-0.1,0.2-0.1,0.3c0,0,0.1,0,0.2,0.1
		c0.1,0,0.3,0,0.5,0.1c0.2,0,0.5,0,0.7,0c0.2,0,0.4,0,0.6,0c0.5,0,1,0,1.5,0.2l0,0l0,0c0.7,0.4,1.4,0.4,2,0.4c0.3,0,0.5-0.1,0.7-0.1
		c0.2-0.1,0.2-0.1,0.2-0.1c0,0,0,0,0,0c0,0,0-0.1,0-0.1c0,0,0,0,0-0.1c-0.1-0.1-0.3-0.3-0.5-0.6c-0.1-0.1-0.3-0.2-0.4-0.3l0,0
		c-0.1-0.1-0.3-0.2-0.4-0.3c-0.3-0.2-0.6-0.5-0.7-0.8l-0.2-0.3l0.2-0.3c0.2-0.2,0.3-0.4,0.5-0.7c0,0,0,0,0-0.1
		c0.2-0.2,0.3-0.5,0.5-0.7C25.2,41.9,25.5,41.5,26,40.9C25.9,41,25.9,40.9,26,40.9z"/>
	<path class="st0" d="M20.9,33.6c0.4-0.3,0.9-0.6,1.3-0.9c0.8-0.5,1.4-1.1,1.9-1.7C22.2,31.4,20,31,18,30.4
		c-1.2-0.4-2.4-0.8-3.4-1.3c-0.7-0.3-1.3-0.7-1.7-0.9c-1.2,1.7-1.9,3.2-2.2,4.5c-0.2,1-0.2,2,0.1,2.9c0.7-1,1.6-1.8,2.8-2.2
		c1.5-0.6,3.4-0.5,5.6,0.5l0.1,0.1l0.1,0.1c0.1,0.1,0.1,0.3,0.2,0.4C20,34.2,20.4,33.9,20.9,33.6L20.9,33.6z"/>
</g>
</svg>
