<?xml version="1.0" encoding="utf-8"?>
<!-- Generator: Adobe Illustrator 24.1.0, SVG Export Plug-In . SVG Version: 6.00 Build 0)  -->
<svg version="1.1" id="Layer_1" xmlns="http://www.w3.org/2000/svg" xmlns:xlink="http://www.w3.org/1999/xlink" x="0px" y="0px"
	 viewBox="0 0 46 47" style="enable-background:new 0 0 46 47;" xml:space="preserve">
<style type="text/css">
	.st0{fill-rule:evenodd;clip-rule:evenodd;fill:#E8AA05;}
	.st1{fill:#E8AA05;}
</style>
<path class="st0" d="M13.3,2c-2.8,1-4.9,3.8-5.2,8.4l0,0.2l-0.2,0.1c-3.9,2.7-5.8,5.7-6.3,8.5c-0.5,2.8,0.3,5.5,2,7.6
	c3.3,4.3,9.7,6.1,14.7,2.1l0.5-0.4l0.3,0.6c0.4,1,1.4,2,2.8,2.8c1.4,0.8,3.1,1.3,4.8,1.4c3.5,0.2,7.3-1.2,9.5-5.7l0.1-0.2l0.2-0.1
	c3.6-1,6.8-3.5,7.8-6.5c0.5-1.5,0.5-3.2-0.4-4.8c-0.8-1.7-2.4-3.5-5.1-5.2l-0.2-0.1l0-0.2c-0.5-3.2-1.9-5.9-4.4-7.2
	c-2.4-1.3-6-1.4-10.9,1.1l-0.3,0.1l-0.3-0.2C19.7,1.6,16.1,0.9,13.3,2z M23.2,3.3C19.9,0.6,16.1-0.1,13,1c-3.2,1.2-5.5,4.3-5.8,9.1
	c-3.9,2.8-6,5.9-6.5,9c-0.6,3.1,0.4,6.1,2.2,8.4c3.5,4.5,10.2,6.6,15.7,2.6c0.6,1,1.7,2,2.9,2.7c1.5,0.8,3.3,1.4,5.3,1.6
	c3.8,0.3,8-1.3,10.3-6.1c3.8-1.1,7.2-3.8,8.3-7.1c0.6-1.7,0.5-3.7-0.4-5.6c-0.9-1.9-2.6-3.7-5.3-5.5c-0.5-3.3-2.1-6.2-4.8-7.7
	C32,0.9,28.2,0.9,23.2,3.3z"/>
<path class="st1" d="M22.2,39.9c0,2.8-2.2,5-5,5c-2.8,0-5-2.2-5-5c0-2.8,2.2-5,5-5C19.9,34.9,22.2,37.1,22.2,39.9z"/>
<path class="st0" d="M17.2,43.9c2.2,0,4-1.8,4-4c0-2.2-1.8-4-4-4c-2.2,0-4,1.8-4,4C13.2,42.1,15,43.9,17.2,43.9z M17.2,44.9
	c2.8,0,5-2.2,5-5c0-2.8-2.2-5-5-5c-2.8,0-5,2.2-5,5C12.2,42.6,14.4,44.9,17.2,44.9z"/>
<g>
	<path class="st1" d="M39.2,10.4c-1-6.5-6-11.5-16-6.5c-6.5-5.5-15-3-15.5,6.5c-16,11,0.5,27.5,11,19c2,4.5,13.5,8,18-1.5
		C44.2,25.9,50.2,17.4,39.2,10.4z M32,19c0,0.1-0.1,0.1-0.1,0.2c-0.3,0.4-0.6,0.9-1.2,1.2c-0.4,0.2-0.8,0.3-1.4,0.4
		c0.3,0.3,0.5,0.6,0.6,0.9c0.3,0.7,0.2,1.4,0,2.1c-0.6,1.2-2,2.1-3.5,2.2l0,0l0,0c-3.1,0-5.4-1.1-7.1-2.5c-1.6-1.4-2.6-3.1-2.8-4.4
		c-0.1-0.9,0.3-1.8,0.7-2.5c-1-0.9-1.4-2.3-1.3-3.6c0.2-1.5,1.1-3,2.9-3.3c1.5-0.3,2.8,0.1,3.6,0.8c0.9,0.7,1.3,1.7,1.4,2.8
		c0,0.3,0,0.5,0,0.8c0.9,0.1,1.6,0.4,2,0.8c0.4,0.4,0.4,0.9,0.3,1.4c0.7,0.5,1.7,0.7,2.7,0.8c0.5,0,0.9,0,1.3-0.1
		c0.4-0.1,0.6-0.2,0.7-0.3l0,0l0.1,0c0.3-0.2,0.6-0.2,1-0.1c0.3,0.2,0.5,0.4,0.5,0.7C32.6,17.7,32.4,18.4,32,19z"/>
	<path class="st1" d="M31.5,17.3c-0.3,0.3-0.7,0.4-1.1,0.5c-0.5,0.1-1,0.1-1.5,0.1c-1-0.1-2-0.3-2.9-0.8c-0.2,0.4-0.4,0.8-0.6,1.1
		c-0.1,0.1-0.2,0.3-0.2,0.4c-0.2,0.3-0.3,0.5-0.5,0.8c0.1,0.1,0.1,0.3,0.2,0.5c0.1,0.4,0.2,0.9,0.3,1.4c0,0.3-0.2,0.5-0.4,0.6
		c-0.3,0-0.5-0.2-0.6-0.4c-0.1-0.5-0.2-1-0.2-1.3c0,0,0-0.1,0-0.1c-0.1,0-0.3,0-0.4,0c-0.3,0-0.6,0-0.9-0.1
		c-0.6-0.1-1.3-0.3-1.8-0.4l0,0c-0.3-0.1-0.4-0.3-0.4-0.6c0.1-0.3,0.3-0.4,0.6-0.4c0.5,0.1,1.2,0.3,1.7,0.4c0.3,0.1,0.5,0.1,0.7,0.1
		c0.1,0,0.2,0,0.2,0c0.2-0.3,0.4-0.6,0.6-1c0.1-0.1,0.2-0.3,0.2-0.4c0.3-0.5,0.6-1,0.7-1.5c0.2-0.5,0.1-0.8,0-0.9
		c-0.2-0.2-0.5-0.4-1.3-0.5c-0.1,0.4-0.2,0.8-0.4,1.1c-0.5,0.8-1.3,1.5-2.4,1.4c-0.3,0-0.5-0.2-0.5-0.5c0-0.3,0.2-0.5,0.5-0.5
		c0.6,0,1.2-0.3,1.5-0.9c0.4-0.6,0.5-1.5,0.4-2.3c-0.1-0.8-0.5-1.6-1.1-2.1c-0.6-0.5-1.5-0.8-2.8-0.6c-1.2,0.2-1.9,1.2-2.1,2.4
		c-0.2,1.2,0.3,2.4,1.2,2.9l0.5,0.3l-0.3,0.5c-0.5,0.7-0.9,1.5-0.8,2.2c0.1,1,0.9,2.5,2.4,3.7c1.5,1.3,3.7,2.3,6.5,2.3
		c1.2-0.1,2.2-0.8,2.6-1.6c0.2-0.4,0.2-0.8,0-1.3c-0.2-0.5-0.6-1-1.4-1.5l0.4-0.9c1.3,0.2,2,0.1,2.4-0.1c0.4-0.2,0.6-0.5,0.9-0.9
		c0-0.1,0.1-0.1,0.1-0.2C31.5,18,31.5,17.6,31.5,17.3C31.5,17.3,31.5,17.3,31.5,17.3z"/>
</g>
<path class="st1" d="M10.2,43.4c0,1.9-1.6,3.5-3.5,3.5s-3.5-1.6-3.5-3.5c0-1.9,1.6-3.5,3.5-3.5S10.2,41.4,10.2,43.4z"/>
<path class="st0" d="M6.7,45.9c1.4,0,2.5-1.1,2.5-2.5S8,40.9,6.7,40.9S4.2,42,4.2,43.4S5.3,45.9,6.7,45.9z M6.7,46.9
	c1.9,0,3.5-1.6,3.5-3.5c0-1.9-1.6-3.5-3.5-3.5s-3.5,1.6-3.5,3.5C3.2,45.3,4.7,46.9,6.7,46.9z"/>
</svg>
