<?xml version="1.0" encoding="utf-8"?>
<!-- Generator: Adobe Illustrator 24.1.0, SVG Export Plug-In . SVG Version: 6.00 Build 0)  -->
<svg version="1.1" id="Layer_1" xmlns="http://www.w3.org/2000/svg" xmlns:xlink="http://www.w3.org/1999/xlink" x="0px" y="0px"
	 viewBox="0 0 54 54" style="enable-background:new 0 0 54 54;" xml:space="preserve">
<style type="text/css">
	.st0{fill:#E8AA05;}
	.st1{fill-rule:evenodd;clip-rule:evenodd;fill:#E8AA05;}
</style>
<path class="st0" d="M39,23.5v7h9.5c6,0,6-7,0-7H39z"/>
<path class="st1" d="M38.5,23h10c3.2,0,5,1.9,5,4s-1.8,4-5,4h-10V23z M39.5,24v6h9c2.8,0,4-1.6,4-3s-1.2-3-4-3H39.5z"/>
<path class="st1" d="M3,24.1c1.6-0.7,4-1.1,7.1-1.1h27.4v8H10.1c-3,0-5.3-0.4-6.9-1.1s-2.6-1.7-2.7-2.8C0.5,25.8,1.4,24.8,3,24.1z
	 M3.6,28.9C5,29.6,7.2,30,10.1,30h26.4v-6H10.1c-3.1,0-5.3,0.4-6.7,1.1c-1.5,0.6-1.9,1.4-1.9,1.9C1.5,27.6,2.1,28.3,3.6,28.9z"/>
<g>
	<path class="st0" d="M10.1,23.5c-12.4,0-11.8,7,0,7H37v-7H10.1z M25.2,28.6h-3.4c-0.9,0-1.7-0.7-1.7-1.7c0-0.9,0.7-1.7,1.7-1.7h3.4
		c0.9,0,1.7,0.7,1.7,1.7C26.9,27.8,26.2,28.6,25.2,28.6z"/>
	<path class="st0" d="M25.2,25.7h-3.4c-0.7,0-1.2,0.5-1.2,1.2c0,0.7,0.5,1.2,1.2,1.2h3.4c0.7,0,1.2-0.5,1.2-1.2
		C26.4,26.2,25.9,25.7,25.2,25.7z M22.6,27.4c0,0.1-0.1,0.2-0.2,0.2c-0.1,0-0.2-0.1-0.2-0.2v-1.1c-0.1-0.1,0-0.2,0.2-0.2
		c0.1,0,0.2,0.1,0.2,0.2V27.4z M24.9,27.4c0,0.1-0.1,0.2-0.2,0.2c-0.1,0-0.2-0.1-0.2-0.2v-1.1c-0.1-0.1,0-0.2,0.2-0.2
		c0.1,0,0.2,0.1,0.2,0.2V27.4z"/>
</g>
</svg>
