<svg id="Calque_1" data-name="Calque 1" xmlns="http://www.w3.org/2000/svg" viewBox="0 0 51 51"><defs><style>.cls-1{fill:#5770be;}</style></defs><path class="cls-1" d="M24.82,44.5c-10.91,0-19.49-3.89-23-10.47a1.47,1.47,0,0,1-.05-1.28L12.25,8.89a1.55,1.55,0,0,1,.91-.83,1.61,1.61,0,0,1,1.29.12h0c6,3.36,16.22,3.45,21.38.19a1.7,1.7,0,0,1,1.39-.19,1.52,1.52,0,0,1,1,.83c4.21,9.21,9.62,20.94,11,23.7a1.49,1.49,0,0,1,0,1.35c-3.59,7-14.57,10.32-23.85,10.44ZM13.67,9a.63.63,0,0,0-.19,0,.54.54,0,0,0-.31.28L2.65,33.15a.45.45,0,0,0,0,.41c4,7.48,14.4,10.06,22.71,9.94,10.62-.13,20.07-4.2,23-9.89a.51.51,0,0,0,0-.45c-1.87-3.64-10.12-21.69-11-23.74a.53.53,0,0,0-.34-.28.68.68,0,0,0-.57.08c-5.42,3.42-16.09,3.35-22.4-.16h0A.6.6,0,0,0,13.67,9Zm17,31.52h-.37c-12.15-.74-15.26-6-16-8.16a6.34,6.34,0,0,1,.92-6.3,7.4,7.4,0,0,1-1.1-7.64,5,5,0,0,1,5-2.88h0a5.56,5.56,0,0,1,5.42,4.28c.49,2.06-.16,4.84-3.35,6.71a1.56,1.56,0,0,0,1.31.37c1-.25,2-1.78,2.48-2.52l.12-.19a1.89,1.89,0,0,1,2.5-.57A2.43,2.43,0,0,1,29,26.45a1,1,0,0,0,.62.75c2.46.83,6.52.6,7.66,0l.39-.2.25.37a2.82,2.82,0,0,1,.34,2.94c-.65,1.3-2.41,2.19-5,2.55a4.36,4.36,0,0,1,1.93,4.62A4.3,4.3,0,0,1,30.71,40.5Zm-11.93-24A4,4,0,0,0,15,18.82a6.43,6.43,0,0,0,1.25,6.9l.33.37-.37.34a5.28,5.28,0,0,0-1,5.57c.71,2,3.61,6.79,15.16,7.49a3.39,3.39,0,0,0,3.74-2.24c.34-1.24-.2-3-2.7-4.27l-1.66-.83L31.63,32c3-.18,5.09-1,5.68-2.15a1.7,1.7,0,0,0-.07-1.59,15.65,15.65,0,0,1-8-.15,2.13,2.13,0,0,1-.86-.58,8,8,0,0,1-2.15,2.79,4.15,4.15,0,0,0,.1,3,.5.5,0,0,1-.94.32A6.78,6.78,0,0,1,25,31a13.26,13.26,0,0,1-2.72.38l-.89.07a.5.5,0,0,1-.54-.46.49.49,0,0,1,.45-.54l.91-.07c1.58-.12,2.54-.19,3.35-.75h0A8.79,8.79,0,0,0,28,26.19a1.41,1.41,0,0,0-.79-1.7.93.93,0,0,0-1.23.22l-.12.19c-.59.9-1.69,2.59-3.07,2.94A2.8,2.8,0,0,1,20,26.68l-.36-.48.54-.27c3.17-1.6,3.85-4.1,3.42-5.91a4.58,4.58,0,0,0-4.49-3.51Z"/></svg>