<?xml version="1.0" encoding="utf-8"?>
<!-- Generator: Adobe Illustrator 24.1.0, SVG Export Plug-In . SVG Version: 6.00 Build 0)  -->
<svg version="1.1" id="Layer_1" xmlns="http://www.w3.org/2000/svg" xmlns:xlink="http://www.w3.org/1999/xlink" x="0px" y="0px"
	 viewBox="0 0 52 40" style="enable-background:new 0 0 52 40;" xml:space="preserve">
<style type="text/css">
	.st0{fill:#5770BE;}
</style>
<g>
	<path class="st0" d="M31.6,35.2c-0.1,0-0.3,0-0.4,0c-13.3-0.8-16.6-6.3-17.4-8.6c-0.9-2.7-0.2-5.1,1.1-6.4
		c-1.9-2.3-2.4-5.4-1.3-7.8c1-2.1,3-3.3,5.5-3.1c0,0,0,0,0,0c2.8,0,5.2,1.9,5.8,4.5c0.5,2.1-0.2,5-3.6,6.9c0.4,0.3,0.9,0.5,1.5,0.4
		c1.2-0.3,2.7-2.1,2.7-2.6l0-0.2l0.2-0.2c1-0.8,2.2-0.9,3.1-0.2c0.8,0.6,1.1,1.6,0.8,2.7c0,0.6,0.7,0.8,0.7,0.8
		c2.7,0.9,7.1,0.6,8.3,0l0.4-0.2l0.2,0.3c0.9,1.3,0.8,2.3,0.4,3c-0.7,1.4-2.6,2.3-5.5,2.7c2.1,1.5,2.5,3.4,2.1,4.8
		C35.8,33.9,33.9,35.2,31.6,35.2z M18.7,10.2c-1.9,0-3.4,0.9-4.2,2.6c-1,2.2-0.5,5.1,1.4,7.1l0.4,0.4l-0.4,0.3c-1.1,1-2,3.2-1.1,5.7
		c0.7,2.1,3.8,7.2,16.5,8c2.4,0.1,3.8-1.1,4.1-2.4c0.3-1.3-0.3-3.1-3-4.4l-1.7-0.8l1.9-0.1c3.3-0.2,5.6-1,6.2-2.3
		c0.2-0.5,0.2-1.1-0.1-1.6c-1.9,0.6-6.1,0.7-8.7-0.1c-0.3-0.1-0.7-0.3-1-0.7c-0.9,1.5-1.6,2.4-2.4,3c-0.5,0.7-0.2,2.1,0.1,3.1
		c0.1,0.3,0,0.5-0.3,0.6c-0.3,0.1-0.5,0-0.6-0.3c-0.2-0.6-0.5-1.8-0.4-2.8c-0.8,0.3-1.8,0.3-3,0.4l-1,0.1c-0.3,0-0.5-0.2-0.5-0.5
		c0-0.3,0.2-0.5,0.5-0.5l1-0.1c1.7-0.1,2.8-0.2,3.6-0.8c0,0,0,0,0,0c0.8-0.5,1.6-1.6,2.6-3.6c0.2-0.7,0.1-1.3-0.4-1.6
		c-0.5-0.4-1.2-0.3-1.8,0.1c-0.3,1.1-2.1,2.9-3.5,3.2c-1.4,0.3-2.5-0.6-2.9-1.2l-0.4-0.5l0.6-0.3c2.9-1.4,4.3-3.7,3.7-6.1
		c-0.5-2.2-2.5-3.7-4.9-3.7C18.9,10.2,18.8,10.2,18.7,10.2z"/>
</g>
<g>
	<path class="st0" d="M25.4,40c-9.4,0-20.6-3-24.8-11.6l-0.1-0.2L12.7,0.3l0.5,0.3c7.3,4.9,20.2,4.2,24.9,0l0.5-0.4l0.3,0.6
		C42.7,9.3,50.4,26,51.4,27.9l0.1,0.2l-0.1,0.2C48,36.1,36.3,39.7,26.2,40C26,40,25.7,40,25.4,40z M1.6,28.1
		c4.3,8.3,15.5,11,24.7,10.9c11.4-0.2,21.3-4.7,24.2-10.8C49,25.4,42.1,10.2,38.2,1.8C32.6,6,20.1,6,13.1,1.7L1.6,28.1z"/>
</g>
</svg>
