<svg id="Calque_1" data-name="Calque 1" xmlns="http://www.w3.org/2000/svg" viewBox="0 0 51 51"><defs><style>.cls-1{fill:#5770be;}</style></defs><path class="cls-1" d="M37,29h-.5v.5H37Zm0-7v-.5h-.5V22Zm-2,0h.5v-.5H35ZM9.58,22v.5h0Zm0,7v.5h0ZM35,29v.5h.5V29ZM23.5,25a.5.5,0,0,0-1,0Zm-1,1a.5.5,0,0,0,1,0Zm-1-1a.5.5,0,0,0-1,0Zm-1,1a.5.5,0,0,0,1,0Zm17,3V22h-1v7ZM37,22.5h8.84v-1H37Zm8.84,0a3.91,3.91,0,0,1,2.78,1,2.8,2.8,0,0,1,0,4.08,3.91,3.91,0,0,1-2.78,1v1a4.86,4.86,0,0,0,3.46-1.23,3.8,3.8,0,0,0,0-5.54,4.86,4.86,0,0,0-3.46-1.23Zm0,6H37v1h8.84ZM35,21.5H9.58v1H35Zm-25.42,0a16.41,16.41,0,0,0-6.72,1.14c-1.49.69-2.4,1.7-2.36,2.88s1,2.16,2.52,2.84A16.07,16.07,0,0,0,9.58,29.5v-1a15.16,15.16,0,0,1-6.15-1.05c-1.38-.63-1.91-1.38-1.93-2s.42-1.31,1.78-1.93a15.43,15.43,0,0,1,6.3-1.05Zm0,8H35v-1H9.58ZM35.5,29V22h-1v7Zm-15-4.5h3v-1h-3Zm3,2h-3v1h3Zm-3,0a1,1,0,0,1-1-1h-1a2,2,0,0,0,2,2Zm4-1a1,1,0,0,1-1,1v1a2,2,0,0,0,2-2Zm-1-1a1,1,0,0,1,1,1h1a2,2,0,0,0-2-2Zm-3-1a2,2,0,0,0-2,2h1a1,1,0,0,1,1-1Zm2,1.5v1h1V25Zm-2,0v1h1V25Z"/></svg>