<?xml version="1.0" encoding="utf-8"?>
<!-- Generator: Adobe Illustrator 24.1.0, SVG Export Plug-In . SVG Version: 6.00 Build 0)  -->
<svg version="1.1" id="Layer_1" xmlns="http://www.w3.org/2000/svg" xmlns:xlink="http://www.w3.org/1999/xlink" x="0px" y="0px"
	 viewBox="0 0 35 51" style="enable-background:new 0 0 35 51;" xml:space="preserve">
<style type="text/css">
	.st0{fill-rule:evenodd;clip-rule:evenodd;fill:#E8AA05;}
	.st1{fill:#E8AA05;}
</style>
<path class="st0" d="M22.2,0.7L22.2,0.7c0.8,0.7,1.5,1.4,2.2,2l0.1,0.1c0.6,0.6,1.2,1.1,1.7,1.5c0.5,0.5,1,0.9,1.4,1.2
	C27.9,5.8,28.2,6,28.4,6l0.1,0l0,0.1c0.3,1.7-0.1,3.1-0.8,4.1c-0.6,0.9-1.5,1.6-2.5,2.1c5.7,4.2,9.1,10.5,9,16.4
	c-0.1,6-3.9,11.6-12.5,14.5c-0.2,1.9-0.6,5.5-0.6,6.7v0.2H4.8v-6c-2.2-1.6-4-3.9-4.1-7.1c-0.1-3.2,1.7-7.3,6.5-12.4
	c2-4.9,2-13.5-1.8-22.8L5.3,1.6L22.2,0.7z M5.3,44.6v5.1h15.4c0-1.3,0.4-4.5,0.5-6.2c-1.1,0.3-2.2,0.6-3.5,0.9
	c-0.1,0-0.3-0.1-0.3-0.2s0.1-0.3,0.2-0.3c1.4-0.3,2.6-0.6,3.8-1c8.5-2.8,12.1-8.3,12.3-14.1c0.1-5.8-3.2-11.9-9-16.1
	c-1.3,0.6-2.7,0.8-3.8,0.8c-0.1,0-0.2-0.1-0.2-0.2S20.8,13,21,13c1,0,2.4-0.2,3.7-0.8c1.1-0.5,2-1.2,2.7-2.1
	c0.6-0.9,0.9-2.1,0.7-3.6c-0.2-0.1-0.5-0.3-0.8-0.6c-0.4-0.3-0.9-0.7-1.4-1.2c-0.5-0.5-1.1-1-1.7-1.5L24,3.1c-0.6-0.6-1.3-1.2-2-1.8
	l-16,0.9C9.8,11.4,9.8,20,7.7,25l0,0l0,0c-4.8,5-6.5,9-6.4,12.1c0.1,3,1.8,5.3,3.9,6.8c0.8,0.6,1.6,1,2.4,1.4
	c0.1,0.1,0.2,0.2,0.1,0.3c-0.1,0.1-0.2,0.2-0.3,0.1C6.7,45.5,6,45.1,5.3,44.6z"/>
<g>
	<path class="st1" d="M23.8,21c-0.6-0.1-1.3,0-1.9,0.5c-0.6,0.5-1.2,1.3-1.6,2.6l-1-0.1c-0.1-1.8-0.6-2.7-1-3.2
		c-0.4-0.4-0.9-0.6-1.6-0.9c-0.1,0-0.2-0.1-0.3-0.1c-0.8-0.3-1.4-0.2-1.7,0c-0.2,0.1-0.2,0.2-0.2,0.2c0,0,0,0,0,0c0,0,0,0.1,0.1,0.1
		c0.4,0.3,0.8,0.8,1.1,1.3c0.3,0.6,0.5,1.3,0.7,2c0.3,1.4,0.3,3-0.1,4.3c0.6,0.1,1.3,0.3,1.9,0.4c0.2,0.1,0.4,0.1,0.6,0.2
		c0.5,0.1,0.9,0.3,1.3,0.4c0,0,0,0,0.1-0.1c0.1-0.1,0.3-0.3,0.5-0.4c0.4-0.3,1.1-0.6,1.8-0.9c0.3-0.1,0.5,0,0.6,0.3s0,0.5-0.3,0.6
		c-0.7,0.3-1.3,0.6-1.6,0.8c-0.1,0.1-0.2,0.1-0.3,0.2c0.1,0.2,0.2,0.4,0.2,0.6c0.1,0.4,0.2,0.8,0.2,1.2c0.1,0.9,0.1,1.8,0.1,2.5v0
		c0,0.3-0.2,0.5-0.5,0.5c-0.3,0-0.5-0.2-0.5-0.5c0-0.7,0-1.7-0.1-2.5c0-0.4-0.1-0.8-0.2-1.1c0-0.2-0.1-0.3-0.1-0.4
		c-0.5-0.1-1-0.3-1.6-0.4c-0.2-0.1-0.4-0.1-0.6-0.2c-0.8-0.2-1.6-0.4-2.3-0.4c-0.7,0-1.2,0.1-1.4,0.5c-0.2,0.3-0.4,1-0.2,2.3
		c0.5,0,1.1,0.1,1.6,0.4c0.7,0.4,1.1,1.2,1.4,2.5c0.1,0.3-0.1,0.5-0.4,0.6c-0.3,0.1-0.5-0.1-0.6-0.4c-0.3-1.2-0.6-1.7-1-1.9
		c-0.3-0.2-0.7-0.2-1.4-0.3c-2.4,0.6-3.6,1.8-4,3c-0.5,1.3-0.2,2.7,0.5,3.8c0.7,1.1,1.9,1.9,3.2,1.8c1.3,0,2.8-0.7,4.2-2.9l0.3-0.4
		l0.4,0.2c1.4,0.8,2.7,0.8,3.7,0.4c1.3-0.5,3.1-2.2,4.2-4.7c1.2-2.5,1.7-5.8,0.7-9.6C26.5,22.4,25.2,21.2,23.8,21z"/>
	<path class="st1" d="M24.8,12.4c2.2-1,4.1-2.9,3.5-6.2C27.4,6,25.1,3.6,22.1,1L5.7,1.9c3.8,9.3,3.8,18.1,1.8,23
		C-2.2,35,0.7,41,5.1,44.2V50H21c0-1.2,0.4-5.1,0.6-6.9C38.6,37.5,36.6,20.8,24.8,12.4z M27.2,34.1c-1.2,2.7-3.2,4.5-4.8,5.2
		c-1.2,0.5-2.7,0.4-4.2-0.3c-1.5,2.1-3.2,3-4.8,3c-1.7,0-3.1-1-4-2.3c-0.9-1.3-1.2-3.1-0.6-4.7c0.6-1.5,2-2.8,4.4-3.5
		c-0.2-1.3-0.1-2.3,0.4-3c0.4-0.6,1.1-0.8,1.8-0.9l0,0c0.4-1.2,0.4-2.7,0.1-4c-0.1-0.7-0.3-1.2-0.6-1.7c-0.3-0.5-0.5-0.8-0.8-0.9
		l-0.1,0l0,0c-0.3-0.3-0.5-0.7-0.4-1.1c0.1-0.4,0.4-0.7,0.7-0.9c0.6-0.4,1.6-0.4,2.6,0c0.1,0,0.2,0.1,0.3,0.1
		c0.6,0.2,1.4,0.5,1.9,1.1c0.5,0.5,0.8,1.1,1,2.1c0.4-0.6,0.8-1.1,1.2-1.4c0.8-0.6,1.8-0.8,2.6-0.7c1.8,0.3,3.4,1.8,4,3.7l0,0l0,0
		C29.1,27.8,28.5,31.4,27.2,34.1z"/>
</g>
</svg>
