<svg width="44" height="50" viewBox="0 0 44 50" fill="none" xmlns="http://www.w3.org/2000/svg">
<path d="M34.5196 27.8907C35.1077 29.6356 36.8719 38.36 37.1659 39.5232C40.1062 38.9416 41.5647 41.6047 41.2824 41.8497C40.6943 41.7528 39.2829 41.7334 38.342 42.4314C36.8719 42.7222 35.5781 42.8385 35.1077 40.9773L31.2369 33.7114C30.6647 34.5481 30.1406 35.1455 29.5211 35.4518C29.5211 37.7783 29.3928 39.5694 28.8239 40.5C29.1179 40.5969 29.5 40.5 30 40.5C32 40.5 32.1674 41.8497 32.1674 42.7222C32.6084 43.5946 28.639 42.7222 27.7569 43.3038C26.5808 43.8854 26.2279 43.013 25.9927 41.8497C25.6124 39.9689 25.4289 38.3411 25.4319 36.9059C24.5227 37.7783 22.9349 37.4875 22.4644 37.4875C22.4644 41.2681 23.3464 42.7222 18.9359 43.0131C17.9949 43.0131 13.6433 42.8191 11.5851 42.7222C10.703 42.7222 10.409 42.7222 8.35079 43.5947C6.29257 43.5947 6.5866 42.4315 7.4687 42.1407C8.17437 41.908 8.74284 40.4927 8.93886 39.8142C8.70363 39.5815 6.29257 39.2325 4.52838 39.8142C3.05822 40.3958 1 40.0948 1 39.5234C1 38.9519 2.76419 38.3601 3.64629 36.9059C4.35196 35.7426 5.31247 36.2274 5.70451 36.6152C6.41018 37.3132 6.88064 37.0222 7.4687 36.9059C8.93886 36.6152 10.7031 35.1612 12.4672 36.3244C11.9968 35.6264 11.8792 34.2887 12.0924 33.1254C8.96637 28.3122 14.0172 22.5165 20.1122 24.9826C25.1106 25.2735 27.7569 24.4011 30.6972 22.3654C30.9648 22.2752 31.5 21.9948 31.5 21.5948C30.3525 20.5705 29.9614 19.3793 29.84 17.1842C29.4532 16.0086 28.7973 16.2728 29.2719 14.7988C29.8623 9.69148 33.1946 6.82288 38.3031 8.46141C42.0712 9.52929 44.173 12.0316 43.1357 16.9487C43.017 17.6127 42.7471 19.034 42.6171 19.4074C41.594 24.3622 38.8579 25.5772 35.9943 25.0157C35.919 25.1239 35.1125 26.2868 34.8137 26.925C34.5 27.5948 34.5196 27.8907 34.5196 27.8907Z" fill="#E8AA05"/>
<path fill-rule="evenodd" clip-rule="evenodd" d="M32.3918 9.50149C30.9914 10.5443 30.0537 12.3901 29.7686 14.8563L29.7629 14.9052L29.7478 14.9521C29.636 15.2995 29.6056 15.5016 29.6061 15.6261C29.6065 15.73 29.6278 15.7873 29.666 15.8535C29.6811 15.8796 29.7095 15.9187 29.7468 15.97C29.8857 16.161 30.1488 16.5227 30.315 17.0279L30.3356 17.0906L30.3393 17.1566C30.4576 19.2976 30.8309 20.3273 31.833 21.2218L32 21.3709V21.5948C32 22.0272 31.7158 22.3261 31.5078 22.4895C31.3144 22.6414 31.0963 22.7495 30.9281 22.8136C29.4442 23.8351 28.0087 24.5804 26.304 25.03C24.8506 25.4133 23.2215 25.5765 21.2251 25.5292C21.3581 25.785 21.4821 26.0788 21.5978 26.3983C21.9222 27.2945 22.2049 28.4613 22.4301 29.7301C22.8472 32.0805 23.0783 34.8485 22.9903 37.0179C23.0031 37.0187 23.0158 37.0195 23.0284 37.0203C23.2484 37.0333 23.4964 37.0412 23.7518 37.0249C24.1995 36.9964 24.6168 36.8966 24.9341 36.6706C24.9667 34.6543 25.3661 32.9853 26.1194 31.5171C26.8999 29.9957 28.0451 28.7201 29.4942 27.5073C29.706 27.3301 30.0213 27.3581 30.1986 27.5698C30.3758 27.7816 30.3478 28.097 30.136 28.2742C28.7516 29.4328 27.7095 30.6084 27.0091 31.9736C26.3103 33.3356 25.9362 34.9163 25.9319 36.907C25.929 38.2998 26.1072 39.8929 26.4828 41.7507C26.5398 42.0328 26.6004 42.2782 26.673 42.4811C26.7468 42.6874 26.8222 42.8182 26.8918 42.8946C26.9508 42.9595 27.0009 42.982 27.0629 42.9876C27.1387 42.9944 27.28 42.9785 27.5131 42.8664C27.7021 42.7508 27.9266 42.6909 28.1318 42.6551C28.3574 42.6157 28.6099 42.5976 28.8663 42.5905C29.2925 42.5786 29.7735 42.5965 30.219 42.613C30.3061 42.6163 30.3919 42.6195 30.4757 42.6224C30.9826 42.64 31.396 42.6459 31.6663 42.6116C31.6581 42.2256 31.6034 41.8456 31.4152 41.5575C31.2373 41.2854 30.8749 41 30 41C29.8394 41 29.7029 41.0105 29.5587 41.0216C29.4966 41.0264 29.4331 41.0312 29.3657 41.0354C29.1679 41.0477 28.9136 41.0561 28.6673 40.9749L28.0683 40.7774L28.3973 40.2393C28.6243 39.8679 28.7886 39.275 28.8894 38.4395C28.9889 37.6151 29.0211 36.6098 29.0211 35.4519V35.1413L29.2994 35.0037C29.7954 34.7584 30.2586 34.2563 30.8242 33.4292C31.1433 32.9625 31.4729 32.4277 31.8496 31.8163C32.073 31.4537 32.313 31.0642 32.5773 30.646C32.7248 30.4125 33.0337 30.3429 33.2671 30.4904C33.5005 30.6379 33.5702 30.9467 33.4227 31.1802C33.1749 31.5722 32.9417 31.9505 32.7203 32.3097C32.398 32.8326 32.1006 33.3151 31.8193 33.7411L35.5776 40.7959L35.5924 40.8548C35.6969 41.2681 35.8377 41.5334 35.9849 41.7058C36.1277 41.8729 36.2941 41.9735 36.4916 42.0318C36.9025 42.1532 37.4418 42.0954 38.1406 41.9613C38.6847 41.5905 39.3225 41.4187 39.8804 41.3466C40.1281 41.3146 40.368 41.3013 40.5882 41.3006C40.4691 41.1272 40.3061 40.9342 40.0992 40.7491C39.4978 40.2108 38.5527 39.7586 37.2629 40.0138L36.7974 40.1058L36.6812 39.6458C36.5863 39.2705 36.3433 38.133 36.0387 36.7065C35.8623 35.8809 35.6653 34.9585 35.4644 34.031C34.9094 31.4695 34.3284 28.889 34.0458 28.0504L34.025 27.9888L34.0207 27.9238L34.5196 27.8907C34.0207 27.9238 34.0207 27.9241 34.0207 27.9238L34.0206 27.9226L34.0206 27.9214L34.0204 27.9189L34.0201 27.9136L34.0197 27.9017C34.0194 27.8931 34.0193 27.8835 34.0194 27.8727C34.0196 27.8511 34.0206 27.8249 34.0231 27.7941C34.028 27.7325 34.0388 27.6524 34.0604 27.5528C34.1037 27.3538 34.1904 27.0769 34.3608 26.713C34.5448 26.3203 34.8975 25.7581 35.1779 25.3315C35.1379 25.32 35.0979 25.3081 35.0579 25.296C34.7937 25.2159 34.6444 24.9367 34.7245 24.6725C34.8046 24.4082 35.0838 24.2589 35.3481 24.339C35.568 24.4057 35.787 24.4622 36.0042 24.5076C36.0652 24.5081 36.1264 24.5196 36.1848 24.5429C37.4847 24.779 38.6976 24.608 39.7013 23.8762C40.7362 23.1217 41.6307 21.7117 42.1274 19.3063L42.134 19.274L42.1449 19.2429C42.1963 19.0952 42.2896 18.6846 42.3907 18.1875C42.4883 17.7073 42.5847 17.19 42.6435 16.8608L42.6449 16.8532L42.6465 16.8456C43.1481 14.4679 42.8742 12.7577 42.0986 11.5285C41.3205 10.2955 39.9814 9.45676 38.1668 8.9425L38.1586 8.94017L38.1504 8.93755C35.7112 8.15521 33.7783 8.46907 32.3918 9.50149ZM36.2254 25.5633C35.9573 25.9598 35.4728 26.6965 35.2665 27.1371C35.1232 27.4429 35.0629 27.6489 35.0376 27.7653C35.032 27.7909 35.0282 27.8121 35.0255 27.8291C35.3392 28.8171 35.9126 31.3772 36.4417 33.8192C36.6486 34.7741 36.8493 35.714 37.0271 36.5468C37.2458 37.5708 37.4299 38.4329 37.5484 38.9618C38.9638 38.8242 40.0524 39.3651 40.7661 40.0039C41.1577 40.3545 41.4435 40.7398 41.6154 41.0705C41.7 41.2332 41.767 41.4018 41.7978 41.5596C41.8131 41.6375 41.8241 41.7353 41.8111 41.839C41.7986 41.9387 41.7558 42.1009 41.6101 42.2274L41.4327 42.3813L41.201 42.3431C40.9535 42.3023 40.5027 42.2745 40.0086 42.3384C39.5119 42.4025 39.0168 42.5534 38.6399 42.833L38.5495 42.9L38.4391 42.9219C37.7187 43.0644 36.9092 43.1979 36.2083 42.9909C35.8398 42.882 35.5027 42.6808 35.2246 42.3554C34.9618 42.0478 34.7693 41.6498 34.6386 41.1603L31.1704 34.6499C30.815 35.0986 30.4425 35.4754 30.0204 35.7435C30.0152 36.796 29.9801 37.7482 29.8822 38.5593C29.8179 39.0924 29.7242 39.586 29.5834 40.0168C29.7104 40.0079 29.8538 40 30 40C31.1251 40 31.8464 40.3896 32.2522 41.0104C32.6037 41.5481 32.6606 42.1791 32.6667 42.6261C32.6946 42.7141 32.71 42.8157 32.6966 42.9264C32.6746 43.1075 32.5831 43.2491 32.4737 43.3467C32.2886 43.5121 32.0364 43.567 31.8646 43.5935C31.4849 43.6521 30.952 43.6395 30.441 43.6218C30.3513 43.6187 30.2615 43.6153 30.1719 43.612C29.7259 43.5955 29.2846 43.5792 28.8941 43.5901C28.6612 43.5966 28.4623 43.6125 28.3037 43.6402C28.1362 43.6694 28.0574 43.7046 28.0321 43.7213L28.0063 43.7383L27.9785 43.752C27.6369 43.921 27.2995 44.0129 26.9734 43.9836C26.631 43.9528 26.3577 43.7935 26.1522 43.5676C25.9571 43.3533 25.8267 43.0842 25.7314 42.8179C25.6349 42.5482 25.5632 42.2483 25.5026 41.9489C25.1924 40.4148 25.0096 39.0375 24.9519 37.7873C24.5656 37.939 24.166 38.0005 23.8155 38.0229C23.5018 38.0429 23.2082 38.0327 22.9699 38.0185C22.9773 38.3916 22.9913 38.7337 23.0046 39.0583C23.0164 39.3479 23.0277 39.6235 23.0332 39.8947C23.047 40.5684 23.0246 41.2009 22.8216 41.7362C22.6039 42.3106 22.1965 42.7318 21.5492 43.0164C20.9301 43.2885 20.0877 43.4383 18.9689 43.5121L18.9524 43.5131H18.9359C17.9815 43.5131 13.6279 43.319 11.5734 43.2222C11.1424 43.2222 10.9027 43.2243 10.5291 43.3167C10.1308 43.4151 9.5757 43.6186 8.54595 44.0551L8.4524 44.0948H8.35079C7.797 44.0948 7.35012 44.0177 7.01245 43.8631C6.66933 43.706 6.4002 43.4465 6.31929 43.0864C6.24035 42.7351 6.36891 42.4112 6.55387 42.1791C6.74028 41.945 7.00937 41.7657 7.31215 41.6658C7.37024 41.6467 7.4674 41.5864 7.59395 41.4433C7.71628 41.3049 7.8391 41.1197 7.95584 40.9055C8.09493 40.6502 8.21452 40.3738 8.3076 40.126C8.30579 40.1256 8.30397 40.1252 8.30215 40.1249C8.04243 40.0738 7.68792 40.029 7.28144 40.0082C6.4658 39.9665 5.49645 40.0244 4.6979 40.2848C3.87611 40.6064 2.91697 40.6786 2.16021 40.5984C1.78045 40.5582 1.41848 40.4763 1.13534 40.3458C0.994354 40.2809 0.847825 40.1925 0.730149 40.0696C0.608522 39.9425 0.5 39.7576 0.5 39.5234C0.5 39.3191 0.579324 39.1504 0.663645 39.026C0.747126 38.9028 0.854237 38.7953 0.958079 38.7034C1.12577 38.555 1.3454 38.3964 1.56306 38.2392C1.60834 38.2065 1.65354 38.1739 1.69817 38.1414C2.24753 37.7417 2.83441 37.2803 3.21879 36.6466C3.65148 35.9333 4.23172 35.6418 4.8251 35.6799C5.36217 35.7145 5.80739 36.0137 6.05615 36.2598C6.33417 36.5348 6.50729 36.566 6.63064 36.5659C6.7117 36.5659 6.80284 36.5511 6.92868 36.5213C6.96113 36.5135 7.00067 36.5035 7.04443 36.4924C7.14315 36.4674 7.2633 36.4369 7.37172 36.4154C7.68857 36.3528 8.03517 36.2242 8.43702 36.0643C8.49153 36.0426 8.54706 36.0203 8.60351 35.9977C8.94864 35.8593 9.32772 35.7073 9.71359 35.5912C10.2972 35.4155 10.9383 35.3088 11.6004 35.4354C11.5684 35.2771 11.544 35.1155 11.5264 34.9534C11.4663 34.4004 11.4811 33.8014 11.5678 33.2308C9.99839 30.6611 10.5381 27.8394 12.2797 25.9823C14.0447 24.1 17.0183 23.225 20.222 24.4881C22.6481 24.6238 24.4796 24.4769 26.049 24.063C27.6315 23.6457 28.9753 22.9495 30.4126 21.9543L30.4706 21.9142L30.5375 21.8916C30.6307 21.8602 30.7772 21.7916 30.8897 21.7034C29.826 20.617 29.4638 19.3206 29.3447 17.2804C29.239 16.9784 29.1396 16.8442 29.024 16.688C28.9564 16.5966 28.8832 16.4977 28.7999 16.3533C28.6851 16.1545 28.6073 15.9279 28.6061 15.6301C28.605 15.3642 28.6652 15.0612 28.7809 14.693C29.0931 12.0741 30.1145 9.95044 31.7946 8.69942C33.4972 7.43161 35.7818 7.12977 38.4477 7.98272C40.3974 8.53666 41.99 9.48253 42.9443 10.9948C43.9013 12.5114 44.1601 14.5085 43.6266 17.0443C43.5666 17.3794 43.4694 17.9005 43.3706 18.3867C43.2791 18.8371 43.1779 19.3 43.1006 19.538C42.5727 22.0709 41.5903 23.7366 40.2905 24.6842C39.0723 25.5724 37.6465 25.7784 36.2254 25.5633ZM12.5104 34.7419C12.5134 34.7767 12.5168 34.8112 12.5205 34.8455C12.5778 35.3728 12.7105 35.7908 12.8818 36.045L12.192 36.7418C11.4852 36.2758 10.7774 36.3153 10.0018 36.5487C9.66212 36.651 9.32915 36.7844 8.98178 36.9235C8.92385 36.9467 8.86552 36.97 8.80669 36.9935C8.40914 37.1516 7.98391 37.3138 7.56568 37.3964C7.48108 37.4132 7.41128 37.431 7.33053 37.4517C7.27998 37.4646 7.22515 37.4787 7.1597 37.4942C7.00988 37.5298 6.82905 37.5659 6.63078 37.5659C6.19547 37.566 5.78054 37.3937 5.35291 36.9708C5.20962 36.829 4.97853 36.6919 4.76092 36.6779C4.59962 36.6675 4.34677 36.7152 4.07379 37.1653C3.57607 37.9858 2.8398 38.5474 2.28654 38.95C2.23265 38.9892 2.18128 39.0264 2.13237 39.0617C1.91612 39.2181 1.74783 39.3399 1.6208 39.4523C1.61723 39.4554 1.61375 39.4585 1.61036 39.4616C1.76119 39.5208 1.98454 39.5742 2.26555 39.604C2.90101 39.6713 3.69925 39.6045 4.34444 39.3493L4.35799 39.3439L4.37183 39.3393C5.33501 39.0218 6.44719 38.9642 7.33253 39.0095C7.77874 39.0323 8.18136 39.082 8.495 39.1436C8.63225 39.1706 8.75922 39.2012 8.86872 39.2352C9.53045 38.7504 10.1302 38.5675 10.746 38.7089C11.0678 38.7828 11.3538 38.9375 11.6149 39.1129C11.772 39.2185 11.932 39.34 12.093 39.4666C12.8972 38.9012 14.096 38.5231 15.5498 38.5C14.2354 37.4905 13.1149 36.1375 12.5104 34.7419ZM8.64996 40.2185C8.65367 40.2205 8.65347 40.2202 8.64996 40.2185V40.2185ZM9.37217 40.1078C9.25841 40.4656 9.07342 40.9444 8.83396 41.3839C8.69587 41.6374 8.53201 41.892 8.34316 42.1056C8.15852 42.3145 7.91999 42.5184 7.62525 42.6156C7.48698 42.6611 7.38853 42.7362 7.33604 42.8021C7.31049 42.8342 7.30116 42.8559 7.29782 42.8673C7.31051 42.8832 7.34486 42.9154 7.42877 42.9539C7.57595 43.0213 7.83498 43.085 8.25181 43.0937C9.22317 42.6838 9.82038 42.4618 10.289 42.3459C10.7893 42.2222 11.1348 42.2222 11.5724 42.2222H11.5969L11.6087 42.2228C13.6636 42.3196 17.9604 42.5109 18.9196 42.5131C19.9966 42.4411 20.693 42.3004 21.1467 42.1009C21.5745 41.9129 21.7736 41.6798 21.8866 41.3817C22.0144 41.0445 22.0472 40.5865 22.0334 39.9152C22.0287 39.6852 22.0183 39.4255 22.0069 39.1427C21.9877 38.6651 21.9659 38.1218 21.9645 37.5448C21.2406 34.4246 20.1736 32.36 18.9837 31.1495C17.8167 29.9623 16.5285 29.5884 15.2525 29.8274C14.0571 30.2966 13.4434 30.9628 13.1853 31.6739C12.9192 32.4071 12.9967 33.2827 13.3718 34.2103C14.1277 36.0793 16.0114 37.9483 17.955 38.7722L17.6525 39.7209C15.1063 39.1613 13.233 39.7463 12.4281 40.4756L12.1132 40.7608L11.7808 40.4961C11.7505 40.4719 11.7208 40.4482 11.6916 40.425C11.45 40.2322 11.2495 40.0722 11.0572 39.943C10.8448 39.8003 10.6755 39.7187 10.5223 39.6835C10.2796 39.6278 9.94949 39.6602 9.37217 40.1078ZM21.9433 34.0926C21.855 32.695 21.6813 31.234 21.4455 29.9048C21.2255 28.6653 20.9549 27.5602 20.6575 26.7387C20.5084 26.3269 20.3586 26.0031 20.2147 25.7739C20.0616 25.53 19.9559 25.4587 19.9246 25.4461C17.0629 24.2882 14.4974 25.0791 13.0091 26.6663C11.7033 28.0588 11.2064 30.0771 12.0688 32.0366C12.1038 31.7982 12.1618 31.5629 12.2453 31.3327C12.6275 30.2796 13.5098 29.4261 14.934 28.8783L14.9742 28.8628L15.0165 28.8544C16.6671 28.5279 18.3038 29.0314 19.6968 30.4485C20.5507 31.3171 21.311 32.525 21.9433 34.0926ZM40.8176 41.7585C40.8175 41.7585 40.8174 41.7577 40.8173 41.7562L40.8176 41.7585Z" fill="white"/>
</svg>
