<svg width="17" height="19" viewBox="0 0 17 19" fill="none" xmlns="http://www.w3.org/2000/svg">
<path d="M6.54459 13.9818C6.69855 13.0545 6.39052 12.5909 5.46648 11.9727C1.89476 9.58327 4.1316 3.78182 8.39276 3.78182C13.3468 3.78182 14.4211 10.3947 11.627 11.9727C11.567 12.0066 11.5132 12.0473 11.459 12.0841C10.6463 12.6347 10.2312 13.1126 10.0869 13.9818M6.54459 13.9818H6.09203C6.0017 13.9818 5.92847 14.055 5.92847 14.1454V14.1454V16.3V16.3C5.92847 16.3853 5.99767 16.4545 6.08304 16.4545H10.0869M6.54459 13.9818H8.31572M10.0869 13.9818H10.8489C10.9384 13.9818 11.0109 14.0544 11.0109 14.1439V14.1439V16.3V16.3C11.0109 16.3854 10.9417 16.4545 10.8564 16.4545H10.0869M10.0869 13.9818H8.31572M6.85255 16.6091C6.85255 17.2273 7.00652 18 7.62262 18C8.13601 18 9.19357 18 9.31678 18C9.62481 18 10.2409 17.5364 10.0869 16.4545M8.31572 13.9818V9.96363M2.34211 8.57272H1M3.05348 5.31914L1.89474 4.70909M5.35629 3.04976L4.57895 1.89474M8.39276 2.34211V1M11.627 3.04976L12.1332 1.89474M13.9808 5.34355L15.3158 4.57895M14.4211 8.57272H15.9394" stroke="#5770BE" stroke-width="0.5" stroke-linecap="round"/>
</svg>
