<svg width="12" height="15" viewBox="0 0 12 15" fill="none" xmlns="http://www.w3.org/2000/svg">
<path d="M2.91643 11.2491L0.563788 2.17461C0.346467 1.33637 1.22485 0.636924 1.99314 1.03643L10.3136 5.36308C11.1102 5.77731 10.9996 6.95012 10.1396 7.20812L9.00159 7.54952C8.30142 7.75957 8.05588 8.62536 8.54152 9.17171L10.778 11.6877C11.1666 12.125 11.0986 12.8011 10.6306 13.1521L10.2861 13.4104C9.84973 13.7377 9.23161 13.6549 8.89674 13.2244L6.87875 10.6298C6.45208 10.0812 5.60973 10.1244 5.2414 10.7138L4.73242 11.5281C4.26708 12.2727 3.13678 12.099 2.91643 11.2491Z" stroke="#5770BE"/>
</svg>
