<svg width="14" height="14" viewBox="0 0 14 14" fill="none" xmlns="http://www.w3.org/2000/svg">
<path d="M13 10.5C11 14 3.34744 14.1944 1.49998 10.4998C-0.500029 6.5 1.99997 1 7.49998 0.999756C12 1 14.5 5.5 11.5 9.5C9.95316 11.5624 7.69997 11 8.49997 9M8.49997 9C8.90356 8.09193 9.55146 6.56085 9.99997 5.31637M8.49997 9C7.49997 10.5 4.5 11.5 3.49997 9C3.49496 8.97995 3.49023 8.95969 3.48578 8.93924C3 7.5 4.52504 4.48747 6.49997 3.5C7.86853 2.81572 9.99997 4 9.99997 5.31637M10.5 3.5C10.5 4 10.2923 4.50514 9.99997 5.31637" stroke="#5770BE" stroke-linecap="round"/>
</svg>
