<svg width="51" height="51" viewBox="0 0 51 51" fill="none" xmlns="http://www.w3.org/2000/svg">
<g clip-path="url(#clip0)">
<rect width="51" height="51" fill="white"/>
<path d="M28.6161 10.7322C21.0557 6.33917 13.6052 6.5937 9.72808 11.9957C-0.478667 25.7076 11.6063 35.2465 18.9246 38.302C23.6339 39.2001 24.4318 34.6105 28.9176 36.0331C36.7215 41.6585 44.4086 36.8032 43.6011 29.3123C42.1922 22.9843 39.6701 17.1552 28.6161 10.7322Z" fill="#EBF6F8"/>
<path d="M30.8627 43H27.0196M30.8627 43H34.4314M30.8627 43V39.4674M17.6863 43H21.5294M17.6863 43H13.8431M17.6863 43V39.1957M27.0196 43V37.4783C27.0196 36.926 26.5719 36.4783 26.0196 36.4783H22.5294C21.9771 36.4783 21.5294 36.926 21.5294 37.4783V43M27.0196 43H21.5294M17.6863 21.2609V19C17.6863 18.4477 18.134 18 18.6863 18H29.8627C30.415 18 30.8627 18.4477 30.8627 19V21.2609M17.6863 21.2609H13.8431M17.6863 21.2609V25.0652M30.8627 21.2609H34.4314M30.8627 21.2609V25.0652M34.4314 43H37C37.5523 43 38 42.5523 38 42V39.4674M34.4314 43V21.2609M34.4314 21.2609H37C37.5523 21.2609 38 21.7086 38 22.2609V25.0652M13.8431 21.2609H11C10.4477 21.2609 10 21.7086 10 22.2609V25.0652M13.8431 21.2609V43M13.8431 43H11C10.4477 43 10 42.5523 10 42V39.1957M10 39.1957H17.6863M10 39.1957V35.9348M17.6863 39.1957V35.9348M17.6863 35.9348H10M17.6863 35.9348V32.1304M10 35.9348V32.1304M10 32.1304H17.6863M10 32.1304V28.8696M17.6863 32.1304V28.8696M17.6863 28.8696H10M17.6863 28.8696V25.0652M10 28.8696V25.0652M10 25.0652H17.6863M30.8627 25.0652H38M30.8627 25.0652V28.8696M38 25.0652V28.8696M30.8627 28.8696H38M30.8627 28.8696V32.1304M38 28.8696V32.1304M30.8627 32.1304H38M30.8627 32.1304V35.9348M38 32.1304V35.9348M30.8627 35.9348H38M30.8627 35.9348V39.4674M38 35.9348V39.4674M30.8627 39.4674H38" stroke="#5770BE"/>
<path d="M24.1001 22.0727L24.5 22.6055L24.8999 22.0727C25.1574 21.7296 25.5814 21.5 26.0691 21.5C26.8807 21.5 27.5 22.1236 27.5 22.8463C27.5 22.9463 27.4868 23.046 27.4621 23.146L27.4576 23.1643L27.4545 23.1829C27.3445 23.8369 26.8915 24.5661 26.2638 25.2073C25.6979 25.7855 25.0436 26.2372 24.5 26.4647C23.9563 26.2372 23.302 25.7855 22.736 25.2073C22.1084 24.5661 21.6552 23.8368 21.5451 23.1826L21.5421 23.1647L21.5378 23.1472C21.5132 23.0462 21.5 22.9461 21.5 22.8463C21.5 22.1235 22.1193 21.5 22.9311 21.5C23.4186 21.5 23.8426 21.7296 24.1001 22.0727Z" stroke="#5770BE" stroke-linecap="round"/>
</g>
<defs>
<clipPath id="clip0">
<rect width="51" height="51" fill="white"/>
</clipPath>
</defs>
</svg>
