<svg width="51" height="51" viewBox="0 0 51 51" fill="none" xmlns="http://www.w3.org/2000/svg">
<g clip-path="url(#clip0)">
<rect width="51" height="51" fill="white"/>
<path d="M28.6161 10.7322C21.0557 6.33917 13.6052 6.5937 9.72808 11.9957C-0.478667 25.7076 11.6063 35.2465 18.9246 38.302C23.6339 39.2001 24.4318 34.6105 28.9176 36.0331C36.7215 41.6585 44.4086 36.8032 43.6011 29.3123C42.1922 22.9843 39.6701 17.1552 28.6161 10.7322Z" fill="#EBF6F8"/>
<path d="M23 25.3684C27.9863 25.3684 28.7534 28.5263 29.137 31.2895C30.2877 31.2895 30.2877 33.2632 29.137 33.2632C27.9863 36.8158 26.2003 38 23 38C19.5479 38 17.2466 36.0263 16.863 33.2632C15.7123 33.2632 15.7123 31.2895 16.863 31.2895C16.863 28.5263 19.0109 25.3684 23 25.3684ZM23 25.3684C23.1279 24.5789 23.6137 23 24.5343 23M23 25.3684C22.6164 24.5789 22.0027 24.1842 21.0822 24.1842M20.6986 34.4474C22.2329 36.0263 24.1507 36.0263 25.3014 34.4474" stroke="#5770BE" stroke-linecap="round"/>
<path d="M41 26.0588L36.9175 23.1273M5 26.0588L9.33324 22.8824M9.33324 22.8824L22.2293 13.4289C22.5783 13.1731 23.0523 13.1708 23.4038 13.4232L36.9175 23.1273M9.33324 22.8824V42C9.33324 42.5523 9.78095 43 10.3332 43H17.6186H28.3814H35.9175C36.4698 43 36.9175 42.5523 36.9175 42V23.1273" stroke="#4F6BC7" stroke-linecap="round"/>
</g>
<defs>
<clipPath id="clip0">
<rect width="51" height="51" fill="white"/>
</clipPath>
</defs>
</svg>
