<svg width="51" height="51" viewBox="0 0 51 51" fill="none" xmlns="http://www.w3.org/2000/svg">
<g clip-path="url(#clip0)">
<rect width="51" height="51" fill="white"/>
<path d="M28.6161 10.7322C21.0557 6.33917 13.6052 6.5937 9.72808 11.9957C-0.478667 25.7076 11.6063 35.2465 18.9246 38.302C23.6339 39.2001 24.4318 34.6105 28.9176 36.0331C36.7215 41.6585 44.4086 36.8032 43.6011 29.3123C42.1922 22.9843 39.6701 17.1552 28.6161 10.7322Z" fill="#EBF6F8"/>
<path d="M27.3986 43H9.96094C9.43038 43 8.99047 42.5817 9.00323 42.0513C9.13924 36.3962 13.5428 34.7313 16.1694 34.5752C16.4328 34.5595 16.6811 34.6718 16.8854 34.8387C18.1565 35.8769 19.7274 35.8769 20.9985 34.8387C21.2028 34.6718 21.4572 34.5605 21.7209 34.5705C27.4656 34.788 28.2634 39.5192 28.3742 42.0024C28.3988 42.5541 27.9509 43 27.3986 43Z" stroke="#5770BE" stroke-linecap="round"/>
<path d="M18.8079 34.0676C13.7366 32.9866 13.321 23.3129 18.9419 23.3129C24.5621 23.3129 24.1474 33.4443 19.0782 34.0793C18.9893 34.0904 18.8955 34.0863 18.8079 34.0676Z" stroke="#5770BE" stroke-linecap="round"/>
<path d="M29.914 25.0102C29.389 25.39 28.4443 26.0059 27.5503 26.5753C26.8893 26.9965 26.0295 26.5188 26.0295 25.735V24.3813C26.0295 24.0122 25.8221 23.6778 25.5129 23.4762C20.0035 19.8827 22.0524 9.76064 31.2271 11.1257C43.3045 12.969 39.8554 25.2317 30.7565 24.7552C30.4587 24.7396 30.1556 24.8354 29.914 25.0102Z" stroke="#5770BE" stroke-linecap="round"/>
</g>
<defs>
<clipPath id="clip0">
<rect width="51" height="51" fill="white"/>
</clipPath>
</defs>
</svg>
