<svg width="51" height="51" viewBox="0 0 51 51" fill="none" xmlns="http://www.w3.org/2000/svg">
<g clip-path="url(#clip0)">
<rect width="51" height="51" fill="white"/>
<path d="M28.6161 10.7322C21.0557 6.33917 13.6052 6.5937 9.72808 11.9957C-0.478667 25.7076 11.6063 35.2465 18.9246 38.302C23.6339 39.2001 24.4318 34.6105 28.9176 36.0331C36.7215 41.6585 44.4086 36.8032 43.6011 29.3123C42.1922 22.9843 39.6701 17.1552 28.6161 10.7322Z" fill="#EBF6F8"/>
<path d="M10 22V39.5C10 40.0523 10.4477 40.5 11 40.5H23.5M10 22L12.7481 20.1679C12.9123 20.0584 13.1054 20 13.3028 20H25M10 22H16.75M23.5 22V40.5M23.5 22L25 20M23.5 22H20M23.5 40.5L24.8 38.7667C24.9298 38.5936 25 38.383 25 38.1667V20M16.75 22V27.6842C16.75 28.3142 17.5309 28.6076 17.9457 28.1334L18.0203 28.0482C18.2674 27.7658 18.7119 27.7825 18.9371 28.0828V28.0828C19.2776 28.5368 20 28.296 20 27.7285V22M16.75 22H20" stroke="#5770BE" stroke-linecap="round" stroke-linejoin="round"/>
<path d="M32 39V33C32 32.176 32.9408 31.7056 33.6 32.2L37.6 35.2C38.1333 35.6 38.1333 36.4 37.6 36.8L33.6 39.8C32.9408 40.2944 32 39.824 32 39Z" stroke="#5770BE" stroke-linecap="round" stroke-linejoin="round"/>
<path d="M38.5 25.5V19M31 24V19M31 19V18C31 17.4477 31.4477 17 32 17H37.5C38.0523 17 38.5 17.4477 38.5 18V19M31 19H38.5" stroke="#5770BE" stroke-linecap="round" stroke-linejoin="round"/>
<circle cx="37" cy="25.5" r="1.5" stroke="#5770BE"/>
<circle cx="30" cy="25.5" r="1.5" stroke="#5770BE"/>
</g>
<defs>
<clipPath id="clip0">
<rect width="51" height="51" fill="white"/>
</clipPath>
</defs>
</svg>
