<svg width="46" height="51" viewBox="0 0 46 51" fill="none" xmlns="http://www.w3.org/2000/svg">
<path d="M27.7194 7.73221C20.159 3.33917 12.7085 3.5937 8.83142 8.99574C-1.37533 22.7076 10.7096 32.2465 18.0279 35.302C22.7372 36.2001 23.5352 31.6105 28.0209 33.0331C35.8248 38.6585 43.512 33.8032 42.7044 26.3123C41.2955 19.9843 38.7734 14.1552 27.7194 7.73221Z" fill="#EBF6F8"/>
<path d="M22.0608 35.3364C22.0608 34.3449 21.945 32.4424 22.1884 30.5533M22.1884 30.5533C22.0426 29.9811 21.8756 29.4641 21.6902 28.9987M22.1884 30.5533C22.1775 29.9851 22.2429 29.4669 22.3718 28.9987M17.6851 25.4169C14.5979 25.1881 11.2282 28.5468 11 31.3903V40C18.0902 40 32.4166 40 33 40C33 38.8042 33 32.1078 33 31.3903C32.7359 27.4286 29.5318 25.548 26.6796 25.7295M17.6851 25.4169C15.8619 26.8463 14.768 27.9225 15.1326 30.5533M17.6851 25.4169C17.8481 25.429 18.0103 25.451 18.1713 25.4837M15.1326 30.5533C14.7274 30.7924 13.9901 31.5338 14.2818 32.5861C14.6464 33.9015 15.1326 35.456 15.2541 35.6951C16.2265 35.3364 15.7403 35.5756 16.2265 35.3364M15.1326 30.5533C16.5912 30.1945 16.8099 31.0555 17.1989 31.6295C17.6041 32.4665 18.463 34.2124 18.6575 34.4994C17.6851 34.8581 17.9282 34.7385 17.6851 34.8581M18.6575 25.6169C18.4144 26.8463 17.8066 28.8791 17.442 29.3575C18.6575 28.0421 20.4807 28.1617 21.6902 28.9987M18.6575 25.6169C19.8407 26.0284 20.9224 27.0708 21.6902 28.9987M18.6575 25.6169C18.4971 25.5611 18.3348 25.517 18.1713 25.4837M25.7072 25.8756C25.9098 26.7173 26.3392 28.5204 26.4365 28.9987C24.8564 28.4008 23.6409 28.2812 22.3718 28.9987M25.7072 25.8756C24.1556 26.2507 22.8416 27.2929 22.3718 28.9987M25.7072 25.8756C25.8274 25.8465 25.949 25.8215 26.0718 25.8004M26.6796 25.7295C28.7459 27.205 29.1105 28.7596 28.7459 30.4337M26.6796 25.7295C26.4748 25.7425 26.2718 25.7661 26.0718 25.8004M28.7459 30.4337C30.4171 31.6295 28.9646 33.6623 27.7735 32.8252C26.0718 31.6295 27.6762 29.6684 28.7459 30.4337ZM26.0718 25.8004C24.7348 24.9329 24.0055 23.3612 24.0055 22.6248M18.1713 25.4837C19.3867 25.1722 19.9945 23.2589 19.9945 22.5415M26.2199 15.9645C26.2429 14.3132 26.0857 12.5677 25.8287 10.9423C25.0994 9.74636 19.2652 9.62687 18.1713 10.9423C18.0928 11.5599 17.761 13.665 17.7844 15.9645M26.2199 15.9645C25.5856 14.8883 18.1713 14.8883 17.7844 15.9645M26.2199 15.9645C26.1795 18.8583 25.5857 21.4627 24.0055 22.6248M17.7844 15.9645C17.819 19.3636 18.6297 23.1875 22.1823 23.2588C22.8993 23.2185 23.5024 22.9947 24.0055 22.6248M22.0608 11.3009V12.8554M22.0608 14.4099V12.8554M22.0608 12.8554H23.6409M22.0608 12.8554H20.3591M30.326 34.8581H26.0718V36.8909L28.3812 37.8476L30.326 36.8909V34.8581Z" stroke="#5770BE"/>
</svg>
