<svg width="51" height="51" viewBox="0 0 51 51" fill="none" xmlns="http://www.w3.org/2000/svg">
<g clip-path="url(#clip0)">
<rect width="51" height="51" fill="white"/>
<path d="M28.6161 10.7322C21.0557 6.33917 13.6052 6.5937 9.72808 11.9957C-0.478667 25.7076 11.6063 35.2465 18.9246 38.302C23.6339 39.2001 24.4318 34.6105 28.9176 36.0331C36.7215 41.6585 44.4086 36.8032 43.6011 29.3123C42.1922 22.9843 39.6701 17.1552 28.6161 10.7322Z" fill="#EBF6F8"/>
<path d="M27.8422 30.2614C27.494 30.5459 26.941 30.9853 26.3616 31.434C25.6325 31.9987 24.7385 31.3491 25.0138 30.4689L25.1145 30.1469C25.2588 29.6856 25.043 29.1966 24.6634 28.8972C21.4493 26.3627 22.9229 20.2206 28.8244 21.0821C36.7998 22.2764 34.6068 30.1657 28.6603 29.9922C28.3662 29.9836 28.0701 30.0752 27.8422 30.2614Z" stroke="#5770BE" stroke-linecap="round"/>
<path d="M31.3815 43H35.9084C36.4643 43 36.9134 42.5467 36.9084 41.9909L36.6794 16.7497C36.6754 16.3054 36.3787 15.917 35.9511 15.7964L22.7717 12.0767C22.594 12.0265 22.406 12.0265 22.2283 12.0767L9.06152 15.7944C8.63073 15.916 8.33325 16.3091 8.33325 16.7567L8.33325 42C8.33325 42.5523 8.78097 43 9.33325 43H17.6186H25M31.3815 43V36.5C31.3815 35.9477 30.9337 35.5 30.3815 35.5H26C25.4477 35.5 25 35.9477 25 36.5V43M31.3815 43H25M13.5 19H18.5C19.0523 19 19.5 19.4477 19.5 20V23C19.5 23.5523 19.0523 24 18.5 24H13.5C12.9477 24 12.5 23.5523 12.5 23V20C12.5 19.4477 12.9477 19 13.5 19ZM19.5 30.5V28C19.5 27.4477 19.0523 27 18.5 27H13.5C12.9477 27 12.5 27.4477 12.5 28V30.5C12.5 31.0523 12.9477 31.5 13.5 31.5H18.5C19.0523 31.5 19.5 31.0523 19.5 30.5ZM18.5 34H13.5C12.9477 34 12.5 34.4477 12.5 35V37.5C12.5 38.0523 12.9477 38.5 13.5 38.5H18.5C19.0523 38.5 19.5 38.0523 19.5 37.5V35C19.5 34.4477 19.0523 34 18.5 34Z" stroke="#4F6BC7" stroke-linecap="round"/>
</g>
<defs>
<clipPath id="clip0">
<rect width="51" height="51" fill="white"/>
</clipPath>
</defs>
</svg>
