<svg width="51" height="51" viewBox="0 0 51 51" fill="none" xmlns="http://www.w3.org/2000/svg">
<g clip-path="url(#clip0)">
<rect width="51" height="51" fill="white"/>
<path d="M28.6161 10.7322C21.0557 6.33917 13.6052 6.5937 9.72808 11.9957C-0.478667 25.7076 11.6063 35.2465 18.9246 38.302C23.6339 39.2001 24.4318 34.6105 28.9176 36.0331C36.7215 41.6585 44.4086 36.8032 43.6011 29.3123C42.1922 22.9843 39.6701 17.1552 28.6161 10.7322Z" fill="#EBF6F8"/>
<path d="M14.365 23.0778V23.0778C14.4381 22.6724 14.2112 22.2757 13.8298 22.1203L12.0382 21.3904C11.5144 21.177 10.9179 21.4402 10.7225 21.971L7.375 31.0631C7.17304 31.6117 7.48257 32.2157 8.04577 32.3722L10.2938 32.9966C10.5768 33.0752 10.8794 33.0179 11.0461 32.7761C11.1144 32.6771 11.1871 32.5605 11.2633 32.428M14.365 23.0778L20.26 23.4241M14.365 23.0778C13.7171 26.6691 12.2101 30.7823 11.2633 32.428M20.26 23.4241C24.1912 21.0884 26.2284 21.3247 28.8049 22.8939C28.997 23.0109 29.2217 23.0654 29.4454 23.0426L32.5 22.7315M20.26 23.4241C20.064 23.6238 19.9739 24.4352 19.9389 25.132C19.9174 25.5599 19.6274 25.9324 19.3241 26.2349C18.7402 26.8173 18.433 27.8308 18.7591 28.4278C18.8341 28.5651 18.9772 28.647 19.1277 28.6896C20.9683 29.2112 22.2264 28.2833 22.9021 26.7293C22.9557 26.606 23.0263 26.4877 23.1376 26.4122C23.57 26.1187 24.4251 25.8916 25.02 26.1945C25.564 26.4716 31.14 31.3891 33.86 33.8132M32.5 22.7315L35.0079 21.4543C35.5004 21.2035 36.103 21.3998 36.3533 21.8926L40.5151 30.0878C40.7773 30.6043 40.5473 31.2349 40.0141 31.4612L37.3491 32.5922C37.0771 32.7076 36.7636 32.6932 36.5727 32.4677C36.4822 32.3608 36.3869 32.2313 36.2878 32.0817M32.5 22.7315C33.3505 25.6191 35.0993 30.2884 36.2878 32.0817M36.2878 32.0817L33.86 33.8132M33.86 33.8132C35.22 35.5447 33.52 37.2762 32.5 36.2373M32.5 36.2373L25.7 30.6965M32.5 36.2373C33.18 36.9299 31.48 40.0466 29.78 38.3151L29.4 37.9688M23.32 32.428L29.4 37.9688M29.4 37.9688C30.12 38.5994 28.42 40.7392 27.4 39.7003L26.38 38.8503M23.66 36.5836L26.38 38.8503M23.66 36.5836C23.116 35.7525 22.0733 35.7755 21.62 35.891M23.66 36.5836C23.66 37.6225 23.0195 39.077 22.64 39.354M26.38 38.8503C25.7 40.0466 24 40.4622 22.64 39.354M22.64 39.354C21.552 40.4622 19.58 39.7003 19.92 38.3151M11.2633 32.428L13.46 33.8132M13.46 33.8132C13.8 33.1206 14.752 31.8739 15.84 32.428C16.3134 32.7494 16.4206 33.0957 16.3316 33.4669M13.46 33.8132C12.8514 35.363 14.1495 36.0805 15.16 35.2207M16.3316 33.4669C16.2288 33.8955 15.8644 34.3572 15.5 34.8521C15.393 34.9974 15.2785 35.1199 15.16 35.2207M16.3316 33.4669C17.2 32.428 19.24 33.8132 18.9 34.5058M18.9 34.5058C18.56 34.9675 17.812 36.0295 17.54 36.5836M18.9 34.5058C20.26 33.4669 21.62 34.7828 21.62 35.891M17.54 36.5836C16.86 37.6225 14.14 36.9745 15.16 35.2207M17.54 36.5836C16.52 37.9688 19.24 39.354 19.92 38.3151M21.62 35.891C21.1667 36.5836 20.192 38.0381 19.92 38.3151" stroke="#5770BE"/>
</g>
<defs>
<clipPath id="clip0">
<rect width="51" height="51" fill="white"/>
</clipPath>
</defs>
</svg>
