<svg width="51" height="51" viewBox="0 0 51 51" fill="none" xmlns="http://www.w3.org/2000/svg">
<g clip-path="url(#clip0)">
<rect width="51" height="51" fill="white"/>
<path d="M28.6161 10.7322C21.0557 6.33917 13.6052 6.5937 9.72808 11.9957C-0.478667 25.7076 11.6063 35.2465 18.9246 38.302C23.6339 39.2001 24.4318 34.6105 28.9176 36.0331C36.7215 41.6585 44.4086 36.8032 43.6011 29.3123C42.1922 22.9843 39.6701 17.1552 28.6161 10.7322Z" fill="#EBF6F8"/>
<path d="M13.5 22.5L16 21.375M26.3815 43H36.9175C37.4698 43 37.9175 42.5523 37.9175 42V26.3644M26.3815 43V35.5C26.3815 34.9477 25.9337 34.5 25.3815 34.5H21C20.4477 34.5 20 34.9477 20 35.5V43M26.3815 43H30.5M20 43H17.6186H16M20 43H30.5M23.5 18L16 21.375M23.5 18V17M23.5 18L30.5 21.375M8.33325 26.5556V42C8.33325 42.5523 8.78097 43 9.33325 43H16M16 21.375V24M16 24L5.5 27.5M16 24V43M30.5 24L37.9175 26.3644M30.5 24V43M30.5 24V21.375M41 27.5L37.9175 26.3644M23.5 13V14M23.5 14H26.5C27.0523 14 27.5 14.4477 27.5 15V16C27.5 16.5523 27.0523 17 26.5 17H23.5M23.5 14V17M30.5 21.375L33 22.5M32 31.5V29C32 28.4477 32.4477 28 33 28H35C35.5523 28 36 28.4477 36 29V31.5C36 32.0523 35.5523 32.5 35 32.5H33C32.4477 32.5 32 32.0523 32 31.5ZM32 38.5V36C32 35.4477 32.4477 35 33 35H35C35.5523 35 36 35.4477 36 36V38.5C36 39.0523 35.5523 39.5 35 39.5H33C32.4477 39.5 32 39.0523 32 38.5ZM26 25.5H20C19.4477 25.5 19 25.9477 19 26.5V29C19 29.5523 19.4477 30 20 30H26C26.5523 30 27 29.5523 27 29V26.5C27 25.9477 26.5523 25.5 26 25.5ZM14.5 31.5V29C14.5 28.4477 14.0523 28 13.5 28H11.5C10.9477 28 10.5 28.4477 10.5 29V31.5C10.5 32.0523 10.9477 32.5 11.5 32.5H13.5C14.0523 32.5 14.5 32.0523 14.5 31.5ZM11.5 39.5H13.5C14.0523 39.5 14.5 39.0523 14.5 38.5V36C14.5 35.4477 14.0523 35 13.5 35H11.5C10.9477 35 10.5 35.4477 10.5 36V38.5C10.5 39.0523 10.9477 39.5 11.5 39.5Z" stroke="#4F6BC7" stroke-linecap="round"/>
</g>
<defs>
<clipPath id="clip0">
<rect width="51" height="51" fill="white"/>
</clipPath>
</defs>
</svg>
