<?xml version="1.0" encoding="utf-8"?>
<!-- Generator: Adobe Illustrator 25.3.0, SVG Export Plug-In . SVG Version: 6.00 Build 0)  -->
<svg version="1.1" id="Calque_1" xmlns="http://www.w3.org/2000/svg" xmlns:xlink="http://www.w3.org/1999/xlink" x="0px" y="0px"
	 viewBox="0 0 45 38" style="enable-background:new 0 0 45 38;" xml:space="preserve">
<style type="text/css">
	.st0{fill:#26366E;}
</style>
<g>
	<path class="st0" d="M22.4,21.2c-1.6,0-3,0.4-4,1.2c-1.1,0.8-1.8,2.1-1.8,3.5v10.5h11.9V26C28.4,22.9,25.4,21.2,22.4,21.2z"/>
	<path class="st0" d="M6.7,36.5h8.9V26c0-1.8,0.7-3.3,2.2-4.4c1.2-0.9,2.9-1.4,4.6-1.4c3.5,0,7.1,2,7.1,5.7v10.5h9.2V13.4L22.3,1.6
		L6.7,13.1V36.5z"/>
</g>
<g>
	<path class="st0" d="M1.3,17.1c-0.2,0.2-0.5,0.1-0.7-0.1c-0.2-0.2-0.1-0.5,0.1-0.7l5.2-3.8c0,0,0,0,0,0L22.3,0.4l17.1,12.4
		c0,0,0,0,0,0l4.9,3.5c0.2,0.2,0.3,0.5,0.1,0.7c-0.2,0.2-0.5,0.3-0.7,0.1L22.3,1.6L1.3,17.1z"/>
</g>
</svg>
