<?xml version="1.0" encoding="utf-8"?>
<!-- Generator: Adobe Illustrator 24.1.0, SVG Export Plug-In . SVG Version: 6.00 Build 0)  -->
<svg version="1.1" id="Layer_1" xmlns="http://www.w3.org/2000/svg" xmlns:xlink="http://www.w3.org/1999/xlink" x="0px" y="0px"
	 viewBox="0 0 37 34" style="enable-background:new 0 0 37 34;" xml:space="preserve">
<style type="text/css">
	.st0{fill:#5770BE;}
</style>
<g>
	<path class="st0" d="M17.2,34C8,34,0.5,26.5,0.5,17.2C0.5,8,8,0.5,17.2,0.5c0,0,0,0,0,0c2.3,0,4.5,0.5,6.6,1.3
		c2.1,0.9,3.9,2.2,5.5,3.8l1.8,2.1c0.2,0.2,0.2,0.5-0.1,0.7c-0.2,0.2-0.5,0.2-0.7-0.1l-1.8-2.1c-1.5-1.5-3.2-2.7-5.2-3.6
		c-2-0.8-4-1.3-6.2-1.3c0,0,0,0,0,0C8.6,1.5,1.5,8.6,1.5,17.2S8.6,33,17.2,33c3.3,0,6.4-1,9.1-2.9s4.7-4.5,5.8-7.6
		c0.1-0.3,0.4-0.4,0.6-0.3c0.3,0.1,0.4,0.4,0.3,0.6c-1.2,3.3-3.3,6.1-6.1,8.1C24,32.9,20.7,34,17.2,34z"/>
</g>
<g>
	<path class="st0" d="M34.2,3.2L34.2,3.2c0.5-0.5,1.5-0.2,1.5,0.6v9.3c0,0.2-0.1,0.4-0.2,0.6C35.3,13.9,35,14,34.8,14h-9.3
		c-0.8,0-1.1-0.9-0.6-1.5L34.2,3.2z"/>
	<path class="st0" d="M34.8,14.5h-9.3c-0.6,0-1-0.3-1.2-0.8c-0.2-0.5-0.1-1.1,0.3-1.5l9.3-9.3c0.4-0.4,1-0.5,1.5-0.3
		c0.5,0.2,0.8,0.7,0.8,1.3v9.3c0,0.4-0.1,0.7-0.4,1C35.5,14.4,35.2,14.5,34.8,14.5z M34.8,3.5c-0.1,0-0.2,0-0.2,0.1l0,0l-9.3,9.3
		c-0.2,0.2-0.1,0.3-0.1,0.4c0,0.1,0.1,0.2,0.3,0.2h9.3c0.1,0,0.2,0,0.2-0.1c0.1-0.1,0.1-0.2,0.1-0.2V3.8c0-0.2-0.2-0.3-0.2-0.3
		C34.9,3.5,34.9,3.5,34.8,3.5z"/>
</g>
</svg>
