<svg width="13" height="14" viewBox="0 0 13 14" fill="none" xmlns="http://www.w3.org/2000/svg">
<path d="M7.8967 6.52471L12.7119 1.70989C13.096 1.32578 13.096 0.70277 12.7119 0.318655C12.3274 -0.0658538 11.7048 -0.0658538 11.3207 0.318655L6.50546 5.13348L1.69064 0.318655C1.30652 -0.0658538 0.683123 -0.0658538 0.299401 0.318655C-0.0851074 0.70277 -0.0851074 1.32578 0.299401 1.70989L5.11422 6.52471L0.288382 11.3509C-0.0961272 11.7355 -0.0961272 12.3581 0.288382 12.7422C0.480439 12.9342 0.732318 13.0303 0.984197 13.0303C1.23608 13.0303 1.48795 12.9342 1.68001 12.7422L6.50585 7.91595L11.3207 12.7308C11.5127 12.9228 11.7646 13.0189 12.0165 13.0189C12.2684 13.0189 12.5199 12.9228 12.7123 12.7308C13.0964 12.3463 13.0964 11.7237 12.7123 11.3395L7.8967 6.52471Z" fill="#E86405"/>
</svg>
