<?xml version="1.0" encoding="utf-8"?>
<!-- Generator: Adobe Illustrator 25.3.0, SVG Export Plug-In . SVG Version: 6.00 Build 0)  -->
<svg version="1.1" id="Calque_1" xmlns="http://www.w3.org/2000/svg" xmlns:xlink="http://www.w3.org/1999/xlink" x="0px" y="0px"
	 viewBox="0 0 27 36" style="enable-background:new 0 0 27 36;" xml:space="preserve">
<style type="text/css">
	.st0{fill:#5770BE;}
</style>
<g>
	<path class="st0" d="M3.2,32.6c-0.3,0-0.6-0.1-0.8-0.2c-0.5-0.3-0.7-0.9-0.7-1.4l0.8-6.5L3,24.5l-0.4-0.3L19.8,0.6
		c0.3-0.5,0.9-0.6,1.4-0.5c1.4,0.5,4.2,2.5,5.3,3.5c0.4,0.4,0.5,1.1,0.1,1.6l-3.7,5.1l-0.4-0.3l0.4,0.3L9.4,29.3L9,29l0.2,0.4
		l-5.3,3C3.7,32.6,3.5,32.6,3.2,32.6z M4.3,31.7l0.1,0.2L4.3,31.7z M2.7,31L2.7,31c0,0.2,0.1,0.4,0.2,0.5c0.2,0.1,0.4,0.1,0.5,0l0,0
		C3.3,31.4,3,31.2,2.7,31z M2.9,30c0.5,0.3,1.1,0.7,1.5,1.1l3.8-2.2c-1.1-1.1-3.5-2.8-4.8-3.6L2.9,30z M3.7,24.3
		C4.9,25,7.7,26.8,9,28.2l12.9-18.1c-1.4-1.8-3.5-3-5.2-3.5L3.7,24.3z M17.3,5.7c1.6,0.6,3.7,1.7,5.2,3.5l3.3-4.6c0,0,0.1-0.2,0-0.3
		c-1-1-3.7-2.8-5-3.3c-0.1,0-0.2,0.1-0.2,0.1L17.3,5.7z M16.5,6L16.5,6L16.5,6z"/>
</g>
</svg>
