<?xml version="1.0" encoding="utf-8"?>
<!-- Generator: Adobe Illustrator 26.0.2, SVG Export Plug-In . SVG Version: 6.00 Build 0)  -->
<svg version="1.1" id="Calque_1" xmlns="http://www.w3.org/2000/svg" xmlns:xlink="http://www.w3.org/1999/xlink" x="0px" y="0px"
	 viewBox="0 0 34 35" style="enable-background:new 0 0 34 35;" xml:space="preserve">
<style type="text/css">
	.st0{fill:#405AB8;}
</style>
<g>
	<path class="st0" d="M1.5,34.5c-0.4,0-0.8-0.2-1.1-0.5c-0.4-0.4-0.5-1-0.4-1.5l0.3-0.9c0,0,0,0,0,0l1.3-4.1c0,0,0,0,0,0l1.8-5.6
		c0,0,0,0,0,0l2.2-6.7c0,0,0-0.1,0-0.1c0,0,0-0.1,0.1-0.1c0.5-0.6,1.5-1.3,3.3-0.8C13.5,15.3,20.4,23,21,26.7c0.2,1.1-0.2,1.7-0.6,2
		c0,0,0,0,0,0c-0.1,0.1-0.5,0.3-5.5,1.8c0,0,0,0,0,0c-2,0.6-4.3,1.3-6.7,2c0,0,0,0,0,0l-5.1,1.5h0l0,0L2,34.4
		C1.8,34.5,1.7,34.5,1.5,34.5z M1.1,32.9c0,0.2,0,0.3,0.1,0.5c0.1,0.1,0.3,0.2,0.5,0.1C1.4,33.3,1.2,33.1,1.1,32.9z M1.4,31.7
		c0.4,0.7,1.2,1.3,1.5,1.4l3.4-1c-1.4-0.7-3-2-4-3.2L1.4,31.7z M2.8,27.6c0.8,1.8,4.4,4.1,5.2,4c1.7-0.5,3.4-1,4.9-1.5
		c-3.2-1.1-7.2-3.8-8.7-6.6L2.8,27.6z M4.6,22c0.9,3.3,6.9,7,10.1,7.5c1-0.3,1.7-0.5,2.4-0.7c-2.5-0.6-5-2.4-6.9-4.3
		c-1.9-1.9-3.6-4.3-4.3-6.4L4.6,22z M6.7,15.5c-0.5,1.9,1.2,5.2,4.1,8.2c3.2,3.2,6.7,4.7,9,4c0.2-0.2,0.2-0.5,0.2-1
		c-0.6-3.4-7.1-10.7-11.2-11.7C7.9,14.8,7.2,15,6.7,15.5z"/>
</g>
<g>
	<path class="st0" d="M25.2,29.9c-0.6,0-1.2-0.2-1.7-0.5c-0.5-0.3-1.6-1.3-0.8-3.6c0.4-0.8,1-1.5,1.6-2.1c-0.8-0.5-1.7-0.8-2.6-0.8
		c-2.1-0.1-4.1,1-5.7,2.9c-0.2,0.2-0.5,0.3-0.7,0.1c-0.2-0.2-0.3-0.5-0.1-0.7c1.7-2.2,4.1-3.4,6.5-3.3c1.2,0.1,2.4,0.5,3.5,1.2
		c0.7-0.4,1.5-0.6,2.3-0.6c2.3-0.1,4.6,1.2,5.9,3.3c0.1,0.2,0.1,0.5-0.2,0.7c-0.2,0.1-0.5,0.1-0.7-0.2c-1.1-1.8-3.1-2.9-5-2.8
		c-0.5,0-1,0.1-1.5,0.3c0.6,0.5,1.1,1.2,1.6,1.9c0.7,1.3,0.6,2.5-0.3,3.3C26.8,29.6,26,29.9,25.2,29.9z M25.2,24.4
		c-0.6,0.5-1.1,1.1-1.5,1.9c-0.3,0.7-0.4,1.8,0.4,2.3c0.7,0.5,2,0.4,2.6-0.2c0.5-0.5,0.6-1.2,0.1-2.1C26.3,25.5,25.8,24.9,25.2,24.4
		z M11.2,22.5c-0.3,0-0.5-0.2-0.5-0.5s0.2-0.5,0.5-0.5c1.4,0,3.3-1.2,3.7-2.3c0.2-0.5,0-0.9-0.5-1.3c-2.4-1.9-1.8-4.4-1-6.4
		c0.4-1,1.3-1.7,2.3-1.9c0.1-0.6,0.4-1.1,0.6-1.5c1.1-1.6,3.5-2.7,6-2.7c0.3,0,0.5,0.2,0.5,0.5s-0.2,0.5-0.5,0.5
		c-2.2,0-4.3,0.9-5.2,2.2c-0.2,0.3-0.3,0.5-0.4,0.8c0.1,0,0.3,0,0.4,0.1c1,0.2,1.6,0.9,1.6,1.7c0,1.6-0.7,2.3-1.3,2.5
		c-0.6,0.1-1.2-0.2-1.4-0.9c-0.3-0.8-0.5-1.5-0.5-2.1c-0.6,0.2-1,0.6-1.3,1.2c-1,2.5-0.8,4,0.7,5.2c0.8,0.6,1.1,1.5,0.8,2.4
		C15.2,21.2,12.8,22.5,11.2,22.5z M16.6,10.5c0,0.6,0.1,1.2,0.4,1.9c0.1,0.2,0.2,0.3,0.3,0.3c0.2,0,0.5-0.4,0.5-1.5
		c0-0.5-0.5-0.7-0.8-0.8C16.9,10.5,16.7,10.5,16.6,10.5z M21,19.4c-1.3,0-2.8-1-3.1-1.7c-0.1-0.2,0-0.5,0.2-0.7
		c0.2-0.1,0.5,0,0.7,0.2c0.2,0.4,1.3,1.2,2.4,1.1c0.6,0,1-0.4,1.2-1.1c0.6-1.7,1.1-2.5,1.9-2.9c0.8-0.3,1.7,0,2.4,0.3
		c0.3,0.2,0.6,0.3,0.9,0.5c0.3,0.2,0.9,0.5,1,0.5c0.1,0,0.3-0.2,0.5-1.9c0.1-1.1,0.6-1.9,1.4-2.2c1.1-0.5,2.5-0.1,3.4,0.5
		c0.2,0.1,0.3,0.5,0.2,0.7c-0.1,0.2-0.5,0.3-0.7,0.2c-0.8-0.5-1.8-0.8-2.5-0.5c-0.4,0.2-0.7,0.7-0.8,1.5c-0.2,1.6-0.5,2.4-1.1,2.7
		c-0.6,0.3-1.2-0.1-1.9-0.5c-0.2-0.1-0.5-0.3-0.8-0.5c-0.7-0.3-1.2-0.4-1.5-0.3c-0.5,0.2-0.9,0.9-1.3,2.2c-0.4,1.1-1.1,1.7-2.1,1.8
		C21.1,19.4,21.1,19.4,21,19.4z M7.6,17.1c-0.2,0-0.4-0.1-0.5-0.3c-0.1-0.3,0.1-0.5,0.3-0.6C8,16,8.8,15.6,8.9,14.9
		c0.1-0.8-0.7-1.8-2-2.7c-1.2-1-1.8-2-1.7-3c0.1-0.8,0.5-1.4,1.3-1.9C7.6,6.6,8.3,5.8,8.3,5c0-0.7-0.5-1.3-1.3-1.8
		C6.7,3.1,6.6,2.8,6.7,2.6c0.1-0.2,0.4-0.3,0.7-0.2C8.5,2.9,9.2,3.9,9.3,5c0,0.8-0.4,2.1-2.3,3.2C6.5,8.4,6.2,8.8,6.2,9.2
		c-0.1,0.6,0.4,1.4,1.3,2.1c1.7,1.1,2.6,2.5,2.4,3.7c-0.1,0.7-0.5,1.6-2.1,2.1C7.7,17.1,7.6,17.1,7.6,17.1z M27.2,8.2
		c-0.2,0-0.3-0.1-0.4-0.2c-0.2-0.2-0.1-0.5,0.1-0.7l2.7-1.8c0.2-0.2,0.5-0.1,0.7,0.1c0.2,0.2,0.1,0.5-0.1,0.7l-2.7,1.8
		C27.4,8.2,27.3,8.2,27.2,8.2z M3.1,7.8c-0.2,0-0.4-0.1-0.5-0.4L1.8,4.3C1.7,4,1.8,3.7,2.1,3.6C2.4,3.6,2.6,3.7,2.7,4l0.9,3.1
		c0.1,0.3-0.1,0.5-0.3,0.6C3.2,7.7,3.2,7.8,3.1,7.8z M14.7,4.2c-0.2,0-0.4-0.1-0.5-0.3l-0.9-2.7c-0.1-0.3,0.1-0.5,0.3-0.6
		c0.3-0.1,0.5,0.1,0.6,0.3l0.9,2.7c0.1,0.3-0.1,0.5-0.3,0.6C14.8,4.2,14.8,4.2,14.7,4.2z"/>
</g>
</svg>
