<?xml version="1.0" encoding="utf-8"?>
<!-- Generator: Adobe Illustrator 24.1.0, SVG Export Plug-In . SVG Version: 6.00 Build 0)  -->
<svg version="1.1" id="Layer_1" xmlns="http://www.w3.org/2000/svg" xmlns:xlink="http://www.w3.org/1999/xlink" x="0px" y="0px"
	 viewBox="0 0 27 41" style="enable-background:new 0 0 27 41;" xml:space="preserve">
<style type="text/css">
	.st0{fill:#5770BE;}
</style>
<g>
	<path class="st0" d="M10,40.5c0,0-0.1,0-0.1,0C6,40.1,5,26.4,4.9,23.3C1.2,18.6-1,9.4,1.7,4.8c1-1.7,3.1-3.5,7.3-2.8
		c2.3-1.8,5.8-2.4,8.7,0c3.5-0.4,6,0.3,7.4,2.2c3.3,4.5-0.2,13.8-2.6,19c-0.2,0.9-0.4,2.8-0.6,4.9c-0.5,5.4-0.9,11-3.5,11
		c-1.4,0-1.7-2.8-2-7.7c-0.1-1.6-0.2-3.2-0.4-4.5c0-0.8-0.8-1.7-1.6-1.8c-0.8-0.1-1.5,0.5-1.8,1.8c0,0.2,0,0.8-0.1,1.5
		c-0.2,6.2-0.6,10.5-1.8,11.6C10.5,40.4,10.3,40.5,10,40.5z M7.3,2.9c-2.1,0-3.7,0.8-4.7,2.4C0,9.6,2.2,18.4,5.7,22.8l0.1,0.1l0,0.2
		c0.5,9.2,2.3,16.2,4.1,16.4c0,0,0,0,0.1-0.1c1.2-1,1.4-8.2,1.5-10.9c0-0.8,0-1.4,0.1-1.7c0.6-2.7,2.4-2.7,2.9-2.6
		c1.3,0.2,2.5,1.4,2.5,2.7c0.2,1.3,0.3,2.9,0.4,4.5c0.1,2.4,0.4,6.4,1,6.8c1.7,0,2.2-6.3,2.5-10.1c0.2-2.2,0.3-4.1,0.6-5.1
		c1.9-4.1,5.9-13.9,2.8-18.1c-1.2-1.6-3.4-2.2-6.6-1.8l-0.2,0L17.3,3c-3-2.6-6.3-1.2-7.8,0L9.3,3.1l-0.2,0C8.5,3,7.8,2.9,7.3,2.9z
		 M12.9,21.8c-2.3,0-4.7-0.5-6.6-1.8c-0.2-0.1-0.3-0.5-0.1-0.7c0.1-0.2,0.5-0.3,0.7-0.1c4.1,2.6,10.2,1.8,13.8-0.6
		c0.2-0.1,0.5-0.1,0.7,0.1c0.2,0.2,0.1,0.5-0.1,0.7C19.1,20.9,16,21.8,12.9,21.8z M9.4,7.1C7.7,7.1,6,6.4,5,5.6
		C4.8,5.5,4.8,5.2,5,4.9c0.2-0.2,0.5-0.3,0.7-0.1c1.1,0.8,3.2,1.6,5,1.1C9.9,5.5,9.6,4.9,9.5,4.4C9.4,4.2,9.6,3.9,9.8,3.8
		c0.3-0.1,0.5,0.1,0.6,0.4c0,0,0.3,1.1,1.6,1.1c1.3-0.7,2.5-0.8,4-0.7c0.5-0.3,1-0.7,1.2-1c0.2-0.2,0.5-0.3,0.7-0.1
		c0.2,0.1,0.3,0.5,0.1,0.7c-0.1,0.2-0.3,0.4-0.5,0.6c1.2,0.1,2.5,0.2,3.9,0c0.3,0,0.5,0.1,0.6,0.4c0,0.3-0.1,0.5-0.4,0.6
		c-1.7,0.2-3.2,0.1-4.5,0c-0.3,0-0.6-0.1-1-0.1c0,0,0,0,0,0c-1.5-0.1-2.6,0-3.7,0.6C11.5,6.9,10.5,7.1,9.4,7.1z"/>
</g>
</svg>
