<svg width="56" height="44" viewBox="0 0 56 44" fill="none" xmlns="http://www.w3.org/2000/svg">
<path fill-rule="evenodd" clip-rule="evenodd" d="M28.1051 3.4585C28.1051 2.16366 26.5748 1.47717 25.6077 2.33819L10.9764 15.3647V29.235L25.6291 41.7913C26.6021 42.6251 28.1051 41.9338 28.1051 40.6523V3.4585ZM9.97638 28.965V15.6404H4C2.61929 15.6404 1.5 16.7597 1.5 18.1404V26.465C1.5 27.8457 2.61929 28.965 4 28.965H9.97638ZM10.2861 14.6404L24.9427 1.59131C26.5545 0.15628 29.1051 1.30044 29.1051 3.4585V17.6707C29.7723 17.687 30.6179 17.7697 31.3501 18.186C32.3457 18.7522 33.0193 19.8555 33.0193 21.7983C33.0193 22.9127 32.9145 23.9597 32.2406 24.7505C31.6237 25.4743 30.6161 25.8876 29.1051 26.0798V40.6523C29.1051 42.788 26.6001 43.9404 24.9784 42.5506L10.2915 29.965H4C2.067 29.965 0.5 28.398 0.5 26.465V18.1404C0.5 16.2074 2.067 14.6404 4 14.6404H10.2861ZM29.1051 25.0709C30.4338 24.8861 31.1117 24.5334 31.4795 24.1018C31.8974 23.6115 32.0193 22.9032 32.0193 21.7983C32.0193 20.1095 31.4567 19.397 30.8558 19.0553C30.3366 18.76 29.7095 18.689 29.1051 18.672V25.0709ZM36.9635 4.04391C36.9635 3.76777 37.1873 3.54391 37.4635 3.54391C43.4679 3.54391 47.9968 5.76675 51.0169 9.13212C54.0291 12.4886 55.5131 16.9506 55.4999 21.3963C55.4867 25.842 53.9763 30.3026 50.9586 33.6579C47.933 37.0219 43.4177 39.2457 37.4635 39.2457C37.1873 39.2457 36.9635 39.0218 36.9635 38.7457C36.9635 38.4695 37.1873 38.2457 37.4635 38.2457C43.1487 38.2457 47.3887 36.1317 50.2151 32.9892C53.0493 29.8379 54.4874 25.6231 54.4999 21.3933C54.5125 17.1636 53.0995 12.9501 50.2726 9.80001C47.4537 6.65879 43.2015 4.54391 37.4635 4.54391C37.1873 4.54391 36.9635 4.32006 36.9635 4.04391ZM36.9635 9.08777C36.9635 8.81163 37.1873 8.58777 37.4635 8.58777C41.6727 8.58777 44.8275 10.2112 46.9126 12.6737C48.9883 15.1249 49.9775 18.3748 49.9377 21.6027C49.8978 24.8307 48.8286 28.0753 46.7373 30.5213C44.6371 32.9775 41.5241 34.6053 37.4635 34.6053C37.1873 34.6053 36.9635 34.3815 36.9635 34.1053C36.9635 33.8292 37.1873 33.6053 37.4635 33.6053C41.2312 33.6053 44.0667 32.1059 45.9772 29.8714C47.8966 27.6266 48.9003 24.6168 48.9377 21.5904C48.9751 18.5639 48.0458 15.5594 46.1495 13.3199C44.2625 11.0915 41.3916 9.58777 37.4635 9.58777C37.1873 9.58777 36.9635 9.36392 36.9635 9.08777ZM36.9635 14.7369C36.9635 14.4608 37.1873 14.2369 37.4635 14.2369C39.6016 14.2369 41.2027 15.2524 42.2481 16.7522C43.2825 18.2362 43.7709 20.1848 43.7574 22.1044C43.744 24.0243 43.2283 25.9701 42.1893 27.4509C41.1404 28.9457 39.5543 29.965 37.4635 29.965C37.1873 29.965 36.9635 29.7411 36.9635 29.465C36.9635 29.1888 37.1873 28.965 37.4635 28.965C39.1838 28.965 40.4818 28.1433 41.3707 26.8765C42.2694 25.5958 42.7451 23.8596 42.7575 22.0974C42.7698 20.335 42.3183 18.6016 41.4277 17.3241C40.5483 16.0624 39.2395 15.2369 37.4635 15.2369C37.1873 15.2369 36.9635 15.013 36.9635 14.7369Z" fill="#5770BE"/>
</svg>
