<svg id="Calque_1" data-name="Calque 1" xmlns="http://www.w3.org/2000/svg" viewBox="0 0 39 39"><defs><style>.cls-1{fill:#5770be;fill-rule:evenodd;}</style></defs><path class="cls-1" d="M3.18,7.85C6.66,11,12.37,16,15.56,18.81c1.22,1.05,2,1.74,2.26,1.88a3.7,3.7,0,0,0,2,.82,3.09,3.09,0,0,0,1.74-.79L35.59,7.84a3.06,3.06,0,0,0-1.18-.2H4.59A4,4,0,0,0,3.18,7.85Zm33.06.51L24.08,19.49l7.16,6.22a.41.41,0,1,1-.54.62l-7.22-6.28-1.41,1.29,0,0a3.78,3.78,0,0,1-2.25,1,4.39,4.39,0,0,1-2.43-.95c-.25-.16-1-.8-2-1.69l-7,7a.41.41,0,0,1-.58-.58l7-7C11.4,16.28,5.87,11.35,2.52,8.36a1.46,1.46,0,0,0-.2.78v20a3,3,0,0,0,.36,1.55,1.65,1.65,0,0,0,1.52.72H34a2.66,2.66,0,0,0,2.22-.76,2.33,2.33,0,0,0,.43-1.51V10.3A3.41,3.41,0,0,0,36.24,8.36Zm-34-.89a3.67,3.67,0,0,1,2.36-.65H34.41a3.15,3.15,0,0,1,2.11.65,3.57,3.57,0,0,1,1,2.83V29.09a3.15,3.15,0,0,1-.62,2A3.46,3.46,0,0,1,34,32.18H4.2A2.47,2.47,0,0,1,2,31.08a3.79,3.79,0,0,1-.49-2V9.14A2.1,2.1,0,0,1,2.23,7.47Z"/></svg>