<svg width="36" height="35" viewBox="0 0 36 35" fill="none" xmlns="http://www.w3.org/2000/svg">
<path fill-rule="evenodd" clip-rule="evenodd" d="M18.0129 0.305664L24.8536 7.14637C25.0488 7.34163 25.0488 7.65821 24.8536 7.85347C24.6583 8.04873 24.3417 8.04873 24.1464 7.85347L18.5 2.20703V21.9999C18.5 22.2761 18.2761 22.4999 18 22.4999C17.7239 22.4999 17.5 22.2761 17.5 21.9999V2.14652L11.3402 7.86632C11.1379 8.05422 10.8215 8.0425 10.6336 7.84014C10.4457 7.63779 10.4574 7.32142 10.6598 7.13352L18.0129 0.305664ZM0.5 14.4999H11C11.2761 14.4999 11.5 14.7238 11.5 14.9999C11.5 15.2761 11.2761 15.4999 11 15.4999H1.5V33.4999H34.5V15.4999H26C25.7239 15.4999 25.5 15.2761 25.5 14.9999C25.5 14.7238 25.7239 14.4999 26 14.4999H35.5V34.4999H0.5V14.4999Z" fill="#5770BE"/>
</svg>
