<?xml version="1.0" encoding="utf-8"?>
<svg version="1.1" id="Layer_1" x="0px" y="0px" viewBox="0 0 31 27" style="enable-background:new 0 0 31 27;" xmlns="http://www.w3.org/2000/svg">
  <style type="text/css">
	.st0{fill:#5770BE;}
</style>
  <g>
    <path class="st0" d="M 15.1 27 L 14.9 26.9 C 12 25.8 8.7 23.4 5.9 20.5 C 2.7 17.1 0.7 13.5 0.2 10.2 C 0.1 9.6 0 8.9 0 8.3 C 0 3.7 3.7 0 8.3 0 C 11 0 13.5 1.3 15.1 3.5 C 16.7 1.3 19.2 0 21.9 0 C 26.5 0 30.2 3.7 30.2 8.3 C 30.2 8.9 30.1 9.6 30 10.2 C 29.5 13.5 27.4 17.1 24.3 20.5 C 21.5 23.4 18.2 25.8 15.3 26.9 L 15.1 27 Z"/>
  </g>
</svg>