<svg width="41" height="36" viewBox="0 0 41 36" fill="none" xmlns="http://www.w3.org/2000/svg">
<path fill-rule="evenodd" clip-rule="evenodd" d="M20.4912 0L40.9436 5.50308L19.7623 15.5159L2.34904 10.3839C2.17833 10.3916 2.03179 10.4285 1.90497 10.486L1.82612 10.5258C1.53633 10.687 1.30168 10.9949 1.15505 11.4361C1.00767 11.8795 0.96299 12.4218 1.03114 12.9731C1.17152 14.1088 1.75021 15.0747 2.57875 15.3596L2.61312 15.3714L2.64542 15.3881C2.92709 15.5335 3.7968 15.8348 5.09161 16.2399C6.36282 16.6376 7.99137 17.1199 9.74453 17.6259C13.1738 18.6158 17.0702 19.6939 19.6794 20.4031L38.4706 11.9762L38.8798 12.8887L19.7624 21.4618L19.5899 21.415C16.9789 20.7062 12.9796 19.6005 9.4672 18.5867C7.71133 18.0799 6.07462 17.5953 4.79302 17.1943C3.67846 16.8456 2.78946 16.5475 2.33866 16.3485C2.29754 16.3647 2.24592 16.396 2.18334 16.4547C2.06877 16.562 1.94385 16.7384 1.82503 16.9894C1.58789 17.4902 1.41839 18.1956 1.3699 18.9459C1.32141 19.6961 1.39678 20.4467 1.61162 21.0415C1.81598 21.6073 2.12265 21.9757 2.51578 22.136C2.74461 22.151 3.0679 22.2122 3.43327 22.2939C3.87443 22.3925 4.43161 22.5341 5.07292 22.7076C6.35643 23.0548 7.99454 23.5346 9.75078 24.0664C13.1829 25.1056 17.0794 26.3474 19.6923 27.1973L38.4706 18.7762L38.8798 19.6887L19.7495 28.2676L19.566 28.2079C16.9587 27.3585 12.9656 26.0847 9.46099 25.0235C7.70821 24.4928 6.08108 24.0163 4.81178 23.6729C4.17669 23.5011 3.63557 23.3638 3.21514 23.2698C2.77568 23.1716 2.51675 23.1324 2.41614 23.1324C2.03905 23.1324 1.71808 23.346 1.46516 23.8134C1.20735 24.2898 1.06187 24.9713 1.06189 25.7137C1.0619 26.4521 1.20608 27.2026 1.48038 27.8038C1.75675 28.4095 2.13684 28.8077 2.57871 28.9596C4.51426 29.6251 15.2025 32.5632 20.4996 34.0018L38.4629 25.5797L38.8874 26.4852L20.5918 35.0631L20.4147 35.015C15.2085 33.6018 4.25173 30.5923 2.25357 29.9053C1.45933 29.6322 0.912311 28.9678 0.570598 28.2189C0.226807 27.4654 0.0619061 26.569 0.0618892 25.7137C0.0618725 24.8623 0.225412 24.0032 0.585672 23.3375C0.767885 23.0007 1.01011 22.7 1.31384 22.4832C1.02682 22.1705 0.817418 21.7863 0.67109 21.3812C0.396611 20.6213 0.317457 19.725 0.37198 18.8814C0.426493 18.038 0.617537 17.2028 0.921221 16.5614C1.05091 16.2875 1.20912 16.032 1.4001 15.8253C0.600962 15.1676 0.162464 14.0971 0.0386885 13.0958C-0.0445262 12.4225 0.0043643 11.7276 0.206097 11.1207C0.407438 10.5149 0.774945 9.96095 1.35286 9.64477C1.39136 9.62371 1.43053 9.60386 1.47036 9.58524L20.4912 0ZM3.50203 9.68121L20.6001 1.06489L38.0564 5.7618L19.6795 14.449L3.50203 9.68121Z" fill="#5770BE"/>
</svg>
