<svg width="56" height="44" viewBox="0 0 56 44" fill="none" xmlns="http://www.w3.org/2000/svg">
<path fill-rule="evenodd" clip-rule="evenodd" d="M28.1051 3.4585C28.1051 2.16366 26.5748 1.47717 25.6077 2.33819L10.9764 15.3647V29.235L25.6291 41.7913C26.6021 42.6251 28.1051 41.9338 28.1051 40.6523V3.4585ZM9.97638 28.965V15.6404H4C2.61929 15.6404 1.5 16.7597 1.5 18.1404V26.465C1.5 27.8457 2.61929 28.965 4 28.965H9.97638ZM10.2861 14.6404L24.9427 1.59131C26.5545 0.156279 29.1051 1.30044 29.1051 3.4585V17.6707C29.7723 17.687 30.6179 17.7697 31.3501 18.186C32.3457 18.7522 33.0193 19.8555 33.0193 21.7983C33.0193 22.9127 32.9145 23.9597 32.2406 24.7505C31.6237 25.4743 30.6161 25.8876 29.1051 26.0798V40.6523C29.1051 42.788 26.6001 43.9404 24.9784 42.5506L10.2915 29.965H4C2.067 29.965 0.5 28.398 0.5 26.465V18.1404C0.5 16.2074 2.067 14.6404 4 14.6404H10.2861ZM29.1051 25.0709C30.4338 24.8861 31.1117 24.5334 31.4795 24.1018C31.8974 23.6115 32.0193 22.9032 32.0193 21.7983C32.0193 20.1095 31.4567 19.397 30.8558 19.0553C30.3366 18.76 29.7095 18.689 29.1051 18.672V25.0709Z" fill="#5770BE"/>
<rect x="33" y="11.707" width="1" height="30" rx="0.5" transform="rotate(-45 33 11.707)" fill="#5770BE"/>
<rect x="54.2133" y="11" width="1" height="30" rx="0.5" transform="rotate(45 54.2133 11)" fill="#5770BE"/>
</svg>
