<svg width="42" height="46" viewBox="0 0 42 46" fill="none" xmlns="http://www.w3.org/2000/svg">
<path fill-rule="evenodd" clip-rule="evenodd" d="M34.3974 25.3068C32.4608 23.7125 30.3865 21.3074 28.8269 15.4868C27.4533 10.3604 22.183 7.31689 17.0558 8.69075C11.9285 10.0646 8.88605 15.3355 10.2597 20.4619C11.8193 26.2825 11.2255 29.4025 10.3455 31.7515C10.1609 32.2441 9.98028 32.675 9.81538 33.0684C9.195 34.5483 8.79749 35.4965 9.25229 37.2014C9.2536 37.2057 9.25651 37.2149 9.26114 37.2283C9.27145 37.2581 9.28957 37.3065 9.31659 37.3659C9.37262 37.489 9.4559 37.6351 9.56758 37.7611C9.67636 37.8837 9.79751 37.9716 9.93721 38.0189C10.0698 38.0637 10.2854 38.095 10.6289 38.0029L37.2777 30.8624C37.6212 30.7704 37.7923 30.6355 37.8846 30.5304C37.982 30.4196 38.043 30.2829 38.0759 30.1223C38.1096 29.9574 38.1087 29.7892 38.0956 29.6545C38.0893 29.5896 38.0808 29.5386 38.0748 29.5077C38.0722 29.4937 38.0701 29.4843 38.0691 29.48C37.6105 27.7761 36.7921 27.1536 35.5149 26.1822C35.1754 25.924 34.8035 25.6412 34.3974 25.3068ZM39.0372 29.2292C38.4842 27.1654 37.3673 26.3216 36.0332 25.3137C34.0543 23.8186 31.5973 21.9623 29.7928 15.228C28.2763 9.56821 22.4578 6.20801 16.7969 7.72482C11.1361 9.24164 7.7772 15.0609 9.29374 20.7207C11.0982 27.455 9.89849 30.2911 8.93227 32.5753C8.28084 34.1153 7.73552 35.4045 8.2885 37.4682C8.2885 37.4682 8.83778 39.5181 10.8877 38.9689L37.5365 31.8283C39.5864 31.2791 39.0372 29.2292 39.0372 29.2292ZM38.0688 29.4788L38.0687 29.4783L38.0688 29.4788Z" fill="#5770BE"/>
<path fill-rule="evenodd" clip-rule="evenodd" d="M18.9213 7.22177C18.9169 7.20303 18.9118 7.18275 18.9059 7.16084C18.5938 5.99611 17.3966 5.3049 16.2319 5.61699C15.0671 5.92908 14.3759 7.12629 14.688 8.29102C14.6939 8.31293 14.6996 8.33304 14.7052 8.35147C14.8503 8.30021 15.0222 8.22302 15.2647 8.11413C15.3178 8.09028 15.3743 8.06492 15.4346 8.03797C15.7945 7.87719 16.2441 7.68427 16.7495 7.54885C17.2549 7.41342 17.7407 7.35571 18.1328 7.31498C18.1986 7.30815 18.2602 7.30187 18.3181 7.29598C18.5825 7.26904 18.7699 7.24995 18.9213 7.22177ZM18.9493 7.41469C18.9493 7.41467 18.9493 7.41403 18.9495 7.41279L18.9493 7.41469ZM19.1148 7.17189C19.1179 7.17024 19.1196 7.1695 19.1197 7.16954C19.1198 7.16958 19.1182 7.17041 19.1148 7.17189ZM14.5073 8.40543C14.5073 8.40535 14.5092 8.40513 14.5126 8.40504C14.5089 8.40547 14.5072 8.40552 14.5073 8.40543ZM14.7763 8.531C14.777 8.532 14.7774 8.53254 14.7774 8.53256L14.7763 8.531ZM18.4062 8.29231C17.9783 8.33542 17.4966 8.38395 17.0083 8.51477C16.5201 8.64559 16.0786 8.84445 15.6865 9.02106C14.7147 9.45876 14.0463 9.75982 13.7221 8.54984C13.2671 6.85164 14.2749 5.1061 15.9731 4.65107C17.6713 4.19604 19.4168 5.20382 19.8718 6.90203C20.196 8.112 19.4667 8.18548 18.4062 8.29231Z" fill="#5770BE"/>
<path fill-rule="evenodd" clip-rule="evenodd" d="M28.8613 36.351C28.9504 36.6837 28.9974 37.0178 29.0056 37.3476C29.0531 39.262 27.7914 41.0319 25.86 41.5494C23.9286 42.0669 21.951 41.1651 21.0349 39.4834C20.8771 39.1937 20.7508 38.8808 20.6616 38.5481L28.8613 36.351ZM22.0381 39.2146C22.7824 40.3635 24.2075 40.9569 25.6012 40.5834C26.9948 40.21 27.9323 38.9836 28.0024 37.6164L22.0381 39.2146Z" fill="#5770BE"/>
</svg>
