<svg width="40" height="36" viewBox="0 0 40 36" fill="none" xmlns="http://www.w3.org/2000/svg">
<path fill-rule="evenodd" clip-rule="evenodd" d="M15.7352 3.15141C16.9698 1.24258 19.0611 0 22.1246 0C25.3172 0 27.4618 1.23536 28.7011 3.1514C29.9218 5.03857 30.2152 7.50984 29.894 9.91952C29.572 12.3344 28.6252 14.7534 27.2813 16.5802C25.9451 18.3965 24.1517 19.7069 22.1246 19.7069C20.0186 19.7069 18.2167 18.4013 16.9027 16.5761C15.5845 14.7448 14.7018 12.3225 14.4372 9.90793C14.1729 7.49771 14.5186 5.03237 15.7352 3.15141ZM17.7143 15.9918C18.9254 17.6741 20.4624 18.7069 22.1246 18.7069C23.6999 18.7069 25.2315 17.679 26.4758 15.9876C27.7123 14.3069 28.6012 12.0492 28.9027 9.78738C29.2049 7.52033 28.9095 5.31488 27.8615 3.6945C26.8321 2.103 25.0281 1 22.1246 1C19.3692 1 17.6089 2.09578 16.5749 3.6945C15.5228 5.32107 15.1827 7.53246 15.4312 9.79896C15.6792 12.0612 16.5076 14.3155 17.7143 15.9918ZM17.8889 20.4928L18.0599 20.679C19.0562 21.7639 20.5745 22.3276 22.125 22.3276C23.6755 22.3276 25.1938 21.7639 26.1901 20.679L26.3386 20.5172H26.5583C31.1168 20.5172 34.3263 22.0761 36.378 24.7889C38.4106 27.4766 39.25 31.2234 39.25 35.5V36H5V35.5C5 31 7 31.8125 9.5 31.5C11.5 32 15.3348 30.5328 16.5 28.5C16.7945 27.2856 18.6951 26.5464 18.5 25C18.1653 23.5 15.5 21 17.6375 20.5202L17.8889 20.4928ZM26.7706 21.5184C25.5552 22.737 23.8253 23.3276 22.125 23.3276C20.4355 23.3276 18.7167 22.7445 17.5026 21.5416C16.1773 21.6944 18.664 23.574 19 25C19.3173 26.3464 17.3123 26.59 17.3123 28.2131C16.9991 30.4065 13 31.5 13 31.5C10 33 6.02491 31.0116 6.00143 35H38.246C38.1821 31.049 37.3526 27.7355 35.5804 25.3921C33.783 23.0155 30.9616 21.5657 26.7706 21.5184Z" fill="#5770BE"/>
<path fill-rule="evenodd" clip-rule="evenodd" d="M12.2415 13.8704C12.3131 14.1371 12.155 14.4113 11.8883 14.4829C11.5676 14.569 11.2566 14.8986 10.9956 15.431C10.8491 15.7296 10.7383 16.0525 10.6604 16.3433C14.1326 16.5925 17.5008 18.8495 18.0747 23.2925C18.9277 23.5116 19.4264 24.3331 19.4919 25.0745C19.5317 25.5242 19.4255 26.0117 19.0994 26.3936C18.8411 26.696 18.4778 26.8938 18.0325 26.968C17.1416 30.7014 13.5257 32.5 10.049 32.5C6.59264 32.5 2.99872 30.7223 2.08143 27.0332C1.21517 26.9838 0.621941 26.2707 0.517548 25.5343C0.453984 25.0859 0.559463 24.5972 0.893643 24.2009C1.15215 23.8943 1.52157 23.6729 1.98769 23.5556C2.09469 21.2613 3.07549 19.4728 4.51927 18.2483C5.80672 17.1563 7.44638 16.5252 9.13173 16.3624C8.73606 15.9166 8.24764 15.6511 7.64762 15.7003C7.3724 15.7229 7.13099 15.5181 7.10841 15.2429C7.08584 14.9677 7.29064 14.7263 7.56586 14.7037C8.54988 14.623 9.29044 15.0612 9.8285 15.6448C9.9031 15.4275 9.99244 15.2054 10.0977 14.9907C10.3923 14.39 10.875 13.7195 11.629 13.5171C11.8957 13.4455 12.1699 13.6037 12.2415 13.8704ZM5.16609 19.0109C3.8587 20.1198 2.97796 21.7737 2.97796 23.9766V24.4275L2.52949 24.474C2.04598 24.5241 1.78874 24.6906 1.65817 24.8455C1.52679 25.0013 1.47963 25.1963 1.50765 25.3939C1.56712 25.8135 1.91713 26.1155 2.3672 26.0133L2.87579 25.8977L2.96977 26.4107C3.58217 29.7536 6.74134 31.5 10.049 31.5C13.3567 31.5 16.5159 29.7536 17.1283 26.4107L17.2034 26.0008H17.6201C18.0224 26.0008 18.2303 25.8714 18.3389 25.7442C18.4555 25.6077 18.5172 25.404 18.4958 25.1625C18.4501 24.645 18.0778 24.2362 17.6201 24.2362H17.1626L17.1221 23.7805C16.7343 19.4181 13.4161 17.3349 10.0469 17.3202C8.25663 17.3123 6.48352 17.8935 5.16609 19.0109ZM12.7515 27.7567C12.9873 27.9004 13.062 28.2081 12.9182 28.4439C12.6891 28.8197 12.2761 29.0755 11.8514 29.2411C11.4126 29.4122 10.8915 29.5149 10.3559 29.5396C9.30442 29.5879 8.06649 29.3378 7.25599 28.54C7.05919 28.3463 7.05669 28.0297 7.2504 27.8329C7.44412 27.6361 7.76069 27.6336 7.95749 27.8273C8.49025 28.3517 9.40152 28.5824 10.31 28.5406C10.7543 28.5202 11.1659 28.4351 11.488 28.3094C11.8243 28.1783 12.0004 28.0284 12.0644 27.9234C12.2081 27.6876 12.5158 27.613 12.7515 27.7567Z" fill="#5770BE"/>
</svg>
