<?xml version="1.0" encoding="utf-8"?>
<!-- Generator: Adobe Illustrator 25.3.0, SVG Export Plug-In . SVG Version: 6.00 Build 0)  -->
<svg version="1.1" id="Calque_1" xmlns="http://www.w3.org/2000/svg" xmlns:xlink="http://www.w3.org/1999/xlink" x="0px" y="0px"
	 viewBox="0 0 40 43" style="enable-background:new 0 0 40 43;" xml:space="preserve">
<style type="text/css">
	.st0{fill:#5770BE;}
</style>
<g>
	<path class="st0" d="M24.6,42.5H2c-0.4,0-0.8-0.2-1-0.4c-0.3-0.3-0.4-0.6-0.4-1c0-7.8,6.1-10.2,9.7-10.3c0.4,0,0.8,0.1,1.1,0.4
		c1.5,1.3,3.3,1.3,4.7,0c0.3-0.3,0.7-0.4,1.1-0.4c5.7,0.2,8.8,3.7,9,10.3c0,0.4-0.1,0.8-0.4,1.1C25.4,42.3,25,42.5,24.6,42.5z
		 M10.2,31.7C10.2,31.7,10.2,31.7,10.2,31.7c-0.9,0-8.7,0.7-8.7,9.4c0,0.1,0,0.2,0.1,0.3c0.1,0.1,0.2,0.1,0.3,0.1h22.6
		c0.1,0,0.3-0.1,0.4-0.1c0.1-0.1,0.1-0.2,0.1-0.3c-0.2-6-2.9-9.2-8.1-9.3c-0.1,0-0.3,0.1-0.4,0.2c-1.8,1.6-4.2,1.6-6,0
		C10.5,31.8,10.4,31.7,10.2,31.7z"/>
</g>
<g>
	<path class="st0" d="M13.6,31.1c-0.1,0-0.2,0-0.3,0c-3.9-0.8-5.8-5.2-5.4-9c0.4-3.5,2.5-5.7,5.6-5.7c3.2,0,5.4,2.5,5.6,6.4
		c0.2,3.8-1.6,8-5.4,8.4C13.7,31.1,13.7,31.1,13.6,31.1z M13.6,17.3c-3.8,0-4.5,3.7-4.6,4.9c-0.3,3.4,1.3,7.3,4.6,7.9h0
		c0,0,0.1,0,0.1,0c3.1-0.4,4.8-4,4.6-7.4C18.1,20.1,16.8,17.3,13.6,17.3z"/>
</g>
<g>
	<path class="st0" d="M23.6,21.9c-0.2,0-0.5-0.1-0.7-0.2c-0.5-0.3-0.8-0.8-0.8-1.3V18c0-0.2-0.1-0.4-0.3-0.5
		c-3.7-2.3-5.2-7-3.6-11.2C19.4,3,23-0.3,29.2,0.7c8.2,1.3,10.6,6.2,10.2,10.1c-0.5,4.4-4.8,8.8-11,8.4c-0.2,0-0.4,0-0.5,0.2l0,0
		c-0.8,0.6-2.3,1.6-3.5,2.4C24.1,21.8,23.8,21.9,23.6,21.9z M27.1,1.5c-3.8,0-6.8,1.8-8,5.1c-1.2,3.2-0.5,7.7,3.2,10
		c0.5,0.3,0.7,0.8,0.7,1.3v2.4c0,0.3,0.2,0.4,0.3,0.4c0.1,0,0.3,0.1,0.5,0c1.7-1.1,2.9-1.9,3.5-2.3c0.3-0.3,0.8-0.4,1.2-0.4
		c5.7,0.4,9.6-3.5,10-7.5c0.4-3.6-1.9-7.8-9.4-9C28.4,1.6,27.7,1.5,27.1,1.5z M27.6,18.9L27.6,18.9L27.6,18.9z"/>
</g>
</svg>
