<svg width="31" height="38" viewBox="0 0 31 38" fill="none" xmlns="http://www.w3.org/2000/svg">
<path fill-rule="evenodd" clip-rule="evenodd" d="M18.1464 3.64645C18.3417 3.45118 18.6583 3.45118 18.8536 3.64645L26.3536 11.1464C26.5488 11.3417 26.5488 11.6583 26.3536 11.8536C26.1583 12.0488 25.8417 12.0488 25.6464 11.8536L18.1464 4.35355C17.9512 4.15829 17.9512 3.84171 18.1464 3.64645Z" fill="#5770BE"/>
<path fill-rule="evenodd" clip-rule="evenodd" d="M3.71698 14.5233C3.71698 14.2472 3.94084 14.0233 4.21698 14.0233H23.2736C23.5497 14.0233 23.7736 14.2472 23.7736 14.5233C23.7736 14.7994 23.5497 15.0233 23.2736 15.0233H4.21698C3.94084 15.0233 3.71698 14.7994 3.71698 14.5233ZM3.71698 18.5596C3.71698 18.2834 3.94084 18.0596 4.21698 18.0596H23.2736C23.5497 18.0596 23.7736 18.2834 23.7736 18.5596C23.7736 18.8357 23.5497 19.0596 23.2736 19.0596H4.21698C3.94084 19.0596 3.71698 18.8357 3.71698 18.5596ZM3 37H24.6855C25.7901 37 26.6855 36.1046 26.6855 35V13.1243C26.6855 12.5721 26.2378 12.1243 25.6855 12.1243H20.0094C18.9049 12.1243 18.0094 11.2289 18.0094 10.1243V4.55957C18.0094 4.00728 17.5617 3.55957 17.0094 3.55957H3C1.89543 3.55957 1 4.455 1 5.55957V35C1 36.1046 1.89543 37 3 37ZM3 2.55957C1.34315 2.55957 0 3.90272 0 5.55957V35C0 36.6568 1.34315 38 3 38H24.6855C26.3424 38 27.6855 36.6568 27.6855 35V13.1243C27.6855 12.0198 26.7901 11.1243 25.6855 11.1243H20.0094C19.4572 11.1243 19.0094 10.6766 19.0094 10.1243V4.55957C19.0094 3.455 18.114 2.55957 17.0094 2.55957H3Z" fill="#5770BE"/>
<path fill-rule="evenodd" clip-rule="evenodd" d="M10.4821 26.5H8.5V34H18V26.5H16.5179C16.5248 26.3359 16.5312 26.15 16.5312 25.9531C16.5312 25.5114 16.4992 24.9897 16.3558 24.4876C16.2112 23.9818 15.9466 23.4723 15.4666 23.0924C14.984 22.7103 14.3353 22.5 13.5 22.5C12.6647 22.5 12.016 22.7103 11.5334 23.0924C11.0534 23.4723 10.7888 23.9818 10.6442 24.4876C10.5008 24.9897 10.4688 25.5114 10.4688 25.9531C10.4688 26.15 10.4752 26.3359 10.4821 26.5ZM11.4831 26.5H15.5169C15.5244 26.3289 15.5312 26.1453 15.5312 25.9531C15.5312 25.5511 15.5008 25.1353 15.3942 24.7624C15.2888 24.3932 15.1159 24.0902 14.8459 23.8764C14.5785 23.6647 14.1647 23.5 13.5 23.5C12.8353 23.5 12.4215 23.6647 12.1541 23.8764C11.8841 24.0902 11.7112 24.3932 11.6058 24.7624C11.4992 25.1353 11.4688 25.5511 11.4688 25.9531C11.4688 26.1453 11.4756 26.3289 11.4831 26.5ZM9.5 27.5V33H17V27.5H9.5Z" fill="#5770BE"/>
</svg>
