<svg width="27" height="34" viewBox="0 0 27 34" fill="none" xmlns="http://www.w3.org/2000/svg">
<g clip-path="url(#clip0)">
<path d="M25.6299 7.22997L18.6299 0.659973V5.72997C18.6299 6.1278 18.7879 6.50933 19.0692 6.79063C19.3505 7.07194 19.7321 7.22997 20.1299 7.22997H25.6299Z" fill="#26366E"/>
<path d="M8.5 25.31H4.5V29.31H8.5V25.31Z" fill="#26366E"/>
<path d="M8.5 17.39H4.5V21.39H8.5V17.39Z" fill="#26366E"/>
<path d="M8.5 9.47998H4.5V13.48H8.5V9.47998Z" fill="#26366E"/>
<path d="M20.12 8.23C19.457 8.23 18.8211 7.96661 18.3522 7.49777C17.8834 7.02893 17.62 6.39304 17.62 5.73V0H1.5C1.10218 0 0.720644 0.158035 0.43934 0.43934C0.158035 0.720644 0 1.10218 0 1.5L0 32.05C0 32.4478 0.158035 32.8294 0.43934 33.1107C0.720644 33.392 1.10218 33.55 1.5 33.55H24.89C25.2878 33.55 25.6694 33.392 25.9507 33.1107C26.232 32.8294 26.39 32.4478 26.39 32.05V8.23H20.12ZM9.5 29.31C9.5 29.5752 9.39464 29.8296 9.20711 30.0171C9.01957 30.2046 8.76522 30.31 8.5 30.31H4.5C4.23478 30.31 3.98043 30.2046 3.79289 30.0171C3.60536 29.8296 3.5 29.5752 3.5 29.31V25.31C3.5 25.0448 3.60536 24.7904 3.79289 24.6029C3.98043 24.4154 4.23478 24.31 4.5 24.31H8.5C8.76522 24.31 9.01957 24.4154 9.20711 24.6029C9.39464 24.7904 9.5 25.0448 9.5 25.31V29.31ZM9.5 21.39C9.5 21.6552 9.39464 21.9096 9.20711 22.0971C9.01957 22.2846 8.76522 22.39 8.5 22.39H4.5C4.23478 22.39 3.98043 22.2846 3.79289 22.0971C3.60536 21.9096 3.5 21.6552 3.5 21.39V17.39C3.5 17.1248 3.60536 16.8704 3.79289 16.6829C3.98043 16.4954 4.23478 16.39 4.5 16.39H8.5C8.76522 16.39 9.01957 16.4954 9.20711 16.6829C9.39464 16.8704 9.5 17.1248 9.5 17.39V21.39ZM9.5 13.48C9.5 13.7452 9.39464 13.9996 9.20711 14.1871C9.01957 14.3746 8.76522 14.48 8.5 14.48H4.5C4.23478 14.48 3.98043 14.3746 3.79289 14.1871C3.60536 13.9996 3.5 13.7452 3.5 13.48V9.48C3.5 9.21478 3.60536 8.96043 3.79289 8.77289C3.98043 8.58536 4.23478 8.48 4.5 8.48H8.5C8.76522 8.48 9.01957 8.58536 9.20711 8.77289C9.39464 8.96043 9.5 9.21478 9.5 9.48V13.48Z" fill="#26366E"/>
</g>
<defs>
<clipPath id="clip0">
<rect width="26.39" height="33.55" fill="white"/>
</clipPath>
</defs>
</svg>
