<?xml version="1.0" encoding="utf-8"?>
<!-- Generator: Adobe Illustrator 24.1.0, SVG Export Plug-In . SVG Version: 6.00 Build 0)  -->
<svg version="1.1" id="Layer_1" xmlns="http://www.w3.org/2000/svg" xmlns:xlink="http://www.w3.org/1999/xlink" x="0px" y="0px"
	 viewBox="0 0 34 46" style="enable-background:new 0 0 34 46;" xml:space="preserve">
<style type="text/css">
	.st0{fill:#5770BE;}
</style>
<g>
	<path class="st0" d="M33.5,45.5h-33V32.4c0.3-4.4,5.4-9.6,10.3-9.3l0,0c0.2,0,0.4,0,0.6,0.1c1.3-0.4,2-2.5,2.2-3.6
		c-1.8-1.5-3.1-4.4-3.2-9.9l0,0c0-3,0.4-5.8,0.5-7L11,2.2L11,2.1c1.1-1.3,4.6-1.7,7.4-1.5C19.9,0.7,22.3,1,23,2.1l0.1,0.2
		c0.4,2.6,0.6,5.2,0.6,7.5c0,3.4-0.6,7.9-3.2,10c0.1,0.9,1,2.8,2.6,3.9c0.2,0,0.5-0.1,0.7-0.1l0,0c4.4-0.3,9.3,2.7,9.7,8.8
		L33.5,45.5z M1.5,44.5h31V32.4c-0.3-4.8-3.7-7.4-7.3-7.8c1.9,1.7,2.6,3.7,2.1,6.2c1.3,1.1,1.3,2.6,0.6,3.6
		c-0.6,0.8-1.8,1.3-2.8,0.5c-1.2-0.9-1.3-1.9-1.3-2.5c0.1-0.9,0.6-1.7,1.4-2c0.4-0.2,0.8-0.2,1.2-0.1c0.3-2.3-0.6-4-2.8-5.7
		c-0.2,0-0.4,0-0.7,0.1c0,0,0,0,0,0c0.3,1.1,0.8,3.4,0.9,4.1l0.2,0.9l-0.8-0.3c-2.3-0.9-3.8-0.9-5.3-0.1c-0.1,0.6-0.2,1.3-0.2,1.9
		l-0.5,0l0.5,0.1c-0.3,2.1-0.2,4.3-0.2,5.8c0,0.4,0,0.8,0,1.1h-1c0-0.3,0-0.7,0-1.1c0-1.6-0.1-3.7,0.2-5.9c-0.2-0.7-0.4-1.4-0.6-2
		c-1.5-1-3.9-1.1-5.4,0.5L10,29.1c0.4-0.5,1.2-2.9,1.6-4.8c-0.1,0-0.1,0-0.2-0.1c-0.1,0-0.3-0.1-0.5-0.1c-2.5,2-3.7,3.4-3.4,6.4
		c1.7-0.2,2.3,0.8,2.8,1.5c0.1,0.1,0.1,0.3,0.2,0.4c0.9,1.9,1.9,3.9,2.1,4.2l0.4,0.5l-0.6,0.2c-0.7,0.3-1,0.4-1.1,0.4
		c-0.1,0-0.1,0-0.2,0.1L10.5,37c0.2-0.1,0.2-0.1,0.4-0.2c0.1,0,0.2-0.1,0.5-0.2c-0.6-1.1-1.7-3.4-1.8-3.7c-0.1-0.1-0.1-0.2-0.2-0.4
		c-0.4-0.7-0.8-1.3-2.1-1c-0.3,0.2-1.3,1-1,2.4c0.5,1.6,1,3.3,1.2,4.1C7.8,37.9,8,37.9,8,37.9c0.1,0,0.1-0.1,0.3-0.2l0.4,0.9
		c-0.4,0.2-0.4,0.2-0.5,0.2c-0.1,0-0.2,0.1-0.9,0.3l-0.4,0.2l-0.2-0.4c-0.2-0.4-1-2.8-1.4-4.7c-0.4-1.6,0.5-2.8,1.2-3.4
		c-0.4-3.3,0.8-5,2.8-6.7c-3.8,0.7-7.5,4.8-7.7,8.2L1.5,44.5z M26,31.2c-0.1,0-0.3,0-0.4,0.1c-0.4,0.2-0.8,0.7-0.8,1.2
		c-0.1,0.6,0.2,1.1,0.9,1.6c0.6,0.4,1.1,0.1,1.4-0.3c0.5-0.6,0.4-1.6-0.6-2.4l0,0C26.4,31.3,26.2,31.2,26,31.2z M16.5,28.9l0.5-0.2
		c0,0,0,0.1,0,0.1c0,0,0,0,0,0c0.6-2.3,2.4-4.1,4.7-4.8c-1.2-1.1-2-2.5-2.3-3.6c-0.7,0.4-1.4,0.6-2.2,0.6c-0.9,0-1.9-0.2-2.8-0.7
		c-0.2,1-0.8,2.5-1.8,3.3c1.8,0.8,3.3,2.5,4.3,5.1L16.5,28.9z M20.2,27.6c0.8,0,1.6,0.2,2.6,0.5c-0.2-0.8-0.5-2.1-0.7-3.2
		c-1.6,0.5-2.9,1.6-3.6,3C19,27.7,19.6,27.6,20.2,27.6z M12.5,24.6c-0.2,1-0.6,2.3-0.9,3.3c1.3-0.6,2.7-0.6,3.9-0.1
		C14.7,26.2,13.7,25.2,12.5,24.6z M11.4,23.7L11.4,23.7L11.4,23.7z M10.7,23.6L10.7,23.6L10.7,23.6z M11.4,9.9
		c0.1,6.6,2.1,10,5.9,10.1c0.9-0.1,1.7-0.3,2.3-0.8l0.3,0.4l-0.3-0.4c2.4-1.8,3-5.9,3-9.2c-0.5-0.4-2.6-0.9-5.8-0.9
		C13.5,9.1,11.7,9.6,11.4,9.9z M23.1,9.7L23.1,9.7z M16.9,8.1c2.1,0,4.4,0.2,5.7,0.7c0-1.9-0.2-4.1-0.5-6.2c-0.3-0.4-1.6-0.9-3.7-1
		c-2.9-0.2-5.6,0.3-6.5,1.1l0,0.3c-0.1,1-0.5,3.3-0.5,5.9c0.6-0.2,1.5-0.4,2.9-0.6C15,8.1,15.9,8.1,16.9,8.1z M26.3,42.4l-3.9-1.6
		V37h7.2v3.8L26.3,42.4z M23.4,40.1l2.8,1.2l2.3-1.2V38h-5.2V40.1z M17.6,7.5h-1V5.7h-2v-1h2V2.9h1v1.8h1.8v1h-1.8V7.5z"/>
</g>
</svg>
