<svg width="35" height="37" viewBox="0 0 35 37" fill="none" xmlns="http://www.w3.org/2000/svg">
<path fill-rule="evenodd" clip-rule="evenodd" d="M11.2352 3.65141C12.4698 1.74258 14.5611 0.5 17.6246 0.5C20.8172 0.5 22.9618 1.73536 24.2011 3.6514C25.4218 5.53857 25.7152 8.00984 25.394 10.4195C25.072 12.8344 24.1252 15.2534 22.7813 17.0802C21.4451 18.8965 19.6517 20.2069 17.6246 20.2069C15.5186 20.2069 13.7167 18.9013 12.4027 17.0761C11.0845 15.2448 10.2018 12.8225 9.93715 10.4079C9.67295 7.99771 10.0186 5.53237 11.2352 3.65141ZM13.2143 16.4918C14.4254 18.1741 15.9624 19.2069 17.6246 19.2069C19.1999 19.2069 20.7315 18.179 21.9758 16.4876C23.2123 14.8069 24.1012 12.5492 24.4027 10.2874C24.7049 8.02033 24.4095 5.81488 23.3615 4.1945C22.3321 2.603 20.5281 1.5 17.6246 1.5C14.8692 1.5 13.1089 2.59578 12.0749 4.1945C11.0228 5.82107 10.6827 8.03246 10.9312 10.299C11.1792 12.5612 12.0076 14.8155 13.2143 16.4918ZM13.3889 20.9928L13.5599 21.179C14.5562 22.2639 16.0745 22.8276 17.625 22.8276C19.1755 22.8276 20.6938 22.2639 21.6901 21.179L21.8386 21.0172H22.0583C26.6168 21.0172 29.8263 22.5761 31.878 25.2889C33.9106 27.9766 34.75 31.7234 34.75 36V36.5H0.5V36C0.5 31.7901 0.765883 28.3176 2.5278 25.7595C4.31364 23.1666 7.54284 21.6294 13.1375 21.0202L13.3889 20.9928ZM22.2706 22.0184C21.0552 23.237 19.3253 23.8276 17.625 23.8276C15.9355 23.8276 14.2167 23.2445 13.0026 22.0416C7.67217 22.6562 4.86763 24.1252 3.35136 26.3267C1.85037 28.506 1.52491 31.5116 1.50143 35.5H33.746C33.6821 31.549 32.8526 28.2355 31.0804 25.8921C29.283 23.5155 26.4616 22.0657 22.2706 22.0184Z" fill="#5770BE"/>
</svg>
