<svg width="54" height="54" viewBox="0 0 54 54" fill="none" xmlns="http://www.w3.org/2000/svg">
<path fill-rule="evenodd" clip-rule="evenodd" d="M51.1458 17.313C50.7501 16.3239 50.2919 15.367 49.7762 14.4364L49.2892 13.5971C48.6209 12.484 47.8712 11.4303 47.0495 10.4361C46.7075 10.0255 46.1094 9.85222 45.5387 10.0338L39.1658 12.0589L38.7515 11.7405C37.4068 10.7069 35.9226 9.8447 34.3398 9.19355L33.8554 8.99427L32.4252 2.46114C32.2941 1.86423 31.8508 1.4424 31.3215 1.35611L31.318 1.35554C29.9167 1.12198 28.474 1 27 1C25.5259 1 24.0856 1.12199 22.6889 1.3649L22.6785 1.36671C22.1492 1.45301 21.7059 1.87478 21.5747 2.47169L20.1445 9.00482L19.6601 9.2041C18.0773 9.85524 16.5932 10.7174 15.2485 11.751L14.8342 12.0695L8.46158 10.0444C7.88303 9.86036 7.29042 10.0318 6.95393 10.4424L6.95124 10.4457C6.12932 11.4401 5.37932 12.494 4.71082 13.6075L4.22375 14.4469C3.60558 15.5626 3.06993 16.7158 2.62569 17.9172C2.43883 18.4263 2.58817 19.024 3.03085 19.4218L3.0355 19.426L7.98936 23.9337L7.92061 24.4525C7.81003 25.2868 7.74998 26.1394 7.74998 27C7.74998 27.8604 7.81 28.7134 7.92081 29.5596L7.98863 30.0775L3.03086 34.5888C2.58809 34.9866 2.43878 35.5844 2.62579 36.0937C3.07001 37.2949 3.60562 38.448 4.22374 39.5636L4.7108 40.403C5.37907 41.5161 6.12878 42.5697 6.95036 43.5638C7.29225 43.9744 7.89015 44.1477 8.46063 43.9664C8.46083 43.9663 8.46043 43.9665 8.46063 43.9664L14.8225 41.9297L15.2379 42.249C16.5826 43.2826 18.0668 44.1448 19.6496 44.7959L20.134 44.9952L21.5642 51.5283C21.6954 52.1252 22.1386 52.547 22.6679 52.6333L22.6714 52.6339C24.0727 52.8675 25.5154 52.9895 26.9894 52.9895C28.4635 52.9895 29.9061 52.8675 31.3075 52.6339L31.3109 52.6333C31.8402 52.547 32.2835 52.1252 32.4147 51.5283L33.8449 44.9952L34.3293 44.7959C35.9121 44.1448 37.3963 43.2826 38.7409 42.249L39.1552 41.9305L45.5278 43.9556C46.1064 44.1396 46.699 43.9682 47.0355 43.5576L47.0382 43.5543C47.8601 42.5599 48.6101 41.5059 49.2786 40.3924L49.7657 39.553C50.3839 38.4374 50.9195 37.2841 51.3637 36.0828C51.5506 35.5737 51.4012 34.976 50.9586 34.5782L50.9539 34.574L46 30.0663L46.0688 29.5475C46.1794 28.7132 46.2394 27.8606 46.2394 27C46.2394 26.1394 46.1794 25.2868 46.0688 24.4525L46 23.9337L50.9586 19.4218C51.4015 19.0238 51.5507 18.4256 51.3634 17.9163L51.1427 17.3162L51.1458 17.313ZM52.3019 36.4289C51.8379 37.684 51.2789 38.8863 50.6355 40.0465L50.1398 40.9008C49.4437 42.0609 48.6633 43.1578 47.809 44.1914C47.1867 44.9508 46.1531 45.2039 45.225 44.9086L39.3504 43.0418C37.9371 44.1281 36.3762 45.0352 34.7097 45.7207L33.3914 51.743C33.1804 52.7027 32.4422 53.4621 31.4719 53.6203C30.0164 53.8629 28.5187 53.9895 26.9894 53.9895C25.4601 53.9895 23.9625 53.8629 22.507 53.6203C21.5367 53.4621 20.7984 52.7027 20.5875 51.743L19.2691 45.7207C17.6027 45.0352 16.0418 44.1281 14.6285 43.0418L8.76443 44.9191C7.83631 45.2145 6.80271 44.9508 6.18045 44.202C5.32615 43.1684 4.54568 42.0715 3.84959 40.9113L3.35388 40.057C2.71053 38.8969 2.15154 37.6945 1.68748 36.4395C1.34998 35.5219 1.63474 34.4988 2.36248 33.8449L6.92928 29.6895C6.81326 28.8035 6.74998 27.907 6.74998 27C6.74998 26.093 6.81326 25.1965 6.92928 24.3211L2.36248 20.1656C1.63474 19.5117 1.34998 18.4887 1.68748 17.5711C2.15154 16.316 2.71053 15.1137 3.35388 13.9535L3.84959 13.0992C4.54568 11.9391 5.32615 10.8422 6.18045 9.80859C6.80271 9.04922 7.83631 8.79609 8.76443 9.09141L14.639 10.9582C16.0523 9.87187 17.6133 8.96484 19.2797 8.2793L20.598 2.25703C20.809 1.29727 21.5472 0.537891 22.5176 0.379687C23.973 0.126562 25.4707 0 27 0C28.5293 0 30.0269 0.126563 31.4824 0.369141C32.4527 0.527344 33.191 1.28672 33.4019 2.24648L34.7203 8.26875C36.3867 8.9543 37.9476 9.86133 39.3609 10.9477L45.2355 9.08086C46.1637 8.78555 47.1972 9.04922 47.8195 9.79805C48.6738 10.8316 49.4543 11.9285 50.1504 13.0887L50.6461 13.943C51.2894 15.1031 51.8484 16.3055 52.3125 17.5605L52.3019 17.5711C52.6394 18.4887 52.3547 19.5117 51.6269 20.1656L47.0601 24.3211C47.1762 25.1965 47.2394 26.093 47.2394 27C47.2394 27.907 47.1762 28.8035 47.0601 29.6789L51.6269 33.8344C52.3547 34.4883 52.6394 35.5113 52.3019 36.4289ZM36.4375 27C36.4375 32.214 32.214 36.4375 27 36.4375C21.786 36.4375 17.5625 32.214 17.5625 27C17.5625 21.786 21.786 17.5625 27 17.5625C32.214 17.5625 36.4375 21.786 36.4375 27ZM35.4375 27C35.4375 31.6617 31.6617 35.4375 27 35.4375C22.3383 35.4375 18.5625 31.6617 18.5625 27C18.5625 22.3383 22.3383 18.5625 27 18.5625C31.6617 18.5625 35.4375 22.3383 35.4375 27Z" fill="#5770BE"/>
</svg>
