<svg width="16" height="14" viewBox="0 0 16 14" fill="none" xmlns="http://www.w3.org/2000/svg">
<g clip-path="url(#clip0_317_369)">
<path d="M8.88938 13.9999C7.41952 14.003 5.98492 13.5541 4.7834 12.7152C3.94758 12.1302 3.24762 11.3749 2.73042 10.4999C2.71331 10.4766 2.70134 10.45 2.69526 10.4219C2.68919 10.3937 2.68914 10.3646 2.69514 10.3364C2.70113 10.3082 2.71303 10.2816 2.73007 10.2582C2.7471 10.2349 2.76889 10.2153 2.79403 10.2009C2.81916 10.1864 2.84708 10.1773 2.87599 10.1742C2.90489 10.1711 2.93413 10.174 2.96183 10.1828C2.98952 10.1916 3.01504 10.206 3.03674 10.2252C3.05844 10.2443 3.07584 10.2678 3.08782 10.2941C3.8291 11.5494 4.96552 12.5291 6.32278 13.0829C7.68004 13.6368 9.1832 13.7343 10.6017 13.3603C12.0203 12.9864 13.2758 12.1618 14.1759 11.0129C15.0759 9.86397 15.5707 8.45426 15.5844 6.99994C15.5756 5.24747 14.866 3.56993 13.611 2.33498C12.356 1.10003 10.6581 0.408415 8.88938 0.411706V0.411706C7.98478 0.415057 7.09016 0.599109 6.259 0.952856C5.42783 1.3066 4.6772 1.82278 4.05197 2.47053L3.29145 3.31465C3.27386 3.33629 3.25202 3.35418 3.22726 3.36724C3.2025 3.3803 3.17533 3.38826 3.14738 3.39063C3.11943 3.39301 3.09129 3.38975 3.06465 3.38106C3.038 3.37237 3.01341 3.35842 2.99235 3.34006C2.9713 3.3217 2.95421 3.29931 2.94212 3.27423C2.93003 3.24915 2.92319 3.2219 2.92202 3.19413C2.92084 3.16637 2.92535 3.13865 2.93528 3.11266C2.9452 3.08666 2.96034 3.06293 2.97977 3.04288L3.74029 2.17406C4.40543 1.48418 5.20588 0.936293 6.09249 0.564059C6.97381 0.18146 7.92724 -0.0108425 8.88938 -5.85674e-05C10.7631 -5.85674e-05 12.5601 0.737439 13.885 2.05019C15.21 3.36295 15.9543 5.14343 15.9543 6.99994C15.9543 8.85646 15.21 10.6369 13.885 11.9497C12.5601 13.2624 10.7631 13.9999 8.88938 13.9999Z" fill="#5770BE"/>
<path d="M4.79583 6.38238H0.606737C0.529117 6.3814 0.452455 6.36525 0.381141 6.33487C0.309828 6.30449 0.245266 6.26046 0.191152 6.20532C0.135496 6.1517 0.0910636 6.08773 0.060399 6.01708C0.0297344 5.94642 0.0134407 5.87046 0.0124512 5.79355V1.63061C0.0152432 1.51305 0.0527753 1.39887 0.120401 1.30223C0.188026 1.20558 0.282774 1.13071 0.392915 1.08689C0.503055 1.04306 0.62375 1.0322 0.740055 1.05566C0.856361 1.07911 0.96317 1.13585 1.04726 1.21885L0.901802 1.36297L1.04726 1.21885L5.22388 5.35708C5.30765 5.4404 5.36491 5.54623 5.38859 5.66146C5.41226 5.7767 5.4013 5.89628 5.35707 6.00541C5.31283 6.11454 5.23727 6.20842 5.13973 6.27542C5.04219 6.34242 4.92695 6.37961 4.8083 6.38238H4.79583ZM0.610893 1.4412C0.584997 1.43458 0.557827 1.43458 0.531932 1.4412C0.494909 1.45666 0.46374 1.48327 0.442852 1.51727C0.421963 1.55127 0.412417 1.59093 0.415568 1.63061V5.7812C0.416589 5.83144 0.435757 5.87965 0.469594 5.91708C0.507372 5.95061 0.556031 5.9696 0.606737 5.97061H4.79583C4.8331 5.97035 4.86948 5.95929 4.90049 5.93881C4.9315 5.91832 4.95579 5.8893 4.97037 5.85532C4.98528 5.82087 4.98929 5.78274 4.98187 5.74598C4.97445 5.70923 4.95595 5.67556 4.92882 5.64944L0.739724 1.49885C0.723664 1.48067 0.703852 1.46611 0.681627 1.45616C0.659401 1.44622 0.63528 1.44112 0.610893 1.4412V1.4412Z" fill="#5770BE"/>
</g>
<defs>
<clipPath id="clip0_317_369">
<rect width="16" height="14" fill="white"/>
</clipPath>
</defs>
</svg>
