<?xml version="1.0" encoding="utf-8"?>
<!-- Generator: Adobe Illustrator 25.3.0, SVG Export Plug-In . SVG Version: 6.00 Build 0)  -->
<svg version="1.1" id="Calque_1" xmlns="http://www.w3.org/2000/svg" xmlns:xlink="http://www.w3.org/1999/xlink" x="0px" y="0px"
	 viewBox="0 0 44 50" style="enable-background:new 0 0 44 50;" xml:space="preserve">
<style type="text/css">
	.st0{fill:#E8AA05;}
</style>
<g>
	<path class="st0" d="M42.6,16.9L42.6,16.9c0.5-2.4,0.2-4.1-0.5-5.3c-0.8-1.2-2.1-2.1-3.9-2.6l0,0l0,0c-2.4-0.8-4.4-0.5-5.8,0.6
		c-1.4,1-2.3,2.9-2.6,5.4l0,0l0,0c-0.1,0.3-0.1,0.5-0.1,0.7c0,0.1,0,0.2,0.1,0.2c0,0,0,0.1,0.1,0.1c0.1,0.2,0.4,0.6,0.6,1.1l0,0.1
		l0,0.1c0.1,2.1,0.5,3.2,1.5,4.1l0.2,0.1v0.2c0,0.4-0.3,0.7-0.5,0.9c-0.2,0.2-0.4,0.3-0.6,0.3c-1.5,1-2.9,1.8-4.6,2.2
		c-1.5,0.4-3.1,0.5-5.1,0.5c0.1,0.3,0.3,0.5,0.4,0.9c0.3,0.9,0.6,2.1,0.8,3.3c0.4,2.4,0.6,5.1,0.6,7.3c0,0,0,0,0,0
		c0.2,0,0.5,0,0.7,0c0.4,0,0.9-0.1,1.2-0.4c0-2,0.4-3.7,1.2-5.2c0.8-1.5,1.9-2.8,3.4-4c0.2-0.2,0.5-0.1,0.7,0.1
		c0.2,0.2,0.1,0.5-0.1,0.7c-1.4,1.2-2.4,2.3-3.1,3.7c-0.7,1.4-1.1,2.9-1.1,4.9c0,1.4,0.2,3,0.6,4.8c0.1,0.3,0.1,0.5,0.2,0.7
		c0.1,0.2,0.1,0.3,0.2,0.4C27,43,27,43,27.1,43c0.1,0,0.2,0,0.5-0.1c0.2-0.1,0.4-0.2,0.6-0.2c0.2,0,0.5-0.1,0.7-0.1
		c0.4,0,0.9,0,1.4,0c0.1,0,0.2,0,0.3,0c0.5,0,0.9,0,1.2,0c0-0.4-0.1-0.8-0.3-1.1C31.2,41.3,30.9,41,30,41c-0.2,0-0.3,0-0.4,0
		c-0.1,0-0.1,0-0.2,0c-0.2,0-0.5,0-0.7-0.1l-0.6-0.2l0.3-0.5c0.2-0.4,0.4-1,0.5-1.8c0.1-0.8,0.1-1.8,0.1-3v-0.3l0.3-0.1
		c0.5-0.2,1-0.7,1.5-1.6c0.3-0.5,0.6-1,1-1.6c0.2-0.4,0.5-0.8,0.7-1.2c0.1-0.2,0.5-0.3,0.7-0.2c0.2,0.1,0.3,0.5,0.2,0.7
		c-0.2,0.4-0.5,0.8-0.7,1.1c-0.3,0.5-0.6,1-0.9,1.4l3.8,7.1l0,0.1c0.1,0.4,0.2,0.7,0.4,0.9c0.1,0.2,0.3,0.3,0.5,0.3
		c0.4,0.1,1,0.1,1.6-0.1c0.5-0.4,1.2-0.5,1.7-0.6c0.2,0,0.5,0,0.7,0c-0.1-0.2-0.3-0.4-0.5-0.6c-0.6-0.5-1.5-1-2.8-0.7l-0.5,0.1
		l-0.1-0.5c-0.1-0.4-0.3-1.5-0.6-2.9c-0.2-0.8-0.4-1.7-0.6-2.7c-0.6-2.6-1.1-5.1-1.4-6l0-0.1l0-0.1l0,0v0l0,0l0,0l0,0c0,0,0,0,0,0
		c0,0,0,0,0-0.1c0-0.1,0-0.1,0-0.2c0-0.2,0.1-0.5,0.3-0.8c0.2-0.4,0.5-1,0.8-1.4c0,0-0.1,0-0.1,0c-0.3-0.1-0.4-0.4-0.3-0.6
		c0.1-0.3,0.4-0.4,0.6-0.3c0.2,0.1,0.4,0.1,0.7,0.2c0.1,0,0.1,0,0.2,0c1.3,0.2,2.5,0.1,3.5-0.7c1-0.8,1.9-2.2,2.4-4.6l0,0l0,0
		c0.1-0.1,0.1-0.6,0.2-1.1C42.5,17.7,42.6,17.2,42.6,16.9L42.6,16.9z"/>
	<path class="st0" d="M7.3,39c0.4,0,0.8,0.1,1.2,0.1c0.1,0,0.3,0.1,0.4,0.1c0.7-0.5,1.3-0.7,1.9-0.5c0.3,0.1,0.6,0.2,0.9,0.4
		c0.2,0.1,0.3,0.2,0.5,0.4c0.8-0.6,2-0.9,3.5-1c-1.3-1-2.4-2.4-3-3.8c0,0,0,0.1,0,0.1c0.1,0.5,0.2,0.9,0.4,1.2l-0.7,0.7
		c-0.7-0.5-1.4-0.4-2.2-0.2c-0.3,0.1-0.7,0.2-1,0.4c-0.1,0-0.1,0-0.2,0.1c-0.4,0.2-0.8,0.3-1.2,0.4c-0.1,0-0.2,0-0.2,0.1
		c-0.1,0-0.1,0-0.2,0c-0.1,0-0.3,0.1-0.5,0.1c-0.4,0-0.9-0.2-1.3-0.6c-0.1-0.1-0.4-0.3-0.6-0.3c-0.2,0-0.4,0-0.7,0.5
		C3.6,38,2.8,38.5,2.3,39c-0.1,0-0.1,0.1-0.2,0.1c-0.2,0.2-0.4,0.3-0.5,0.4c0,0,0,0,0,0c0.2,0.1,0.4,0.1,0.7,0.1
		c0.6,0.1,1.4,0,2.1-0.3l0,0l0,0C5.3,39,6.4,39,7.3,39z"/>
	<path class="st0" d="M34,27.9c0,0,0,0,0.5,0L34,27.9z"/>
	<path class="st0" d="M8.3,43.1c1-0.4,1.6-0.6,2-0.7c0.5-0.1,0.8-0.1,1.3-0.1h0l0,0c2.1,0.1,6.4,0.3,7.3,0.3
		c1.1-0.1,1.8-0.2,2.2-0.4c0.4-0.2,0.6-0.4,0.7-0.7C22,41,22,40.6,22,39.9c0-0.2,0-0.5,0-0.8c0-0.5,0-1,0-1.6
		c-0.7-3.1-1.8-5.2-3-6.4c-1.2-1.2-2.5-1.6-3.7-1.3c-1.2,0.5-1.8,1.1-2.1,1.8c-0.3,0.7-0.2,1.6,0.2,2.5c0.8,1.9,2.6,3.7,4.6,4.6
		l-0.3,0.9c-2.5-0.6-4.4,0-5.2,0.8l-0.3,0.3l-0.3-0.3c0,0-0.1,0-0.1-0.1c-0.2-0.2-0.4-0.4-0.6-0.5c-0.2-0.1-0.4-0.2-0.5-0.3
		c-0.2-0.1-0.6,0-1.2,0.4c-0.1,0.4-0.3,0.8-0.5,1.3c-0.1,0.3-0.3,0.5-0.5,0.7c-0.2,0.2-0.4,0.4-0.7,0.5c-0.1,0-0.2,0.1-0.3,0.2
		c0,0,0,0.1,0,0.1c0,0,0,0,0.1,0.1C7.6,43,7.8,43.1,8.3,43.1z"/>
	<path class="st0" d="M12.1,32c0-0.2,0.1-0.5,0.2-0.7c0.4-1.1,1.3-1.9,2.7-2.5l0,0l0,0c1.7-0.3,3.3,0.2,4.7,1.6
		c0.9,0.9,1.6,2.1,2.2,3.6c-0.1-1.4-0.3-2.9-0.5-4.2c-0.2-1.2-0.5-2.3-0.8-3.2c-0.1-0.4-0.3-0.7-0.4-1c-0.2-0.2-0.3-0.3-0.3-0.3
		c-2.9-1.2-5.4-0.4-6.9,1.2C11.7,28.1,11.2,30.1,12.1,32z"/>
</g>
</svg>
