<?xml version="1.0" encoding="utf-8"?>
<!-- Generator: Adobe Illustrator 24.1.0, SVG Export Plug-In . SVG Version: 6.00 Build 0)  -->
<svg version="1.1" id="Layer_1" xmlns="http://www.w3.org/2000/svg" xmlns:xlink="http://www.w3.org/1999/xlink" x="0px" y="0px"
	 viewBox="0 0 49 44" style="enable-background:new 0 0 49 44;" xml:space="preserve">
<style type="text/css">
	.st0{fill:#E8AA05;}
</style>
<g>
	<path class="st0" d="M38.3,36.5L38.3,36.5L38.3,36.5c0.3-0.5,0.9-1.2,1.4-1.8c0.3-0.3,0.5-0.6,0.7-0.8c0.2-0.2,0.4-0.4,0.6-0.5
		c0,0,0,0,0-0.1c0-0.1,0-0.3,0-0.5c-0.1-0.4-0.3-0.9-0.6-1.4c-0.3-0.4-0.7-0.8-1-0.9c-0.2,0-0.3-0.1-0.5,0c-0.1,0-0.3,0.1-0.5,0.3
		c-0.1,0.2-0.2,0.4-0.3,0.5c0,0,0,0.1-0.1,0.1c-0.1,0.2-0.2,0.3-0.3,0.5c-0.1,0.2-0.1,0.5,0,1c0.3,1.1-0.4,1.8-0.9,2.3
		c-0.1,0.1-0.2,0.2-0.3,0.3c-0.2,0.1-0.3,0.3-0.4,0.4c-0.2,0.2-0.2,0.3-0.2,0.4C36,36.6,36,36.8,36,37c0.1,0.3,0.3,0.5,0.8,0.5
		C37.4,37.5,38,37.2,38.3,36.5z"/>
	<path class="st0" d="M5.5,20c0,0.3,0,0.7,0.1,1c0,0,0,0,0.1,0c0.2,0,0.5,0.1,0.9,0.1c0.8,0,1.6,0,2.2,0h0.1L9,21.2
		c3.9,2.1,7,2.1,8.3,1.7l1.6-0.4l-1.1,1.2c-1.1,1.2-2,2.4-2.7,3.6c1.8,0.3,4.8,0.6,7.3,0.2l5.1-0.9c0.1-0.6,0.1-1.5,0.1-2.4
		c0-0.5-0.1-0.9-0.2-1.3c0-0.2-0.1-0.3-0.1-0.4c0-0.1,0-0.1-0.1-0.1c0,0,0,0,0,0c0,0,0,0,0,0L25.9,21l1.8,0.5
		c1.9,0.5,3.6,0.5,4.9,0.3c1.3-0.3,2.2-0.8,2.5-1.2l0.2-0.3l0.3,0.1c0.6,0.2,1.4,0.4,2.1,0.4c0.4,0,0.6,0,0.7-0.1
		c0.1,0,0.1-0.1,0.1-0.1c0,0,0,0,0-0.1c0-0.3,0-0.6,0-0.9c0-0.1,0-0.1,0-0.2c0-0.4,0-0.7,0-1c0-0.3-0.1-0.5-0.1-0.5
		c0,0,0-0.1-0.1-0.1l-1.9,0.1c-0.2,0.1-0.4,0.2-0.5,0.3c-0.1,0.1-0.3,0.3-0.3,0.7l-0.1,0.3l-0.3,0.1c-1.6,0.6-3.6,0.7-5.5,0.4
		c-0.9-0.1-1.8-0.4-2.6-0.7c-0.8-0.3-1.4-0.7-1.9-1.3L24.8,17l0.9-0.1c1.5-0.2,2.7-0.8,3.5-2c0.8-1.2,1.1-2.9,0.8-5.3l0,0l0,0
		c0-0.2-0.1-0.6-0.2-1.1c-0.1-0.5-0.2-1-0.3-1.3l0,0l0,0c-0.5-2.4-1.4-3.9-2.6-4.7c-1.2-0.8-2.8-1.1-4.6-0.8l0,0l0,0
		c-2.6,0.2-4.2,1.3-5.1,2.8c-0.9,1.5-1,3.6-0.3,6l0,0l0,0c0,0.4,0.1,0.6,0.1,0.7c0,0.1,0.1,0.1,0.1,0.2c0,0,0.1,0,0.1,0.1
		c0.2,0.1,0.6,0.4,0.9,0.8l0,0l0,0.1c0.9,1.9,1.8,2.8,3.1,3.2l0.3,0.1l0.1,0.3c0.2,0.9-0.1,1.8-0.2,2.1l-0.1,0.3l-0.3,0
		c-0.4,0.1-0.9,0.3-1.5,0.6c-0.1,0.1-0.2,0.1-0.3,0.2c-0.5,0.3-1.1,0.6-1.9,0.9c-1.7,0.7-4,1.2-7.4,0.4l-0.3-0.1L9.7,20
		c-0.1-0.3-0.2-0.5-0.5-0.6c-0.3-0.1-0.5-0.1-0.6-0.1l-0.3,0.1l-0.2-0.1c-0.7-0.5-1.3-0.6-1.6-0.6c-0.3,0-0.5,0.2-0.7,0.4
		C5.7,19.3,5.6,19.6,5.5,20z"/>
	<path class="st0" d="M20.2,39.4c-0.1-0.3-0.2-0.7-0.2-1c0-0.3,0-0.6,0-0.8c0-0.2,0-0.3,0-0.5c0-0.4,0-0.9-0.2-1.3l0,0l0,0
		c0-0.2-0.1-0.2-0.1-0.3c0,0-0.1-0.1-0.2-0.1c-0.2,0-0.5,0-0.9,0.2c-0.4,0.2-0.8,0.4-1,0.7c-0.3,0.3-0.4,0.6-0.4,0.8v0l0,0
		c-0.1,0.5,0,1.4,0.2,2.4c0.2,0.9,0.5,1.9,0.8,2.5c0.8,0.5,1.5,0.5,1.8,0.2C20.4,42.1,20.7,41.3,20.2,39.4z"/>
	<path class="st0" d="M20.6,34.9c0.1-0.9,0-1.5-0.2-2c-0.3-0.8-1-1.3-1.9-1.5c-0.9-0.3-2-0.3-2.9-0.2c-0.8,0.1-1.4,0.2-1.9,0.3
		c-0.2,1.9,0.3,3.7,1.6,5.4l0.1,0.1v0.2c0,1.4,0.3,2.5,0.8,3.4c0.2,0.3,0.4,0.6,0.6,0.8c-0.1-0.5-0.3-1-0.4-1.5
		c-0.2-1-0.3-2-0.2-2.7c0-0.6,0.3-1.1,0.7-1.4c0.4-0.4,0.9-0.8,1.4-1c0.5-0.2,1.1-0.4,1.6-0.2C20.1,34.4,20.3,34.5,20.6,34.9
		C20.5,34.8,20.5,34.8,20.6,34.9z"/>
	<path class="st0" d="M30.5,32.8c0.1-0.1,0.2-0.2,0.3-0.4l0.5-0.5l0.3,0.6c0.2,0.3,0.5,0.8,0.9,1.2c0.4,0.4,1,0.7,1.5,0.7
		c0.6,0,1,0.3,1.3,0.6c0,0.1,0.1,0.1,0.1,0.2c0.2-0.2,0.3-0.3,0.5-0.5c0.1-0.1,0.2-0.1,0.2-0.2c0.5-0.5,0.7-0.8,0.6-1.3
		c-0.1-0.5-0.1-0.9-0.1-1.3c-2.4-3-4-4.4-5.2-4.9c-1.1-0.5-2-0.2-3.4,0.4c-1.2,1.1-1.8,3.2-1.7,5c0,0.9,0.2,1.8,0.4,2.4
		c0.1,0.3,0.3,0.6,0.4,0.7c0.1,0.1,0.1,0.1,0.2,0.2C28.4,35.1,29.3,34.1,30.5,32.8z"/>
	<path class="st0" d="M22.6,28.5c-2.9,0.5-6.2,0.1-8-0.2c-0.3,0.7-0.6,1.4-0.7,2c0.5-0.1,1-0.2,1.6-0.2c1-0.1,2.2-0.1,3.3,0.2
		c1.1,0.3,2.1,0.9,2.5,2.1c0.5,1.1,0.4,2.7-0.3,4.7c0,0.2,0,0.3,0,0.4c0,0.1,0,0.2,0,0.3c2.7,0,4.3-0.4,5.7-1.4c0,0-0.1-0.1-0.1-0.1
		c-0.2-0.3-0.4-0.6-0.6-1c-0.3-0.8-0.5-1.8-0.5-2.8c0-1.6,0.3-3.4,1.2-4.7L22.6,28.5z"/>
</g>
</svg>
