<svg id="Calque_1" data-name="Calque 1" xmlns="http://www.w3.org/2000/svg" viewBox="0 0 51 51"><defs><style>.cls-1{fill:#5770be;}</style></defs><path class="cls-1" d="M40.2,43.5H10.6V43c0-2.2,1.9-4.9,3.8-6.8a6.62,6.62,0,0,1-1.9-1.5c-1.6-1.6-3.6-3.5-9.4-3.9h0c-1,0-1.6-1.3-1.6-2.5,0-1.5.8-2.5,2.2-2.5H7.6A9.81,9.81,0,0,1,7,19.7c.4-2.6,3.7-4.8,7.2-4.9A6.36,6.36,0,0,1,21,19.9V20c0,.4,1.4.4,1.4,0V14.9c0-1.2,1-2,2.4-2.2a3,3,0,0,1,3.4,2.1v3.7h2c0-1.8,1.3-3.8,3.9-6.2-.3-2.2.3-3.1.9-3.5,1-.7,2.7-.2,4.9,1.4l.1.1c1,1.2.2,2.3-.5,3.2a4.45,4.45,0,0,0-1.3,3.2c.2.1.3.1.5.2,2.9,1.2,6.2,2.5,4.5,8.8H46a2.52,2.52,0,0,1,2.6,2.8c0,1.6-1,3.3-2.6,3.3-3.7-.6-5.1.6-6.7,2A10.7,10.7,0,0,1,36.2,36a14.28,14.28,0,0,1,4,6.8Zm-28.6-1H38.8a11.83,11.83,0,0,0-4.1-6.1l-.9-.6,1-.3a9.74,9.74,0,0,0,3.7-2.3c1.6-1.5,3.3-3,7.5-2.3.9,0,1.5-1.2,1.5-2.3a1.63,1.63,0,0,0-1.6-1.8H42.7c-4,3.8-14.3,4.1-17.5,4.1-7.7,0-12.5-1.5-15.2-2.7a.31.31,0,0,1-.2-.1c-.1,0-.2-.1-.3-.1a.91.91,0,0,1-.5-.3,11.42,11.42,0,0,1-1.6-.9H3.7c-1,0-1.2,1.1-1.2,1.5,0,.9.4,1.5.6,1.5,6.1.4,8.4,2.5,10,4.1a4,4,0,0,0,2.3,1.5l1,.2-.8.7C13.8,38,11.9,40.6,11.6,42.5ZM9.9,26.9c.1,0,.2.1.4.2l.2.1c2.5,1.2,7.2,2.6,14.7,2.6,6.3,0,13.9-1,16.8-3.8,1.8-5.9-.8-6.9-3.7-8.1-.3-.1-.5-.2-.8-.3l-.3-.1v-.3a5.27,5.27,0,0,1,1.5-4.3c.8-1,1-1.4.6-1.9-1.8-1.2-3.1-1.7-3.8-1.3s-.8,1.3-.5,2.7v.3l-.2.2c-2.7,2.4-4,4.4-3.7,6l-.5.1.5-.1c.2,1.4,1.4,2.5,2.9,3.7l-.6.8c-1.2-1-2.7-2.3-3.2-3.9H28.1v4.6a3.91,3.91,0,0,1-1.8,3,6.74,6.74,0,0,1-6.6-.1l.4-.9c2.1,1,4.2,1.1,5.6.1a2.7,2.7,0,0,0,1.4-2.1V19h0V15a2.09,2.09,0,0,0-2.3-1.3c-.7.1-1.5.4-1.5,1.2V20c0,.8-.7,1.3-1.7,1.3s-1.7-.5-1.7-1.2a5.4,5.4,0,0,0-5.8-4.3c-3,.1-5.8,2-6.2,4.1-.7,4.3.9,6.3,1.7,6.9C9.7,26.8,9.8,26.9,9.9,26.9Z"/></svg>