<?xml version="1.0" encoding="utf-8"?>
<!-- Generator: Adobe Illustrator 24.1.0, SVG Export Plug-In . SVG Version: 6.00 Build 0)  -->
<svg version="1.1" id="Layer_1" xmlns="http://www.w3.org/2000/svg" xmlns:xlink="http://www.w3.org/1999/xlink" x="0px" y="0px"
	 viewBox="0 0 50 37" style="enable-background:new 0 0 50 37;" xml:space="preserve">
<style type="text/css">
	.st0{fill:#E8AA05;}
</style>
<g>
	<path class="st0" d="M48.2,19.9c-0.3-0.4-0.7-0.6-1.3-0.6h-3.4c-1.7,1.6-4.5,2.6-7.7,3.2c-3.3,0.7-7.1,0.9-10.6,0.9
		c-7.5,0-12.6-1.3-15.8-2.8c0,0-0.1-0.1-0.2-0.1c0,0,0,0-0.1,0c-0.1,0-0.2-0.1-0.2-0.1c0,0,0,0,0,0l0,0c-0.1,0-0.1,0-0.2-0.1
		c-0.1,0-0.2-0.1-0.3-0.2c-0.6-0.3-1.3-0.7-1.6-0.9h-4c-0.5,0-0.7,0.2-0.9,0.4c-0.2,0.3-0.3,0.7-0.3,1.1c0,0.5,0.1,0.9,0.3,1.2
		c0.2,0.3,0.3,0.4,0.4,0.4h0l0,0c4.8,0.3,7.3,1.6,9.1,3c0.4,0.3,0.8,0.7,1.1,1c0.1,0.1,0.2,0.2,0.2,0.2c0.2,0.2,0.5,0.4,0.7,0.6
		c0.6,0.5,1.1,0.8,1.7,1l1,0.2l-0.8,0.7c-1.1,0.9-2.2,2.2-3,3.4c-0.7,1.1-1.1,2.1-1.3,3h28.5c-0.9-3-2.8-5.3-4.3-6.3l-0.9-0.6
		l1.1-0.3c1.7-0.5,2.7-1.4,3.8-2.3c0.3-0.3,0.7-0.6,1-0.9c0.7-0.6,1.6-1.1,2.7-1.4c1.1-0.3,2.4-0.4,4.1-0.1c0.4,0,0.8-0.2,1.1-0.6
		c0.3-0.4,0.5-1,0.6-1.6C48.5,20.8,48.4,20.2,48.2,19.9z"/>
	<path class="st0" d="M20.3,13.4c-0.3-0.2-0.6-0.5-0.6-1c-0.5-1.8-1.4-3-2.6-3.6C15.9,8.1,14.5,7.9,13,8c-1.4,0.1-2.9,0.7-3.9,1.4
		c-1.1,0.8-1.8,1.7-2,2.7c-0.8,4.5,1,6.6,1.8,7.1c0.1,0.1,0.2,0.1,0.4,0.2c0.1,0,0.2,0.1,0.3,0.2l0.2,0.1l0.1,0c0,0,0,0,0,0
		c3,1.4,8,2.7,15.4,2.7c3.4,0,7.1-0.3,10.4-0.9c3.2-0.6,5.8-1.6,7.2-3c1-3.5,0.6-5.2-0.4-6.3c-0.5-0.6-1.2-1-1.9-1.4
		c-0.5-0.3-1.1-0.5-1.6-0.7C38.6,10,38.3,9.9,38,9.7l-0.3-0.1l0-0.3c-0.3-2,0.7-3.4,1.5-4.3c0.4-0.5,0.7-0.9,0.8-1.2
		c0.1-0.1,0.1-0.3,0-0.4C40,3.3,40,3.2,39.8,3c-1.1-0.7-1.9-1.2-2.6-1.3c-0.7-0.2-1.1-0.1-1.4,0c-0.2,0.1-0.4,0.4-0.5,0.9
		c-0.1,0.5-0.1,1.2,0,2l0,0.3l-0.2,0.2c-3.3,2.9-4.1,4.8-3.9,6.2c0.1,0.7,0.5,1.4,1,2c0.6,0.6,1.3,1.2,2,1.9l-0.6,0.8
		c-0.8-0.6-1.5-1.3-2.2-2c-0.5-0.6-1-1.3-1.2-2.1h-2.2v4.8c0,1.4-1,2.7-2.6,3.4c-1.6,0.7-3.7,0.7-6.2-0.4l0.4-0.9
		c2.2,1.1,4.1,1,5.4,0.4c1.3-0.6,2-1.6,2-2.5V7.1C27,6.2,26,5.8,25,5.8c-0.5,0-1,0.2-1.3,0.4c-0.3,0.2-0.5,0.5-0.5,0.9v5.3
		c0,0.5-0.3,0.9-0.6,1.1c-0.3,0.2-0.7,0.3-1.1,0.3S20.7,13.6,20.3,13.4z"/>
</g>
</svg>
