<svg id="Calque_1" data-name="Calque 1" xmlns="http://www.w3.org/2000/svg" viewBox="0 0 51 51"><defs><style>.cls-1{fill:#5770be;}</style></defs><path class="cls-1" d="M28.76,49.5a.5.5,0,0,1-.5-.5c0-1,.27-3.84.47-5.72-.93.28-1.9.53-2.9.73a.49.49,0,0,1-.59-.39.49.49,0,0,1,.38-.59,31.1,31.1,0,0,0,3.52-.93h0c6.44-2.15,10.42-6.2,11.2-11.42.86-5.75-2.3-12.16-8.08-16.39a9.84,9.84,0,0,1-3.52.72.5.5,0,0,1,0-1,8.79,8.79,0,0,0,3.37-.74h0a4.58,4.58,0,0,0,3-5,26.79,26.79,0,0,1-3.64-3.06l-2-1.84a.5.5,0,1,1,.66-.74c.72.64,1.4,1.27,2,1.84a22,22,0,0,0,3.58,3l.29.1,0,.3a5.43,5.43,0,0,1-2.85,5.94c5.81,4.45,9,11.05,8.06,17-.83,5.53-4.94,9.82-11.58,12.12-.22,2-.51,5.11-.51,6.06A.5.5,0,0,1,28.76,49.5Zm-14.95,0a.5.5,0,0,1-.5-.5V43.77A8.73,8.73,0,0,1,9.53,37.5c-.31-3.59,1.75-7.73,6.12-12.32C17.26,21.21,17.77,13.32,14,4a.5.5,0,0,1,.93-.38c3.95,9.66,3.36,17.9,1.65,22l-.1.16c-4.21,4.4-6.2,8.31-5.91,11.61a7.91,7.91,0,0,0,3.57,5.71h0a15,15,0,0,0,2.19,1.32.5.5,0,1,1-.44.9,15.24,15.24,0,0,1-1.55-.87V49A.5.5,0,0,1,13.81,49.5Zm2.27-24h0Zm6.2,15.85a4.42,4.42,0,0,1-4.17-2.49,5.22,5.22,0,0,1,.35-5.68,6,6,0,0,1,3.39-2,3.51,3.51,0,0,1,.46-2.92,2.13,2.13,0,0,1,1.56-.71h0c.78-2.3,0-5.58-1.16-6.25l-.09-.08a1.1,1.1,0,0,1-.22-1.44,2.48,2.48,0,0,1,3-.47l.28.11a3.79,3.79,0,0,1,2.79,3,3.57,3.57,0,0,1,3.07-2,5,5,0,0,1,4.35,3.56c2.06,7.92-2.48,13.49-5.26,14.59a5.25,5.25,0,0,1-3.45-.09,5.09,5.09,0,0,1-4.31,2.86ZM23.17,32a5.22,5.22,0,0,0-3.93,1.79A4.21,4.21,0,0,0,19,38.38a3.5,3.5,0,0,0,3.72,1.9,4,4,0,0,0,3.61-2.63l.14-.55.53.21a4.71,4.71,0,0,0,3.22.27c2.65-1,6.47-6.42,4.66-13.37a4,4,0,0,0-3.37-2.85h0c-1.23,0-2.23,1-2.82,2.87l-1-.11c-.23-3-1.2-3.37-2.43-3.84L25,20.17c-.89-.36-1.61-.14-1.75.09,0,0,0,0,.05.15,1.56,1,2.35,4.56,1.61,7.13a18.6,18.6,0,0,1,2.38.57c.44.13.85.25,1.24.34a6.25,6.25,0,0,1,2.26-1.27.5.5,0,0,1,.65.28.51.51,0,0,1-.28.65,7.82,7.82,0,0,0-1.79.91,11,11,0,0,1,.45,4.1.5.5,0,0,1-.5.5.5.5,0,0,1-.5-.5,12.46,12.46,0,0,0-.34-3.66c-.46-.1-.95-.24-1.47-.39a12.84,12.84,0,0,0-2.68-.58h0a1.47,1.47,0,0,0-1.25.36A2.72,2.72,0,0,0,22.84,31a6,6,0,0,1,1.47.11A3.39,3.39,0,0,1,27,33.54a.51.51,0,0,1-.37.61.48.48,0,0,1-.6-.36,2.43,2.43,0,0,0-2-1.72A4.73,4.73,0,0,0,23.17,32Z"/></svg>