<svg width="32" height="38" viewBox="0 0 32 38" fill="none" xmlns="http://www.w3.org/2000/svg">
<g clip-path="url(#clip0_312_374)">
<path d="M5.45003 37.1C5.27699 37.103 5.10533 37.0688 4.94662 36.9998C4.78791 36.9308 4.64585 36.8286 4.53003 36.7C4.40573 36.5568 4.31878 36.3851 4.27691 36.2001C4.23503 36.0152 4.23954 35.8228 4.29003 35.64C4.41003 35.14 4.57003 34.51 4.77003 33.79C5.48924 31.3764 6.01096 28.9082 6.33003 26.41C6.32478 26.356 6.30772 26.3039 6.28007 26.2572C6.25242 26.2105 6.21486 26.1705 6.17003 26.14C4.50857 24.7979 3.08529 23.1853 1.96003 21.37C1.03055 19.8383 0.40893 18.1399 0.130028 16.37C-0.110064 14.7266 -0.0285532 13.0523 0.370029 11.44C0.773372 9.85494 1.45019 8.35241 2.37003 7.00001C4.40857 3.94742 7.45107 1.70446 10.97 0.660007C12.7863 0.112125 14.689 -0.0913712 16.58 0.0600065C18.6784 0.255699 20.7174 0.864011 22.58 1.85001C25.6824 3.35261 28.2253 5.8045 29.84 8.85001C31.1875 11.5962 31.5985 14.7082 31.01 17.71C29.9249 22.6443 27.1258 27.0343 23.11 30.1C18.0744 34.0401 12.0226 36.4678 5.66003 37.1H5.45003ZM5.17003 35.86C5.1499 35.8968 5.13935 35.9381 5.13935 35.98C5.13935 36.0219 5.1499 36.0632 5.17003 36.1C5.2061 36.1363 5.25036 36.1634 5.29908 36.1791C5.3478 36.1947 5.39956 36.1985 5.45003 36.19C11.6458 35.577 17.5407 33.2191 22.45 29.39C26.3161 26.4668 29.0283 22.2746 30.11 17.55C30.6673 14.7452 30.2841 11.835 29.02 9.27001C27.4826 6.38456 25.0608 4.06789 22.11 2.66001C18.7587 0.864952 14.834 0.466018 11.19 1.55001C9.52918 2.04218 7.96848 2.82423 6.58003 3.86001C5.22128 4.8513 4.04684 6.07313 3.11003 7.47001C2.26039 8.73602 1.63776 10.1403 1.27003 11.62C0.901261 13.1183 0.829914 14.6743 1.06003 16.2C1.30732 17.8659 1.88898 19.4647 2.77003 20.9C3.83107 22.6302 5.18451 24.1629 6.77003 25.43C6.9223 25.5485 7.04557 25.7002 7.13048 25.8734C7.21538 26.0467 7.25969 26.237 7.26003 26.43C6.9386 29.0001 6.40341 31.5389 5.66003 34.02C5.46003 34.74 5.29003 35.37 5.17003 35.86V35.86Z" fill="#5770BE"/>
<path d="M15.44 21.25H13.67C13.3759 21.2582 13.0883 21.1625 12.8578 20.9796C12.6273 20.7967 12.4688 20.5383 12.41 20.25C12.1948 19.3102 12.2633 18.3277 12.6068 17.427C12.9504 16.5262 13.5536 15.7476 14.34 15.19C15.84 14.19 16.4 12.65 16.08 11.77C15.9568 11.5057 15.7465 11.2919 15.4842 11.1645C15.222 11.037 14.9239 11.0036 14.64 11.07C14.1057 11.1591 13.5993 11.3707 13.1603 11.6881C12.7214 12.0056 12.3619 12.4204 12.11 12.9C11.9873 13.1165 11.7953 13.2854 11.565 13.3798C11.3347 13.4741 11.0794 13.4882 10.84 13.42C10.6092 13.3287 10.4137 13.1658 10.2823 12.9552C10.1509 12.7446 10.0905 12.4974 10.11 12.25V9.46997C10.11 8.28997 11.2 7.26997 13.02 6.74997C15.41 6.05997 18.61 6.36997 19.81 8.30997C20.5151 9.36728 20.929 10.5917 21.01 11.86C21.0402 13.2863 20.6203 14.6858 19.81 15.86C19.4927 16.2843 19.1035 16.6498 18.66 16.94C18.1382 17.2362 17.7008 17.6608 17.3892 18.1736C17.0777 18.6864 16.9024 19.2704 16.88 19.87C16.8575 20.2389 16.6967 20.5858 16.4299 20.8415C16.163 21.0973 15.8096 21.2431 15.44 21.25V21.25ZM14.87 10.16C15.3099 10.1203 15.7505 10.2272 16.1231 10.4642C16.4957 10.7012 16.7795 11.0548 16.93 11.47C17.44 12.86 16.55 14.8 14.85 15.96C14.2128 16.4158 13.7259 17.0512 13.4516 17.7851C13.1773 18.519 13.128 19.3179 13.31 20.08C13.3326 20.1564 13.3806 20.2228 13.4461 20.2683C13.5115 20.3138 13.5905 20.3355 13.67 20.33H15.44C15.5789 20.3198 15.7087 20.2575 15.8033 20.1554C15.898 20.0533 15.9504 19.9192 15.95 19.78C15.9809 19.0459 16.1946 18.3313 16.5718 17.7008C16.9491 17.0704 17.4778 16.5442 18.11 16.17C18.4679 15.948 18.7829 15.6635 19.04 15.33C19.73 14.3148 20.0802 13.1068 20.04 11.88C19.982 10.7804 19.6373 9.71507 19.04 8.78997C18.7593 8.40376 18.3988 8.08243 17.983 7.84778C17.5672 7.61313 17.1058 7.47064 16.63 7.42997C15.5095 7.2487 14.363 7.31353 13.27 7.61997C11.88 8.01997 11.02 8.72997 11.02 9.45997V12.24C11.02 12.44 11.09 12.53 11.14 12.55C11.19 12.57 11.29 12.55 11.38 12.38C11.704 11.7915 12.1596 11.2859 12.7112 10.9025C13.2628 10.5192 13.8956 10.2685 14.56 10.17L14.87 10.16Z" fill="#5770BE"/>
<path d="M14.8599 27.76C14.4995 27.7711 14.141 27.7035 13.8094 27.5619C13.4779 27.4203 13.1811 27.2081 12.9399 26.94C12.5218 26.4534 12.2944 25.8316 12.2999 25.19C12.2934 24.5573 12.5214 23.9446 12.9399 23.47C13.1835 23.2069 13.4813 22.9999 13.8129 22.8635C14.1445 22.7271 14.5018 22.6645 14.8599 22.68C15.2192 22.6498 15.5808 22.6938 15.9223 22.8092C16.2639 22.9247 16.578 23.1091 16.8453 23.351C17.1126 23.593 17.3272 23.8873 17.476 24.2157C17.6247 24.5441 17.7044 24.8996 17.7099 25.26C17.7126 25.5853 17.6483 25.9077 17.521 26.207C17.3937 26.5064 17.2061 26.7763 16.9699 27C16.3913 27.5166 15.6351 27.789 14.8599 27.76V27.76ZM14.8599 23.59C14.6459 23.59 14.4339 23.6322 14.2362 23.7141C14.0384 23.796 13.8587 23.9161 13.7074 24.0674C13.556 24.2188 13.4359 24.3985 13.354 24.5962C13.2721 24.794 13.2299 25.006 13.2299 25.22C13.2299 25.4341 13.2721 25.646 13.354 25.8438C13.4359 26.0416 13.556 26.2212 13.7074 26.3726C13.8587 26.524 14.0384 26.644 14.2362 26.7259C14.4339 26.8079 14.6459 26.85 14.8599 26.85C15.4024 26.8776 15.9339 26.6908 16.3399 26.33C16.4844 26.19 16.5988 26.0221 16.6762 25.8364C16.7536 25.6507 16.7923 25.4512 16.7899 25.25C16.7889 25.007 16.7364 24.767 16.6359 24.5458C16.5354 24.3245 16.3892 24.1271 16.2068 23.9665C16.0245 23.8058 15.8102 23.6857 15.578 23.6139C15.3459 23.5421 15.1011 23.5204 14.8599 23.55V23.59Z" fill="#5770BE"/>
</g>
<defs>
<clipPath id="clip0_312_374">
<rect width="31.23" height="37.1" fill="white"/>
</clipPath>
</defs>
</svg>
