<svg width="960" height="1024" viewBox="0 0 960 1024" fill="none" xmlns="http://www.w3.org/2000/svg">
<path d="M319.9 871.3C312.3 871.3 305.3 868.3 300.5 862.8C295.2 856.8 293.3 848.6 295.3 840.4C297.9 829.9 301.3 816.6 305.4 801.3C319 749.6 337.6 678.7 338.4 645.5C338.4 643.6 337.2 641.4 335.1 639.7C297.8 609 267.9 575.1 246.2 539C225.9 505.1 212.9 469.3 207.5 432.6C202.4 398 204.1 363 212.5 328.5C220.5 295.6 234.4 264.1 253.9 234.7C274.8 203.2 301.1 175.5 332 152.6C363.5 129.2 398.3 111.8 435.5 100.8C474.5 89.3 514.7 85.3 555 89C598.1 92.9 640.4 105.7 680.8 126.8C752 164 803.6 213.8 834.2 274.7C862.5 331.2 871 395.8 858.9 461.7C841.3 557.3 781.9 650.3 691.8 723.5C593.5 803.4 466.1 854.5 323.3 871.2C322.1 871.3 321 871.3 319.9 871.3ZM314 845.1C313.5 847.1 313.8 848.9 314.9 850.1C316.2 851.6 318.4 852.3 320.9 852C460 835.6 584 786 679.5 708.4C766 638 823 549.1 839.8 458.1C851.2 396.4 843.2 335.9 816.8 283.3C788.1 226.1 739.3 179.2 671.8 143.9C597.6 105.1 517.8 96.7 441 119.4C406 129.7 373.2 146.2 343.6 168.2C314.4 189.9 289.7 215.9 270.1 245.5C251.9 273 238.9 302.5 231.4 333.2C223.6 365.2 222 397.8 226.8 429.9C231.8 464.1 244 497.6 263 529.2C283.5 563.4 311.9 595.6 347.5 624.9C354.3 630.4 358 638.2 357.8 646.1C356.9 681.6 338 753.7 324.1 806.4C320 821.5 316.5 834.7 314 845.1Z" fill="#5770BE"/>
<path d="M530.8 536.5H493.5C480.3 536.5 469.3 528 466.9 515.7C460.1 482.1 467.3 436.4 507.6 408.8C539.2 387.2 551.1 355.1 544.4 336.5C539.3 322.5 525.1 320.8 514 321.8C488.9 324.2 473.7 341.6 461 360.1C454.2 370 444 374.2 434.2 371.2C424.4 368.2 418.1 358.4 418.1 346.4V287.6C418.1 262.7 441 241.2 479.5 230.2C530 215.7 597.5 222.3 623 263.2C638.7 288.3 647.2 313.5 648.2 338.1C649.4 366.3 640.9 394.6 622.9 422.2C616.7 431.7 607.5 438.5 598.6 445.1C581.3 457.8 563.5 471 561.1 507C559.9 523.4 546.6 536.5 530.8 536.5ZM518.8 302.3C540 302.3 556.1 312.3 562.4 329.9C573.1 359.4 554.2 400.2 518.4 424.7C485.9 446.9 480.2 484.3 485.8 511.8C486.5 515.4 490.3 517.1 493.5 517.1H530.8C537.2 517.1 541.4 511.2 541.7 505.4C544.7 460.4 568.2 443.1 587.1 429.2C595.3 423.2 602.4 418 606.7 411.4C622.6 386.9 629.9 363.1 628.9 338.7C628 317.2 620.7 295.8 606.6 273.3C600.3 263.2 586.3 250 555.7 244.6C533.3 240.7 507.5 242.1 484.7 248.7C455.5 257.1 437.3 272 437.3 287.5V346.3C437.3 350.4 438.8 352.4 439.8 352.7C440.9 353 443 351.9 444.9 349.1C459.5 327.9 478.9 305.7 512 302.5C514.3 302.4 516.6 302.3 518.8 302.3Z" fill="#5770BE"/>
<path d="M518.5 674.1C502.1 674.1 488.1 668.1 478.1 656.8C469.3 646.8 464.5 633.7 464.5 619.7C464.5 605.9 469.3 593 478 583.4C484.9 575.8 497.5 566.8 518.5 566.8C558 566.8 578.7 594.1 578.7 621.2C578.7 635.3 573.2 648.3 563.2 658C552.3 668.5 536.8 674.1 518.5 674.1ZM518.5 586C507.5 586 498.4 589.6 492.3 596.3C486.8 602.3 483.8 610.6 483.8 619.6C483.8 636.5 494.7 654.7 518.5 654.7C531.7 654.7 542.5 651 549.8 643.9C556 637.9 559.4 629.8 559.4 621C559.4 604.2 546.6 586 518.5 586Z" fill="#5770BE"/>
</svg>
