<svg width="32" height="38" viewBox="0 0 32 38" fill="none" xmlns="http://www.w3.org/2000/svg">
<g clip-path="url(#clip0_312_369)">
<path d="M19.03 8.79001C18.7493 8.4038 18.3888 8.08247 17.973 7.84782C17.5572 7.61317 17.0957 7.47068 16.62 7.43001C15.4988 7.25231 14.3523 7.32056 13.26 7.63001C11.87 8.02001 11.01 8.73001 11.01 9.46001V12.25C11.01 12.45 11.08 12.54 11.13 12.55C11.18 12.56 11.28 12.55 11.37 12.38C11.6969 11.7949 12.1535 11.2924 12.7047 10.911C13.256 10.5297 13.8872 10.2796 14.55 10.18H14.87C15.3098 10.1481 15.7483 10.2581 16.1209 10.4939C16.4935 10.7297 16.7806 11.0789 16.94 11.49C17.44 12.89 16.55 14.82 14.85 15.98C14.217 16.4419 13.7336 17.0795 13.4598 17.8138C13.186 18.548 13.1339 19.3464 13.31 20.11C13.3328 20.1856 13.3812 20.2509 13.4469 20.2947C13.5126 20.3385 13.5915 20.358 13.67 20.35H15.44C15.5798 20.34 15.7107 20.278 15.807 20.1762C15.9033 20.0743 15.9579 19.9401 15.96 19.8C15.9817 19.0638 16.1905 18.3451 16.5666 17.7118C16.9428 17.0785 17.4739 16.5514 18.11 16.18C18.4662 15.9518 18.7807 15.6643 19.04 15.33C19.7344 14.3206 20.085 13.1144 20.04 11.89C19.9793 10.7863 19.6312 9.71763 19.03 8.79001V8.79001Z" fill="#26366E"/>
<path d="M29.7999 8.85002C28.1852 5.80452 25.6423 3.35263 22.5399 1.85002C20.6773 0.864025 18.6383 0.255713 16.5399 0.0600202C14.6382 -0.109834 12.7214 0.0801459 10.8899 0.62002C7.37251 1.66753 4.33095 3.90979 2.28994 6.96002C1.36902 8.31182 0.692116 9.81455 0.289941 11.4C-0.0891683 13.0161 -0.150303 14.6906 0.109941 16.33C0.390921 18.1008 1.01602 19.7995 1.94994 21.33C3.06909 23.1469 4.48938 24.7599 6.14994 26.1C6.19477 26.1305 6.23234 26.1706 6.25999 26.2172C6.28764 26.2639 6.30469 26.316 6.30994 26.37C5.99184 28.8684 5.4701 31.3366 4.74994 33.75C4.55994 34.47 4.38994 35.1 4.26994 35.6C4.22501 35.784 4.22501 35.9761 4.26994 36.16C4.30688 36.3482 4.39713 36.5217 4.52994 36.66C4.64182 36.7901 4.7821 36.8927 4.93994 36.96C5.10106 37.0287 5.27481 37.0628 5.44994 37.06H5.59994C11.9597 36.4286 18.0085 34.0008 23.0399 30.06C27.0593 26.9897 29.8645 22.5978 30.9599 17.66C31.5402 14.6753 31.1331 11.5828 29.7999 8.85002V8.85002ZM16.9799 27C16.3988 27.5191 15.6385 27.7916 14.8599 27.76C14.5008 27.7724 14.1434 27.7053 13.8133 27.5636C13.4831 27.4218 13.1883 27.2089 12.9499 26.94C12.5216 26.4588 12.2896 25.8342 12.2999 25.19C12.2915 24.557 12.5197 23.9436 12.9399 23.47C13.1843 23.208 13.4823 23.0017 13.8137 22.8654C14.145 22.729 14.5019 22.6658 14.8599 22.68C15.2184 22.6499 15.5792 22.6936 15.92 22.8084C16.2609 22.9232 16.5746 23.1067 16.8417 23.3476C17.1088 23.5885 17.3237 23.8816 17.473 24.2088C17.6224 24.536 17.703 24.8904 17.7099 25.25C17.7127 25.5764 17.648 25.8998 17.5199 26.2C17.3957 26.5004 17.212 26.7725 16.9799 27V27ZM19.7999 15.83C19.4851 16.2567 19.0955 16.6226 18.6499 16.91C18.1269 17.2047 17.6884 17.629 17.3766 18.1422C17.0649 18.6553 16.8904 19.24 16.8699 19.84C16.8549 20.2126 16.6988 20.5655 16.4332 20.8273C16.1677 21.0891 15.8127 21.2402 15.4399 21.25H13.6699C13.3763 21.2563 13.0897 21.1598 12.8596 20.9773C12.6295 20.7947 12.4705 20.5374 12.4099 20.25C12.1947 19.3103 12.2632 18.3278 12.6067 17.427C12.9503 16.5262 13.5535 15.7477 14.3399 15.19C15.8299 14.19 16.3999 12.65 16.0799 11.77C15.9566 11.5064 15.7457 11.2936 15.4832 11.1678C15.2207 11.042 14.9227 11.011 14.6399 11.08C14.1063 11.1673 13.6001 11.3771 13.1612 11.6929C12.7222 12.0086 12.3624 12.4218 12.1099 12.9C11.9872 13.1165 11.7953 13.2855 11.5649 13.3798C11.3346 13.4741 11.0793 13.4883 10.8399 13.42C10.6091 13.3288 10.4136 13.1659 10.2822 12.9553C10.1508 12.7447 10.0904 12.4975 10.1099 12.25V9.46002C10.1099 8.28002 11.1999 7.27002 13.0199 6.75002C15.4099 6.06002 18.5999 6.37002 19.8099 8.31002C20.5106 9.36502 20.9211 10.586 20.9999 11.85C21.0327 13.2705 20.6124 14.6644 19.7999 15.83V15.83Z" fill="#26366E"/>
<path d="M14.8599 23.6C14.6309 23.5871 14.4018 23.6233 14.188 23.706C13.9741 23.7888 13.7804 23.9163 13.6199 24.08C13.3534 24.3876 13.2109 24.7832 13.2199 25.19C13.2086 25.4093 13.2431 25.6285 13.3213 25.8337C13.3994 26.0389 13.5195 26.2255 13.6738 26.3817C13.8281 26.5379 14.0133 26.6602 14.2175 26.7408C14.4217 26.8215 14.6405 26.8586 14.8599 26.85C15.4003 26.8761 15.9302 26.6935 16.3399 26.34C16.4875 26.1995 16.6035 26.029 16.6799 25.84C16.7624 25.6547 16.8001 25.4526 16.7899 25.25C16.7819 25.0113 16.7244 24.7768 16.6208 24.5615C16.5173 24.3463 16.3701 24.1549 16.1885 23.9997C16.0069 23.8445 15.795 23.7288 15.5663 23.6599C15.3375 23.5911 15.0969 23.5707 14.8599 23.6Z" fill="#26366E"/>
</g>
<defs>
<clipPath id="clip0_312_369">
<rect width="31.22" height="37.1" fill="white"/>
</clipPath>
</defs>
</svg>
