<svg width="660" height="784" viewBox="0 0 660 784" fill="none" xmlns="http://www.w3.org/2000/svg">
<g clip-path="url(#clip0_304_17)">
<path d="M401.95 185.73C395.63 175.62 381.67 162.43 351.08 157.04C328.72 153.1 302.86 154.58 280.08 161.1C250.85 169.49 232.69 184.37 232.69 199.94V258.79C232.69 262.91 234.17 264.86 235.17 265.17C236.17 265.48 238.37 264.39 240.29 261.6C254.89 240.35 274.29 218.2 307.39 215.03C309.703 214.81 311.963 214.7 314.17 214.7C335.36 214.7 351.42 224.7 357.8 242.35C368.5 271.89 349.57 312.65 313.8 337.16C281.3 359.4 275.63 396.76 281.17 424.31C281.9 427.93 285.66 429.57 288.85 429.57H326.16C332.53 429.57 336.72 423.64 337.1 417.9C340.1 372.9 363.59 355.63 382.47 341.74C390.67 335.74 397.76 330.49 402.03 323.92C418.03 299.39 425.23 275.6 424.22 251.17C423.33 229.69 416.04 208.28 401.95 185.73Z" fill="#26366E"/>
<path d="M629.46 187C598.92 126.08 547.32 76.32 476.09 39.09C435.71 17.99 393.39 5.29002 350.32 1.34002C310.098 -2.35844 269.539 1.65333 230.82 13.16C156.52 35.2577 92.2811 82.6336 49.2201 147.09C30.1006 175.721 16.1024 207.456 7.85009 240.88C-0.539605 274.926 -2.23771 310.277 2.85009 344.97C8.27009 381.73 21.2901 417.55 41.5601 451.41C63.1801 487.53 93.0701 521.41 130.42 552.15C132.49 553.85 133.75 556.08 133.7 557.98C132.89 591.23 114.27 662.07 100.7 713.79C96.7001 729.1 93.2001 742.32 90.6201 752.86C89.5848 756.74 89.5185 760.814 90.427 764.725C91.3354 768.636 93.1909 772.264 95.8301 775.29C98.2801 777.996 101.278 780.151 104.625 781.609C107.971 783.068 111.59 783.798 115.24 783.75C116.35 783.748 117.458 783.681 118.56 783.55C261.32 766.78 388.74 715.69 487.04 635.81C577.18 562.56 636.53 469.58 654.15 374C666.3 308.13 657.76 243.42 629.46 187ZM358.64 570.28C347.64 580.89 332.2 586.5 313.89 586.5C297.48 586.5 283.52 580.5 273.51 569.19C264.583 558.89 259.731 545.68 259.87 532.05C259.87 518.23 264.65 505.34 273.34 495.78C280.23 488.19 292.86 479.14 313.89 479.14C353.41 479.14 374.1 506.48 374.1 533.49C374.145 540.349 372.798 547.146 370.141 553.47C367.484 559.793 363.571 565.512 358.64 570.28V570.28ZM418.24 334.42C412.05 343.95 402.84 350.72 393.93 357.27C376.65 369.98 358.78 383.13 356.39 419.14C355.29 435.81 342.02 448.87 326.17 448.87H288.86C275.64 448.87 264.7 440.32 262.24 428.08C255.48 394.48 262.61 348.75 302.89 321.19C334.48 299.57 346.4 267.45 339.67 248.9C334.59 234.9 320.33 233.18 309.27 234.23C284.14 236.64 268.94 254.06 256.27 272.52C249.49 282.37 239.27 286.61 229.5 283.59C219.73 280.57 213.39 270.84 213.39 258.79V199.94C213.39 175.02 236.33 153.56 274.77 142.53C325.31 128.04 392.77 134.66 418.31 175.53C434.01 200.64 442.49 225.84 443.51 250.41C444.7 278.54 436.2 306.83 418.24 334.42Z" fill="#26366E"/>
<path d="M313.89 498.47C302.84 498.47 293.77 502.03 287.64 508.77C282.19 514.77 279.19 523.04 279.19 532.05C279.19 548.97 290.05 567.18 313.89 567.18C327.08 567.18 337.89 563.45 345.2 556.39C348.263 553.42 350.69 549.859 352.335 545.922C353.98 541.986 354.809 537.756 354.77 533.49C354.77 516.62 341.98 498.47 313.89 498.47Z" fill="#26366E"/>
</g>
<defs>
<clipPath id="clip0_304_17">
<rect width="659.53" height="783.74" fill="white"/>
</clipPath>
</defs>
</svg>
