<?xml version="1.0" encoding="utf-8"?>
<!-- Generator: Adobe Illustrator 24.1.0, SVG Export Plug-In . SVG Version: 6.00 Build 0)  -->
<svg version="1.1" id="Layer_1" xmlns="http://www.w3.org/2000/svg" xmlns:xlink="http://www.w3.org/1999/xlink" x="0px" y="0px"
	 viewBox="0 0 43 43" style="enable-background:new 0 0 43 43;" xml:space="preserve">
<style type="text/css">
	.st0{fill:#5770BE;}
</style>
<g>
	<path class="st0" d="M33.4,42.5c-7.2,0-15.8-5.8-22.3-13C-0.2,17-1.3,6.9,2.6,2.8c1.5-1.5,3-2.3,4.6-2.3c0,0,0,0,0,0
		c2.7,0,4.9,2,6.9,4.1c2.6,2.6,3.7,5.1,3.4,7.2c-0.3,1.9-1.8,3.6-4.3,5C14.1,21.3,19,28.2,26,29.7c0.9-1.9,2-3.6,4-4.1
		c2.1-0.5,4.9,0.6,8.7,3.4c2.2,1.6,3.7,3.8,3.8,6c0.1,1.8-0.6,3.6-2.2,5.2l0,0C38.2,41.8,35.9,42.5,33.4,42.5z M7.2,1.5
		C7.2,1.5,7.2,1.5,7.2,1.5c-1.4,0-2.7,0.7-3.9,2c-4.8,5.1,0.6,16.6,8.5,25.3c8.5,9.4,20.4,16.3,27.8,10.7c1.4-1.3,2-2.8,1.9-4.3
		c-0.1-1.9-1.4-3.8-3.4-5.3c-3.5-2.6-6.1-3.7-7.9-3.3c-1.6,0.4-2.6,2.1-3.5,3.9l-0.2,0.3l-0.4-0.1c-8-1.5-13.3-9.2-14-14.1l-0.1-0.4
		l0.3-0.2c2.5-1.2,3.9-2.7,4.1-4.4c0.3-1.9-0.7-4-3.1-6.4C11.6,3.4,9.5,1.5,7.2,1.5z"/>
</g>
</svg>
