<svg width="45" height="21" viewBox="0 0 45 21" fill="none" xmlns="http://www.w3.org/2000/svg">
<g clip-path="url(#clip0_601_369)">
<path d="M34.3902 20.36H9.73022C7.09369 20.2892 4.59186 19.1797 2.7695 17.2731C0.94713 15.3664 -0.0482015 12.817 0.000222831 10.18C-0.0482015 7.54296 0.94713 4.99356 2.7695 3.08692C4.59186 1.18027 7.09369 0.0707676 9.73022 0H34.3902C37.0268 0.0707676 39.5286 1.18027 41.3509 3.08692C43.1733 4.99356 44.1686 7.54296 44.1202 10.18C44.1686 12.817 43.1733 15.3664 41.3509 17.2731C39.5286 19.1797 37.0268 20.2892 34.3902 20.36V20.36ZM9.73022 1.02C7.35892 1.0855 5.10937 2.08457 3.4708 3.79992C1.83222 5.51528 0.937146 7.80819 0.980223 10.18C0.937146 12.5518 1.83222 14.8447 3.4708 16.5601C5.10937 18.2754 7.35892 19.2745 9.73022 19.34H34.3902C36.7633 19.2771 39.0154 18.2792 40.6561 16.5635C42.2968 14.8479 43.1933 12.5535 43.1502 10.18C43.1933 7.8065 42.2968 5.51212 40.6561 3.79648C39.0154 2.08084 36.7633 1.08291 34.3902 1.02H9.73022Z" fill="#739C88"/>
<path d="M19.4202 10.1799C19.4202 11.8334 18.9299 13.4497 18.0113 14.8245C17.0927 16.1993 15.787 17.2708 14.2594 17.9036C12.7318 18.5363 11.0509 18.7019 9.42924 18.3793C7.80756 18.0567 6.31795 17.2605 5.14879 16.0914C3.97962 14.9222 3.18341 13.4326 2.86083 11.8109C2.53826 10.1892 2.70382 8.5083 3.33657 6.98071C3.96931 5.45312 5.04084 4.14747 6.41563 3.22886C7.79043 2.31025 9.40675 1.81995 11.0602 1.81995C13.2774 1.81995 15.4038 2.70073 16.9716 4.26853C18.5394 5.83634 19.4202 7.96274 19.4202 10.1799Z" fill="#739C88"/>
</g>
<defs>
<clipPath id="clip0_601_369">
<rect width="44.11" height="20.36" fill="white"/>
</clipPath>
</defs>
</svg>
