<svg width="45" height="21" viewBox="0 0 45 21" fill="none" xmlns="http://www.w3.org/2000/svg">
<g clip-path="url(#clip0_601_372)">
<path d="M0 10.18C0.00528558 12.8783 1.07952 15.4645 2.98749 17.3725C4.89547 19.2805 7.48172 20.3547 10.18 20.36H33.94C36.6399 20.36 39.2292 19.2875 41.1383 17.3783C43.0475 15.4692 44.12 12.8799 44.12 10.18C44.12 7.4801 43.0475 4.89077 41.1383 2.98165C39.2292 1.07253 36.6399 0 33.94 0H10.18C7.48172 0.00528558 4.89547 1.07952 2.98749 2.98749C1.07952 4.89547 0.00528558 7.48172 0 10.18V10.18ZM24.7 10.18C24.7 8.52655 25.1903 6.91023 26.1089 5.53543C27.0275 4.16064 28.3332 3.08912 29.8608 2.45637C31.3884 1.82362 33.0693 1.65806 34.691 1.98064C36.3126 2.30321 37.8022 3.09942 38.9714 4.26859C40.1406 5.43776 40.9368 6.92736 41.2594 8.54905C41.5819 10.1707 41.4164 11.8516 40.7836 13.3792C40.1509 14.9068 39.0794 16.2125 37.7046 17.1311C36.3298 18.0497 34.7135 18.54 33.06 18.54C30.8428 18.54 28.7164 17.6592 27.1486 16.0914C25.5808 14.5236 24.7 12.3972 24.7 10.18Z" fill="#739C88"/>
</g>
<defs>
<clipPath id="clip0_601_372">
<rect width="44.11" height="20.36" fill="white"/>
</clipPath>
</defs>
</svg>
