<svg width="42" height="34" viewBox="0 0 42 34" fill="none" xmlns="http://www.w3.org/2000/svg">
<path fill-rule="evenodd" clip-rule="evenodd" d="M41 9.5H1V27C1 30.3137 3.68629 33 7 33H35C38.3137 33 41 30.3137 41 27V9.5ZM41 8.5H36.7445L30.9112 1H35C38.3137 1 41 3.68629 41 7V8.5ZM42 7C42 3.13401 38.866 0 35 0H6.75C3.02208 0 0 3.02208 0 6.75V27C0 30.866 3.13401 34 7 34H35C38.866 34 42 30.866 42 27V7ZM1 8.5H12.044L6.83571 1H6.75C3.57436 1 1 3.57436 1 6.75V8.5ZM8.05318 1L13.2615 8.5H20.0221L14.6055 1H8.05318ZM15.839 1L21.2557 8.5H27.9777L22.1443 1H15.839ZM23.4112 1L29.2445 8.5H35.4777L29.6443 1H23.4112ZM18 23.7169V16.6995C18 15.5558 19.2287 14.8328 20.2285 15.3883L26.2434 18.7299C27.2479 19.288 27.2776 20.7219 26.2971 21.3211L20.2822 24.9969C19.2826 25.6077 18 24.8883 18 23.7169ZM19 16.6995V23.7169C19 24.1074 19.4275 24.3472 19.7607 24.1436L25.7757 20.4678C26.1025 20.2681 26.0926 19.7901 25.7578 19.6041L19.7428 16.2624C19.4096 16.0773 19 16.3183 19 16.6995Z" fill="#5770BE"/>
</svg>
