<svg width="58" height="55" viewBox="0 0 58 55" fill="none" xmlns="http://www.w3.org/2000/svg">
<path d="M33.8347 9.94393C25.2252 4.9413 16.7408 5.23115 12.3257 11.3828C0.702609 26.9974 13.1533 39.5 22.7983 41.3394C28 42.3314 30.3553 36 34.178 38.7556C43 45.1149 51.8186 39.6326 50.899 31.1022C49.2946 23.8961 46.4225 17.2582 33.8347 9.94393Z" fill="#5770BE"/>
<path fill-rule="evenodd" clip-rule="evenodd" d="M11.0918 26.0067C11.0918 25.7306 11.3157 25.5067 11.5918 25.5067H33.1533C33.4294 25.5067 33.6533 25.7306 33.6533 26.0067C33.6533 26.2829 33.4294 26.5067 33.1533 26.5067H11.5918C11.3157 26.5067 11.0918 26.2829 11.0918 26.0067ZM11.0918 30.8196C11.0918 30.5434 11.3157 30.3196 11.5918 30.3196H33.1533C33.4294 30.3196 33.6533 30.5434 33.6533 30.8196C33.6533 31.0957 33.4294 31.3196 33.1533 31.3196H11.5918C11.3157 31.3196 11.0918 31.0957 11.0918 30.8196ZM33.6533 35.6324C33.6533 35.9085 33.4294 36.1324 33.1533 36.1324H11.5918C11.3157 36.1324 11.0918 35.9085 11.0918 35.6324C11.0918 35.3562 11.3157 35.1324 11.5918 35.1324H33.1533C33.4294 35.1324 33.6533 35.3562 33.6533 35.6324ZM16.0921 41.4304L15.3947 40.7137C15.7681 40.3504 16.2685 40.1471 16.7895 40.1471H34.5455C35.65 40.1471 36.5455 39.2517 36.5455 38.1471V23.0909C36.5455 21.9864 35.65 21.0909 34.5455 21.0909H10C8.89543 21.0909 8 21.9864 8 23.0909V38.2794C8 39.1448 8.7015 39.8463 9.56684 39.8463C10.3554 39.8463 10.9947 40.4855 10.9947 41.2741V44.9953L15.3947 40.7137L16.0921 41.4304ZM10 20.0909H34.5455C36.2023 20.0909 37.5455 21.4341 37.5455 23.0909V38.1471C37.5455 39.8039 36.2023 41.1471 34.5455 41.1471H16.7895C16.529 41.1471 16.2788 41.2487 16.0921 41.4304L10.8433 46.5378C10.5265 46.8462 9.99465 46.6216 9.99465 46.1795V41.2741C9.99465 41.0378 9.80312 40.8463 9.56684 40.8463C8.14922 40.8463 7 39.6971 7 38.2794V23.0909C7 21.4341 8.34315 20.0909 10 20.0909Z" fill="#FFF"/>
<path fill-rule="evenodd" clip-rule="evenodd" d="M49.5 16C49.5 14.067 47.933 12.5 46 12.5H21.4545C19.5215 12.5 17.9545 14.067 17.9545 16V20.0207C17.9545 20.2969 18.1784 20.5207 18.4545 20.5207C18.7307 20.5207 18.9545 20.2969 18.9545 20.0207V16C18.9545 14.6193 20.0738 13.5 21.4545 13.5H46C47.3807 13.5 48.5 14.6193 48.5 16V30.7734C48.5 31.9149 47.5746 32.8402 46.4332 32.8402C45.9207 32.8402 45.5053 33.2556 45.5053 33.768L45.5053 38.5596L40.2516 33.5495C39.9726 33.2834 39.6019 33.135 39.2164 33.135H37.467C37.1909 33.135 36.967 33.3589 36.967 33.635C36.967 33.9112 37.1909 34.135 37.467 34.135H39.2164C39.3449 34.135 39.4684 34.1845 39.5614 34.2732L44.8152 39.2833C45.4517 39.8902 46.5053 39.4391 46.5053 38.5596V33.8394C48.1658 33.8011 49.5 32.443 49.5 30.7734V16Z" fill="#FFF"/>
</svg>
