<svg width="57" height="55" viewBox="0 0 57 55" fill="none" xmlns="http://www.w3.org/2000/svg">
<path d="M33.0937 9.94393C24.4842 4.9413 15.9998 5.23115 11.5847 11.3828C-0.0383575 26.9974 12.4123 39.5 22.0574 41.3394C27.259 42.3314 29.6143 36 33.437 38.7556C42.259 45.1149 51.0776 39.6326 50.158 31.1022C48.5536 23.8961 45.6815 17.2582 33.0937 9.94393Z" fill="#EBF6F8"/>
<path fill-rule="evenodd" clip-rule="evenodd" d="M44.7234 18H10C8.89543 18 8 18.8954 8 20V43C8 44.1046 8.89543 45 10 45H44.7234C45.828 45 46.7234 44.1046 46.7234 43V20C46.7234 18.8954 45.828 18 44.7234 18ZM10 17C8.34315 17 7 18.3431 7 20V43C7 44.6569 8.34315 46 10 46H44.7234C46.3803 46 47.7234 44.6569 47.7234 43V20C47.7234 18.3431 46.3803 17 44.7234 17H10Z" fill="#26366E"/>
<path fill-rule="evenodd" clip-rule="evenodd" d="M46.8873 18.1837C47.062 18.3976 47.0302 18.7126 46.8163 18.8873L32.2196 30.8081L40.6348 38.4998C40.8386 38.6861 40.8528 39.0023 40.6665 39.2062C40.4802 39.41 40.1639 39.4242 39.9601 39.2379L31.4381 31.4485L29.3699 33.1504C28.0655 34.2238 26.1806 34.2123 24.8893 33.1232L22.9205 31.4625L15.016 39.2256C14.819 39.419 14.5024 39.4162 14.3089 39.2192C14.1154 39.0222 14.1183 38.7056 14.3153 38.5121L22.1484 30.8192L7.68184 18.8857C7.46883 18.71 7.43859 18.3949 7.61431 18.1818C7.79003 17.9688 8.10516 17.9386 8.31818 18.1143L23.2173 30.4046L25.5341 32.3588C26.4564 33.1367 27.8028 33.1449 28.7345 32.3782L31.1375 30.4008L31.139 30.3996L46.1837 18.1128C46.3976 17.9381 46.7126 17.9699 46.8873 18.1837Z" fill="#26366E"/>
</svg>
