<svg width="80" height="70" viewBox="0 0 80 70" fill="none" xmlns="http://www.w3.org/2000/svg">
<g clip-path="url(#clip0)">
<path d="M47.4743 11.6559C36.5167 5.2889 25.7184 5.65781 20.0992 13.4872C5.30622 33.3603 22.8214 47.1854 33.428 51.6138C40.2533 52.9154 41.4099 46.2636 47.9113 48.3253C59.2217 56.4784 70.3629 49.4415 69.1925 38.5846C67.1505 29.4133 63.4952 20.965 47.4743 11.6559Z" fill="#EBF6F8"/>
<path d="M44.4307 54.0314C44.4307 52.7015 43.1602 40.4761 42.0513 31.2625C41.9112 30.0992 40.334 30.1163 40.2048 31.2808L37.6807 54.0314C37.6806 58.1397 44.4307 58.1397 44.4307 54.0314Z" stroke="#5770BE"/>
<path d="M40.0329 33.0772C23.1471 34.1736 19.6295 47.5878 19.6295 54.1602H12.1807C12.1807 44.7114 18.9818 26.8094 40.6807 26.1287C60.7602 25.4988 69.1807 43.4515 69.1807 54.1602C68.1443 54.1602 63.7829 54.1602 61.7318 54.1602C62.0492 47.0601 58.0133 33.8938 42.264 33.0772" stroke="#5770BE"/>
<path d="M42.4307 53.422C42.4307 54.45 41.7403 55.1363 41.0557 55.1363C40.371 55.1363 39.6807 54.45 39.6807 53.422C39.6807 52.3941 40.371 51.7078 41.0557 51.7078C41.7403 51.7078 42.4307 52.3941 42.4307 53.422Z" stroke="#5770BE"/>
</g>
<defs>
<clipPath id="clip0">
<rect width="80" height="70" fill="white"/>
</clipPath>
</defs>
</svg>
