<svg width="51" height="51" viewBox="0 0 51 51" fill="none" xmlns="http://www.w3.org/2000/svg">
<g clip-path="url(#clip0)">
<rect width="51" height="51" fill="white"/>
<path d="M28.6161 10.7322C21.0557 6.33917 13.6052 6.5937 9.72808 11.9957C-0.478667 25.7076 11.6063 35.2465 18.9246 38.302C23.6339 39.2001 24.4318 34.6105 28.9176 36.0331C36.7215 41.6585 44.4086 36.8032 43.6011 29.3123C42.1922 22.9843 39.6701 17.1552 28.6161 10.7322Z" fill="#EBF6F8"/>
<path d="M41 26.0588L36.9175 23.1273M5 26.0588L9.33324 22.8824M9.33324 22.8824L22.2293 13.4289C22.5783 13.1731 23.0523 13.1708 23.4038 13.4232L36.9175 23.1273M9.33324 22.8824V42C9.33324 42.5523 9.78095 43 10.3332 43H17.6186H28.3814H35.9175C36.4698 43 36.9175 42.5523 36.9175 42V23.1273" stroke="#4F6BC7" stroke-linecap="round"/>
<path d="M17.4252 27.2029C17.4505 27.0678 17.4736 26.934 17.4943 26.802L15.4514 26L13 32.4157L15.2471 33.0172C15.3302 32.9628 15.438 32.8232 15.5616 32.6162M17.4252 27.2029L20.9671 27.4034M17.4252 27.2029C17.0359 29.2821 16.1305 31.6634 15.5616 32.6162M20.9671 27.4034C23.4186 26 24.6443 26.2005 26.2786 27.2029L28.3214 27.0025M20.9671 27.4034C20.8037 27.5638 20.7629 28.4059 20.7629 28.8069C20.15 29.0074 19.7414 30.0098 20.15 30.4108C21.3757 30.8118 22.1929 30.2103 22.6014 29.2078C22.8057 29.0074 23.4186 28.8069 23.8271 29.0074C24.154 29.1678 27.5043 32.0147 29.1386 33.4182M28.3214 27.0025L30.3643 26L33.4286 31.8142L30.9771 32.8167C30.8685 32.7634 30.7396 32.6226 30.5973 32.4157M28.3214 27.0025C28.8324 28.6742 29.8832 31.3775 30.5973 32.4157M30.5973 32.4157L29.1386 33.4182M29.1386 33.4182C29.9557 34.4206 28.9343 35.4231 28.3214 34.8216M28.3214 34.8216L24.2357 31.6137M28.3214 34.8216C28.73 35.2226 27.7086 37.027 26.6871 36.0245L26.4588 35.824M22.8057 32.6162L26.4588 35.824M26.4588 35.824C26.8914 36.1891 25.87 37.428 25.2571 36.8265L24.6443 36.3344M23.01 35.0221L24.6443 36.3344M23.01 35.0221C22.6831 34.5409 22.0567 34.5543 21.7843 34.6211M23.01 35.0221C23.01 35.6235 22.6252 36.4656 22.3971 36.626M24.6443 36.3344C24.2357 37.027 23.2143 37.2676 22.3971 36.626M22.3971 36.626C21.7434 37.2676 20.5586 36.8265 20.7629 36.0245M15.5616 32.6162L16.8814 33.4182M16.8814 33.4182C17.0857 33.0172 17.6577 32.2954 18.3114 32.6162C18.5959 32.8023 18.6603 33.0028 18.6068 33.2177M16.8814 33.4182C16.5157 34.3154 17.2957 34.7308 17.9029 34.233M18.6068 33.2177C18.545 33.4658 18.3261 33.7331 18.1071 34.0196C18.0428 34.1038 17.974 34.1747 17.9029 34.233M18.6068 33.2177C19.1286 32.6162 20.3543 33.4182 20.15 33.8191M20.15 33.8191C19.9457 34.0865 19.4963 34.7013 19.3329 35.0221M20.15 33.8191C20.9671 33.2177 21.7843 33.9795 21.7843 34.6211M19.3329 35.0221C18.9243 35.6235 17.29 35.2484 17.9029 34.233M19.3329 35.0221C18.72 35.824 20.3543 36.626 20.7629 36.0245M21.7843 34.6211C21.5119 35.0221 20.9263 35.8641 20.7629 36.0245" stroke="#5770BE"/>
</g>
<defs>
<clipPath id="clip0">
<rect width="51" height="51" fill="white"/>
</clipPath>
</defs>
</svg>
