<svg width="80" height="70" viewBox="0 0 80 70" fill="none" xmlns="http://www.w3.org/2000/svg">
<g clip-path="url(#clip0)">
<path d="M47.4743 11.6559C36.5167 5.2889 25.7184 5.65781 20.0992 13.4872C5.30622 33.3603 22.8214 47.1854 33.428 51.6138C40.2533 52.9154 41.4099 46.2636 47.9113 48.3253C59.2217 56.4784 70.3629 49.4415 69.1925 38.5846C67.1505 29.4133 63.4952 20.965 47.4743 11.6559Z" fill="#EBF6F8"/>
<path d="M63.5104 37.0758L58.0988 33.1898M15.7905 37.0758L21.5345 32.8652M21.5345 32.8652L38.8193 20.1946C39.1683 19.9387 39.6423 19.9364 39.9938 20.1888L58.0988 33.1898M21.5345 32.8652V58.5322C21.5345 59.0844 21.9822 59.5322 22.5345 59.5322H32.5171H46.7838H57.0988C57.6511 59.5322 58.0988 59.0844 58.0988 58.5322V33.1898" stroke="#4F6BC7" stroke-linecap="round"/>
<path d="M32.2606 38.5924C32.2941 38.4133 32.3247 38.2359 32.3522 38.0608L29.6443 36.9978L26.3948 45.5021L29.3735 46.2994C29.4836 46.2274 29.6264 46.0423 29.7903 45.7679M32.2606 38.5924L36.9556 38.8581M32.2606 38.5924C31.7445 41.3484 30.5444 44.505 29.7903 45.7679M36.9556 38.8581C40.2051 36.9978 41.8299 37.2636 43.9962 38.5924L46.7041 38.3266M36.9556 38.8581C36.739 39.0707 36.6848 40.1869 36.6848 40.7184C35.8725 40.9842 35.3309 42.313 35.8725 42.8445C37.4972 43.3761 38.5804 42.5788 39.122 41.25C39.3927 40.9842 40.2051 40.7184 40.7467 40.9842C41.18 41.1968 45.6209 44.9706 47.7873 46.8309M46.7041 38.3266L49.412 36.9978L53.4739 44.7049L50.2244 46.0337C50.0804 45.963 49.9095 45.7764 49.7209 45.5021M46.7041 38.3266C47.3815 40.5426 48.7743 44.1259 49.7209 45.5021M49.7209 45.5021L47.7873 46.8309M47.7873 46.8309C48.8704 48.1597 47.5165 49.4885 46.7041 48.6913M46.7041 48.6913L41.2883 44.4391M46.7041 48.6913C47.2457 49.2228 45.8917 51.6146 44.5378 50.2858L44.2351 50.0201M39.3927 45.7679L44.2351 50.0201M44.2351 50.0201C44.8086 50.504 43.4546 52.1461 42.6422 51.3489L41.8299 50.6965M39.6635 48.957L41.8299 50.6965M39.6635 48.957C39.2303 48.3192 38.3998 48.3369 38.0388 48.4255M39.6635 48.957C39.6635 49.7543 39.1534 50.8705 38.8512 51.0831M41.8299 50.6965C41.2883 51.6146 39.9343 51.9335 38.8512 51.0831M38.8512 51.0831C37.9846 51.9335 36.414 51.3489 36.6848 50.2858M29.7903 45.7679L31.5398 46.8309M31.5398 46.8309C31.8106 46.2994 32.5688 45.3427 33.4353 45.7679C33.8124 46.0146 33.8978 46.2803 33.8269 46.5652M31.5398 46.8309C31.055 48.0203 32.0889 48.5709 32.8938 47.9111M33.8269 46.5652C33.745 46.8941 33.4548 47.2484 33.1646 47.6282C33.0793 47.7398 32.9881 47.8337 32.8938 47.9111M33.8269 46.5652C34.5185 45.7679 36.1433 46.8309 35.8725 47.3625M35.8725 47.3625C35.6017 47.7168 35.0059 48.5318 34.7893 48.957M35.8725 47.3625C36.9556 46.5652 38.0388 47.5751 38.0388 48.4255M34.7893 48.957C34.2477 49.7543 32.0814 49.257 32.8938 47.9111M34.7893 48.957C33.9769 50.0201 36.1433 51.0831 36.6848 50.2858M38.0388 48.4255C37.6777 48.957 36.9015 50.0732 36.6848 50.2858" stroke="#5770BE"/>
</g>
<defs>
<clipPath id="clip0">
<rect width="80" height="70" fill="white"/>
</clipPath>
</defs>
</svg>
