<svg width="56" height="34" viewBox="0 0 56 34" fill="none" xmlns="http://www.w3.org/2000/svg">
<path d="M31.3366 30.1143C31.3366 28.7521 30.1835 16.427 29.1539 6.88421C29.0267 5.70452 27.4282 5.72247 27.31 6.90311L24.9871 30.1143C24.987 34.3986 31.3366 34.3986 31.3366 30.1143Z" stroke="#5770BE"/>
<path d="M27.1998 8.26294C11.3158 9.40629 8.00692 23.3949 8.00692 30.2487H1C1 20.3953 7.39762 1.7267 27.8091 1.01683C46.6973 0.359943 54.6182 19.0815 54.6182 30.2487C53.6433 30.2487 49.5407 30.2487 47.6112 30.2487C47.9098 22.8446 44.1134 9.1145 29.2985 8.26294" stroke="#5770BE"/>
<path d="M29.4256 29.479C29.4256 30.0168 29.2585 30.4851 29.0116 30.8083C28.7651 31.1311 28.4601 31.2881 28.1618 31.2881C27.8635 31.2881 27.5585 31.1311 27.312 30.8083C27.0651 30.4851 26.8981 30.0168 26.8981 29.479C26.8981 28.9413 27.0651 28.473 27.312 28.1497C27.5585 27.827 27.8635 27.6699 28.1618 27.6699C28.4601 27.6699 28.7651 27.827 29.0116 28.1497C29.2585 28.473 29.4256 28.9413 29.4256 29.479Z" stroke="#5770BE"/>
</svg>
