<svg width="45" height="42" viewBox="0 0 45 42" fill="none" xmlns="http://www.w3.org/2000/svg">
<path fill-rule="evenodd" clip-rule="evenodd" d="M22.8566 3.6226C24.018 1.67296 25.9852 0.403809 28.8669 0.403809C31.8701 0.403809 33.8874 1.66559 35.0532 3.6226C36.2014 5.55012 36.4775 8.07423 36.1753 10.5354C35.8725 13.002 34.9819 15.4727 33.7177 17.3386C32.4608 19.1936 30.7737 20.5321 28.8669 20.5321C26.8858 20.5321 25.1908 19.1986 23.9549 17.3343C23.6829 16.9242 23.4307 16.485 23.2 16.0233C23.1057 14.1925 23.7372 12.377 23.0011 10.4241C23.0011 9.14937 22.165 8.06418 21.7442 6.74953C21.9424 5.61708 22.304 4.55026 22.8566 3.6226ZM24.7183 16.7376C25.8575 18.4559 27.3033 19.5107 28.8669 19.5107C30.3487 19.5107 31.7895 18.4608 32.9599 16.7333C34.1231 15.0166 34.9593 12.7107 35.2429 10.4005C35.5272 8.08495 35.2493 5.83233 34.2634 4.17731C33.2951 2.55178 31.5981 1.42519 28.8669 1.42519C26.275 1.42519 24.6192 2.5444 23.6465 4.17731C23.063 5.15688 22.7123 6.34411 22.5706 7.62811C22.8566 8.06418 23.6958 9.47413 23.7917 10.4241C24.0463 11.639 24.0463 13.6818 23.6465 14.7027C23.9525 15.4386 24.3127 16.1258 24.7183 16.7376ZM24.8825 21.3348L25.0434 21.525C25.9805 22.633 27.4087 23.2088 28.8673 23.2088C30.3258 23.2088 31.754 22.633 32.6912 21.525L32.8309 21.3598H33.0376C37.3256 21.3598 40.3447 22.952 42.2746 25.7228C44.1866 28.468 44.9762 32.2949 44.9762 36.6629V37.1736H32.5124C32.5124 37.1736 32.042 37.1736 31.5717 37.1736C31.5717 33.0881 28.8527 28.3312 26.8683 27.9812C26.2818 26.8249 24.2269 25.9742 21.2243 26.2034C20.7714 26.238 19.8257 27.3946 19.343 27.4705C16.692 27.8868 14.2895 27.6842 13.699 27.4705C13.699 26.2034 14.1518 27.116 14.329 26.7828C14.4343 26.5849 14.5464 26.3917 14.6658 26.2034C15.0521 25.5944 15.5102 25.0425 16.0506 24.5459C16.7068 23.943 17.5705 23.6454 18.4884 23.203C19.2616 22.8305 20.0483 22.2903 21.0318 22.028C22.1008 21.7428 23.3007 21.5218 24.6461 21.3628L24.8825 21.3348ZM33.2372 22.3824C32.094 23.627 30.4667 24.2302 28.8673 24.2302C27.278 24.2302 25.6612 23.6347 24.5191 22.406C23.0152 22.5943 21.725 22.8611 20.6171 23.203C19.9767 23.4007 19.3973 23.6235 18.8727 23.8707C18.5175 24.0381 18.1875 24.2167 17.8807 24.4063C16.8111 25.0675 16.0243 25.8625 15.4405 26.7828C15.3714 26.8918 15.3049 27.0029 15.2409 27.116C15.8271 27.7086 17.4616 27.9812 19.8133 26.4491C20.932 26.2999 22.2915 25.817 23.1056 25.9384C24.8825 26.2034 26.8683 26.4491 28.8669 28.4918L32.5124 36.1522H44.0318C43.9717 32.1167 43.1914 28.7324 41.5243 26.3389C39.8336 23.9115 37.1796 22.4306 33.2372 22.3824Z" fill="#5770BE"/>
<path fill-rule="evenodd" clip-rule="evenodd" d="M10.6278 7.70805C11.7892 5.75841 13.7564 4.48926 16.6381 4.48926C19.6413 4.48926 21.6587 5.75104 22.8244 7.70805C23.9727 9.63557 24.2487 12.1597 23.9465 14.6209C23.6437 17.0874 22.7531 19.5582 21.4889 21.424C20.232 23.2791 18.5449 24.6175 16.6381 24.6175C14.657 24.6175 12.9621 23.284 11.7261 21.4198C10.486 19.5494 9.65574 17.0752 9.40677 14.6091C9.15824 12.1473 9.48341 9.62924 10.6278 7.70805ZM12.4895 20.823C13.6287 22.5413 15.0745 23.5962 16.6381 23.5962C18.1199 23.5962 19.5607 22.5463 20.7311 20.8188C21.8943 19.1021 22.7305 16.7961 23.0141 14.4859C23.2984 12.1704 23.0205 9.91778 22.0346 8.26276C21.0663 6.63723 19.3693 5.51064 16.6381 5.51064C14.0462 5.51064 12.3904 6.62985 11.4177 8.26276C10.428 9.92411 10.1081 12.1828 10.3418 14.4978C10.5751 16.8083 11.3544 19.1109 12.4895 20.823ZM12.6537 25.4203L12.8146 25.6105C13.7517 26.7185 15.18 27.2943 16.6385 27.2943C18.097 27.2943 19.5253 26.7185 20.4624 25.6105L20.6021 25.4452H20.8088C25.0968 25.4452 28.1159 27.0374 30.0458 29.8082C31.9578 32.5534 32.7474 36.3803 32.7474 40.7484V41.2591H0.529541V40.7484C0.529541 36.4484 0.779649 32.9017 2.43703 30.2889C4.11691 27.6406 7.15452 26.0705 12.4173 25.4482L12.6537 25.4203ZM21.0085 26.4678C19.8652 27.7125 18.2379 28.3157 16.6385 28.3157C15.0492 28.3157 13.4324 27.7201 12.2903 26.4914C7.27618 27.1192 4.63804 28.6197 3.21173 30.8682C1.79979 33.0941 1.49365 36.164 1.47155 40.2377H31.803C31.7429 36.2021 30.9626 32.8179 29.2955 30.4243C27.6048 27.9969 24.9508 26.5161 21.0085 26.4678Z" fill="#5770BE"/>
</svg>
