<svg width="80" height="70" viewBox="0 0 80 70" fill="none" xmlns="http://www.w3.org/2000/svg">
<path d="M46.4743 14.6559C35.5167 8.2889 24.7184 8.65781 19.0992 16.4872C4.30622 36.3603 21.8214 50.1854 32.428 54.6138C39.2533 55.9154 40.4099 49.2636 46.9113 51.3253C58.2217 59.4784 69.3629 52.4415 68.1925 41.5846C66.1505 32.4133 62.4952 23.965 46.4743 14.6559Z" fill="#EBF6F8"/>
<path fill-rule="evenodd" clip-rule="evenodd" d="M39.0905 23.4556C40.3158 21.5468 42.3914 20.3042 45.4319 20.3042C48.6005 20.3042 50.7289 21.5396 51.9589 23.4556C53.1704 25.3428 53.4616 27.814 53.1428 30.2237C52.8233 32.6386 51.8836 35.0576 50.5498 36.8844C49.2237 38.7007 47.4437 40.0111 45.4319 40.0111C43.3417 40.0111 41.5533 38.7055 40.2493 36.8803C39.9624 36.4787 39.6963 36.0487 39.4529 35.5967C39.3533 33.8042 40.0196 32.0267 39.243 30.1147C39.243 28.8667 38.3608 27.8042 37.9169 26.5171C38.126 25.4083 38.5075 24.3638 39.0905 23.4556ZM41.0547 36.296C42.2567 37.9783 43.7821 39.0111 45.4319 39.0111C46.9953 39.0111 48.5154 37.9832 49.7503 36.2918C50.9775 34.6111 51.8598 32.3534 52.159 30.0916C52.459 27.8245 52.1658 25.6191 51.1256 23.9987C50.1039 22.4072 48.3135 21.3042 45.4319 21.3042C42.6972 21.3042 40.9501 22.4 39.9239 23.9987C39.3082 24.9578 38.9382 26.1201 38.7888 27.3773C39.0905 27.8042 39.9759 29.1846 40.0771 30.1147C40.3458 31.3042 40.3458 33.3042 39.9239 34.3037C40.2468 35.0243 40.6268 35.697 41.0547 36.296ZM41.228 40.797L41.3978 40.9832C42.3865 42.0681 43.8934 42.6318 45.4323 42.6318C46.9711 42.6318 48.478 42.0681 49.4668 40.9832L49.6142 40.8214H49.8323C54.3564 40.8214 57.5418 42.3803 59.5781 45.0931C61.5954 47.7808 62.4285 51.5276 62.4285 55.8042V56.3042H49.2781C49.2781 56.3042 48.7818 56.3042 48.2856 56.3042C48.2856 52.3042 45.4169 47.6469 43.3232 47.3042C42.7044 46.1721 40.5363 45.3393 37.3683 45.5637C36.8905 45.5975 35.8927 46.73 35.3834 46.8042C32.5864 47.2119 30.0515 47.0135 29.4285 46.8042C29.4285 45.5637 29.9063 46.4571 30.0932 46.1309C30.2042 45.9371 30.3226 45.748 30.4486 45.5637C30.8561 44.9674 31.3395 44.427 31.9097 43.9409C32.602 43.3506 33.5132 43.0592 34.4817 42.6261C35.2975 42.2613 36.1275 41.7325 37.1652 41.4756C38.2931 41.1965 39.5591 40.9801 40.9785 40.8244L41.228 40.797ZM50.0429 41.8226C48.8367 43.0412 47.1198 43.6318 45.4323 43.6318C43.7554 43.6318 42.0496 43.0487 40.8446 41.8458C39.2578 42.0301 37.8966 42.2913 36.7277 42.6261C36.052 42.8197 35.4406 43.0378 34.8871 43.2798C34.5124 43.4437 34.1642 43.6186 33.8406 43.8042C32.712 44.4515 31.8819 45.2299 31.2659 46.1309C31.193 46.2377 31.1228 46.3464 31.0553 46.4571C31.6738 47.0373 33.3984 47.3042 35.8796 45.8042C37.0599 45.6581 38.4943 45.1853 39.3533 45.3042C41.228 45.5637 43.3232 45.8042 45.4319 47.8042L49.2781 55.3042H61.432C61.3687 51.3532 60.5454 48.0397 58.7865 45.6963C57.0026 43.3197 54.2024 41.8699 50.0429 41.8226Z" fill="#5770BE"/>
<path fill-rule="evenodd" clip-rule="evenodd" d="M26.1882 27.4556C27.4135 25.5468 29.4891 24.3042 32.5296 24.3042C35.6982 24.3042 37.8266 25.5396 39.0566 27.4556C40.2681 29.3428 40.5593 31.814 40.2405 34.2237C39.921 36.6386 38.9813 39.0576 37.6475 40.8844C36.3214 42.7007 34.5414 44.0111 32.5296 44.0111C30.4394 44.0111 28.651 42.7055 27.3469 40.8803C26.0386 39.049 25.1626 36.6267 24.8999 34.2121C24.6377 31.8019 24.9807 29.3366 26.1882 27.4556ZM28.1524 40.296C29.3544 41.9783 30.8798 43.0111 32.5296 43.0111C34.093 43.0111 35.6131 41.9832 36.848 40.2918C38.0752 38.6111 38.9575 36.3534 39.2567 34.0916C39.5566 31.8245 39.2634 29.6191 38.2233 27.9987C37.2016 26.4072 35.4112 25.3042 32.5296 25.3042C29.7949 25.3042 28.0478 26.4 27.0216 27.9987C25.9774 29.6253 25.6399 31.8367 25.8865 34.1032C26.1326 36.3654 26.9548 38.6197 28.1524 40.296ZM28.3257 44.797L28.4954 44.9832C29.4842 46.0681 30.9911 46.6318 32.5299 46.6318C34.0688 46.6318 35.5757 46.0681 36.5644 44.9832L36.7119 44.8214H36.9299C41.4541 44.8214 44.6395 46.3803 46.6757 49.0931C48.6931 51.7808 49.5262 55.5276 49.5262 59.8042V60.3042H15.5337V59.8042C15.5337 55.5943 15.7976 52.1218 17.5462 49.5637C19.3187 46.9708 22.5236 45.4336 28.0762 44.8244L28.3257 44.797ZM37.1406 45.8226C35.9344 47.0412 34.2175 47.6318 32.5299 47.6318C30.8531 47.6318 29.1473 47.0487 27.9423 45.8458C22.6519 46.4604 19.8685 47.9294 18.3636 50.1309C16.8739 52.3102 16.5509 55.3158 16.5276 59.3042H48.5297C48.4663 55.3532 47.6431 52.0397 45.8841 49.6963C44.1003 47.3197 41.3001 45.8699 37.1406 45.8226Z" fill="#5770BE"/>
</svg>
